<?xml version="1.0" encoding="UTF-8" standalone="no"?>
<!DOCTYPE svg PUBLIC "-//W3C//DTD SVG 1.1//EN"
"http://www.w3.org/Graphics/SVG/1.1/DTD/svg11.dtd">
<svg viewBox="0 0 1371 5000" version="1.1" xmlns="http://www.w3.org/2000/svg" xmlns:xlink="http://www.w3.org/1999/xlink">
<defs>
<clipPath id="c0_4"><path d="M-.1 5001.2V-.1h1372V5001.2Z"/></clipPath>
<clipPath id="c1_4"><path d="M-.1 596.5V-.1h1372V596.5Z"/></clipPath>
<clipPath id="c2_4"><path d="M139.1 596.2V3.5H1201.2V596.2Z"/></clipPath>
<clipPath id="c3_4"><path d="M619.3 329.2V292.4h80.5v36.8Z"/></clipPath>
<clipPath id="c4_4"><path d="M-.1 718.8V596.1h1372V718.8Z"/></clipPath>
<clipPath id="c5_4"><path d="M335.7 1998.2V1357.3h697.2l.1 65.4l.1 575.5H335.7Z"/></clipPath>
<clipPath id="c6_4"><path d="M335.7 1357.7v-56.8h697.2l.1 25.8l.1 31H335.7Z"/></clipPath>
<clipPath id="c7_4"><path d="M1006.5 1998.2V1357.3h26.6v640.9ZM892.2 1344.9v-31.1h31.1v31.1Zm45.4 0v-31.1h31.2v31.1Zm45.7 0v-31.1h31.1v31.1Z"/></clipPath>
<clipPath id="c8_4"><path d="M1006.5 1727.4v-247h26.6v247Z"/></clipPath>
<clipPath id="c9_4"><path d="M1031.3 1996.5V1728.6h-23.2v267.9Zm0 -270.8V1482.2h-23.2v243.5Zm-26.2 270.8V1358.9H337.5v637.6Zm26.2 -517.3V1358.9h-23.2v120.3ZM898.4 1338.4c-.9 0 -1.4 -.7 -1.4 -1.4c0 -.8 .7 -1.4 1.4 -1.4h18.9c.8 0 1.4 .7 1.4 1.4c0 .9 -.7 1.4 -1.4 1.4Zm62 -2.9v-8.8H946.2v8.8Zm-15.6 2.9c-.7 0 -1.4 -.7 -1.4 -1.4v-15.3c0 -.7 .6 -1.4 1.4 -1.4h17c.7 0 1.4 .5 1.4 1.4V1337c0 .7 -.6 1.4 -1.4 1.4Zm46.4 .2c-.3 0 -.7 -.2 -1 -.3c-.6 -.6 -.6 -1.5 -.2 -2.1l6.8 -6.7l-6.8 -6.7c-.5 -.6 -.5 -1.6 0 -2.1c.3 -.3 .6 -.4 1 -.4c.4 0 .9 .1 1 .4l6.7 6.7l6.7 -6.7c.3 -.3 .6 -.4 1 -.4c.4 0 .8 .1 1 .4c.3 .3 .4 .7 .4 1.2c0 .5 -.1 .7 -.4 .9l-6.6 6.6l6.7 6.7c.6 .5 .6 1.5 0 2.1c-.3 .2 -.7 .2 -1 .2c-.2 0 -.7 -.1 -.9 -.2l-6.7 -6.8l-6.8 6.8c-.4 .4 -.7 .4 -.9 .4Zm-69.5 4.6v-27.8H893.9v27.8Zm45.5 0v-27.8H939.4v27.8Zm45.6 0v-27.8H985v27.8Zm-120.4 2.9c-.7 0 -1.4 -.5 -1.4 -1.4V1314c0 -.7 .5 -1.4 1.4 -1.4h30.7c.6 0 1 .1 1.2 .4c.2 .3 .2 .5 .2 1v30.6c0 .7 -.5 1.4 -1.4 1.4H892.4v.1Zm45.6 0c-.7 0 -1.4 -.5 -1.4 -1.4V1314c0 -.7 .5 -1.4 1.4 -1.4h30.8c.5 0 .9 .1 1.1 .4c.3 .3 .3 .5 .3 1v30.6c0 .7 -.6 1.4 -1.4 1.4H938v.1Zm45.5 0c-.7 0 -1.4 -.5 -1.4 -1.4V1314c0 -.9 .7 -1.4 1.4 -1.4h30.7c.7 0 1.4 .5 1.4 1.4v30.7c0 .7 -.5 1.4 -1.4 1.4Zm48 10v-53.5h-694v53.5ZM335.9 1999.4c-.7 0 -1.4 -.6 -1.4 -1.4V1301.1c0 -.7 .7 -1.4 1.4 -1.4h697c.4 0 .8 .1 .9 .5c.3 .3 .3 .6 .3 1V1998c0 .7 -.5 1.4 -1.4 1.4Z"/></clipPath>
<clipPath id="ca_4"><path d="M335.7 2855.8V2214.9h697.2l.1 65.4l.1 575.5H335.7Z"/></clipPath>
<clipPath id="cb_4"><path d="M335.7 2215.3v-56.8h697.2l.1 25.8l.1 31H335.7Z"/></clipPath>
<clipPath id="cc_4"><path d="M1006.5 2855.8V2214.9h26.6v640.9ZM892.2 2202.5v-31.1h31.1v31.1Zm45.4 0v-31.1h31.2v31.1Zm45.7 0v-31.1h31.1v31.1Z"/></clipPath>
<clipPath id="cd_4"><path d="M1006.5 2585V2338h26.6v247Z"/></clipPath>
<clipPath id="ce_4"><path d="M1031.3 2854V2586.2h-23.2V2854Zm0 -270.7V2339.8h-23.2v243.5ZM1005.1 2854V2216.5H337.5V2854Zm26.2 -517.2V2216.5h-23.2v120.3ZM898.4 2196c-.9 0 -1.4 -.7 -1.4 -1.4c0 -.8 .7 -1.4 1.4 -1.4h18.9c.8 0 1.4 .7 1.4 1.4c0 .9 -.7 1.4 -1.4 1.4Zm62 -2.9v-8.8H946.2v8.8Zm-15.6 2.9c-.7 0 -1.4 -.7 -1.4 -1.4v-15.4c0 -.7 .6 -1.4 1.4 -1.4h17c.7 0 1.4 .6 1.4 1.4v15.4c0 .7 -.6 1.4 -1.4 1.4Zm46.4 .2c-.3 0 -.7 -.2 -1 -.3c-.6 -.6 -.6 -1.5 -.2 -2.1l6.8 -6.7l-6.8 -6.7c-.5 -.6 -.5 -1.6 0 -2.1c.3 -.3 .6 -.5 1 -.5c.4 0 .9 .2 1 .5l6.7 6.7l6.7 -6.7c.3 -.3 .6 -.5 1 -.5c.4 0 .8 .2 1 .5c.3 .2 .4 .7 .4 1.2c0 .4 -.1 .7 -.4 .9l-6.6 6.5l6.7 6.8c.6 .5 .6 1.5 0 2.1c-.3 .2 -.7 .2 -1 .2c-.2 0 -.7 -.1 -.9 -.2l-6.7 -6.8l-6.8 6.8c-.4 .4 -.7 .4 -.9 .4Zm-69.5 4.6V2173H893.9v27.8Zm45.5 0V2173H939.4v27.8Zm45.6 0V2173H985v27.8Zm-120.4 2.9c-.7 0 -1.4 -.5 -1.4 -1.4v-30.7c0 -.7 .5 -1.4 1.4 -1.4h30.7c.6 0 1 .1 1.2 .4c.2 .3 .2 .5 .2 1v30.6c0 .7 -.5 1.4 -1.4 1.4H892.4v.1Zm45.6 0c-.7 0 -1.4 -.5 -1.4 -1.4v-30.7c0 -.7 .5 -1.4 1.4 -1.4h30.8c.5 0 .9 .1 1.1 .4c.3 .3 .3 .5 .3 1v30.6c0 .7 -.6 1.4 -1.4 1.4H938v.1Zm45.5 0c-.7 0 -1.4 -.5 -1.4 -1.4v-30.7c0 -.9 .7 -1.4 1.4 -1.4h30.7c.7 0 1.4 .5 1.4 1.4v30.7c0 .7 -.5 1.4 -1.4 1.4Zm48 10v-53.5h-694v53.5ZM335.9 2857c-.7 0 -1.4 -.6 -1.4 -1.4V2158.7c0 -.7 .7 -1.4 1.4 -1.4h697c.4 0 .8 .1 .9 .5c.3 .3 .3 .6 .3 1v696.8c0 .7 -.5 1.4 -1.4 1.4Z"/></clipPath>
<clipPath id="cf_4"><path d="M335.7 3713.4V3072.5h697.2l.1 65.4l.1 575.5H335.7Z"/></clipPath>
<clipPath id="cg_4"><path d="M335.7 3072.9v-56.8h697.2l.1 25.8l.1 31H335.7Z"/></clipPath>
<clipPath id="ch_4"><path d="M1006.5 3713.4V3072.5h26.6v640.9ZM892.2 3060.1v-31.2h31.1v31.2Zm45.4 0v-31.2h31.2v31.2Zm45.7 0v-31.2h31.1v31.2Z"/></clipPath>
<clipPath id="ci_4"><path d="M1006.5 3442.6v-247h26.6v247Z"/></clipPath>
<clipPath id="cj_4"><path d="M1031.3 3711.6V3443.8h-23.2v267.8Zm0 -270.7V3197.4h-23.2v243.5Zm-26.2 270.7V3074.1H337.5v637.5Zm26.2 -517.2V3074.1h-23.2v120.3ZM898.4 3053.6c-.9 0 -1.4 -.7 -1.4 -1.4c0 -.8 .7 -1.4 1.4 -1.4h18.9c.8 0 1.4 .7 1.4 1.4c0 .9 -.7 1.4 -1.4 1.4Zm62 -2.9v-8.8H946.2v8.8Zm-15.6 2.9c-.7 0 -1.4 -.7 -1.4 -1.4v-15.4c0 -.7 .6 -1.4 1.4 -1.4h17c.7 0 1.4 .6 1.4 1.4v15.4c0 .7 -.6 1.4 -1.4 1.4Zm46.4 .2c-.3 0 -.7 -.2 -1 -.3c-.6 -.6 -.6 -1.5 -.2 -2.1l6.8 -6.7L990 3038c-.5 -.6 -.5 -1.6 0 -2.1c.3 -.3 .6 -.5 1 -.5c.4 0 .9 .2 1 .5l6.7 6.7l6.7 -6.7c.3 -.3 .6 -.5 1 -.5c.4 0 .8 .2 1 .5c.3 .2 .4 .7 .4 1.2c0 .4 -.1 .7 -.4 .9l-6.6 6.5l6.7 6.8c.6 .5 .6 1.5 0 2.1c-.3 .2 -.7 .2 -1 .2c-.2 0 -.7 -.1 -.9 -.2l-6.7 -6.8l-6.8 6.8c-.4 .4 -.7 .4 -.9 .4Zm-69.5 4.6v-27.9H893.9v27.9Zm45.5 0v-27.9H939.4v27.9Zm45.6 0v-27.9H985v27.9Zm-120.4 2.9c-.7 0 -1.4 -.5 -1.4 -1.4v-30.8c0 -.7 .5 -1.4 1.4 -1.4h30.7c.6 0 1 .2 1.2 .5c.2 .2 .2 .5 .2 .9v30.7c0 .7 -.5 1.4 -1.4 1.4H892.4v.1Zm45.6 0c-.7 0 -1.4 -.5 -1.4 -1.4v-30.8c0 -.7 .5 -1.4 1.4 -1.4h30.8c.5 0 .9 .2 1.1 .5c.3 .2 .3 .5 .3 .9v30.7c0 .7 -.6 1.4 -1.4 1.4H938v.1Zm45.5 0c-.7 0 -1.4 -.5 -1.4 -1.4v-30.8c0 -.8 .7 -1.4 1.4 -1.4h30.7c.7 0 1.4 .6 1.4 1.4v30.8c0 .7 -.5 1.4 -1.4 1.4Zm48 10v-53.5h-694v53.5ZM335.9 3714.6c-.7 0 -1.4 -.6 -1.4 -1.4V3016.3c0 -.7 .7 -1.4 1.4 -1.4h697c.4 0 .8 .1 .9 .5c.3 .3 .3 .6 .3 1v696.8c0 .7 -.5 1.4 -1.4 1.4Z"/></clipPath>
<style type="text/css"><![CDATA[
.g0_4{
fill: #FFF;
}
.g1_4{
fill: #000;
}
.g2_4{
fill: #303B3E;
}
.g3_4{
fill: #FF914D;
}
.g4_4{
fill: none;
stroke: #FF914D;
stroke-width: 3.572;
stroke-miterlimit: 10;
}
]]></style>
</defs>
<g clip-path="url(#c0_4)">
<path d="M0 0H1371.7V5001H0V0Z" class="g0_4"/>
<path d="M0 0H1371.7V5001H0V0Z" class="g0_4"/>
</g>
<path clip-path="url(#c1_4)" d="M-40.9 0h1416V596.3H-40.9V0Z" class="g1_4"/>
<image clip-path="url(#c2_4)" preserveAspectRatio="none" x="139" y="-111" width="1062" height="849" xlink:href="img/1.jpg"/>
<path d="M691.4 326.1c.4 -.7 .3 -1.3 1.5 -2c.6 -.4 1.1 -.6 1.7 -1.5c.7 -1.1 .9 -1.4 1.8 -1.7c.8 -.4 .3 -.2 -.3 .4c-.3 .4 -.3 .1 -1.1 1.5c-1 1.5 -1.9 1.3 -2.8 2.4c0 0 -.7 .8 -.8 .9Z" class="g2_4"/>
<path d="M688.4 327.7c.5 -1 1 -1 1.6 -1.5c.9 -.6 1 -1.4 1.7 -2.1c.6 -.7 1.4 -.8 2 -1.5c.6 -.7 .6 -1.2 1.3 -1.9c.9 -.7 1.4 -.6 2.1 -1.5c.3 -.5 .4 -1 1.3 -1.5c-.8 1 -.6 1.9 -2.3 2.8c-2 1.2 -1.2 2 -3.1 3.1c-1.9 1.1 -1.3 1.7 -2.5 2.8c-.5 .4 -1.6 .9 -2.1 1.3Z" class="g2_4"/>
<path d="M687.3 328.2c.4 -1 .2 -.9 .6 -1.4c.4 -.5 1 -.7 1.4 -1c.7 -.4 .9 -.8 1.3 -1.5c1 -1.7 2 -1.2 3 -2.8c.3 -.5 .5 -1.1 1.3 -1.6c.6 -.4 1.1 -.5 1.6 -1.2c.6 -.8 .7 -1.5 1.8 -2c.8 -.3 .5 -.2 .1 .2c-.8 .7 -1.1 1.2 -1.3 1.5c-.8 1.5 -1.6 1.4 -2.3 2.1c-.6 .6 -.7 1.1 -1.2 1.7c-.6 .7 -1.2 .9 -1.7 1.3c-.7 .4 -.9 1 -1.2 1.5c-.9 1.4 -1.8 1.2 -2.6 2.2c-1.3 1.5 -.6 .7 -.8 1Z" class="g2_4"/>
<path d="M685.8 328.6c.7 -.7 1 -1.7 1.7 -2.5c.7 -.6 1.3 -.7 1.9 -1.4c.6 -.6 .7 -1.2 1.5 -1.9c.6 -.5 1.2 -.6 1.8 -1.4c.5 -.6 .6 -1.3 1.5 -1.9c.6 -.5 1.3 -.6 1.8 -1.4c.4 -.6 .6 -1.3 1.6 -1.9c.8 -.6 .9 -.4 1.5 -.9c-.2 .4 -.6 .8 -.8 .9c-2.3 1.3 -1 1.9 -3.4 3.3c-.9 .5 -1.1 .9 -1.5 1.7c-.6 1 -1.1 1.2 -1.8 1.6c-.9 .5 -1.1 1.1 -1.5 1.7c-.6 1 -1.3 1.2 -1.9 1.6c-1.4 .9 -.8 1.8 -2.4 2.5Z" class="g2_4"/>
<path d="M683.9 328.9c1 -1.3 1.3 -.5 2.4 -2.4c.6 -1 1 -1.2 1.9 -1.7c.9 -.6 1 -1.1 1.5 -1.7c.7 -1.2 1.5 -1.2 2.1 -1.8c.8 -.7 .8 -1.5 1.7 -2.2c.7 -.6 1.5 -.7 2.1 -1.7c.3 -.5 .6 -1.2 1.4 -1.7c.6 -.4 1.1 -.5 1.7 -1.3c.2 -.2 .7 -.8 .8 -1c-.4 .8 -.3 1.4 -1.7 2.3c-2.3 1.3 -1 1.9 -3.5 3.3c-1.1 .7 -1.2 1.3 -1.7 2c-.7 1 -1.5 1.1 -2.2 1.8c-.7 .7 -.7 1.4 -1.7 2.2c-.6 .3 -1.2 .5 -1.7 1.2c-.6 .8 -.7 1.7 -2.4 2.4c-.3 .1 -.5 .2 -.7 .3Z" class="g2_4"/>
<g clip-path="url(#c3_4)">
<path d="M682.9 329c.6 -1.4 1.3 -1.1 2.2 -2c.7 -.7 .7 -1.3 1.6 -2.1c.5 -.5 1.1 -.6 1.5 -1.1c.8 -.7 .8 -1.5 1.9 -2.3c.6 -.4 1.2 -.6 1.7 -1.3c.6 -.9 .5 -1.3 2.1 -2.2c1.6 -.9 1.2 -1.9 2.5 -2.8c.6 -.4 1.2 -.5 1.7 -1.3c.5 -.6 .5 -1.1 1.5 -1.7c-.4 .4 -.4 .6 -.8 1.3c-1.1 1.9 -1.8 1.4 -2.7 2.5c-.4 .5 -.5 1 -1.1 1.6c-.5 .6 -1 .7 -1.5 1.1c-1.1 .7 -1 1.5 -1.9 2.3c-.6 .6 -1.2 .7 -1.8 1.3c-.6 .6 -.7 1.4 -1.6 2.1c-.6 .4 -1.1 .5 -1.5 1c-.8 .8 -.8 1.6 -2 2.4c-.3 .1 -1.3 .7 -1.8 1.2Z" class="g2_4"/>
<path d="M682 329.1c.4 -.8 .4 -1.3 1.5 -1.9c.6 -.4 .9 -.5 1.3 -1.1c.5 -.6 .7 -1.2 1.4 -1.8c.7 -.5 1.2 -.6 1.8 -1.4c.4 -.5 .5 -.9 1.1 -1.5c.7 -.7 1.1 -.7 1.7 -1.2c.9 -.8 .8 -1.7 2.1 -2.5c.4 -.2 .8 -.4 1.2 -.8c.5 -.5 .6 -.9 .9 -1.3c.8 -1.2 1.7 -1.1 2.5 -2.1c.9 -1.1 .6 -1.6 2.2 -2.2c-1.2 1 -1.4 1.7 -1.9 2.4c-.9 1.1 -1.7 .9 -2.5 2.1c-.2 .4 -.4 .9 -.9 1.3c-.4 .5 -.9 .7 -1.3 1c-1.2 .7 -1.1 1.5 -2 2.4c-.6 .5 -1.1 .6 -1.8 1.2c-.5 .5 -.6 .9 -1 1.5c-.6 .8 -1.2 .9 -1.9 1.4c-.6 .5 -.8 1.1 -1.2 1.7c-.5 .7 -.9 .9 -1.5 1.2c-.6 .4 -1 .8 -1.7 1.6Z" class="g2_4"/>
<path d="M681.1 329.1c.5 -.7 .4 -1.3 1.3 -2.1c.8 -.6 1.4 -.6 2 -1.6c.3 -.4 .6 -1.1 1.2 -1.6c.5 -.4 .7 -.4 1.2 -.7c1.1 -.8 1 -1.7 2 -2.5c.6 -.5 1.3 -.6 1.7 -1.2c.5 -.6 .7 -1.3 1.4 -1.9c.4 -.3 .8 -.5 1.3 -.8c.8 -.6 .9 -1.2 1.4 -1.9c.9 -1.1 1.7 -.9 2.5 -2c.4 -.6 .5 -1.2 1.5 -1.9c.1 -.1 .7 -.2 1 -.4c0 0 -.8 .7 -.8 .7c-.9 .6 -1 1.2 -1.4 1.8c-.8 1.2 -1.7 1.1 -2.5 2c-.4 .6 -.5 1.1 -1.2 1.8c-.5 .4 -.9 .5 -1.4 .9c-.7 .5 -.8 1 -1.2 1.6c-1 1.5 -1.8 .8 -3 2.8c-.6 1.1 -1.1 1.3 -1.8 1.7c-1 .6 -1.2 1.3 -1.6 1.9c-.7 1 -1.3 1 -2 1.6c-.7 .5 -.8 1.1 -1.6 1.8Z" class="g2_4"/>
<path d="M680.1 329c.7 -.7 .8 -1.6 1.7 -2.4c.5 -.4 .7 -.5 1.2 -.8c.9 -.6 1 -1.3 1.6 -2c.7 -.9 1.4 -.9 2.1 -1.6c.7 -.7 .7 -1.6 1.9 -2.4c.6 -.3 .9 -.4 1.4 -.9c.5 -.6 .5 -.9 1 -1.5c.7 -.9 1.3 -.9 2.1 -1.6c.7 -.8 .7 -1.6 1.9 -2.3c.9 -.6 1.2 -.6 1.9 -1.7c1 -1.8 1.7 -1.5 2.7 -2.3c-.9 1.4 -1.4 .7 -2.4 2.5c-.6 1.1 -.9 1.2 -2 1.8c-1.1 .7 -1.1 1.5 -1.9 2.3c-.8 .9 -1.5 .7 -2.3 1.9c-.3 .5 -.4 .8 -.9 1.3c-.6 .6 -1 .7 -1.6 1.1c-1 .9 -.8 1.6 -1.9 2.4c-.9 .6 -1.3 .5 -2.2 2c-.9 1.5 -1.6 1.3 -2.5 2.2c-.8 .8 -.6 1.4 -1.8 2Z" class="g2_4"/>
</g>
<path d="M678.9 328.9q.5 -.4 .7 -.7c.1 -.1 .3 -.3 .5 -.6c.4 -.5 .5 -.9 1.1 -1.5c.6 -.5 1 -.6 1.5 -1c.8 -.7 .8 -1.2 1.4 -1.9c.5 -.6 1 -.8 1.5 -1.1c.8 -.5 1 -1.1 1.4 -1.7c.7 -1.1 1.5 -1.2 2.2 -1.8c.7 -.6 .7 -1.2 1.5 -2c.7 -.7 1.4 -.8 2 -1.5c.7 -.7 .5 -1.4 2.1 -2.4c1.7 -.9 1.3 -1.5 2.4 -2.6c.7 -.6 1.6 -.9 2.3 -1.6c-.5 1.1 -.9 1.1 -1.6 1.6c-1.2 .7 -1.1 1.6 -2.1 2.4c-.7 .7 -1.4 .7 -2.1 1.7c-.2 .3 -.4 .8 -.7 1.2c-.7 .8 -1.4 .9 -2.1 1.5c-.7 .8 -.7 1.4 -1.5 2c-.6 .6 -1.3 .7 -1.8 1.4c-.5 .6 -.7 1.2 -1.4 1.8c-.5 .5 -1 .6 -1.5 1.1c-.7 .6 -.8 1.1 -1.4 1.8c-.5 .6 -1 .8 -1.5 1.1c-.8 .5 -1 1.2 -1.4 1.7c-.4 .7 -.7 .8 -1.5 1.1Z" class="g2_4"/>
<path d="M690.9 315.7c.2 -.2 .6 -.4 .7 -.6c.1 0 .1 -.1 .1 -.1c.9 -.7 .9 -1.4 1.6 -2.1c.8 -.8 1.6 -.7 2.3 -1.9c.3 -.4 .4 -.7 .8 -1.2c1 -1 1.1 -.3 2.9 -2.4c-.4 .9 -.3 1 -.7 1.3c-.7 .7 -1.4 .7 -2.1 1.6c-.5 .7 -.6 1.4 -1.7 2.1c-.4 .2 -.8 .4 -1.2 .8c-.7 .7 -1 1.9 -1.9 2.2c-.4 .2 -.5 .2 -.8 .3Z" class="g2_4"/>
<path d="M677.8 328.7c.9 -.9 1.2 -.8 1.9 -1.7c.4 -.7 .6 -1.3 1.8 -2c1 -.6 1.1 -.8 1.7 -1.8c1 -1.6 2 -1.3 3.1 -2.7c-.7 2 -1.7 1 -3 3.2c-.8 1.4 -1.5 1.4 -2.2 2c-.7 .6 -.8 1.1 -1.2 1.6c-.4 .6 -.9 1 -1.1 1c-.1 .1 -.6 .2 -1 .4Z" class="g2_4"/>
<path d="M691.4 314.6c.5 -.7 .5 -1.1 1.1 -1.9c.7 -1 1.5 -1 2.2 -1.8c.7 -.6 .7 -1.4 1.9 -2.2c.5 -.3 1.1 -.5 1.7 -1.4c.2 -.3 .5 -.7 .8 -.9c-.1 .1 -.2 .3 -.3 .6c-.5 1.3 -1.4 1.6 -2 2.1c-1.1 .6 -1.1 1.4 -1.8 2.1c-.7 .9 -1.5 .8 -2.2 1.7c-.4 .6 -.5 1.1 -1.4 1.7Z" class="g2_4"/>
<path d="M676.9 328.5c.7 -1.1 1.3 -.9 2 -1.7c.5 -.6 .6 -1.4 1.7 -2.1c.7 -.5 1.2 -.6 1.9 -1.7c.7 -1.3 1 -1.3 2 -1.7c-2.3 2 -1.4 2.3 -3.1 3.4c-2.2 1.3 -1.3 2.1 -3.3 3.2c-.5 .3 -.7 .2 -1.2 .6Z" class="g2_4"/>
<path d="M691.8 312.7c.4 -.9 .7 -1.1 1.3 -1.5c1.6 -.9 1.3 -1.3 2.1 -2.2c.7 -.9 1.4 -1 2 -1.6c.8 -.7 .6 -1.2 1.7 -1.9c-.4 .5 -.4 .8 -.6 1.1c-.6 1.1 -.9 1.2 -1.9 1.8c-1 .6 -1.2 1.2 -1.6 1.9c-.8 1.2 -2 1.2 -3 2.4Z" class="g2_4"/>
<path d="M676.1 328.3c.8 -1.5 1.6 -1 2.5 -2.4c.4 -.6 .6 -1.2 1.6 -1.8c.6 -.4 1.1 -.6 1.7 -1.5c0 -.1 .5 -.6 .8 -.9c-.4 .7 -.2 .9 -.8 1.6c-.7 .8 -1.4 .9 -2 1.4c-.9 .9 -.7 1.7 -2.3 2.7c-1.1 .6 -1.2 .6 -1.5 .9Z" class="g2_4"/>
<path d="M692 311.4c.2 -.4 .7 -.8 .9 -.9c.9 -.5 1 -.9 1.5 -1.7c.6 -1 1.2 -1.2 1.8 -1.6c1.4 -.9 .9 -1.8 2.5 -2.5c-.4 .3 -.5 .5 -1 1.5c-.6 1 -1 1.2 -1.8 1.7c-.9 .5 -1.1 1 -1.5 1.7c-.4 .6 -1.1 1.1 -1.5 1.3c0 0 -.5 .2 -.9 .5Z" class="g2_4"/>
<path d="M675.4 328.1c.7 -1.7 1.5 -1.2 2.4 -2.4c.5 -.5 .6 -1.2 1.3 -1.8c.9 -.7 1.2 -.4 2.6 -2.1c-.5 1.4 -.5 1.2 -1.9 2.1c-.8 .5 -1 1 -1.3 1.6c-.6 1 -1.2 1.2 -1.8 1.5c-.4 .3 -.4 .4 -.6 .4c-.2 .2 -.4 .3 -.7 .7Z" class="g2_4"/>
<path d="M691.9 310.4c.2 -.1 .6 -.4 .7 -.5q.1 -.1 .2 -.2c.7 -.6 .8 -1.2 1.3 -1.8c.7 -.8 1.3 -1 1.9 -1.4c1.2 -1 .7 -1.8 2.4 -2.5c-.9 .7 -1.2 1.7 -1.7 2.3c-.6 .8 -1.3 .9 -1.9 1.4c-.7 .6 -.8 1.2 -1.3 1.8c-.5 .7 -.7 .6 -1.6 .9Z" class="g2_4"/>
<path d="M674.7 327.8c.3 -.8 .4 -1 .9 -1.4c.6 -.4 1.2 -.6 1.7 -1.2c.5 -.6 .6 -1.2 1.3 -1.8c.7 -.6 1.6 -.9 2.3 -1.6c-.6 1.3 -1.2 1.2 -2 1.8c-.7 .6 -.8 1.2 -1.3 1.8c-.9 1.1 -1.5 .7 -2.9 2.4Z" class="g2_4"/>
<path d="M691.9 309.6c1.4 -1.1 1.2 -2.1 2.5 -3c.6 -.4 1.2 -.5 1.7 -1.3c.8 -1.2 .6 -1.4 2 -2c-.2 .2 -.5 .5 -.7 .7c-.1 .2 -.2 .2 -.4 .5c-.2 .3 -.4 .7 -.6 1c-.6 .9 -1.3 1.1 -1.8 1.4c-1.4 1 -.8 2 -2.7 2.7Z" class="g2_4"/>
<path d="M674 327.6c.3 -.8 .3 -1.2 1.2 -1.8c.8 -.5 1.3 -.6 1.9 -1.7c1.2 -2 1.8 -1.6 2.9 -2.4c-.7 1.1 -1.2 .9 -1.9 1.7c-.5 .5 -.6 1.1 -1.3 1.8c-.7 .7 -1.4 .7 -2.1 1.6c-.8 .9 -.1 .1 -.7 .8Z" class="g2_4"/>
<path d="M691.8 308.8c.5 -.5 .6 -1.1 1.1 -1.8c.6 -.8 1.3 -1.1 1.8 -1.4c1.2 -.8 1 -1.7 2.1 -2.5c.1 -.1 1 -.4 1 -.4c0 0 -.9 .7 -1.1 1c-.6 .7 -.7 1.5 -1.8 2.2c-.5 .4 -1.1 .6 -1.6 1.3c-.5 .6 -.5 1.1 -1.5 1.6Z" class="g2_4"/>
<path d="M673.3 327.3c.4 -.7 .3 -1.4 1.5 -2.1c.5 -.4 1.1 -.6 1.6 -1.2c.3 -.5 .5 -1.2 1.2 -1.7c.6 -.5 .6 -.3 1.4 -.7c-.3 .3 -1.2 1 -1.2 1c-.6 .5 -.7 1 -1.1 1.6c-.5 .7 -1.1 1 -1.7 1.3c-.8 .5 -.8 .9 -1.7 1.8Z" class="g2_4"/>
<path d="M691.6 308c.5 -.7 .3 -1 1.1 -1.9c.6 -.7 1.2 -.8 1.7 -1.2c1 -.8 1 -2.1 2.4 -2.6c1 -.4 .9 -.5 .1 .2c-.5 .5 -.8 .6 -1.2 1.3c-1.3 2.3 -2.1 1.5 -3 3c-.2 .2 -.5 .7 -1.1 1.2Z" class="g2_4"/>
<path d="M672.7 326.9c.4 -.7 .2 -.7 .6 -1.3c.8 -1.1 1.5 -1.1 2.3 -1.9c.5 -.5 1 -1.7 1.5 -2c.3 -.1 .2 -.1 1 -.4c-1.9 1.5 -1.4 2 -2.5 2.9c-.7 .7 -1.4 .7 -2.1 1.8c-.1 .1 -.5 .6 -.8 .9Z" class="g2_4"/>
<path d="M691.3 307.1c.4 -.7 .3 -1.1 1.1 -1.8c.6 -.5 1.2 -.6 1.7 -1.2c.6 -.5 .7 -1.1 1.2 -1.7c.8 -.8 1.1 -.7 1.9 -1.1c-.5 .5 -1.2 1 -1.2 1c-.7 .6 -.8 1.1 -1.2 1.7c-.9 1.2 -1.9 1.1 -2.6 2.1c-.2 .3 -.6 .8 -.9 1Z" class="g2_4"/>
<path d="M672 326.6c.4 -.6 .3 -.8 .6 -1.3c.7 -1.2 1.5 -1.3 2.2 -1.9c1.1 -.8 .7 -1.7 2.3 -2.4c-.9 .8 -1.2 2 -2 2.7c-.8 .7 -1.5 .7 -2.2 1.8c-.3 .5 -.6 .8 -.9 1.1Z" class="g2_4"/>
<path d="M691 306.3c.4 -.8 .3 -1 .9 -1.5c1 -.9 1.3 -.4 2.4 -2.3c.9 -1.4 1.8 -1.4 2.5 -1.8c-.8 1 -1.4 .8 -2.1 2c-1.4 2.3 -1.6 1.3 -3.2 3c-.1 .2 -.3 .4 -.5 .6Z" class="g2_4"/>
<path d="M671.3 326.2c.5 -.7 .3 -.8 .9 -1.7c.7 -1 1.6 -1.1 2.2 -1.7c.8 -.8 .6 -1.4 1.9 -2.1c-.4 .4 -.4 .6 -.8 1.2c-1.1 1.9 -1.5 1.4 -2.5 2.3c-.9 .9 -.6 1.2 -1.7 2Z" class="g2_4"/>
<path d="M690.6 305.5c.4 -1.1 .5 -1.2 1.7 -1.9c1.5 -.9 1.2 -1.7 2.3 -2.6c.8 -.6 1.1 -.5 1.8 -1c-.4 .6 -.9 .8 -1.2 1c-.9 .6 -1 1.3 -1.5 1.9c-.9 1.3 -1.6 .9 -3.1 2.6Z" class="g2_4"/>
<path d="M670.6 325.8c.5 -.5 .4 -.6 1 -1.6c.9 -1.5 1.8 -1.2 2.7 -2.4c.3 -.4 .4 -.9 1.2 -1.4c-.5 .6 -.3 .7 -.9 1.6c-.7 1.1 -1.5 1.1 -2.3 1.9c-.7 .6 -.6 1.3 -1.7 1.9Z" class="g2_4"/>
<path d="M690.2 304.8c.5 -1.2 .8 -1.2 1.7 -1.8c1.2 -.7 1.1 -1.4 1.9 -2.3c.8 -.8 1.4 -.8 2.1 -1.3c-.5 .8 -1 1 -1.5 1.3c-1 .8 -.8 1.8 -2.2 2.6c-.3 .2 -1.3 .7 -2 1.5Z" class="g2_4"/>
<path d="M670 325.3c.3 -.3 .3 -.4 .9 -1.5c.9 -1.6 1.8 -1.3 2.7 -2.3c.4 -.4 .4 -.9 1.2 -1.5c-.4 .7 -.3 1 -.9 1.7c-.7 .8 -1.2 .8 -2 1.5c-.9 .8 -.6 1.5 -1.9 2.1Z" class="g2_4"/>
<path d="M689.8 304.2c.3 -1 .6 -1.2 1.3 -1.5c2 -1.2 1.1 -2.1 3.1 -3.2c.6 -.3 .6 -.2 1.1 -.6c.1 -.1 .4 -.3 -.1 .3c-.5 .6 -.7 .6 -1.2 .9c-.9 .6 -1 1.3 -1.5 1.9c-.5 .7 -1.1 .9 -1.6 1.2c-.2 .1 -.3 .3 -.4 .3c-.3 .2 -.5 .4 -.7 .7Z" class="g2_4"/>
<path d="M669.3 324.9c.7 -.7 1 -1.7 1.5 -2.3c.6 -.7 1.4 -.8 1.9 -1.3c.5 -.4 .8 -1.1 1.5 -1.7c-.4 .6 -.4 1.3 -1.2 2c-.6 .5 -1.3 .7 -1.9 1.3c-.6 .7 -.5 1.4 -1.8 2Z" class="g2_4"/>
<path d="M689.3 303.6c.7 -1.8 1.7 -1.1 2.7 -2.8c.2 -.3 .4 -.8 .9 -1.2c.7 -.8 1.4 -.8 2.1 -1.4c-.7 1.1 -1.2 1 -1.9 1.6c-.4 .4 -.6 .9 -.8 1.2c-.9 1.6 -2 1.4 -3 2.6Z" class="g2_4"/>
<path d="M668.7 324.4c.3 -.3 .5 -.5 .6 -.7c0 0 .2 -.3 .4 -.7c1.3 -2.2 2 -1.4 3 -2.9c.1 -.1 .6 -.7 .8 -.9c-.2 .4 -.3 .9 -.4 1.1c-.7 1 -1.3 1.1 -2 1.6c-1.2 .8 -.8 1.8 -2.4 2.5Z" class="g2_4"/>
<path d="M688.7 303c.4 -.9 .8 -1.1 1.4 -1.5c1.3 -.7 1.3 -1.3 1.9 -2.1c.7 -1 1.9 -1.2 2.4 -1.7c-.4 .8 -.9 1 -1 1.1c-1.9 1.1 -1.1 2 -3.1 3.1c-.4 .2 -1.1 .6 -1.6 1.1Z" class="g2_4"/>
<path d="M668 323.9c1.2 -.9 1.3 -2 2.3 -2.8c.6 -.5 1.2 -.6 1.8 -1.3c.1 -.2 .7 -.9 .8 -1c-.2 .5 -.3 .9 -.5 1.2c-.7 .8 -1.3 1 -1.9 1.4c-1.1 .9 -.8 1.9 -2.5 2.5Z" class="g2_4"/>
<path d="M688.2 302.6c.3 -1 .7 -1.2 1.3 -1.5c2 -1.2 1.1 -2 3.1 -3.2c.7 -.4 .7 -.2 1.3 -.7c-.9 1.3 -1.4 .9 -2.2 2c-.4 .5 -.5 1 -1.1 1.6c-.7 .6 -1.7 .9 -2.4 1.8Z" class="g2_4"/>
<path d="M667.4 323.5c.6 -.5 1 -1 1.4 -1.8c.7 -1.2 1.3 -1.3 2 -1.8c.7 -.4 1.1 -1.1 1.5 -1.6c-.2 .7 -.2 .9 -.5 1.3c-.6 .7 -1.3 .9 -1.9 1.3c-1.1 1 -.7 1.9 -2.5 2.6Z" class="g2_4"/>
<path d="M687.6 302.1c.5 -1.2 .9 -1.2 1.7 -1.8c1.4 -.9 1 -1.9 2.7 -2.9c.6 -.3 .8 -.2 1.3 -.7c-.3 .5 -.6 .8 -1.1 1.1c-1 .6 -1.1 1 -1.6 1.7c-.8 1.5 -1.9 1.3 -3 2.6Z" class="g2_4"/>
<path d="M666.8 323c1 -.8 1.4 -1.8 1.6 -2.1c.9 -1.3 1.5 -.9 2.8 -2.3c.6 -.7 .8 -1.3 .2 .2c-.1 .2 -.4 .5 -.6 .7c-.6 .5 -1.1 .5 -1.7 1.2c-.9 .9 -.5 1.6 -2.3 2.3Z" class="g2_4"/>
<path d="M687 301.7c.3 -.8 .5 -1 .8 -1.3c.7 -.5 1.3 -.6 1.9 -1.5c.4 -.6 .7 -1.6 2.2 -2.2c.4 -.1 .6 -.3 .8 -.4c-.7 1 -1.1 .8 -1.9 1.6c-.6 .7 -.6 1.6 -1.9 2.3c-.5 .3 -.7 .4 -1.1 .8c-.2 .1 -.3 0 -.8 .7Z" class="g2_4"/>
<path d="M666.3 322.5c1.2 -1.1 1.2 -1.8 1.9 -2.6c.9 -.9 1.3 -.6 2.4 -1.8c.2 -.2 .4 -.5 .6 -.7c-.4 1 -.3 .9 -.7 1.3c-.6 .7 -1.2 .7 -1.8 1.3c-.6 .6 -.7 1.2 -1.4 1.9c-.2 .2 -.8 .5 -1 .6Z" class="g2_4"/>
<path d="M686.3 301.4c.4 -.9 .4 -1 .7 -1.3c.8 -.7 1.5 -.7 2.1 -1.6c.4 -.5 .5 -1.1 1.2 -1.7c.8 -.7 1.1 -.5 1.8 -1c-.6 .9 -1 .9 -1.6 1.3c-.6 .6 -.7 1.1 -1.1 1.6c-.9 1.3 -1.4 .7 -3.1 2.7Z" class="g2_4"/>
<path d="M665.7 322c1.8 -1.5 1.2 -2.3 3 -3.4c.6 -.3 .8 -.4 1.9 -1.7c-.4 1.1 -.3 1 -.8 1.4c-.8 .8 -1.5 .8 -2.1 1.8c-.8 1.3 -.8 1.4 -2 1.9Z" class="g2_4"/>
<path d="M685.6 301.1c.4 -.8 .3 -1 1.1 -1.7c.4 -.4 .9 -.5 1.3 -.9c1.1 -.9 1 -2.1 2.7 -2.7c.2 -.1 .5 -.2 .7 -.4c-.3 .3 -.8 .8 -.9 .8c-1.3 .8 -1.1 1.7 -2.2 2.6c-.6 .5 -1.3 .7 -1.9 1.4c0 0 -.8 .9 -.8 .9Z" class="g2_4"/>
<path d="M665.1 321.5c1.2 -1 1.3 -1.5 1.7 -2.1c.7 -1.3 1.6 -1.2 2.4 -2c.4 -.4 .3 -.3 .9 -1q-.4 1 -.7 1.3c-.8 .8 -1.6 .7 -2.3 2c-.7 1.1 -.7 1.3 -2 1.8Z" class="g2_4"/>
<path d="M684.9 300.8c.3 -.4 .4 -.9 .4 -1c.7 -1.2 1.7 -1.3 2.4 -2c.8 -.8 .9 -1.9 2.3 -2.5c.9 -.3 .9 -.5 0 .3c-.7 .6 -.7 .5 -1.4 1.6c-1 1.7 -1.9 1.3 -2.8 2.6c-.2 .3 -.6 .8 -.9 1Z" class="g2_4"/>
<path d="M664.6 320.9c1.8 -1.5 1.4 -2.2 2.6 -3c.7 -.6 1 -.4 2.3 -2c-.2 .5 -.3 .9 -.6 1.3c-.7 .6 -1.2 .7 -1.8 1.3c-.5 .4 -.7 1 -1.2 1.7c-.4 .4 -.7 .5 -1.3 .7Z" class="g2_4"/>
<path d="M684.1 300.6c.5 -.7 .6 -1.8 1.9 -2.6c.4 -.2 .7 -.3 1.1 -.7c1 -.9 .8 -1.9 2.3 -2.4c.9 -.4 .5 -.3 -.2 .4c-.2 .2 -.5 .4 -.7 .8c-.2 .3 -.4 .6 -.6 .9c-.7 1 -1.4 1.1 -2.1 1.7c-.9 .8 -.6 1.2 -1.7 1.9Z" class="g2_4"/>
<path d="M664 320.4c1.9 -1.6 1.3 -2.1 2.6 -3c.8 -.6 1.2 -.5 2.4 -2c0 0 -.3 .9 -.5 1.1c-.6 .6 -1.1 .8 -1.7 1.2c-.9 .7 -1.1 1.9 -1.8 2.3c-.4 .2 -.8 .3 -1 .4Z" class="g2_4"/>
<path d="M683.1 300.4c.8 -.7 1 -1.8 2 -2.6c.6 -.5 1.1 -.6 1.7 -1.2c.5 -.6 .6 -1.2 1.3 -1.8c.4 -.2 .6 -.3 1 -.5c-1.6 1.3 -1.3 2.1 -2.4 2.9c-.6 .5 -1.2 .6 -1.7 1.3c-.7 .8 -.6 1.4 -1.9 1.9Z" class="g2_4"/>
<path d="M663.4 319.9c1.6 -1.3 1.4 -1.6 2 -2.4c.7 -1 1.3 -.8 2.4 -1.9c.6 -.5 .8 -1.1 .5 -.2c-.6 1.3 -1.5 1.2 -2.3 2.1c-.8 .8 -.8 1.7 -2.1 2.2c-.2 .1 -.3 .1 -.5 .2Z" class="g2_4"/>
<path d="M681.8 300.4c1.4 -1.2 1.3 -1 1.9 -2.1c.5 -.9 1 -1.1 1.7 -1.6c1.7 -1 1.1 -2 2.8 -2.7c-1.1 1 -1 2.1 -2.6 3.1c-.7 .4 -1.1 .6 -1.6 1.4c-.9 1.6 -1.1 1.4 -2.2 1.9Z" class="g2_4"/>
<path d="M662.9 319.4c2 -1.7 1.4 -2.2 2.6 -3.1c.8 -.5 1.2 -.5 2.4 -1.9c-.2 .4 -.3 .9 -.6 1.2c-.6 .6 -1.2 .7 -1.9 1.3c-1 1 -.5 1.7 -2.5 2.5Z" class="g2_4"/>
<path d="M680.6 300.4c.8 -1.2 1.4 -.9 2.2 -2c.4 -.6 .6 -1.3 1.5 -1.9c.6 -.4 1.2 -.5 1.8 -1.4c.2 -.3 .4 -.9 1.2 -1.4c-.5 .6 -.6 1.4 -1.3 2.1c-.7 .7 -1.3 .8 -1.9 1.4c-.7 .6 -.7 1.3 -1.4 1.9c-.8 .8 -1.4 .8 -2.1 1.3Z" class="g2_4"/>
<path d="M662.4 318.8c1.5 -1.2 1.3 -1.6 1.9 -2.3c.9 -1.2 1.6 -.9 2.8 -2.3c.3 -.4 .4 -.5 .1 .1c-.7 1.6 -1.8 1.1 -2.8 2.8c-.8 1.3 -.9 1.3 -2 1.7Z" class="g2_4"/>
<path d="M679.6 300.5c.6 -1.6 1.3 -1.3 2.2 -2.1c.7 -.7 .8 -1.3 1.5 -2c.7 -.7 1.3 -.7 2 -1.5c.2 -.2 .5 -.9 1.1 -1.4c-.4 .7 -.3 1.4 -1.3 2.1c-.7 .6 -1.3 .7 -1.9 1.5c-.4 .6 -.6 1.3 -1.6 2c-.3 .2 -1.3 .6 -2 1.4Z" class="g2_4"/>
<path d="M661.8 318.3c1.6 -1.3 1.4 -1.6 2 -2.3c.6 -1 1.3 -.9 2.4 -2c.6 -.5 .8 -1.1 .5 -.2c-.7 1.6 -1.9 1.1 -2.8 2.8c-.8 1.3 -.9 1.3 -2.1 1.7Z" class="g2_4"/>
<path d="M678.7 300.7c.2 -.5 .2 -.9 .5 -1.2c.7 -.9 1.4 -1 2 -1.6c.8 -.7 .8 -1.3 1.6 -2.1c.7 -.6 1.4 -.7 2 -1.5c.2 -.2 .1 -.1 .2 -.2c.7 -.7 .9 -1.4 .3 .2c-.1 .2 -.5 .6 -.7 .7c-.7 .6 -1.3 .7 -2 1.6c-.4 .6 -.6 1.3 -1.7 2c-.3 .2 -.7 .4 -1 .7c-.3 .2 -.8 1 -1.2 1.4Z" class="g2_4"/>
<path d="M661.3 317.8c1.2 -1.1 1.3 -1.4 1.7 -2c.9 -1.4 1.5 -1.2 2.7 -2.3c.6 -.5 .8 -1.1 .4 -.3c-.6 1.5 -1.6 1.2 -2.5 2.4c-.8 1.1 -.5 1.5 -2.3 2.2Z" class="g2_4"/>
<path d="M676.6 301.4c.2 -.2 .6 -.5 1.1 -1c.6 -.6 .6 -1.1 1.3 -1.8c.8 -.8 1.5 -.8 2.2 -1.8c.6 -.9 .5 -1.3 2.1 -2.2c.5 -.3 1 -.7 1.6 -1.4c-.4 .9 -.5 1.2 -1.4 1.7c-1.5 .9 -1.4 1.2 -2 2.1c-.9 1.3 -1.9 1.1 -2.7 2.4c-1 1.7 -.9 1.5 -2.2 2Z" class="g2_4"/>
<path d="M660.8 317.2c1.5 -1.2 1.4 -1.6 1.9 -2.3c.7 -1.1 1.7 -1 2.8 -2.2c.3 -.4 .4 -.6 .1 0c-.6 1.5 -1.7 1.3 -2.5 2.3c-.4 .6 -.6 1.1 -1.1 1.6c-.3 .3 -.7 .4 -1.2 .6Z" class="g2_4"/>
<path d="M674.7 302.3c.5 -1.2 .7 -1.2 1.7 -1.9c1.3 -.8 1.2 -1.6 2.1 -2.4c.7 -.6 1.2 -.7 1.7 -1.2c.5 -.4 .7 -.9 1 -1.4c.8 -1.3 2 -1.3 2.9 -2.3c-.8 1.8 -1.7 .9 -2.8 2.9c-1 1.7 -1.7 1.4 -2.6 2.4c-.4 .4 -.6 1 -1.1 1.5c-.9 1.1 -1.6 .9 -2.9 2.4Z" class="g2_4"/>
<path d="M660.2 316.7c1.9 -1.6 1.4 -1.8 2.3 -2.7c.8 -.8 1.4 -.6 2.7 -2.2c-.1 .3 -.3 .8 -.5 1.1c-.8 .7 -1.4 .8 -1.9 1.4c-.8 .8 -.8 1.7 -2.2 2.3c-.1 0 -.2 .1 -.4 .1Z" class="g2_4"/>
<path d="M671.2 304.7c.6 -1.6 1.3 -1.2 2.2 -2.2c.6 -.5 .7 -1.1 1.2 -1.7c.6 -.7 1.2 -.8 1.8 -1.3c1 -.8 .8 -1.6 2.1 -2.4c.7 -.5 1.2 -.6 1.9 -1.7c1 -1.8 1.7 -1.7 2.7 -2.3q.2 -.2 0 .1c-.8 1 -1.1 .7 -1.8 1.5c-.6 .7 -.7 1.5 -1.7 2.1c-.6 .4 -1.1 .6 -1.7 1.3c-.5 .6 -.6 1.4 -1.7 2.1c-.9 .5 -1.2 .6 -1.8 1.7c-1.1 1.8 -2.1 1.4 -3.2 2.8Z" class="g2_4"/>
<path d="M659.7 316.2c1.8 -1.5 1.4 -1.9 2.2 -2.7c.8 -.8 1.5 -.7 2.8 -2.2c-.2 .4 -.3 .9 -.7 1.2c-.8 .7 -1.5 .7 -2.3 1.9c-.8 1.4 -.9 1.4 -2 1.8Z" class="g2_4"/>
<path d="M651.2 323.8c.4 -1 .3 -1.2 1.8 -2.1c.9 -.5 1.1 -.9 1.5 -1.7c.7 -1 1.2 -1.2 1.9 -1.6c.9 -.6 1 -1.2 1.5 -1.8c.6 -1 1.3 -1.1 1.9 -1.6c.8 -.5 .9 -1.1 1.4 -1.8c.5 -.6 .9 -.8 1.5 -1.1c.9 -.6 1 -1.1 1.5 -1.8c.6 -1 1.3 -1.1 1.9 -1.6c.8 -.5 .9 -1.1 1.4 -1.8c.7 -.9 1.3 -1 2 -1.5c1 -.8 .8 -1.7 2.2 -2.6c.6 -.4 .9 -.5 1.4 -1c.5 -.7 .6 -1.3 1.5 -2c.6 -.4 1.2 -.5 1.8 -1.4c.4 -.6 .6 -1.3 1.6 -1.9c.7 -.4 1.2 -.6 1.8 -1.5c1 -1.9 1.3 -1.6 2.3 -2c0 0 -.9 .8 -.9 .8c-.7 .5 -.9 1.2 -1.3 1.7c-.7 1 -1.5 1 -2.2 1.7c-.6 .6 -.7 1.2 -1.2 1.7c-.7 .9 -1.5 .9 -2.2 1.7c-.4 .5 -.5 1 -1 1.6c-.8 .8 -1.3 .8 -1.9 1.3c-.5 .5 -.7 1.1 -1.1 1.5c-.9 1.3 -1.8 1.1 -2.7 2.4c-.2 .4 -.4 .8 -.7 1.2c-.8 .8 -1.5 .8 -2.2 1.7c-.4 .5 -.6 1.1 -1.2 1.7c-.7 .6 -1.2 .6 -1.9 1.3c-.4 .5 -.6 1 -1 1.6c-.8 .8 -1.5 .8 -2.2 1.6c-.5 .6 -.6 1.2 -1.2 1.8c-.8 .7 -1.5 .7 -2.2 1.6c-.4 .7 -.6 1.4 -1.8 2.1c-.7 .4 -.8 .5 -1.6 1.3c-.1 .2 -.3 .4 -.4 .5Z" class="g2_4"/>
<path d="M647.6 326.2c.6 -1.4 .7 -1.2 1.9 -2c1.4 -.9 1 -1.9 2.6 -2.8c1.5 -.9 1.4 -1.1 2 -2.1c.6 -.9 1.3 -1.1 1.8 -1.5c1.1 -.7 1 -1.4 1.8 -2.2c.4 -.4 1 -.7 1.3 -.9c.8 -.5 1 -1 1.3 -1.6c.7 -1.1 1.4 -1.2 2 -1.7c1.2 -.8 1 -1.7 2.2 -2.5c.8 -.6 1.3 -.6 2.1 -1.9c.8 -1.5 1.4 -1.5 2.2 -2c1.1 -.9 .9 -1.6 2.2 -2.6c.7 -.5 1.3 -.6 1.9 -1.6c.3 -.6 .6 -1.2 1.5 -1.7c.3 -.2 .8 -.5 1.2 -.8c.7 -.8 .7 -1.6 1.9 -2.3c.5 -.4 1.1 -.6 1.6 -1.4c.4 -.6 .5 -1.1 1.6 -1.6c-1 .9 -1 2.1 -2.4 2.9c-1.4 .9 -1.2 .7 -2 2c-.9 1.6 -1.9 1.1 -2.9 2.8c-1 1.7 -1.6 1.5 -2.5 2.2c-.8 .8 -.8 1.6 -1.8 2.4c-.9 .6 -1.4 .5 -2.2 1.9c-.8 1.4 -1.4 1.4 -2.2 2c-.7 .5 -.9 1.1 -1.3 1.7c-.9 1.3 -1.9 1 -2.7 2.4c-.4 .6 -.6 1.2 -1.5 1.8c-.3 .1 -.9 .4 -1.2 .8c-.7 .7 -.7 1.5 -1.9 2.3c-.5 .3 -1.2 .5 -1.7 1.3c-.6 1 -.5 1.2 -2.1 2.2c-1 .6 -1.1 1.2 -1.6 1.9c-.9 1.3 -1.7 .9 -3.1 2.6Z" class="g2_4"/>
<path d="M645.2 327.4c.3 -.2 .6 -.4 .7 -.6q.1 -.1 .2 -.1c.8 -.7 .8 -1.4 1.7 -2.2c.6 -.6 1.2 -.7 1.9 -1.5c.6 -.7 .6 -1.3 1.5 -1.9c.8 -.6 1.4 -.6 2 -1.7c.6 -1 .7 -1.3 1.9 -1.9c1.1 -.7 1.2 -1.2 1.7 -2c.8 -1.1 1.6 -1.1 2.4 -1.9c.5 -.7 .7 -1.4 1.5 -2c.7 -.6 1.4 -.6 2.1 -1.8c1.4 -2.4 2.1 -1.4 3.2 -3.3c1.3 -2.2 2.1 -1.3 3.2 -3.2c.4 -.7 .7 -1.1 1.7 -1.7c1.4 -.8 1.3 -1.3 1.9 -2.2c.9 -1.1 1.7 -.8 2.6 -2.2c.4 -.6 .6 -1.2 1.6 -1.8c1.8 -1.1 1 -.7 2.1 -2c.5 -.5 .3 -.3 .1 .1c-.1 .3 -.2 .6 -.2 .7c-.9 1.4 -1.8 1.2 -2.6 2.3c-.3 .3 -.5 .8 -.8 1.2c-.6 .7 -1 .9 -1.7 1.2c-.9 .7 -1 1.4 -1.6 2.1c-.8 1 -1.6 .9 -2.4 1.9c-.5 .7 -.6 1.4 -1.7 2.1c-.7 .4 -1.1 .5 -1.7 1.4c-.6 1.1 -.7 1.3 -1.9 2c-1.5 .9 -1.1 1.6 -2.3 2.6c-1.1 .8 -1.4 .5 -2.4 2.2c-.7 1.3 -1.5 1.3 -2.3 2c-.8 .8 -.8 1.6 -2 2.4c-.5 .4 -1.2 .6 -1.7 1.4c-.3 .4 -.4 .8 -.9 1.3c-.7 .7 -1.3 .7 -2 1.4c-.5 .6 -.6 1.3 -1.5 2.1c-.7 .5 -1.1 .5 -1.7 1.2c-.5 .6 -.6 1.1 -1.2 1.7c-.4 .4 -.5 .4 -1.4 .7Z" class="g2_4"/>
<path d="M643.5 328.1c.8 -2 1.8 -1 2.9 -3.1c1 -1.7 1.7 -1.4 2.6 -2.3c.6 -.6 .7 -1.3 1.4 -1.9c.7 -.7 1.3 -.7 2 -1.5c.2 -.3 .5 -.8 .7 -1.2c.6 -.8 1.3 -1 1.9 -1.5c1 -.7 1 -1.6 2 -2.4c.4 -.3 .8 -.5 1.1 -.7c1.4 -1 .8 -1.8 2.8 -2.9c1.4 -.8 1.2 -1.4 2 -2.3c.6 -.7 1.1 -.8 1.8 -1.3c.5 -.4 .7 -.9 1 -1.3c.8 -1.4 1.6 -1.3 2.4 -2.1c.6 -.6 .6 -1.2 1.4 -1.9c.4 -.4 .9 -.6 1.3 -.9c1.1 -.7 1 -1.5 1.9 -2.3c.7 -.7 1.3 -.7 2 -1.5c.3 -.5 .4 -.8 .7 -1.2c.9 -1.2 1.8 -1 3 -2.5c-.1 .4 -.3 .9 -.6 1.1c-.8 .7 -1.4 .8 -2 1.6c-.4 .5 -.7 1.3 -1.4 1.8c-.5 .4 -.9 .5 -1.4 .9c-.7 .7 -.8 1.3 -1.4 1.9c-.6 .7 -1.3 .8 -1.8 1.3c-.7 .7 -.7 1.3 -1.4 2c-.7 .7 -1.4 .7 -1.9 1.4c-.6 .6 -.7 1.2 -1.4 1.9c-.7 .6 -1.4 .6 -2.1 1.6c-.4 .5 -.6 1.1 -1.2 1.6c-.6 .6 -1.2 .7 -1.8 1.4c-.6 .6 -.6 1.3 -1.5 2c-.4 .2 -.7 .3 -1 .5c-1.3 .9 -1 1.8 -2.3 2.7c-.6 .4 -1.2 .6 -1.7 1.3c-.3 .4 -.5 .9 -.8 1.3c-.8 .8 -1.4 .9 -2 1.5c-.7 .6 -.8 1.2 -1.4 1.8c-1 1 -1.6 .7 -2.5 2.3c-.8 1.3 -1.3 1.4 -2.1 1.9c-.2 .2 -.3 .2 -.4 .3c-.3 .2 -.5 .4 -.8 .7Z" class="g2_4"/>
<path d="M642.5 328.4c.4 -.8 .2 -.9 .7 -1.5c.7 -.8 1.3 -.9 1.9 -1.4c.7 -.5 .8 -1.2 1.4 -1.8c.6 -.8 1.3 -.9 1.9 -1.4c.6 -.6 .7 -1.2 1.2 -1.8c.5 -.6 1 -.7 1.5 -1c1 -.7 1 -1.3 1.6 -2.1c.8 -1 1.5 -.9 2.3 -1.7c.6 -.8 .6 -1.6 2 -2.3c1.6 -1 1.3 -1.2 2 -2.2c.8 -1.1 1.7 -1.1 2.4 -2c.3 -.3 .4 -.7 .7 -1.1c.8 -1.3 1.9 -1 2.8 -2.5c.3 -.5 .5 -1.1 1.2 -1.6c.8 -.5 1.4 -.5 2 -1.7c1.1 -1.8 1.7 -1.5 2.6 -2.4c.6 -.5 .7 -1.2 1.4 -1.9c.6 -.6 1.4 -.8 1.9 -1.3c.9 -.9 .5 -1.5 2.4 -2.6c.1 -.1 .5 -.2 1 -.6c-.3 .4 -.7 .8 -.8 .9c-1.2 .7 -1.2 .8 -1.9 1.9c-.7 1.3 -1.6 1.2 -2.3 2c-.8 .8 -.8 1.6 -2.1 2.4c-1 .7 -1.2 .6 -1.8 1.8c-.9 1.4 -1.6 1.4 -2.4 2.1c-.6 .6 -.7 1 -1.1 1.6c-.8 1.1 -1.7 1 -2.4 1.9c-.5 .7 -.6 1.3 -1.5 1.9c-.7 .6 -1.3 .6 -2 1.7c-.3 .5 -.4 .8 -.8 1.2c-1.1 1.1 -1.5 .5 -2.6 2.4c-.9 1.5 -1.8 1.3 -2.7 2.4c-.5 .7 -.6 1.4 -1.7 2.1c-.6 .3 -.9 .4 -1.4 1c-.4 .5 -.6 1.1 -1.3 1.8c-.6 .6 -1.2 .6 -1.8 1.3c-.6 .6 -.7 1.3 -1.4 1.9c-.5 .4 -1 .6 -1.4 .9c-.6 .4 -.7 1 -1.5 1.7Z" class="g2_4"/>
<path d="M640.9 328.7c1.2 -1 1.3 -2.1 2.5 -2.9c.6 -.4 1.2 -.6 1.7 -1.4c.3 -.4 .5 -.9 .9 -1.3c.7 -.8 1.3 -.8 2 -1.5c.6 -.8 .6 -1.2 1.3 -1.9c.4 -.3 .9 -.6 1.2 -.8c1.2 -.7 1.1 -1.5 1.9 -2.3c.7 -.6 1.3 -.7 1.9 -1.3c.7 -.8 .7 -1.6 2 -2.4c.5 -.3 .8 -.4 1.3 -.9c.4 -.5 .5 -.8 .7 -1.2c.8 -1.2 1.7 -1.1 2.4 -2c.6 -.5 .7 -1.2 1.4 -1.8c.8 -.8 1.5 -.7 2.3 -2c.4 -.6 .6 -1 1.2 -1.5c.6 -.4 1 -.5 1.4 -1c.7 -.6 .6 -1 1.2 -1.6c.8 -1 1.5 -.8 2.3 -1.9c.4 -.5 .4 -.7 .7 -1.1c.8 -1.1 1.6 -1 2.4 -1.9c.5 -.7 .5 -1.2 1.5 -1.8c-.4 .5 -.4 .7 -.8 1.3c-.8 1.5 -1.5 1.5 -2.3 2.1c-.7 .6 -.8 1.2 -1.3 1.8c-.7 .8 -1.3 .9 -1.9 1.4c-.6 .6 -.8 1.2 -1.2 1.7c-.7 .8 -1.3 1 -1.9 1.4c-.7 .6 -.8 1.3 -1.5 2c-.8 .9 -1.6 .8 -2.3 1.9c-.4 .5 -.6 1.3 -1.5 1.8c-.5 .4 -.8 .4 -1.3 .9c-.7 .7 -.7 1.2 -1.3 1.8c-.6 .7 -1.3 .8 -1.9 1.4c-.7 .7 -.7 1.6 -2 2.4c-.5 .3 -1.1 .5 -1.6 1.4c-.3 .4 -.5 .9 -.9 1.3c-.7 .6 -1.4 .8 -1.9 1.3c-.6 .6 -.6 1.1 -1.3 1.8c-.4 .5 -1 .7 -1.4 1c-1.1 .7 -1 1.5 -1.9 2.3c-.6 .6 -1.3 .7 -1.9 1.4c-.8 .9 -.5 1.6 -2.1 2.1Z" class="g2_4"/>
<path d="M639.3 329c.8 -1.2 1.4 -.8 2.2 -2c.2 -.5 .4 -.9 .8 -1.3c.5 -.5 .9 -.7 1.3 -.9c1.2 -.8 1.1 -1.6 2 -2.4c.6 -.6 1.3 -.7 1.8 -1.3c.7 -.7 .7 -1.4 1.7 -2.1c.7 -.6 1.3 -.7 2 -1.7c.6 -1 .7 -1.3 1.9 -2c1.1 -.6 1.2 -1.1 1.7 -1.9c.8 -1.2 1.6 -1.1 2.4 -2c.5 -.6 .6 -1.2 1.4 -1.9c.7 -.6 1.4 -.6 2.2 -1.9c.7 -1.2 .9 -1.3 1.9 -1.9c.9 -.5 1.1 -.9 1.5 -1.6c.5 -.9 .9 -1.1 1.8 -1.6c1 -.6 1.1 -1.3 1.6 -2c.8 -1.1 1.7 -1 2.4 -1.9c.6 -.7 .6 -1.4 1.7 -2.1c.4 -.2 .7 -.4 1 -.6c.2 -.1 .3 -.3 .3 -.3c.1 -.1 .3 -.1 .8 -.8c-.1 .3 -.3 .9 -.6 1.1c-.7 .8 -1.4 .8 -2.1 1.6c-.4 .6 -.5 1.3 -1.4 1.9c-.8 .6 -1.3 .5 -2.2 2c-1.1 2 -1.9 1.1 -3.2 3.2c-.5 .9 -.9 1.2 -1.7 1.6c-1.8 1.1 -.9 1.9 -3.2 3.3c-1.6 .8 -1.2 1.8 -2.6 2.8c-1 .6 -1.2 .4 -2.1 2c-.6 .9 -1.1 1.2 -1.8 1.6c-1.2 .7 -1.1 1.5 -1.9 2.2c-.6 .7 -1.3 .9 -1.9 1.4c-.7 .6 -.7 1.4 -1.6 2.1c-.7 .6 -1.4 .7 -2 1.7c-.3 .4 -.5 .8 -.9 1.3c-.4 .4 -.9 .6 -1.3 .9c-1.6 .9 -.8 1.8 -2.9 3c-.2 .1 -.5 .1 -1 .5Z" class="g2_4"/>
<g clip-path="url(#c3_4)">
<path d="M638.2 329.1c.7 -1.7 1.7 -1.2 2.6 -2.5c.6 -.8 .5 -1.4 2 -2.2c1.3 -.7 1.3 -1.4 1.9 -2.1c.6 -.8 1.3 -1 1.8 -1.4c.7 -.5 .9 -1.1 1.3 -1.7c.9 -1.3 1.9 -1 2.7 -2.4c.2 -.4 .4 -.8 .9 -1.2c.4 -.5 .8 -.7 1.2 -.9c1.4 -.8 1.1 -1.8 2.4 -2.7c.7 -.5 1.2 -.6 1.8 -1.5c.3 -.4 .5 -1 1.3 -1.6c.6 -.5 1.2 -.6 1.7 -1.3c.6 -.7 .6 -1.4 2 -2.2c1.4 -.8 1.3 -1.2 1.9 -2.1c.7 -1.1 1.6 -1.1 2.3 -1.8c.7 -.8 .7 -1.6 1.9 -2.3c.9 -.7 1.1 -.5 2 -2c.3 -.4 .7 -.7 1.1 -1c-.6 .7 -.9 1.7 -1.7 2.5c-.7 .7 -1.5 .7 -2.2 1.8c-.3 .5 -.5 1.1 -1.4 1.7c-1 .6 -1.2 .5 -2.1 2c-.7 1.3 -1.5 1.3 -2.2 1.9c-1.1 .9 -.7 1.7 -2.5 2.7c-1.9 1.1 -1.2 2.1 -3 3.1c-1.5 .9 -1.3 1.1 -2 2.1c-.8 1.3 -1.8 1.1 -2.7 2.4c-.2 .4 -.3 .7 -.8 1.2c-.6 .7 -1.2 .8 -1.8 1.3c-.7 .6 -.8 1.2 -1.3 1.8c-.6 .7 -1.2 .8 -1.8 1.3c-.9 .7 -.9 1.6 -1.8 2.3c-.8 .6 -1.4 .6 -2.2 1.9c-.9 1.5 -1.3 1.4 -2.1 2c-.8 .5 -.9 .7 -1.2 .9Z" class="g2_4"/>
<path d="M637.4 329.1c.3 -.8 .4 -1.2 1.3 -1.8c.5 -.4 1.1 -.5 1.7 -1.4c.2 -.4 .5 -1 1.2 -1.6c.7 -.5 1.4 -.6 2.1 -1.7c1.5 -2.6 2 -1.2 3.3 -3.6c.8 -1.3 1.5 -1.3 2.2 -1.9c.9 -.6 .9 -1.4 1.7 -2.2c.8 -.7 1.5 -.7 2.2 -1.7c.4 -.6 .6 -1.3 1.7 -1.9c.6 -.4 .9 -.5 1.4 -1.1c.3 -.5 .4 -.8 .7 -1.1c.7 -1.1 1.5 -1.1 2.2 -1.8c.6 -.6 .7 -1.2 1.2 -1.8c.6 -.6 1.3 -.7 1.8 -1.2c.8 -.7 .8 -1.5 1.7 -2.2c.8 -.6 1.4 -.7 2.1 -1.8q.8 -1.2 2.1 -2c.5 -.3 .7 -.4 1.1 -.8c-.5 1 -1 1.1 -1.5 1.5c-1.1 .6 -1.1 1.4 -1.8 2.1c-.7 .9 -1.5 .8 -2.2 1.7c-.5 .7 -.6 1.3 -1.6 2c-.6 .4 -1.1 .6 -1.6 1.3c-.5 .6 -.6 1.3 -1.6 1.9c-.8 .6 -1.2 .6 -2 1.9c-.9 1.7 -1.8 1.4 -2.6 2.3c-.6 .7 -.7 1.5 -1.8 2.3c-1 .6 -1.2 .5 -2 1.8c-.8 1.3 -1.4 1.4 -2.2 1.9c-.9 .7 -.9 1.5 -1.7 2.2c-.3 .4 -.9 .7 -1.2 .8c-1.3 .8 -1.1 1.8 -2.3 2.7c-.7 .5 -1.3 .5 -2 1.8c-1 1.7 -1.7 1.5 -2.5 2.3c-.5 .4 -.1 0 -.4 .3q-.1 .1 -.2 .3c-.2 .1 -.3 .3 -.5 .5Z" class="g2_4"/>
</g>
<path d="M654.5 310.8c1.8 -1.5 1.3 -2.1 2.5 -3c.8 -.6 1.2 -.5 2.4 -1.9c-.2 .4 -.3 .9 -.6 1.2c-.6 .6 -1.2 .7 -1.8 1.3c-.5 .5 -.6 .9 -1 1.4c-.5 .6 -.7 .7 -1.5 1Z" class="g2_4"/>
<path clip-path="url(#c3_4)" d="M636.5 329.1c.5 -.7 .2 -.9 .9 -1.7c.8 -.9 1.5 -.8 2.2 -1.7c.6 -.7 .6 -1.5 1.9 -2.2c1.2 -.7 1.1 -.7 1.9 -1.9c.4 -.7 .8 -1 1.5 -1.4c1.2 -.7 .9 -.8 2 -1.9c-.4 .9 -.3 1.3 -1.9 2.2c-1.8 1.1 -1.1 2 -2.9 3.1c-.7 .4 -1.1 .6 -1.6 1.5c-1.3 2.3 -2.1 1.4 -3.1 3c-.2 .4 -.6 .8 -.9 1Z" class="g2_4"/>
<path d="M653.9 310.3c1.7 -1.3 1.4 -1.8 2.3 -2.7c.8 -.9 1.3 -.6 2.7 -2.2c-.4 .9 -.5 1 -.8 1.3c-.4 .3 -.9 .6 -1.3 .9c-.6 .4 -.8 .7 -1.1 1.3c-.6 1 -.9 1.1 -1.8 1.4Z" class="g2_4"/>
<path clip-path="url(#c3_4)" d="M635.4 329.1c.3 -.4 .5 -.6 .9 -1.3c.9 -1.7 1.6 -1.6 2.3 -2.2c.8 -.5 .9 -1.2 1.4 -1.8c.5 -.7 1.1 -.9 1.8 -1.3c1.2 -1 .7 -1.7 2.2 -2.4c-1 .9 -.8 2 -2.5 3c-.8 .5 -1.1 .7 -1.6 1.6c-.9 1.5 -1.6 1.4 -2.4 2.1c-1 .9 -.7 1.6 -2.1 2.3Z" class="g2_4"/>
<path d="M653.4 309.8c.2 -.2 .5 -.4 .6 -.6q.1 -.1 .2 -.2c.6 -.5 .7 -1 1.1 -1.6c.9 -1.2 1.4 -.6 3.1 -2.6c-.3 .7 -.4 1.1 -1 1.5c-.6 .5 -1.2 .6 -1.8 1.4c-.3 .5 -.5 1 -1 1.4c-.3 .4 -.7 .5 -1.2 .7Z" class="g2_4"/>
<path d="M634.2 328.9c1.4 -1.1 1.4 -1.5 1.8 -2.1c.8 -1.2 1.6 -1.2 2.3 -1.9c.8 -.7 .8 -1.5 1.8 -2.3c.6 -.4 1.3 -.6 2.3 -1.8c-.1 .3 -.3 .9 -.6 1.1c-.6 .6 -1 .7 -1.4 1c-1 .7 -1 1.5 -1.8 2.3c-.4 .4 -.9 .6 -1.3 .8c-1.3 .9 -1.1 2.1 -2.4 2.7c-.2 .1 -.4 .1 -.7 .2Z" class="g2_4"/>
<path d="M652.8 309.3c1.2 -1 1.4 -1.4 1.7 -2c.9 -1.5 1.5 -1.2 2.7 -2.3c.6 -.6 .8 -1.1 .5 -.3c-.5 1.2 -1.2 1.2 -2 1.8c-.9 .7 -.9 1.4 -1.6 2.1c-.3 .3 -.6 .4 -1.3 .7Z" class="g2_4"/>
<path d="M633.2 328.8c.8 -1 1.3 -.9 1.9 -1.9c.7 -1.1 .7 -1.3 2 -2c1.1 -.7 1.2 -1.3 1.7 -2.1c.5 -.6 1.4 -1.1 1.4 -1.1c.3 0 .7 -.2 1 -.4c-.8 1 -1.4 .8 -2.1 1.8c-.5 .7 -.6 1.4 -1.8 2.1c-1.2 .7 -1.2 .8 -1.9 1.9c-.8 1.3 -1.6 1.3 -2.2 1.7Z" class="g2_4"/>
<path d="M652.3 308.7c1.8 -1.5 1.3 -1.7 2.3 -2.7c.9 -.9 1.2 -.5 2.7 -2.3c-.4 1.2 -.4 1.3 -1.8 2.1c-.5 .3 -.8 .6 -1.2 1.2c-.8 1.3 -.9 1.3 -2 1.7Z" class="g2_4"/>
<path d="M632.3 328.6c.6 -1.1 1.1 -.9 1.8 -1.7c.7 -.6 .7 -1.3 1.5 -2c.7 -.5 1.4 -.6 2 -1.4c.6 -.8 .5 -1.3 1.7 -1.8c-.6 .5 -.9 1.3 -1.4 2c-.7 .9 -1.4 1 -2 1.5c-.8 .7 -.8 1.3 -1.5 2c-.8 .9 -1.4 .8 -2.1 1.4Z" class="g2_4"/>
<path d="M651.8 308.2c1.5 -1.2 1.3 -1.6 1.9 -2.4c.8 -1 1.3 -.8 2.5 -1.9c.2 -.2 .4 -.4 .6 -.7c-.4 .9 -.5 1.1 -1.1 1.6c-.5 .3 -.9 .4 -1.4 1c-.6 .6 -.7 1.2 -1.3 1.8c-.3 .3 -.6 .4 -1.2 .6Z" class="g2_4"/>
<path d="M631.5 328.3c.8 -1.5 1.6 -1 2.5 -2.4c.4 -.5 .6 -1.2 1.5 -1.8c.6 -.4 1.2 -.6 1.7 -1.4c.1 -.1 .5 -.7 .8 -.9c-.2 .4 -.3 .9 -.4 1.1c-.6 .9 -1.3 1.2 -1.9 1.5c-.8 .6 -1 1.2 -1.4 1.7c-.8 1.3 -1.9 1.3 -2.8 2.2Z" class="g2_4"/>
<path d="M651.2 307.7c1.5 -1.2 1.4 -1.7 2 -2.4c.7 -1 1.3 -.9 2.4 -1.9c.6 -.6 .8 -1.1 .5 -.3c-.6 1.4 -1.5 1.3 -2.3 2.1c-.7 .7 -.7 1.3 -1.5 2c-.2 .2 -1 .4 -1.1 .5Z" class="g2_4"/>
<path d="M630.8 328.1c.7 -1.7 1.5 -1.2 2.4 -2.4c.5 -.5 .6 -1.2 1.3 -1.8c.9 -.7 1.2 -.4 2.6 -2.1c-.5 1.3 -.5 1.2 -1.9 2.1c-.8 .5 -1 1 -1.4 1.6c-.5 1 -1.1 1.2 -1.7 1.5c-.4 .3 -.4 .4 -.6 .4c-.2 .2 -.4 .3 -.7 .7Z" class="g2_4"/>
<path d="M650.7 307.2c1.2 -1.1 1.3 -1.4 1.7 -2c.8 -1.5 1.5 -1.2 2.7 -2.3c.5 -.5 .8 -1.1 .4 -.3c-.6 1.5 -1.6 1.2 -2.6 2.4c-.3 .5 -.5 1.1 -1.2 1.7c-.1 .1 -.9 .4 -1 .5Z" class="g2_4"/>
<path d="M630.1 327.8c.1 -.2 .3 -.8 .5 -1c.7 -.7 1.2 -.8 1.8 -1.3c.6 -.6 .8 -1.2 1.3 -1.8c.7 -.9 1.8 -1.1 2.6 -2c-.7 1.9 -1.6 .8 -2.9 3.2c-1 1.6 -1.9 1.2 -3.3 2.9Z" class="g2_4"/>
<path d="M650.1 306.6c1.7 -1.3 1.4 -1.5 2 -2.3c.8 -1.2 1.5 -.7 3.1 -2.7c-.2 .3 -.2 .6 -.4 .9c-.6 1 -1.8 .9 -2.6 2.4c-.8 1.4 -1 1.3 -2.1 1.7Z" class="g2_4"/>
<path d="M629.4 327.5c.4 -.9 .3 -1 .8 -1.4c.7 -.6 1.2 -.7 1.8 -1.3c.9 -.9 .5 -1.7 2.8 -2.8c.6 -.2 .9 -.7 .6 -.2c-.9 1.2 -1.4 .8 -2.2 1.9c-.3 .6 -.6 1.2 -1.4 1.8c-1.1 .8 -.7 .1 -2.4 2Z" class="g2_4"/>
<path d="M649.6 306.1c1.6 -1.4 1.3 -1.5 1.9 -2.3c.8 -1.2 1.7 -.9 3.1 -2.6c-.1 .3 -.2 .5 -.4 .8c-.5 .9 -1.6 1 -2.3 2c-.3 .4 -.8 1.5 -1.5 1.8c-.3 .1 -.1 0 -.8 .3Z" class="g2_4"/>
<path d="M628.8 327.2c.3 -.7 .2 -.9 .7 -1.4c.6 -.7 1.2 -.8 1.7 -1.3c1.1 -.8 .9 -1.9 2.5 -2.7c.1 0 .5 -.1 .9 -.4c-.8 1 -1.4 .8 -2.1 2.2c-1.1 1.9 -2 1.5 -2.8 2.5c0 0 -.5 .7 -.9 1.1Z" class="g2_4"/>
<path d="M649 305.6c.4 -.3 1 -.9 1.3 -1.2c.6 -.8 .5 -1.4 2.1 -2.3c.7 -.4 1.1 -.8 1.6 -1.4c-.4 1.2 -.6 1.2 -1.8 1.9c-1.4 .9 -1.2 2.2 -2.5 2.8c-.3 .1 -.4 .1 -.7 .2Z" class="g2_4"/>
<path d="M628.1 326.8c.4 -.7 .2 -.7 .7 -1.4c.5 -.7 1.2 -.9 1.7 -1.2c1.4 -1 .9 -2.2 2.8 -2.9c.5 -.2 .7 -.3 .1 .2c-.1 .1 -.3 .2 -.4 .3c-.1 .1 -.4 .2 -.7 .7c-.4 .5 -.6 1.1 -1.2 1.7c-.8 .7 -1.5 .7 -2.2 1.8c0 0 -.5 .6 -.8 .8Z" class="g2_4"/>
<path d="M648.5 305.1c0 0 .9 -.8 1.2 -1.2c.5 -.6 .6 -1.2 1.4 -1.8c.7 -.6 1.4 -.7 2.4 -1.9c-.6 1.7 -1.1 1.3 -2.2 2.2c-.7 .6 -.8 1.1 -1.3 1.7c-.5 .7 -.7 .7 -1.5 1Z" class="g2_4"/>
<path d="M627.5 326.5c.4 -.7 .2 -.8 .6 -1.4c.7 -1 1.4 -1.1 2 -1.6c1.1 -.8 .9 -1.9 2.4 -2.5c.9 -.4 .3 -.2 -.6 .7c-.5 .7 -.6 1.1 -1.2 1.8c-.4 .4 -.8 .6 -1.2 .9c-1.3 .7 -1 1.2 -2 2.1Z" class="g2_4"/>
<path d="M647.9 304.6c.1 -.2 .3 -.3 .5 -.4c1.3 -1.2 1 -1.5 1.8 -2.3c.8 -.9 1.6 -.8 2.8 -2.2c-.5 1.3 -.8 1.2 -1.9 1.9c-.8 .5 -1 1.2 -1.4 1.7c-.6 1 -1.1 1 -1.8 1.3Z" class="g2_4"/>
<path d="M626.8 326c.5 -.7 .3 -.9 1 -1.7c.7 -.9 1.6 -.9 2.3 -1.8c.8 -1 .5 -1.5 2.1 -2.1c-.8 .7 -1.3 1.5 -1.5 1.9c-.8 1.3 -1.5 1.3 -2.3 1.9c-.7 .7 -.6 1.1 -1.6 1.8Z" class="g2_4"/>
<path d="M647.2 304.1c.1 0 1.1 -.9 1.2 -1c.7 -.6 .7 -1.5 1.9 -2.3c.4 -.3 1.3 -.7 2.1 -1.6c-.7 1.8 -1.6 1.4 -2.5 2.5c-.5 .6 -.5 1 -1.1 1.6c-.6 .6 -.7 .5 -1.6 .8Z" class="g2_4"/>
<path d="M626.2 325.6c.4 -.6 .4 -.7 .7 -1.3c.8 -1.4 1.6 -1.3 2.4 -2.1c.9 -.9 .6 -1.6 2.2 -2.2c-.5 .4 -.7 .7 -.7 .8c-.1 .1 -.2 .2 -.5 .6c-.8 1.5 -1.3 1.5 -2.1 2.1c-1 .6 -.9 1.3 -2 2.1Z" class="g2_4"/>
<path d="M646.6 303.6c.6 -.4 1.3 -.9 1.7 -1.5c.3 -.5 .5 -1.1 1.1 -1.6c.7 -.5 1.6 -.8 2.4 -1.8c-.6 1.6 -1.1 1.3 -2.1 2.1c-.7 .6 -.8 1.3 -1.4 1.9c-.6 .7 -.9 .6 -1.7 .9Z" class="g2_4"/>
<path d="M625.6 325.1c.4 -.5 .4 -.7 .7 -1.3c1.1 -1.8 2 -1.1 3.1 -3c.4 -.6 .6 -1 1.5 -1.3c-.8 .7 -1.1 1.7 -1.7 2.3c-.7 .8 -1.3 .8 -2 1.5c-.7 .7 -.5 1.1 -1.6 1.8Z" class="g2_4"/>
<path d="M647.1 302.3c.7 -.5 .8 -1.2 1.3 -1.8c.4 -.6 .9 -.8 1.5 -1.1c.4 -.3 .5 -.4 .6 -.5c.3 -.1 .5 -.4 .7 -.6c-.6 1.5 -1.3 1.2 -2.2 2.2c-.9 .8 -.7 1.8 -2.6 2.5c-.4 .1 -.9 .5 .7 -.7Z" class="g2_4"/>
<path d="M625.1 324.6c.5 -.7 .4 -1 1.1 -1.9c.5 -.6 .8 -.7 1.4 -1.1c1.6 -.9 1 -1.9 2.7 -2.6c-.4 .3 -.5 .5 -.9 1.1c-.7 1.1 -.5 1.2 -2 2.1c-1.5 .9 -.9 1.4 -2.3 2.4Z" class="g2_4"/>
<path d="M645.4 302.7c.5 -.6 1 -.8 1.4 -1.1c.6 -.6 .7 -1.2 1.3 -1.9c.7 -.8 1.7 -.9 2.6 -1.9c-.6 1.3 -1.2 1.2 -2 1.9c-.6 .5 -.7 .9 -1.1 1.4c-.8 1.3 -1.6 1.3 -2.2 1.6Z" class="g2_4"/>
<path d="M624.5 324.1c.1 -.1 .4 -.5 .5 -.9c0 -.1 .4 -.8 .8 -1.2c.7 -.7 1.4 -.8 2 -1.5c.8 -.8 .6 -1.5 2 -2.1c-.4 .4 -.8 1.1 -1.1 1.6c-1.1 2 -2.1 1.2 -3.1 3c-.2 .3 -.4 .6 -1.1 1.1Z" class="g2_4"/>
<path d="M644.7 302.3c.6 -.7 1 -.8 1.4 -1.1c.7 -.6 .8 -1.2 1.3 -1.9c.8 -.9 1.9 -1 2.7 -1.9c-.7 1.6 -1.7 1.1 -2.6 2.5c-.4 .6 -.6 1.2 -1.6 1.8c-.5 .4 -.6 .3 -1.2 .6Z" class="g2_4"/>
<path d="M624 323.5c.3 -.4 .4 -.5 .5 -.8c0 -.1 .5 -1.1 1.2 -1.6c.6 -.4 1.1 -.6 1.6 -1.1c.8 -.9 .6 -1.6 2 -2.1c-.4 .4 -.9 1 -1.1 1.5c-1.2 2.1 -2.1 1.2 -3.2 3.1c-.1 .2 -.2 .5 -1 1Z" class="g2_4"/>
<path d="M644 302c.7 -1.1 1.3 -.9 2 -1.9c.4 -.5 .6 -1 1.1 -1.5c.7 -.7 1.7 -1 2.4 -1.6c-.6 1.1 -1.1 1.1 -1.8 1.6c-.6 .4 -.7 .8 -1.1 1.4c-.8 1.4 -1.8 1.4 -2.6 2Z" class="g2_4"/>
<path d="M623.5 323c.5 -.7 .4 -1 1 -1.8c.9 -1.1 1.8 -.9 2.6 -2.2c.6 -.9 .6 -1.3 1.8 -1.8c-.8 .7 -1.3 1.8 -1.4 2c-.7 1.1 -1.5 1.2 -2.1 1.7c-1 .7 -.8 1.4 -1.9 2.1Z" class="g2_4"/>
<path d="M643.3 301.6c.5 -.9 .9 -.9 1.4 -1.3c1.1 -.6 1.1 -1.4 1.8 -2.1c.8 -.9 1.7 -1 2.3 -1.6c-.5 1 -1 .9 -1.7 1.5c-.8 .6 -.8 1.3 -1.4 1.9c-.7 .8 -1.8 1.1 -2.4 1.6Z" class="g2_4"/>
<path d="M623.1 322.4c.5 -.8 .3 -1 1 -1.8c.6 -.9 1.3 -.9 2 -1.5c.9 -.9 .8 -1.7 2 -2.3c.9 -.4 .3 -.2 -.5 .8c-.4 .5 -.5 .8 -.9 1.3c-.9 1.3 -1.7 .9 -2.7 2.5c-.3 .4 -.6 .7 -.9 1Z" class="g2_4"/>
<path d="M642.6 301.3c.4 -.9 .8 -1 1.4 -1.4c1.3 -.8 1.1 -1.4 2.1 -2.4c.8 -.8 1.4 -.8 2.1 -1.4c-.7 1.2 -1 .9 -1.8 1.6c-.8 .8 -.7 1.5 -1.8 2.3c-.5 .4 -1.5 .8 -2 1.3Z" class="g2_4"/>
<path d="M622.6 321.7c.4 -.6 .3 -.7 .6 -1.2c1 -1.6 2 -1.1 3.1 -2.9c.7 -1.3 1.1 -1.3 1.9 -1.6c-1.1 .9 -1.2 1.1 -1.6 1.8c-.7 1.1 -1 1.3 -1.9 1.8c-1.3 .7 -1 1.3 -2.1 2.1Z" class="g2_4"/>
<path d="M641.9 301c.4 -.8 .6 -1.1 1.3 -1.5c2.1 -1.2 1.3 -2 3 -3.1c.6 -.3 .8 -.2 1.3 -.6c-.5 .7 -1 .9 -1.1 1c-1.6 .9 -.8 1.8 -3 3.1c-.4 .2 -.5 .3 -.7 .4c-.2 .2 -.3 .2 -.8 .7Z" class="g2_4"/>
<path d="M622.2 321.1c.4 -.7 .3 -1.2 1.1 -1.9c.6 -.5 1.1 -.7 1.7 -1.2c.9 -.7 .9 -2 2.2 -2.4c1 -.4 1 -.5 .2 .2c-.6 .4 -.8 .6 -1.2 1.2c-.3 .6 -.6 1.2 -1.4 1.7c-.6 .4 -1.2 .5 -1.7 1.4c-.3 .4 -.7 .8 -.9 1Z" class="g2_4"/>
<path d="M641.2 300.8c.2 -.6 .3 -.9 .7 -1.2c.5 -.5 .9 -.7 1.4 -1c1 -.7 .9 -1.5 1.8 -2.3c.6 -.5 1 -.6 1.3 -.7c.5 -.2 .6 -.3 .4 -.1c-.2 .2 -.7 .6 -.8 .6c-1.3 .9 -1.1 1.2 -1.8 2.1c-.8 1.2 -1.4 .7 -3 2.6Z" class="g2_4"/>
<path d="M621.8 320.4c.4 -.7 .3 -1 .9 -1.7c1 -.9 1.6 -.6 2.5 -2.2c.9 -1.6 1.7 -1.5 2.5 -2c-.5 .6 -1 .9 -1.2 1c-.9 .7 -.9 1.4 -1.6 2.1c-.6 .6 -1.2 .8 -1.7 1.2c-.5 .5 -.9 1.1 -1.4 1.6Z" class="g2_4"/>
<path d="M640.5 300.6c.4 -.8 .2 -.9 .7 -1.4c.7 -.8 1.4 -.8 2 -1.5c.5 -.5 .6 -1.1 1.1 -1.7c.8 -.7 1.1 -.6 1.8 -1c-.4 .5 -1.1 .9 -1.5 1.3c-.5 .5 -.6 1.1 -1.1 1.7c-.7 .7 -1.5 .8 -2.1 1.6c0 0 -.7 .8 -.9 1Z" class="g2_4"/>
<path d="M621.4 319.6c.1 -.2 .4 -.9 .4 -1c.6 -.8 1.3 -1 1.8 -1.4c.9 -.6 1 -1.3 1.6 -2c.5 -.6 1.3 -1 1.4 -1c.3 -.1 .6 -.3 .9 -.5c-.8 1.2 -1.2 .8 -2 1.7c-.6 .7 -.7 1.5 -1.7 2.2c-.3 .2 -.6 .3 -.9 .5c-.6 .4 -1.2 1.2 -1.5 1.5Z" class="g2_4"/>
<path d="M639.6 300.5c.5 -.8 .3 -1.2 1.3 -2.1c1 -.8 1.4 -.5 2.4 -2.1c.8 -1.4 1.3 -1.3 2.1 -1.7c-.2 .2 -.5 .4 -.6 .6c-1.5 1.3 -1.1 1.7 -2.2 2.5c-.7 .6 -1.3 .7 -1.9 1.6c-.1 .1 -.5 .7 -1.1 1.2Z" class="g2_4"/>
<path d="M621.1 318.8c0 -.2 .3 -.8 .4 -1c.7 -.7 1.3 -.8 1.9 -1.3c.6 -.6 .7 -1.2 1.3 -1.8c.7 -.9 1.7 -1 2.6 -2.1c-.7 1.8 -1.7 1.2 -2.7 2.8c-.3 .5 -.5 1.1 -1.4 1.7c-.4 .2 -.7 .4 -1 .6c-.3 .2 -.3 .3 -.5 .4c-.2 .2 -.5 .6 -.6 .7Z" class="g2_4"/>
<path d="M638.6 300.4c.4 -.4 .4 -.5 .9 -1.4c.7 -1.2 1 -1.2 2 -1.8c1.2 -.8 1.2 -1.8 2 -2.4c.2 -.2 .9 -.5 1 -.5c-1.4 1.1 -1.3 1.7 -1.9 2.5c-.7 .8 -1.5 .9 -2.2 1.6c-.7 .8 -.5 1.4 -1.8 2Z" class="g2_4"/>
<path d="M620.7 318c.6 -1.5 1.2 -1.3 2.1 -2.1c.7 -.6 .8 -1.2 1.4 -1.8c.7 -.8 1.3 -.8 1.9 -1.4c.2 -.2 .7 -.8 1.1 -1.3c-.4 .9 -.2 1.3 -1.8 2.3c-.9 .5 -1.1 .7 -1.5 1.6c-1 1.6 -2.2 1.5 -3.2 2.7Z" class="g2_4"/>
<path d="M637.2 300.4c.2 -.2 .5 -.4 .7 -.6c1.5 -1.3 1.1 -1.9 2.4 -2.8c.6 -.4 1.2 -.5 1.7 -1.4c.4 -.7 .5 -1.2 1.6 -1.6c-.6 .5 -1.1 1.5 -1.3 1.8c-.6 .9 -1.2 1.2 -1.8 1.5c-.8 .6 -1 1.1 -1.4 1.7c-.6 1.1 -1.1 1.1 -1.9 1.4Z" class="g2_4"/>
<path d="M620.4 317.1c.5 -.9 1 -1.1 1.4 -1.3c.9 -.6 1.1 -1.2 1.5 -1.8c.6 -1 1.3 -1.1 1.9 -1.6c1.2 -.8 .7 -1.3 2.1 -2.2c-.7 .8 -.7 1.8 -1.8 2.5c-.7 .5 -1.3 .6 -1.9 1.5c-.4 .6 -.6 1.3 -1.6 1.9c-.9 .6 -1.1 .5 -1.6 1Z" class="g2_4"/>
<path d="M635.9 300.5c.8 -1.4 1.5 -.8 2.5 -2.5c.6 -1 .9 -1.2 1.8 -1.8c1.7 -.9 1.1 -1.7 2.5 -2.5c-.7 .9 -.6 1.9 -2.3 2.9c-.9 .5 -1.1 .7 -1.6 1.6c-1 1.7 -2.1 1.6 -2.9 2.3Z" class="g2_4"/>
<path d="M620.2 316.2c.7 -.9 1.2 -.9 1.9 -1.6c.5 -.7 .6 -1.4 1.6 -2c.6 -.5 1.3 -.6 1.8 -1.6c.6 -1 .6 -1.3 1.9 -1.7c-1.2 .9 -1.3 1.8 -1.9 2.4c-.7 .8 -1.4 .9 -2.1 1.6c-.6 .6 -.7 1.3 -1.5 2c-.8 .6 -1 .4 -1.7 .9Z" class="g2_4"/>
<path d="M634.9 300.8c.4 -1.1 .4 -1.2 1.7 -2c1 -.6 1.1 -1.1 1.6 -1.8c.6 -1 1.4 -1.2 2 -1.6c.8 -.7 .7 -1.2 1.7 -1.9c-.5 .7 -.4 1.6 -2 2.5c-1 .6 -1.2 .8 -1.7 1.8c-1 1.7 -1.7 1 -3.3 3Z" class="g2_4"/>
<path d="M620 315.4c.8 -.8 1.3 -.9 1.8 -1.8c.6 -.9 .7 -1.2 1.9 -1.9c1.1 -.7 1.2 -1.1 1.7 -1.9c.3 -.5 .8 -1 1.4 -1.2c.9 -.3 1.1 -.6 .1 .2c-.4 .4 -.8 .5 -1.2 1.2c-.5 .8 -.6 1.3 -1.8 2c-1.1 .6 -1.2 1 -1.7 1.8c-.8 1.3 -1.5 1.2 -2.2 1.6Z" class="g2_4"/>
<path d="M633.5 301.3c.4 -.5 .5 -.8 .7 -1.2c.8 -1.4 1.3 -1.4 2.1 -1.9c1 -.7 1 -1.4 1.7 -2.1c.5 -.7 1.2 -.9 1.7 -1.3c.6 -.5 .5 -.6 1.3 -1.5c-.3 .8 -.2 1.1 -1.1 1.8c-.7 .6 -1.4 .6 -2 1.8c-.7 1.1 -.8 1.2 -2 2c-1.5 .8 -1 1.6 -2.4 2.4Z" class="g2_4"/>
<path d="M619.9 314.6c1.6 -1.3 1.3 -1.5 2 -2.4c1 -1.3 1.7 -.7 2.8 -2.7c.6 -.9 .9 -1.1 1.8 -1.6c1.4 -.9 1 -1.4 2.2 -2.3c-.4 .5 -.4 .9 -.5 .9c-.7 1.7 -2 1.7 -2.7 2.6c-.5 .6 -.7 1.3 -1.5 1.9c-.4 .4 -.9 .6 -1.3 .9c-.9 .7 -1.1 1.9 -1.9 2.3c-.4 .2 -.5 .3 -.9 .4Z" class="g2_4"/>
<path d="M619.7 313.8c.6 -.5 1 -1.1 1.4 -1.7c.7 -1.2 1.4 -1.3 2.1 -1.9c.7 -.5 .9 -1.2 1.4 -1.8c.6 -.8 1.3 -.9 1.8 -1.4c.7 -.5 .9 -1.2 1.4 -1.8c.6 -.8 1.2 -.9 1.9 -1.4c.5 -.5 .7 -.9 1 -1.4c.7 -1.1 1.5 -1.3 2.2 -1.8c.7 -.6 .8 -1.4 1.4 -1.9c.5 -.6 1 -.7 1.4 -1.1c.9 -.5 1.1 -1.1 1.4 -1.7c.6 -.9 1.3 -1.1 1.9 -1.5c1.1 -.8 1.5 -1.8 1.1 -.8c-.6 1.4 -1.5 1.2 -2.4 2.2c-.4 .5 -.6 1 -1 1.5c-.7 .8 -1.3 .8 -2 1.5c-.6 .7 -.7 1.2 -1.2 1.7c-.7 .8 -1.3 .8 -2 1.5c-.7 .7 -.7 1.4 -1.6 2.1c-.7 .5 -1.2 .6 -1.8 1.3c-.4 .5 -.6 1 -1.1 1.6c-.6 .6 -1.1 .8 -1.6 1.1c-1 .8 -.9 1.7 -2 2.4c-.7 .6 -1.3 .6 -2 1.7c-.5 .9 -.6 1.2 -1.7 1.6Z" class="g2_4"/>
<path d="M619.6 313c.7 -.7 .8 -1.7 1.9 -2.5c.9 -.7 1.3 -.5 2.2 -2.1c.5 -.8 .9 -1.1 1.6 -1.5c1.5 -.9 1.3 -1.6 2.2 -2.5c.7 -.7 1.3 -.7 1.9 -1.4c.4 -.4 .5 -.7 .8 -1.1c.5 -.9 1.1 -1.1 1.7 -1.5c1.2 -.7 1.1 -1.5 2 -2.4c.8 -.8 1.6 -.7 2.3 -1.9c.4 -.6 .6 -1.2 1.5 -1.7c.3 -.2 1.3 -.7 1.8 -1.3c-.6 1.3 -1.2 1.2 -2 1.8c-.7 .6 -.8 1.2 -1.3 1.8c-.7 1 -1.6 .9 -2.4 1.9c-.6 .9 -.5 1.4 -2.1 2.3c-1.4 .8 -1.2 1.5 -2.1 2.4c-.6 .7 -1.1 .7 -1.8 1.4c-.8 .7 -.8 1.5 -1.9 2.2c-.5 .4 -1 .5 -1.4 1c-.4 .5 -.6 1 -1 1.5c-.7 .9 -1.4 1 -2.1 1.6c-.8 .9 -.6 1.4 -1.8 2Z" class="g2_4"/>
<path d="M619.6 312c.6 -1 .1 -1.3 2.2 -2.6c1.6 -.9 1 -1.9 2.9 -3c1.9 -1.1 1.3 -2 2.9 -3c.5 -.3 .7 -.4 1.2 -.9c.6 -.6 .6 -1 1.1 -1.5c.7 -1 1.6 -1 2.3 -1.9c.5 -.6 .6 -1.3 1.6 -2c.6 -.4 1.1 -.6 1.6 -1.2c.5 -.6 .7 -1.4 1.7 -2c.7 -.5 .9 -.4 1.3 -.7q.2 -.2 .1 0c-.7 1 -1.4 .8 -2.1 1.8c-.3 .5 -.4 .9 -.9 1.4c-.7 .7 -1.2 .7 -1.8 1.3c-.8 .7 -.7 1.3 -1.7 2.2c-.6 .5 -.9 .5 -1.5 1c-.8 .7 -.7 1.1 -1.4 1.9c-.7 .7 -1.3 .8 -1.9 1.4c-.6 .6 -.7 1.2 -1.2 1.7c-.7 .8 -1.4 .8 -2.1 1.6c-.5 .5 -.6 1.1 -1.2 1.7c-.6 .6 -1.1 .7 -1.8 1.2c-.5 .5 -.6 1 -1.3 1.6Z" class="g2_4"/>
<path d="M619.6 310.7c.6 -1.7 1.2 -1.3 2.2 -2.2c1 -.9 .6 -1.7 2.4 -2.7c1.7 -.9 1.3 -1.6 2.3 -2.6c.7 -.6 1.3 -.6 2 -1.4c.4 -.5 .4 -.8 .8 -1.3c.6 -.8 1.3 -.9 1.9 -1.5c.7 -.5 .8 -1 1.2 -1.5c.7 -1.1 1.4 -1.1 2.2 -1.8c.5 -.5 .6 -.8 .9 -1.2c.7 -1.2 1.3 -1.2 1.9 -1.5c-.9 .9 -1.2 .9 -1.6 1.6c-.3 .5 -.4 .8 -.9 1.3c-1 .9 -1.6 .7 -2.4 2.1c-1.4 2.4 -2 1.2 -3.3 3.4c-1.1 1.8 -2 1.3 -2.9 2.7c-.3 .4 -.4 .8 -.8 1.3c-.6 .5 -.9 .6 -1.4 1c-1.5 .9 -1 1.9 -2.7 2.9c-.7 .4 -1.3 .7 -1.8 1.4Z" class="g2_4"/>
<path d="M619.6 309.3c.7 -.9 1.1 -.8 1.7 -1.4c1 -.9 .5 -1.5 2.4 -2.6c1.3 -.8 1.3 -1.4 1.9 -2.1c.9 -1.3 1.8 -1 2.7 -2.4c.3 -.6 .6 -1.2 1.5 -1.7c1.2 -.8 1.1 -.7 1.9 -2c.8 -1.3 1.6 -1.1 2.5 -2.1c.7 -.8 .6 -1.3 1.7 -1.9c-.6 .6 -.9 1.8 -1.7 2.4c-.7 .6 -1.2 .6 -1.9 1.4c-.4 .5 -.5 1.1 -1.1 1.7c-.6 .6 -1.2 .7 -1.8 1.2c-1 1 -.5 1.6 -2.4 2.7c-1.3 .7 -1.3 1.4 -1.9 2.1c-.9 1.2 -1.8 .9 -2.7 2.4c-1.2 2 -1.8 1.7 -2.8 2.3Z" class="g2_4"/>
<path d="M619.8 308.3c.3 -.3 1.1 -1 1.4 -1.4c.4 -.6 .6 -1.3 1.8 -2c1 -.7 1.1 -.7 1.8 -1.8c.9 -1.7 2 -1.3 2.9 -2.7c.5 -.9 .6 -1.3 1.9 -2c1.7 -1 1.2 -1.9 2.7 -2.9c.6 -.4 1 -.5 1.6 -1.2c.1 -.3 .6 -.8 .8 -1c-.3 .7 -.2 .8 -.6 1.2c-.7 1 -1.4 1 -2.1 1.7c-.5 .5 -.7 1.1 -1.1 1.6c-.6 .7 -1.2 .9 -1.7 1.2c-.9 .7 -1 1.4 -1.6 2.1c-.6 .7 -1.2 .8 -1.7 1.2c-.6 .5 -.8 1 -1.1 1.6c-.7 1 -1.5 1.1 -2.2 1.7c-.8 .6 -.8 1.3 -1.6 2.1c-.3 .3 -.3 .2 -1.2 .6Z" class="g2_4"/>
<path d="M619.9 307.3c.8 -.6 1.1 -1.8 1.9 -2.5c.6 -.6 1.3 -.7 1.9 -1.4c.5 -.7 .6 -1.4 1.6 -2c.6 -.5 1.2 -.6 1.8 -1.5c.4 -.7 .6 -1.3 1.7 -1.9c.9 -.5 1.1 -.7 1.7 -1.6c1.1 -2 2 -1.4 3.2 -2.9c-.6 1.5 -1.3 1.2 -2.2 2.1c-.7 .6 -.7 1.3 -1.5 2c-.6 .6 -1.3 .7 -1.9 1.5c-.5 .6 -.6 1.3 -1.6 1.9c-.6 .5 -1.2 .6 -1.8 1.5c-.4 .6 -.6 1.3 -1.7 1.9c-.8 .5 -1.1 .7 -1.7 1.6c-.3 .5 -.5 .9 -1.4 1.3Z" class="g2_4"/>
<path d="M620.3 305.9c.4 -.9 .2 -.9 .8 -1.5c.6 -.6 1.2 -.7 1.8 -1.2c.6 -.6 .7 -1.2 1.2 -1.8c.6 -.7 1.2 -.8 1.8 -1.3c.7 -.5 .8 -1.1 1.3 -1.7c.5 -.8 1.2 -1 1.7 -1.4c.8 -.5 1 -1 1.3 -1.6c.8 -1.2 1.6 -1.2 2.3 -1.6c-.3 .3 -.8 .7 -.9 .8c-1.2 .7 -1.2 1.6 -2 2.4c-.6 .6 -1.2 .7 -1.8 1.2c-.6 .6 -.7 1.2 -1.2 1.8c-.7 .7 -1.3 .8 -1.8 1.3c-.7 .5 -.8 1.1 -1.3 1.7c-.6 .8 -1.2 1 -1.8 1.4c-.5 .3 -1 1.1 -1.4 1.5Z" class="g2_4"/>
<path d="M621.2 303.6c.1 -.1 1.2 -1 1.3 -1.1c.5 -.5 .6 -1.2 1.2 -1.8c.7 -.7 1.4 -.8 2 -1.4c.6 -.7 .6 -1.4 1.7 -2.2c.5 -.3 .8 -.4 1.3 -.8c.4 -.4 .7 -1 1.3 -1.5c-.4 .6 -.3 1.1 -1.1 1.8c-.5 .4 -.8 .5 -1.3 .8c-1.1 .9 -.9 1.9 -2.3 2.7c-.4 .3 -.9 .5 -1.3 .9c-.6 .6 -1 1.9 -2 2.3c-.4 .2 -.6 .2 -.8 .3Z" class="g2_4"/>
<path d="M621.8 302.4c.5 -.6 .7 -1.4 1.4 -2.2c.6 -.7 1.3 -.8 1.9 -1.4c.6 -.7 .7 -1.3 1.5 -2c.7 -.6 1.5 -.8 2.1 -1.4c-.4 .9 -.9 1.1 -1.3 1.3c-1 .6 -1.2 1.2 -1.6 1.8c-.6 1 -1.3 1.2 -1.9 1.6c-1.1 .8 -.9 1.5 -2.1 2.3Z" class="g2_4"/>
<path clip-path="url(#c4_4)" d="M0 596.3H1371.5V718.6H0V596.3Z" class="g3_4"/>
<path d="M696.4 887.5c1.7 -.6 3.4 -1 5.3 -1c7.7 0 13.9 5.9 13.9 13.2c0 7.2 -6.2 13.1 -13.9 13.1c-7.7 0 -13.8 -5.9 -13.8 -13.1c-2 -19.4 20.7 -33 20.7 -33l1.8 2.1c0 .1 -15 11.8 -14 18.7Z" class="g1_4"/>
<path d="M666.8 887.5c1.6 -.6 3.4 -1 5.3 -1c7.7 0 13.8 5.9 13.8 13.2c0 7.2 -6.1 13.1 -13.8 13.1c-7.7 0 -13.9 -5.9 -13.9 -13.1c-1.9 -19.4 20.7 -33 20.7 -33l1.8 2.1c0 .1 -15 11.8 -13.9 18.7Z" class="g1_4"/>
<path d="M726.5 786.8h48.2" class="g4_4"/>
<path d="M675.3 1049.6c-1.7 .6 -3.4 1 -5.3 1c-7.7 0 -13.9 -5.9 -13.9 -13.2c0 -7.2 6.2 -13.1 13.9 -13.1c7.7 0 13.8 5.9 13.8 13.1c2 19.4 -20.7 33 -20.7 33l-1.8 -2.1c0 -.1 15 -11.8 14 -18.7Z" class="g1_4"/>
<path d="M704.9 1049.6c-1.6 .6 -3.4 1 -5.3 1c-7.7 0 -13.8 -5.9 -13.8 -13.2c0 -7.2 6.1 -13.1 13.8 -13.1c7.7 0 13.9 5.9 13.9 13.1c1.9 19.4 -20.7 33 -20.7 33l-1.8 -2.1c0 -.1 15 -11.8 13.9 -18.7Z" class="g1_4"/>
<path d="M657.3 1231.5h48.2" class="g4_4"/>
<image clip-path="url(#c5_4)" preserveAspectRatio="none" x="233" y="1357" width="902" height="641" xlink:href="img/2.jpg"/>
<path clip-path="url(#c6_4)" d="M334.5 1299.7h699.6v699.6H334.5V1299.7Z" class="g3_4"/>
<path clip-path="url(#c7_4)" d="M334.5 1299.7h699.6v699.6H334.5V1299.7Z" class="g0_4"/>
<path clip-path="url(#c8_4)" d="M334.5 1299.7h699.6v699.6H334.5V1299.7Z" class="g3_4"/>
<path clip-path="url(#c9_4)" d="M334.5 1299.7h699.6v699.6H334.5V1299.7Z" class="g2_4"/>
<image clip-path="url(#ca_4)" preserveAspectRatio="none" x="233" y="2215" width="902" height="641" xlink:href="img/3.jpg"/>
<path clip-path="url(#cb_4)" d="M334.5 2157.3h699.6v699.5H334.5V2157.3Z" class="g3_4"/>
<path clip-path="url(#cc_4)" d="M334.5 2157.3h699.6v699.5H334.5V2157.3Z" class="g0_4"/>
<path clip-path="url(#cd_4)" d="M334.5 2157.3h699.6v699.5H334.5V2157.3Z" class="g3_4"/>
<path clip-path="url(#ce_4)" d="M334.5 2157.3h699.6v699.5H334.5V2157.3Z" class="g2_4"/>
<image clip-path="url(#cf_4)" preserveAspectRatio="none" x="233" y="3073" width="902" height="640" xlink:href="img/4.jpg"/>
<path clip-path="url(#cg_4)" d="M334.5 3014.9h699.6v699.5H334.5V3014.9Z" class="g2_4"/>
<path clip-path="url(#ch_4)" d="M334.5 3014.9h699.6v699.5H334.5V3014.9Z" class="g0_4"/>
<path clip-path="url(#ci_4)" d="M334.5 3014.9h699.6v699.5H334.5V3014.9Z" class="g2_4"/>
<path clip-path="url(#cj_4)" d="M334.5 3014.9h699.6v699.5H334.5V3014.9Z" class="g2_4"/>
</svg>