<?xml version="1.0" encoding="UTF-8" standalone="no"?>
<!DOCTYPE svg PUBLIC "-//W3C//DTD SVG 1.1//EN"
"http://www.w3.org/Graphics/SVG/1.1/DTD/svg11.dtd">
<svg viewBox="0 0 1371 5000" version="1.1" xmlns="http://www.w3.org/2000/svg" xmlns:xlink="http://www.w3.org/1999/xlink">
<defs>
<clipPath id="c0_7"><path d="M-.1 5001.2V-.1h1372V5001.2Z"/></clipPath>
<clipPath id="c1_7"><path d="M-.1 596.5V-.1h1372V596.5Z"/></clipPath>
<clipPath id="c2_7"><path d="M139.1 596.2V3.5H1201.2V596.2Z"/></clipPath>
<clipPath id="c3_7"><path d="M619.3 329.2V292.4h80.5v36.8Z"/></clipPath>
<style type="text/css"><![CDATA[
.g0_7{
fill: #FFF;
}
.g1_7{
fill: #000;
}
.g2_7{
fill: none;
stroke: #FFF;
stroke-width: 3.572;
stroke-miterlimit: 10;
}
.g3_7{
fill: #303B3E;
}
]]></style>
</defs>
<g clip-path="url(#c0_7)">
<path d="M0 0H1371.7V5001H0V0Z" class="g0_7"/>
<path d="M0 0H1371.7V5001H0V0Z" class="g0_7"/>
</g>
<path clip-path="url(#c1_7)" d="M-40.9 0h1416V596.3H-40.9V0Z" class="g1_7"/>
<image clip-path="url(#c2_7)" preserveAspectRatio="none" x="139" y="-111" width="1062" height="849" xlink:href="img/1.jpg"/>
<path d="M613 171.3h49.7" class="g2_7"/>
<path d="M691.4 326.1c.4 -.7 .3 -1.3 1.5 -2c.6 -.4 1.1 -.6 1.7 -1.5c.7 -1.1 .9 -1.4 1.8 -1.7c.8 -.4 .3 -.2 -.3 .4c-.3 .4 -.3 .1 -1.1 1.5c-1 1.5 -1.9 1.3 -2.8 2.4c0 0 -.7 .8 -.8 .9Z" class="g3_7"/>
<path d="M688.4 327.7c.5 -1 1 -1 1.6 -1.5c.9 -.6 1 -1.4 1.7 -2.1c.6 -.7 1.4 -.8 2 -1.5c.6 -.7 .6 -1.2 1.3 -1.9c.9 -.7 1.4 -.6 2.1 -1.5c.3 -.5 .4 -1 1.3 -1.5c-.8 1 -.6 1.9 -2.3 2.8c-2 1.2 -1.2 2 -3.1 3.1c-1.9 1.1 -1.3 1.7 -2.5 2.8c-.5 .4 -1.6 .9 -2.1 1.3Z" class="g3_7"/>
<path d="M687.3 328.2c.4 -1 .2 -.9 .6 -1.4c.4 -.5 1 -.7 1.4 -1c.7 -.4 .9 -.8 1.3 -1.5c1 -1.7 2 -1.2 3 -2.8c.3 -.5 .5 -1.1 1.3 -1.6c.6 -.4 1.1 -.5 1.6 -1.2c.6 -.8 .7 -1.5 1.8 -2c.8 -.3 .5 -.2 .1 .2c-.8 .7 -1.1 1.2 -1.3 1.5c-.8 1.5 -1.6 1.4 -2.3 2.1c-.6 .6 -.7 1.1 -1.2 1.7c-.6 .7 -1.2 .9 -1.7 1.3c-.7 .4 -.9 1 -1.2 1.5c-.9 1.4 -1.8 1.2 -2.6 2.2c-1.3 1.5 -.6 .7 -.8 1Z" class="g3_7"/>
<path d="M685.8 328.6c.7 -.7 1 -1.7 1.7 -2.5c.7 -.6 1.3 -.7 1.9 -1.4c.6 -.6 .7 -1.2 1.5 -1.9c.6 -.5 1.2 -.6 1.8 -1.4c.5 -.6 .6 -1.3 1.5 -1.9c.6 -.5 1.3 -.6 1.8 -1.4c.4 -.6 .6 -1.3 1.6 -1.9c.8 -.6 .9 -.4 1.5 -.9c-.2 .4 -.6 .8 -.8 .9c-2.3 1.3 -1 1.9 -3.4 3.3c-.9 .5 -1.1 .9 -1.5 1.7c-.6 1 -1.1 1.2 -1.8 1.6c-.9 .5 -1.1 1.1 -1.5 1.7c-.6 1 -1.3 1.2 -1.9 1.6c-1.4 .9 -.8 1.8 -2.4 2.5Z" class="g3_7"/>
<path d="M683.9 328.9c1 -1.3 1.3 -.5 2.4 -2.4c.6 -1 1 -1.2 1.9 -1.7c.9 -.6 1 -1.1 1.5 -1.7c.7 -1.2 1.5 -1.2 2.1 -1.8c.8 -.7 .8 -1.5 1.7 -2.2c.7 -.6 1.5 -.7 2.1 -1.7c.3 -.5 .6 -1.2 1.4 -1.7c.6 -.4 1.1 -.5 1.7 -1.3c.2 -.2 .7 -.8 .8 -1c-.4 .8 -.3 1.4 -1.7 2.3c-2.3 1.3 -1 1.9 -3.5 3.3c-1.1 .7 -1.2 1.3 -1.7 2c-.7 1 -1.5 1.1 -2.2 1.8c-.7 .7 -.7 1.4 -1.7 2.2c-.6 .3 -1.2 .5 -1.7 1.2c-.6 .8 -.7 1.7 -2.4 2.4c-.3 .1 -.5 .2 -.7 .3Z" class="g3_7"/>
<g clip-path="url(#c3_7)">
<path d="M682.9 329c.6 -1.4 1.3 -1.1 2.2 -2c.7 -.7 .7 -1.3 1.6 -2.1c.5 -.5 1.1 -.6 1.5 -1.1c.8 -.7 .8 -1.5 1.9 -2.3c.6 -.4 1.2 -.6 1.7 -1.3c.6 -.9 .5 -1.3 2.1 -2.2c1.6 -.9 1.2 -1.9 2.5 -2.8c.6 -.4 1.2 -.5 1.7 -1.3c.5 -.6 .5 -1.1 1.5 -1.7c-.4 .4 -.4 .6 -.8 1.3c-1.1 1.9 -1.8 1.4 -2.7 2.5c-.4 .5 -.5 1 -1.1 1.6c-.5 .6 -1 .7 -1.5 1.1c-1.1 .7 -1 1.5 -1.9 2.3c-.6 .6 -1.2 .7 -1.8 1.3c-.6 .6 -.7 1.4 -1.6 2.1c-.6 .4 -1.1 .5 -1.5 1c-.8 .8 -.8 1.6 -2 2.4c-.3 .1 -1.3 .7 -1.8 1.2Z" class="g3_7"/>
<path d="M682 329.1c.4 -.8 .4 -1.3 1.5 -1.9c.6 -.4 .9 -.5 1.3 -1.1c.5 -.6 .7 -1.2 1.4 -1.8c.7 -.5 1.2 -.6 1.8 -1.4c.4 -.5 .5 -.9 1.1 -1.5c.7 -.7 1.1 -.7 1.7 -1.2c.9 -.8 .8 -1.7 2.1 -2.5c.4 -.2 .8 -.4 1.2 -.8c.5 -.5 .6 -.9 .9 -1.3c.8 -1.2 1.7 -1.1 2.5 -2.1c.9 -1.1 .6 -1.6 2.2 -2.2c-1.2 1 -1.4 1.7 -1.9 2.4c-.9 1.1 -1.7 .9 -2.5 2.1c-.2 .4 -.4 .9 -.9 1.3c-.4 .5 -.9 .7 -1.3 1c-1.2 .7 -1.1 1.5 -2 2.4c-.6 .5 -1.1 .6 -1.8 1.2c-.5 .5 -.6 .9 -1 1.5c-.6 .8 -1.2 .9 -1.9 1.4c-.6 .5 -.8 1.1 -1.2 1.7c-.5 .7 -.9 .9 -1.5 1.2c-.6 .4 -1 .8 -1.7 1.6Z" class="g3_7"/>
<path d="M681.1 329.1c.5 -.7 .4 -1.3 1.3 -2.1c.8 -.6 1.4 -.6 2 -1.6c.3 -.4 .6 -1.1 1.2 -1.6c.5 -.4 .7 -.4 1.2 -.7c1.1 -.8 1 -1.7 2 -2.5c.6 -.5 1.3 -.6 1.7 -1.2c.5 -.6 .7 -1.3 1.4 -1.9c.4 -.3 .8 -.5 1.3 -.8c.8 -.6 .9 -1.2 1.4 -1.9c.9 -1.1 1.7 -.9 2.5 -2c.4 -.6 .5 -1.2 1.5 -1.9c.1 -.1 .7 -.2 1 -.4c0 0 -.8 .7 -.8 .7c-.9 .6 -1 1.2 -1.4 1.8c-.8 1.2 -1.7 1.1 -2.5 2c-.4 .6 -.5 1.1 -1.2 1.8c-.5 .4 -.9 .5 -1.4 .9c-.7 .5 -.8 1 -1.2 1.6c-1 1.5 -1.8 .8 -3 2.8c-.6 1.1 -1.1 1.3 -1.8 1.7c-1 .6 -1.2 1.3 -1.6 1.9c-.7 1 -1.3 1 -2 1.6c-.7 .5 -.8 1.1 -1.6 1.8Z" class="g3_7"/>
<path d="M680.1 329c.7 -.7 .8 -1.6 1.7 -2.4c.5 -.4 .7 -.5 1.2 -.8c.9 -.6 1 -1.3 1.6 -2c.7 -.9 1.4 -.9 2.1 -1.6c.7 -.7 .7 -1.6 1.9 -2.4c.6 -.3 .9 -.4 1.4 -.9c.5 -.6 .5 -.9 1 -1.5c.7 -.9 1.3 -.9 2.1 -1.6c.7 -.8 .7 -1.6 1.9 -2.3c.9 -.6 1.2 -.6 1.9 -1.7c1 -1.8 1.7 -1.5 2.7 -2.3c-.9 1.4 -1.4 .7 -2.4 2.5c-.6 1.1 -.9 1.2 -2 1.8c-1.1 .7 -1.1 1.5 -1.9 2.3c-.8 .9 -1.5 .7 -2.3 1.9c-.3 .5 -.4 .8 -.9 1.3c-.6 .6 -1 .7 -1.6 1.1c-1 .9 -.8 1.6 -1.9 2.4c-.9 .6 -1.3 .5 -2.2 2c-.9 1.5 -1.6 1.3 -2.5 2.2c-.8 .8 -.6 1.4 -1.8 2Z" class="g3_7"/>
</g>
<path d="M678.9 328.9q.5 -.4 .7 -.7c.1 -.1 .3 -.3 .5 -.6c.4 -.5 .5 -.9 1.1 -1.5c.6 -.5 1 -.6 1.5 -1c.8 -.7 .8 -1.2 1.4 -1.9c.5 -.6 1 -.8 1.5 -1.1c.8 -.5 1 -1.1 1.4 -1.7c.7 -1.1 1.5 -1.2 2.2 -1.8c.7 -.6 .7 -1.2 1.5 -2c.7 -.7 1.4 -.8 2 -1.5c.7 -.7 .5 -1.4 2.1 -2.4c1.7 -.9 1.3 -1.5 2.4 -2.6c.7 -.6 1.6 -.9 2.3 -1.6c-.5 1.1 -.9 1.1 -1.6 1.6c-1.2 .7 -1.1 1.6 -2.1 2.4c-.7 .7 -1.4 .7 -2.1 1.7c-.2 .3 -.4 .8 -.7 1.2c-.7 .8 -1.4 .9 -2.1 1.5c-.7 .8 -.7 1.4 -1.5 2c-.6 .6 -1.3 .7 -1.8 1.4c-.5 .6 -.7 1.2 -1.4 1.8c-.5 .5 -1 .6 -1.5 1.1c-.7 .6 -.8 1.1 -1.4 1.8c-.5 .6 -1 .8 -1.5 1.1c-.8 .5 -1 1.2 -1.4 1.7c-.4 .7 -.7 .8 -1.5 1.1Z" class="g3_7"/>
<path d="M690.9 315.7c.2 -.2 .6 -.4 .7 -.6c.1 0 .1 -.1 .1 -.1c.9 -.7 .9 -1.4 1.6 -2.1c.8 -.8 1.6 -.7 2.3 -1.9c.3 -.4 .4 -.7 .8 -1.2c1 -1 1.1 -.3 2.9 -2.4c-.4 .9 -.3 1 -.7 1.3c-.7 .7 -1.4 .7 -2.1 1.6c-.5 .7 -.6 1.4 -1.7 2.1c-.4 .2 -.8 .4 -1.2 .8c-.7 .7 -1 1.9 -1.9 2.2c-.4 .2 -.5 .2 -.8 .3Z" class="g3_7"/>
<path d="M677.8 328.7c.9 -.9 1.2 -.8 1.9 -1.7c.4 -.7 .6 -1.3 1.8 -2c1 -.6 1.1 -.8 1.7 -1.8c1 -1.6 2 -1.3 3.1 -2.7c-.7 2 -1.7 1 -3 3.2c-.8 1.4 -1.5 1.4 -2.2 2c-.7 .6 -.8 1.1 -1.2 1.6c-.4 .6 -.9 1 -1.1 1c-.1 .1 -.6 .2 -1 .4Z" class="g3_7"/>
<path d="M691.4 314.6c.5 -.7 .5 -1.1 1.1 -1.9c.7 -1 1.5 -1 2.2 -1.8c.7 -.6 .7 -1.4 1.9 -2.2c.5 -.3 1.1 -.5 1.7 -1.4c.2 -.3 .5 -.7 .8 -.9c-.1 .1 -.2 .3 -.3 .6c-.5 1.3 -1.4 1.6 -2 2.1c-1.1 .6 -1.1 1.4 -1.8 2.1c-.7 .9 -1.5 .8 -2.2 1.7c-.4 .6 -.5 1.1 -1.4 1.7Z" class="g3_7"/>
<path d="M676.9 328.5c.7 -1.1 1.3 -.9 2 -1.7c.5 -.6 .6 -1.4 1.7 -2.1c.7 -.5 1.2 -.6 1.9 -1.7c.7 -1.3 1 -1.3 2 -1.7c-2.3 2 -1.4 2.3 -3.1 3.4c-2.2 1.3 -1.3 2.1 -3.3 3.2c-.5 .3 -.7 .2 -1.2 .6Z" class="g3_7"/>
<path d="M691.8 312.7c.4 -.9 .7 -1.1 1.3 -1.5c1.6 -.9 1.3 -1.3 2.1 -2.2c.7 -.9 1.4 -1 2 -1.6c.8 -.7 .6 -1.2 1.7 -1.9c-.4 .5 -.4 .8 -.6 1.1c-.6 1.1 -.9 1.2 -1.9 1.8c-1 .6 -1.2 1.2 -1.6 1.9c-.8 1.2 -2 1.2 -3 2.4Z" class="g3_7"/>
<path d="M676.1 328.3c.8 -1.5 1.6 -1 2.5 -2.4c.4 -.6 .6 -1.2 1.6 -1.8c.6 -.4 1.1 -.6 1.7 -1.5c0 -.1 .5 -.6 .8 -.9c-.4 .7 -.2 .9 -.8 1.6c-.7 .8 -1.4 .9 -2 1.4c-.9 .9 -.7 1.7 -2.3 2.7c-1.1 .6 -1.2 .6 -1.5 .9Z" class="g3_7"/>
<path d="M692 311.4c.2 -.4 .7 -.8 .9 -.9c.9 -.5 1 -.9 1.5 -1.7c.6 -1 1.2 -1.2 1.8 -1.6c1.4 -.9 .9 -1.8 2.5 -2.5c-.4 .3 -.5 .5 -1 1.5c-.6 1 -1 1.2 -1.8 1.7c-.9 .5 -1.1 1 -1.5 1.7c-.4 .6 -1.1 1.1 -1.5 1.3c0 0 -.5 .2 -.9 .5Z" class="g3_7"/>
<path d="M675.4 328.1c.7 -1.7 1.5 -1.2 2.4 -2.4c.5 -.5 .6 -1.2 1.3 -1.8c.9 -.7 1.2 -.4 2.6 -2.1c-.5 1.4 -.5 1.2 -1.9 2.1c-.8 .5 -1 1 -1.3 1.6c-.6 1 -1.2 1.2 -1.8 1.5c-.4 .3 -.4 .4 -.6 .4c-.2 .2 -.4 .3 -.7 .7Z" class="g3_7"/>
<path d="M691.9 310.4c.2 -.1 .6 -.4 .7 -.5q.1 -.1 .2 -.2c.7 -.6 .8 -1.2 1.3 -1.8c.7 -.8 1.3 -1 1.9 -1.4c1.2 -1 .7 -1.8 2.4 -2.5c-.9 .7 -1.2 1.7 -1.7 2.3c-.6 .8 -1.3 .9 -1.9 1.4c-.7 .6 -.8 1.2 -1.3 1.8c-.5 .7 -.7 .6 -1.6 .9Z" class="g3_7"/>
<path d="M674.7 327.8c.3 -.8 .4 -1 .9 -1.4c.6 -.4 1.2 -.6 1.7 -1.2c.5 -.6 .6 -1.2 1.3 -1.8c.7 -.6 1.6 -.9 2.3 -1.6c-.6 1.3 -1.2 1.2 -2 1.8c-.7 .6 -.8 1.2 -1.3 1.8c-.9 1.1 -1.5 .7 -2.9 2.4Z" class="g3_7"/>
<path d="M691.9 309.6c1.4 -1.1 1.2 -2.1 2.5 -3c.6 -.4 1.2 -.5 1.7 -1.3c.8 -1.2 .6 -1.4 2 -2c-.2 .2 -.5 .5 -.7 .7c-.1 .2 -.2 .2 -.4 .5c-.2 .3 -.4 .7 -.6 1c-.6 .9 -1.3 1.1 -1.8 1.4c-1.4 1 -.8 2 -2.7 2.7Z" class="g3_7"/>
<path d="M674 327.6c.3 -.8 .3 -1.2 1.2 -1.8c.8 -.5 1.3 -.6 1.9 -1.7c1.2 -2 1.8 -1.6 2.9 -2.4c-.7 1.1 -1.2 .9 -1.9 1.7c-.5 .5 -.6 1.1 -1.3 1.8c-.7 .7 -1.4 .7 -2.1 1.6c-.8 .9 -.1 .1 -.7 .8Z" class="g3_7"/>
<path d="M691.8 308.8c.5 -.5 .6 -1.1 1.1 -1.8c.6 -.8 1.3 -1.1 1.8 -1.4c1.2 -.8 1 -1.7 2.1 -2.5c.1 -.1 1 -.4 1 -.4c0 0 -.9 .7 -1.1 1c-.6 .7 -.7 1.5 -1.8 2.2c-.5 .4 -1.1 .6 -1.6 1.3c-.5 .6 -.5 1.1 -1.5 1.6Z" class="g3_7"/>
<path d="M673.3 327.3c.4 -.7 .3 -1.4 1.5 -2.1c.5 -.4 1.1 -.6 1.6 -1.2c.3 -.5 .5 -1.2 1.2 -1.7c.6 -.5 .6 -.3 1.4 -.7c-.3 .3 -1.2 1 -1.2 1c-.6 .5 -.7 1 -1.1 1.6c-.5 .7 -1.1 1 -1.7 1.3c-.8 .5 -.8 .9 -1.7 1.8Z" class="g3_7"/>
<path d="M691.6 308c.5 -.7 .3 -1 1.1 -1.9c.6 -.7 1.2 -.8 1.7 -1.2c1 -.8 1 -2.1 2.4 -2.6c1 -.4 .9 -.5 .1 .2c-.5 .5 -.8 .6 -1.2 1.3c-1.3 2.3 -2.1 1.5 -3 3c-.2 .2 -.5 .7 -1.1 1.2Z" class="g3_7"/>
<path d="M672.7 326.9c.4 -.7 .2 -.7 .6 -1.3c.8 -1.1 1.5 -1.1 2.3 -1.9c.5 -.5 1 -1.7 1.5 -2c.3 -.1 .2 -.1 1 -.4c-1.9 1.5 -1.4 2 -2.5 2.9c-.7 .7 -1.4 .7 -2.1 1.8c-.1 .1 -.5 .6 -.8 .9Z" class="g3_7"/>
<path d="M691.3 307.1c.4 -.7 .3 -1.1 1.1 -1.8c.6 -.5 1.2 -.6 1.7 -1.2c.6 -.5 .7 -1.1 1.2 -1.7c.8 -.8 1.1 -.7 1.9 -1.1c-.5 .5 -1.2 1 -1.2 1c-.7 .6 -.8 1.1 -1.2 1.7c-.9 1.2 -1.9 1.1 -2.6 2.1c-.2 .3 -.6 .8 -.9 1Z" class="g3_7"/>
<path d="M672 326.6c.4 -.6 .3 -.8 .6 -1.3c.7 -1.2 1.5 -1.3 2.2 -1.9c1.1 -.8 .7 -1.7 2.3 -2.4c-.9 .8 -1.2 2 -2 2.7c-.8 .7 -1.5 .7 -2.2 1.8c-.3 .5 -.6 .8 -.9 1.1Z" class="g3_7"/>
<path d="M691 306.3c.4 -.8 .3 -1 .9 -1.5c1 -.9 1.3 -.4 2.4 -2.3c.9 -1.4 1.8 -1.4 2.5 -1.8c-.8 1 -1.4 .8 -2.1 2c-1.4 2.3 -1.6 1.3 -3.2 3c-.1 .2 -.3 .4 -.5 .6Z" class="g3_7"/>
<path d="M671.3 326.2c.5 -.7 .3 -.8 .9 -1.7c.7 -1 1.6 -1.1 2.2 -1.7c.8 -.8 .6 -1.4 1.9 -2.1c-.4 .4 -.4 .6 -.8 1.2c-1.1 1.9 -1.5 1.4 -2.5 2.3c-.9 .9 -.6 1.2 -1.7 2Z" class="g3_7"/>
<path d="M690.6 305.5c.4 -1.1 .5 -1.2 1.7 -1.9c1.5 -.9 1.2 -1.7 2.3 -2.6c.8 -.6 1.1 -.5 1.8 -1c-.4 .6 -.9 .8 -1.2 1c-.9 .6 -1 1.3 -1.5 1.9c-.9 1.3 -1.6 .9 -3.1 2.6Z" class="g3_7"/>
<path d="M670.6 325.8c.5 -.5 .4 -.6 1 -1.6c.9 -1.5 1.8 -1.2 2.7 -2.4c.3 -.4 .4 -.9 1.2 -1.4c-.5 .6 -.3 .7 -.9 1.6c-.7 1.1 -1.5 1.1 -2.3 1.9c-.7 .6 -.6 1.3 -1.7 1.9Z" class="g3_7"/>
<path d="M690.2 304.8c.5 -1.2 .8 -1.2 1.7 -1.8c1.2 -.7 1.1 -1.4 1.9 -2.3c.8 -.8 1.4 -.8 2.1 -1.3c-.5 .8 -1 1 -1.5 1.3c-1 .8 -.8 1.8 -2.2 2.6c-.3 .2 -1.3 .7 -2 1.5Z" class="g3_7"/>
<path d="M670 325.3c.3 -.3 .3 -.4 .9 -1.5c.9 -1.6 1.8 -1.3 2.7 -2.3c.4 -.4 .4 -.9 1.2 -1.5c-.4 .7 -.3 1 -.9 1.7c-.7 .8 -1.2 .8 -2 1.5c-.9 .8 -.6 1.5 -1.9 2.1Z" class="g3_7"/>
<path d="M689.8 304.2c.3 -1 .6 -1.2 1.3 -1.5c2 -1.2 1.1 -2.1 3.1 -3.2c.6 -.3 .6 -.2 1.1 -.6c.1 -.1 .4 -.3 -.1 .3c-.5 .6 -.7 .6 -1.2 .9c-.9 .6 -1 1.3 -1.5 1.9c-.5 .7 -1.1 .9 -1.6 1.2c-.2 .1 -.3 .3 -.4 .3c-.3 .2 -.5 .4 -.7 .7Z" class="g3_7"/>
<path d="M669.3 324.9c.7 -.7 1 -1.7 1.5 -2.3c.6 -.7 1.4 -.8 1.9 -1.3c.5 -.4 .8 -1.1 1.5 -1.7c-.4 .6 -.4 1.3 -1.2 2c-.6 .5 -1.3 .7 -1.9 1.3c-.6 .7 -.5 1.4 -1.8 2Z" class="g3_7"/>
<path d="M689.3 303.6c.7 -1.8 1.7 -1.1 2.7 -2.8c.2 -.3 .4 -.8 .9 -1.2c.7 -.8 1.4 -.8 2.1 -1.4c-.7 1.1 -1.2 1 -1.9 1.6c-.4 .4 -.6 .9 -.8 1.2c-.9 1.6 -2 1.4 -3 2.6Z" class="g3_7"/>
<path d="M668.7 324.4c.3 -.3 .5 -.5 .6 -.7c0 0 .2 -.3 .4 -.7c1.3 -2.2 2 -1.4 3 -2.9c.1 -.1 .6 -.7 .8 -.9c-.2 .4 -.3 .9 -.4 1.1c-.7 1 -1.3 1.1 -2 1.6c-1.2 .8 -.8 1.8 -2.4 2.5Z" class="g3_7"/>
<path d="M688.7 303c.4 -.9 .8 -1.1 1.4 -1.5c1.3 -.7 1.3 -1.3 1.9 -2.1c.7 -1 1.9 -1.2 2.4 -1.7c-.4 .8 -.9 1 -1 1.1c-1.9 1.1 -1.1 2 -3.1 3.1c-.4 .2 -1.1 .6 -1.6 1.1Z" class="g3_7"/>
<path d="M668 323.9c1.2 -.9 1.3 -2 2.3 -2.8c.6 -.5 1.2 -.6 1.8 -1.3c.1 -.2 .7 -.9 .8 -1c-.2 .5 -.3 .9 -.5 1.2c-.7 .8 -1.3 1 -1.9 1.4c-1.1 .9 -.8 1.9 -2.5 2.5Z" class="g3_7"/>
<path d="M688.2 302.6c.3 -1 .7 -1.2 1.3 -1.5c2 -1.2 1.1 -2 3.1 -3.2c.7 -.4 .7 -.2 1.3 -.7c-.9 1.3 -1.4 .9 -2.2 2c-.4 .5 -.5 1 -1.1 1.6c-.7 .6 -1.7 .9 -2.4 1.8Z" class="g3_7"/>
<path d="M667.4 323.5c.6 -.5 1 -1 1.4 -1.8c.7 -1.2 1.3 -1.3 2 -1.8c.7 -.4 1.1 -1.1 1.5 -1.6c-.2 .7 -.2 .9 -.5 1.3c-.6 .7 -1.3 .9 -1.9 1.3c-1.1 1 -.7 1.9 -2.5 2.6Z" class="g3_7"/>
<path d="M687.6 302.1c.5 -1.2 .9 -1.2 1.7 -1.8c1.4 -.9 1 -1.9 2.7 -2.9c.6 -.3 .8 -.2 1.3 -.7c-.3 .5 -.6 .8 -1.1 1.1c-1 .6 -1.1 1 -1.6 1.7c-.8 1.5 -1.9 1.3 -3 2.6Z" class="g3_7"/>
<path d="M666.8 323c1 -.8 1.4 -1.8 1.6 -2.1c.9 -1.3 1.5 -.9 2.8 -2.3c.6 -.7 .8 -1.3 .2 .2c-.1 .2 -.4 .5 -.6 .7c-.6 .5 -1.1 .5 -1.7 1.2c-.9 .9 -.5 1.6 -2.3 2.3Z" class="g3_7"/>
<path d="M687 301.7c.3 -.8 .5 -1 .8 -1.3c.7 -.5 1.3 -.6 1.9 -1.5c.4 -.6 .7 -1.6 2.2 -2.2c.4 -.1 .6 -.3 .8 -.4c-.7 1 -1.1 .8 -1.9 1.6c-.6 .7 -.6 1.6 -1.9 2.3c-.5 .3 -.7 .4 -1.1 .8c-.2 .1 -.3 0 -.8 .7Z" class="g3_7"/>
<path d="M666.3 322.5c1.2 -1.1 1.2 -1.8 1.9 -2.6c.9 -.9 1.3 -.6 2.4 -1.8c.2 -.2 .4 -.5 .6 -.7c-.4 1 -.3 .9 -.7 1.3c-.6 .7 -1.2 .7 -1.8 1.3c-.6 .6 -.7 1.2 -1.4 1.9c-.2 .2 -.8 .5 -1 .6Z" class="g3_7"/>
<path d="M686.3 301.4c.4 -.9 .4 -1 .7 -1.3c.8 -.7 1.5 -.7 2.1 -1.6c.4 -.5 .5 -1.1 1.2 -1.7c.8 -.7 1.1 -.5 1.8 -1c-.6 .9 -1 .9 -1.6 1.3c-.6 .6 -.7 1.1 -1.1 1.6c-.9 1.3 -1.4 .7 -3.1 2.7Z" class="g3_7"/>
<path d="M665.7 322c1.8 -1.5 1.2 -2.3 3 -3.4c.6 -.3 .8 -.4 1.9 -1.7c-.4 1.1 -.3 1 -.8 1.4c-.8 .8 -1.5 .8 -2.1 1.8c-.8 1.3 -.8 1.4 -2 1.9Z" class="g3_7"/>
<path d="M685.6 301.1c.4 -.8 .3 -1 1.1 -1.7c.4 -.4 .9 -.5 1.3 -.9c1.1 -.9 1 -2.1 2.7 -2.7c.2 -.1 .5 -.2 .7 -.4c-.3 .3 -.8 .8 -.9 .8c-1.3 .8 -1.1 1.7 -2.2 2.6c-.6 .5 -1.3 .7 -1.9 1.4c0 0 -.8 .9 -.8 .9Z" class="g3_7"/>
<path d="M665.1 321.5c1.2 -1 1.3 -1.5 1.7 -2.1c.7 -1.3 1.6 -1.2 2.4 -2c.4 -.4 .3 -.3 .9 -1q-.4 1 -.7 1.3c-.8 .8 -1.6 .7 -2.3 2c-.7 1.1 -.7 1.3 -2 1.8Z" class="g3_7"/>
<path d="M684.9 300.8c.3 -.4 .4 -.9 .4 -1c.7 -1.2 1.7 -1.3 2.4 -2c.8 -.8 .9 -1.9 2.3 -2.5c.9 -.3 .9 -.5 0 .3c-.7 .6 -.7 .5 -1.4 1.6c-1 1.7 -1.9 1.3 -2.8 2.6c-.2 .3 -.6 .8 -.9 1Z" class="g3_7"/>
<path d="M664.6 320.9c1.8 -1.5 1.4 -2.2 2.6 -3c.7 -.6 1 -.4 2.3 -2c-.2 .5 -.3 .9 -.6 1.3c-.7 .6 -1.2 .7 -1.8 1.3c-.5 .4 -.7 1 -1.2 1.7c-.4 .4 -.7 .5 -1.3 .7Z" class="g3_7"/>
<path d="M684.1 300.6c.5 -.7 .6 -1.8 1.9 -2.6c.4 -.2 .7 -.3 1.1 -.7c1 -.9 .8 -1.9 2.3 -2.4c.9 -.4 .5 -.3 -.2 .4c-.2 .2 -.5 .4 -.7 .8c-.2 .3 -.4 .6 -.6 .9c-.7 1 -1.4 1.1 -2.1 1.7c-.9 .8 -.6 1.2 -1.7 1.9Z" class="g3_7"/>
<path d="M664 320.4c1.9 -1.6 1.3 -2.1 2.6 -3c.8 -.6 1.2 -.5 2.4 -2c0 0 -.3 .9 -.5 1.1c-.6 .6 -1.1 .8 -1.7 1.2c-.9 .7 -1.1 1.9 -1.8 2.3c-.4 .2 -.8 .3 -1 .4Z" class="g3_7"/>
<path d="M683.1 300.4c.8 -.7 1 -1.8 2 -2.6c.6 -.5 1.1 -.6 1.7 -1.2c.5 -.6 .6 -1.2 1.3 -1.8c.4 -.2 .6 -.3 1 -.5c-1.6 1.3 -1.3 2.1 -2.4 2.9c-.6 .5 -1.2 .6 -1.7 1.3c-.7 .8 -.6 1.4 -1.9 1.9Z" class="g3_7"/>
<path d="M663.4 319.9c1.6 -1.3 1.4 -1.6 2 -2.4c.7 -1 1.3 -.8 2.4 -1.9c.6 -.5 .8 -1.1 .5 -.2c-.6 1.3 -1.5 1.2 -2.3 2.1c-.8 .8 -.8 1.7 -2.1 2.2c-.2 .1 -.3 .1 -.5 .2Z" class="g3_7"/>
<path d="M681.8 300.4c1.4 -1.2 1.3 -1 1.9 -2.1c.5 -.9 1 -1.1 1.7 -1.6c1.7 -1 1.1 -2 2.8 -2.7c-1.1 1 -1 2.1 -2.6 3.1c-.7 .4 -1.1 .6 -1.6 1.4c-.9 1.6 -1.1 1.4 -2.2 1.9Z" class="g3_7"/>
<path d="M662.9 319.4c2 -1.7 1.4 -2.2 2.6 -3.1c.8 -.5 1.2 -.5 2.4 -1.9c-.2 .4 -.3 .9 -.6 1.2c-.6 .6 -1.2 .7 -1.9 1.3c-1 1 -.5 1.7 -2.5 2.5Z" class="g3_7"/>
<path d="M680.6 300.4c.8 -1.2 1.4 -.9 2.2 -2c.4 -.6 .6 -1.3 1.5 -1.9c.6 -.4 1.2 -.5 1.8 -1.4c.2 -.3 .4 -.9 1.2 -1.4c-.5 .6 -.6 1.4 -1.3 2.1c-.7 .7 -1.3 .8 -1.9 1.4c-.7 .6 -.7 1.3 -1.4 1.9c-.8 .8 -1.4 .8 -2.1 1.3Z" class="g3_7"/>
<path d="M662.4 318.8c1.5 -1.2 1.3 -1.6 1.9 -2.3c.9 -1.2 1.6 -.9 2.8 -2.3c.3 -.4 .4 -.5 .1 .1c-.7 1.6 -1.8 1.1 -2.8 2.8c-.8 1.3 -.9 1.3 -2 1.7Z" class="g3_7"/>
<path d="M679.6 300.5c.6 -1.6 1.3 -1.3 2.2 -2.1c.7 -.7 .8 -1.3 1.5 -2c.7 -.7 1.3 -.7 2 -1.5c.2 -.2 .5 -.9 1.1 -1.4c-.4 .7 -.3 1.4 -1.3 2.1c-.7 .6 -1.3 .7 -1.9 1.5c-.4 .6 -.6 1.3 -1.6 2c-.3 .2 -1.3 .6 -2 1.4Z" class="g3_7"/>
<path d="M661.8 318.3c1.6 -1.3 1.4 -1.6 2 -2.3c.6 -1 1.3 -.9 2.4 -2c.6 -.5 .8 -1.1 .5 -.2c-.7 1.6 -1.9 1.1 -2.8 2.8c-.8 1.3 -.9 1.3 -2.1 1.7Z" class="g3_7"/>
<path d="M678.7 300.7c.2 -.5 .2 -.9 .5 -1.2c.7 -.9 1.4 -1 2 -1.6c.8 -.7 .8 -1.3 1.6 -2.1c.7 -.6 1.4 -.7 2 -1.5c.2 -.2 .1 -.1 .2 -.2c.7 -.7 .9 -1.4 .3 .2c-.1 .2 -.5 .6 -.7 .7c-.7 .6 -1.3 .7 -2 1.6c-.4 .6 -.6 1.3 -1.7 2c-.3 .2 -.7 .4 -1 .7c-.3 .2 -.8 1 -1.2 1.4Z" class="g3_7"/>
<path d="M661.3 317.8c1.2 -1.1 1.3 -1.4 1.7 -2c.9 -1.4 1.5 -1.2 2.7 -2.3c.6 -.5 .8 -1.1 .4 -.3c-.6 1.5 -1.6 1.2 -2.5 2.4c-.8 1.1 -.5 1.5 -2.3 2.2Z" class="g3_7"/>
<path d="M676.6 301.4c.2 -.2 .6 -.5 1.1 -1c.6 -.6 .6 -1.1 1.3 -1.8c.8 -.8 1.5 -.8 2.2 -1.8c.6 -.9 .5 -1.3 2.1 -2.2c.5 -.3 1 -.7 1.6 -1.4c-.4 .9 -.5 1.2 -1.4 1.7c-1.5 .9 -1.4 1.2 -2 2.1c-.9 1.3 -1.9 1.1 -2.7 2.4c-1 1.7 -.9 1.5 -2.2 2Z" class="g3_7"/>
<path d="M660.8 317.2c1.5 -1.2 1.4 -1.6 1.9 -2.3c.7 -1.1 1.7 -1 2.8 -2.2c.3 -.4 .4 -.6 .1 0c-.6 1.5 -1.7 1.3 -2.5 2.3c-.4 .6 -.6 1.1 -1.1 1.6c-.3 .3 -.7 .4 -1.2 .6Z" class="g3_7"/>
<path d="M674.7 302.3c.5 -1.2 .7 -1.2 1.7 -1.9c1.3 -.8 1.2 -1.6 2.1 -2.4c.7 -.6 1.2 -.7 1.7 -1.2c.5 -.4 .7 -.9 1 -1.4c.8 -1.3 2 -1.3 2.9 -2.3c-.8 1.8 -1.7 .9 -2.8 2.9c-1 1.7 -1.7 1.4 -2.6 2.4c-.4 .4 -.6 1 -1.1 1.5c-.9 1.1 -1.6 .9 -2.9 2.4Z" class="g3_7"/>
<path d="M660.2 316.7c1.9 -1.6 1.4 -1.8 2.3 -2.7c.8 -.8 1.4 -.6 2.7 -2.2c-.1 .3 -.3 .8 -.5 1.1c-.8 .7 -1.4 .8 -1.9 1.4c-.8 .8 -.8 1.7 -2.2 2.3c-.1 0 -.2 .1 -.4 .1Z" class="g3_7"/>
<path d="M671.2 304.7c.6 -1.6 1.3 -1.2 2.2 -2.2c.6 -.5 .7 -1.1 1.2 -1.7c.6 -.7 1.2 -.8 1.8 -1.3c1 -.8 .8 -1.6 2.1 -2.4c.7 -.5 1.2 -.6 1.9 -1.7c1 -1.8 1.7 -1.7 2.7 -2.3q.2 -.2 0 .1c-.8 1 -1.1 .7 -1.8 1.5c-.6 .7 -.7 1.5 -1.7 2.1c-.6 .4 -1.1 .6 -1.7 1.3c-.5 .6 -.6 1.4 -1.7 2.1c-.9 .5 -1.2 .6 -1.8 1.7c-1.1 1.8 -2.1 1.4 -3.2 2.8Z" class="g3_7"/>
<path d="M659.7 316.2c1.8 -1.5 1.4 -1.9 2.2 -2.7c.8 -.8 1.5 -.7 2.8 -2.2c-.2 .4 -.3 .9 -.7 1.2c-.8 .7 -1.5 .7 -2.3 1.9c-.8 1.4 -.9 1.4 -2 1.8Z" class="g3_7"/>
<path d="M651.2 323.8c.4 -1 .3 -1.2 1.8 -2.1c.9 -.5 1.1 -.9 1.5 -1.7c.7 -1 1.2 -1.2 1.9 -1.6c.9 -.6 1 -1.2 1.5 -1.8c.6 -1 1.3 -1.1 1.9 -1.6c.8 -.5 .9 -1.1 1.4 -1.8c.5 -.6 .9 -.8 1.5 -1.1c.9 -.6 1 -1.1 1.5 -1.8c.6 -1 1.3 -1.1 1.9 -1.6c.8 -.5 .9 -1.1 1.4 -1.8c.7 -.9 1.3 -1 2 -1.5c1 -.8 .8 -1.7 2.2 -2.6c.6 -.4 .9 -.5 1.4 -1c.5 -.7 .6 -1.3 1.5 -2c.6 -.4 1.2 -.5 1.8 -1.4c.4 -.6 .6 -1.3 1.6 -1.9c.7 -.4 1.2 -.6 1.8 -1.5c1 -1.9 1.3 -1.6 2.3 -2c0 0 -.9 .8 -.9 .8c-.7 .5 -.9 1.2 -1.3 1.7c-.7 1 -1.5 1 -2.2 1.7c-.6 .6 -.7 1.2 -1.2 1.7c-.7 .9 -1.5 .9 -2.2 1.7c-.4 .5 -.5 1 -1 1.6c-.8 .8 -1.3 .8 -1.9 1.3c-.5 .5 -.7 1.1 -1.1 1.5c-.9 1.3 -1.8 1.1 -2.7 2.4c-.2 .4 -.4 .8 -.7 1.2c-.8 .8 -1.5 .8 -2.2 1.7c-.4 .5 -.6 1.1 -1.2 1.7c-.7 .6 -1.2 .6 -1.9 1.3c-.4 .5 -.6 1 -1 1.6c-.8 .8 -1.5 .8 -2.2 1.6c-.5 .6 -.6 1.2 -1.2 1.8c-.8 .7 -1.5 .7 -2.2 1.6c-.4 .7 -.6 1.4 -1.8 2.1c-.7 .4 -.8 .5 -1.6 1.3c-.1 .2 -.3 .4 -.4 .5Z" class="g3_7"/>
<path d="M647.6 326.2c.6 -1.4 .7 -1.2 1.9 -2c1.4 -.9 1 -1.9 2.6 -2.8c1.5 -.9 1.4 -1.1 2 -2.1c.6 -.9 1.3 -1.1 1.8 -1.5c1.1 -.7 1 -1.4 1.8 -2.2c.4 -.4 1 -.7 1.3 -.9c.8 -.5 1 -1 1.3 -1.6c.7 -1.1 1.4 -1.2 2 -1.7c1.2 -.8 1 -1.7 2.2 -2.5c.8 -.6 1.3 -.6 2.1 -1.9c.8 -1.5 1.4 -1.5 2.2 -2c1.1 -.9 .9 -1.6 2.2 -2.6c.7 -.5 1.3 -.6 1.9 -1.6c.3 -.6 .6 -1.2 1.5 -1.7c.3 -.2 .8 -.5 1.2 -.8c.7 -.8 .7 -1.6 1.9 -2.3c.5 -.4 1.1 -.6 1.6 -1.4c.4 -.6 .5 -1.1 1.6 -1.6c-1 .9 -1 2.1 -2.4 2.9c-1.4 .9 -1.2 .7 -2 2c-.9 1.6 -1.9 1.1 -2.9 2.8c-1 1.7 -1.6 1.5 -2.5 2.2c-.8 .8 -.8 1.6 -1.8 2.4c-.9 .6 -1.4 .5 -2.2 1.9c-.8 1.4 -1.4 1.4 -2.2 2c-.7 .5 -.9 1.1 -1.3 1.7c-.9 1.3 -1.9 1 -2.7 2.4c-.4 .6 -.6 1.2 -1.5 1.8c-.3 .1 -.9 .4 -1.2 .8c-.7 .7 -.7 1.5 -1.9 2.3c-.5 .3 -1.2 .5 -1.7 1.3c-.6 1 -.5 1.2 -2.1 2.2c-1 .6 -1.1 1.2 -1.6 1.9c-.9 1.3 -1.7 .9 -3.1 2.6Z" class="g3_7"/>
<path d="M645.2 327.4c.3 -.2 .6 -.4 .7 -.6q.1 -.1 .2 -.1c.8 -.7 .8 -1.4 1.7 -2.2c.6 -.6 1.2 -.7 1.9 -1.5c.6 -.7 .6 -1.3 1.5 -1.9c.8 -.6 1.4 -.6 2 -1.7c.6 -1 .7 -1.3 1.9 -1.9c1.1 -.7 1.2 -1.2 1.7 -2c.8 -1.1 1.6 -1.1 2.4 -1.9c.5 -.7 .7 -1.4 1.5 -2c.7 -.6 1.4 -.6 2.1 -1.8c1.4 -2.4 2.1 -1.4 3.2 -3.3c1.3 -2.2 2.1 -1.3 3.2 -3.2c.4 -.7 .7 -1.1 1.7 -1.7c1.4 -.8 1.3 -1.3 1.9 -2.2c.9 -1.1 1.7 -.8 2.6 -2.2c.4 -.6 .6 -1.2 1.6 -1.8c1.8 -1.1 1 -.7 2.1 -2c.5 -.5 .3 -.3 .1 .1c-.1 .3 -.2 .6 -.2 .7c-.9 1.4 -1.8 1.2 -2.6 2.3c-.3 .3 -.5 .8 -.8 1.2c-.6 .7 -1 .9 -1.7 1.2c-.9 .7 -1 1.4 -1.6 2.1c-.8 1 -1.6 .9 -2.4 1.9c-.5 .7 -.6 1.4 -1.7 2.1c-.7 .4 -1.1 .5 -1.7 1.4c-.6 1.1 -.7 1.3 -1.9 2c-1.5 .9 -1.1 1.6 -2.3 2.6c-1.1 .8 -1.4 .5 -2.4 2.2c-.7 1.3 -1.5 1.3 -2.3 2c-.8 .8 -.8 1.6 -2 2.4c-.5 .4 -1.2 .6 -1.7 1.4c-.3 .4 -.4 .8 -.9 1.3c-.7 .7 -1.3 .7 -2 1.4c-.5 .6 -.6 1.3 -1.5 2.1c-.7 .5 -1.1 .5 -1.7 1.2c-.5 .6 -.6 1.1 -1.2 1.7c-.4 .4 -.5 .4 -1.4 .7Z" class="g3_7"/>
<path d="M643.5 328.1c.8 -2 1.8 -1 2.9 -3.1c1 -1.7 1.7 -1.4 2.6 -2.3c.6 -.6 .7 -1.3 1.4 -1.9c.7 -.7 1.3 -.7 2 -1.5c.2 -.3 .5 -.8 .7 -1.2c.6 -.8 1.3 -1 1.9 -1.5c1 -.7 1 -1.6 2 -2.4c.4 -.3 .8 -.5 1.1 -.7c1.4 -1 .8 -1.8 2.8 -2.9c1.4 -.8 1.2 -1.4 2 -2.3c.6 -.7 1.1 -.8 1.8 -1.3c.5 -.4 .7 -.9 1 -1.3c.8 -1.4 1.6 -1.3 2.4 -2.1c.6 -.6 .6 -1.2 1.4 -1.9c.4 -.4 .9 -.6 1.3 -.9c1.1 -.7 1 -1.5 1.9 -2.3c.7 -.7 1.3 -.7 2 -1.5c.3 -.5 .4 -.8 .7 -1.2c.9 -1.2 1.8 -1 3 -2.5c-.1 .4 -.3 .9 -.6 1.1c-.8 .7 -1.4 .8 -2 1.6c-.4 .5 -.7 1.3 -1.4 1.8c-.5 .4 -.9 .5 -1.4 .9c-.7 .7 -.8 1.3 -1.4 1.9c-.6 .7 -1.3 .8 -1.8 1.3c-.7 .7 -.7 1.3 -1.4 2c-.7 .7 -1.4 .7 -1.9 1.4c-.6 .6 -.7 1.2 -1.4 1.9c-.7 .6 -1.4 .6 -2.1 1.6c-.4 .5 -.6 1.1 -1.2 1.6c-.6 .6 -1.2 .7 -1.8 1.4c-.6 .6 -.6 1.3 -1.5 2c-.4 .2 -.7 .3 -1 .5c-1.3 .9 -1 1.8 -2.3 2.7c-.6 .4 -1.2 .6 -1.7 1.3c-.3 .4 -.5 .9 -.8 1.3c-.8 .8 -1.4 .9 -2 1.5c-.7 .6 -.8 1.2 -1.4 1.8c-1 1 -1.6 .7 -2.5 2.3c-.8 1.3 -1.3 1.4 -2.1 1.9c-.2 .2 -.3 .2 -.4 .3c-.3 .2 -.5 .4 -.8 .7Z" class="g3_7"/>
<path d="M642.5 328.4c.4 -.8 .2 -.9 .7 -1.5c.7 -.8 1.3 -.9 1.9 -1.4c.7 -.5 .8 -1.2 1.4 -1.8c.6 -.8 1.3 -.9 1.9 -1.4c.6 -.6 .7 -1.2 1.2 -1.8c.5 -.6 1 -.7 1.5 -1c1 -.7 1 -1.3 1.6 -2.1c.8 -1 1.5 -.9 2.3 -1.7c.6 -.8 .6 -1.6 2 -2.3c1.6 -1 1.3 -1.2 2 -2.2c.8 -1.1 1.7 -1.1 2.4 -2c.3 -.3 .4 -.7 .7 -1.1c.8 -1.3 1.9 -1 2.8 -2.5c.3 -.5 .5 -1.1 1.2 -1.6c.8 -.5 1.4 -.5 2 -1.7c1.1 -1.8 1.7 -1.5 2.6 -2.4c.6 -.5 .7 -1.2 1.4 -1.9c.6 -.6 1.4 -.8 1.9 -1.3c.9 -.9 .5 -1.5 2.4 -2.6c.1 -.1 .5 -.2 1 -.6c-.3 .4 -.7 .8 -.8 .9c-1.2 .7 -1.2 .8 -1.9 1.9c-.7 1.3 -1.6 1.2 -2.3 2c-.8 .8 -.8 1.6 -2.1 2.4c-1 .7 -1.2 .6 -1.8 1.8c-.9 1.4 -1.6 1.4 -2.4 2.1c-.6 .6 -.7 1 -1.1 1.6c-.8 1.1 -1.7 1 -2.4 1.9c-.5 .7 -.6 1.3 -1.5 1.9c-.7 .6 -1.3 .6 -2 1.7c-.3 .5 -.4 .8 -.8 1.2c-1.1 1.1 -1.5 .5 -2.6 2.4c-.9 1.5 -1.8 1.3 -2.7 2.4c-.5 .7 -.6 1.4 -1.7 2.1c-.6 .3 -.9 .4 -1.4 1c-.4 .5 -.6 1.1 -1.3 1.8c-.6 .6 -1.2 .6 -1.8 1.3c-.6 .6 -.7 1.3 -1.4 1.9c-.5 .4 -1 .6 -1.4 .9c-.6 .4 -.7 1 -1.5 1.7Z" class="g3_7"/>
<path d="M640.9 328.7c1.2 -1 1.3 -2.1 2.5 -2.9c.6 -.4 1.2 -.6 1.7 -1.4c.3 -.4 .5 -.9 .9 -1.3c.7 -.8 1.3 -.8 2 -1.5c.6 -.8 .6 -1.2 1.3 -1.9c.4 -.3 .9 -.6 1.2 -.8c1.2 -.7 1.1 -1.5 1.9 -2.3c.7 -.6 1.3 -.7 1.9 -1.3c.7 -.8 .7 -1.6 2 -2.4c.5 -.3 .8 -.4 1.3 -.9c.4 -.5 .5 -.8 .7 -1.2c.8 -1.2 1.7 -1.1 2.4 -2c.6 -.5 .7 -1.2 1.4 -1.8c.8 -.8 1.5 -.7 2.3 -2c.4 -.6 .6 -1 1.2 -1.5c.6 -.4 1 -.5 1.4 -1c.7 -.6 .6 -1 1.2 -1.6c.8 -1 1.5 -.8 2.3 -1.9c.4 -.5 .4 -.7 .7 -1.1c.8 -1.1 1.6 -1 2.4 -1.9c.5 -.7 .5 -1.2 1.5 -1.8c-.4 .5 -.4 .7 -.8 1.3c-.8 1.5 -1.5 1.5 -2.3 2.1c-.7 .6 -.8 1.2 -1.3 1.8c-.7 .8 -1.3 .9 -1.9 1.4c-.6 .6 -.8 1.2 -1.2 1.7c-.7 .8 -1.3 1 -1.9 1.4c-.7 .6 -.8 1.3 -1.5 2c-.8 .9 -1.6 .8 -2.3 1.9c-.4 .5 -.6 1.3 -1.5 1.8c-.5 .4 -.8 .4 -1.3 .9c-.7 .7 -.7 1.2 -1.3 1.8c-.6 .7 -1.3 .8 -1.9 1.4c-.7 .7 -.7 1.6 -2 2.4c-.5 .3 -1.1 .5 -1.6 1.4c-.3 .4 -.5 .9 -.9 1.3c-.7 .6 -1.4 .8 -1.9 1.3c-.6 .6 -.6 1.1 -1.3 1.8c-.4 .5 -1 .7 -1.4 1c-1.1 .7 -1 1.5 -1.9 2.3c-.6 .6 -1.3 .7 -1.9 1.4c-.8 .9 -.5 1.6 -2.1 2.1Z" class="g3_7"/>
<path d="M639.3 329c.8 -1.2 1.4 -.8 2.2 -2c.2 -.5 .4 -.9 .8 -1.3c.5 -.5 .9 -.7 1.3 -.9c1.2 -.8 1.1 -1.6 2 -2.4c.6 -.6 1.3 -.7 1.8 -1.3c.7 -.7 .7 -1.4 1.7 -2.1c.7 -.6 1.3 -.7 2 -1.7c.6 -1 .7 -1.3 1.9 -2c1.1 -.6 1.2 -1.1 1.7 -1.9c.8 -1.2 1.6 -1.1 2.4 -2c.5 -.6 .6 -1.2 1.4 -1.9c.7 -.6 1.4 -.6 2.2 -1.9c.7 -1.2 .9 -1.3 1.9 -1.9c.9 -.5 1.1 -.9 1.5 -1.6c.5 -.9 .9 -1.1 1.8 -1.6c1 -.6 1.1 -1.3 1.6 -2c.8 -1.1 1.7 -1 2.4 -1.9c.6 -.7 .6 -1.4 1.7 -2.1c.4 -.2 .7 -.4 1 -.6c.2 -.1 .3 -.3 .3 -.3c.1 -.1 .3 -.1 .8 -.8c-.1 .3 -.3 .9 -.6 1.1c-.7 .8 -1.4 .8 -2.1 1.6c-.4 .6 -.5 1.3 -1.4 1.9c-.8 .6 -1.3 .5 -2.2 2c-1.1 2 -1.9 1.1 -3.2 3.2c-.5 .9 -.9 1.2 -1.7 1.6c-1.8 1.1 -.9 1.9 -3.2 3.3c-1.6 .8 -1.2 1.8 -2.6 2.8c-1 .6 -1.2 .4 -2.1 2c-.6 .9 -1.1 1.2 -1.8 1.6c-1.2 .7 -1.1 1.5 -1.9 2.2c-.6 .7 -1.3 .9 -1.9 1.4c-.7 .6 -.7 1.4 -1.6 2.1c-.7 .6 -1.4 .7 -2 1.7c-.3 .4 -.5 .8 -.9 1.3c-.4 .4 -.9 .6 -1.3 .9c-1.6 .9 -.8 1.8 -2.9 3c-.2 .1 -.5 .1 -1 .5Z" class="g3_7"/>
<g clip-path="url(#c3_7)">
<path d="M638.2 329.1c.7 -1.7 1.7 -1.2 2.6 -2.5c.6 -.8 .5 -1.4 2 -2.2c1.3 -.7 1.3 -1.4 1.9 -2.1c.6 -.8 1.3 -1 1.8 -1.4c.7 -.5 .9 -1.1 1.3 -1.7c.9 -1.3 1.9 -1 2.7 -2.4c.2 -.4 .4 -.8 .9 -1.2c.4 -.5 .8 -.7 1.2 -.9c1.4 -.8 1.1 -1.8 2.4 -2.7c.7 -.5 1.2 -.6 1.8 -1.5c.3 -.4 .5 -1 1.3 -1.6c.6 -.5 1.2 -.6 1.7 -1.3c.6 -.7 .6 -1.4 2 -2.2c1.4 -.8 1.3 -1.2 1.9 -2.1c.7 -1.1 1.6 -1.1 2.3 -1.8c.7 -.8 .7 -1.6 1.9 -2.3c.9 -.7 1.1 -.5 2 -2c.3 -.4 .7 -.7 1.1 -1c-.6 .7 -.9 1.7 -1.7 2.5c-.7 .7 -1.5 .7 -2.2 1.8c-.3 .5 -.5 1.1 -1.4 1.7c-1 .6 -1.2 .5 -2.1 2c-.7 1.3 -1.5 1.3 -2.2 1.9c-1.1 .9 -.7 1.7 -2.5 2.7c-1.9 1.1 -1.2 2.1 -3 3.1c-1.5 .9 -1.3 1.1 -2 2.1c-.8 1.3 -1.8 1.1 -2.7 2.4c-.2 .4 -.3 .7 -.8 1.2c-.6 .7 -1.2 .8 -1.8 1.3c-.7 .6 -.8 1.2 -1.3 1.8c-.6 .7 -1.2 .8 -1.8 1.3c-.9 .7 -.9 1.6 -1.8 2.3c-.8 .6 -1.4 .6 -2.2 1.9c-.9 1.5 -1.3 1.4 -2.1 2c-.8 .5 -.9 .7 -1.2 .9Z" class="g3_7"/>
<path d="M637.4 329.1c.3 -.8 .4 -1.2 1.3 -1.8c.5 -.4 1.1 -.5 1.7 -1.4c.2 -.4 .5 -1 1.2 -1.6c.7 -.5 1.4 -.6 2.1 -1.7c1.5 -2.6 2 -1.2 3.3 -3.6c.8 -1.3 1.5 -1.3 2.2 -1.9c.9 -.6 .9 -1.4 1.7 -2.2c.8 -.7 1.5 -.7 2.2 -1.7c.4 -.6 .6 -1.3 1.7 -1.9c.6 -.4 .9 -.5 1.4 -1.1c.3 -.5 .4 -.8 .7 -1.1c.7 -1.1 1.5 -1.1 2.2 -1.8c.6 -.6 .7 -1.2 1.2 -1.8c.6 -.6 1.3 -.7 1.8 -1.2c.8 -.7 .8 -1.5 1.7 -2.2c.8 -.6 1.4 -.7 2.1 -1.8q.8 -1.2 2.1 -2c.5 -.3 .7 -.4 1.1 -.8c-.5 1 -1 1.1 -1.5 1.5c-1.1 .6 -1.1 1.4 -1.8 2.1c-.7 .9 -1.5 .8 -2.2 1.7c-.5 .7 -.6 1.3 -1.6 2c-.6 .4 -1.1 .6 -1.6 1.3c-.5 .6 -.6 1.3 -1.6 1.9c-.8 .6 -1.2 .6 -2 1.9c-.9 1.7 -1.8 1.4 -2.6 2.3c-.6 .7 -.7 1.5 -1.8 2.3c-1 .6 -1.2 .5 -2 1.8c-.8 1.3 -1.4 1.4 -2.2 1.9c-.9 .7 -.9 1.5 -1.7 2.2c-.3 .4 -.9 .7 -1.2 .8c-1.3 .8 -1.1 1.8 -2.3 2.7c-.7 .5 -1.3 .5 -2 1.8c-1 1.7 -1.7 1.5 -2.5 2.3c-.5 .4 -.1 0 -.4 .3q-.1 .1 -.2 .3c-.2 .1 -.3 .3 -.5 .5Z" class="g3_7"/>
</g>
<path d="M654.5 310.8c1.8 -1.5 1.3 -2.1 2.5 -3c.8 -.6 1.2 -.5 2.4 -1.9c-.2 .4 -.3 .9 -.6 1.2c-.6 .6 -1.2 .7 -1.8 1.3c-.5 .5 -.6 .9 -1 1.4c-.5 .6 -.7 .7 -1.5 1Z" class="g3_7"/>
<path clip-path="url(#c3_7)" d="M636.5 329.1c.5 -.7 .2 -.9 .9 -1.7c.8 -.9 1.5 -.8 2.2 -1.7c.6 -.7 .6 -1.5 1.9 -2.2c1.2 -.7 1.1 -.7 1.9 -1.9c.4 -.7 .8 -1 1.5 -1.4c1.2 -.7 .9 -.8 2 -1.9c-.4 .9 -.3 1.3 -1.9 2.2c-1.8 1.1 -1.1 2 -2.9 3.1c-.7 .4 -1.1 .6 -1.6 1.5c-1.3 2.3 -2.1 1.4 -3.1 3c-.2 .4 -.6 .8 -.9 1Z" class="g3_7"/>
<path d="M653.9 310.3c1.7 -1.3 1.4 -1.8 2.3 -2.7c.8 -.9 1.3 -.6 2.7 -2.2c-.4 .9 -.5 1 -.8 1.3c-.4 .3 -.9 .6 -1.3 .9c-.6 .4 -.8 .7 -1.1 1.3c-.6 1 -.9 1.1 -1.8 1.4Z" class="g3_7"/>
<path clip-path="url(#c3_7)" d="M635.4 329.1c.3 -.4 .5 -.6 .9 -1.3c.9 -1.7 1.6 -1.6 2.3 -2.2c.8 -.5 .9 -1.2 1.4 -1.8c.5 -.7 1.1 -.9 1.8 -1.3c1.2 -1 .7 -1.7 2.2 -2.4c-1 .9 -.8 2 -2.5 3c-.8 .5 -1.1 .7 -1.6 1.6c-.9 1.5 -1.6 1.4 -2.4 2.1c-1 .9 -.7 1.6 -2.1 2.3Z" class="g3_7"/>
<path d="M653.4 309.8c.2 -.2 .5 -.4 .6 -.6q.1 -.1 .2 -.2c.6 -.5 .7 -1 1.1 -1.6c.9 -1.2 1.4 -.6 3.1 -2.6c-.3 .7 -.4 1.1 -1 1.5c-.6 .5 -1.2 .6 -1.8 1.4c-.3 .5 -.5 1 -1 1.4c-.3 .4 -.7 .5 -1.2 .7Z" class="g3_7"/>
<path d="M634.2 328.9c1.4 -1.1 1.4 -1.5 1.8 -2.1c.8 -1.2 1.6 -1.2 2.3 -1.9c.8 -.7 .8 -1.5 1.8 -2.3c.6 -.4 1.3 -.6 2.3 -1.8c-.1 .3 -.3 .9 -.6 1.1c-.6 .6 -1 .7 -1.4 1c-1 .7 -1 1.5 -1.8 2.3c-.4 .4 -.9 .6 -1.3 .8c-1.3 .9 -1.1 2.1 -2.4 2.7c-.2 .1 -.4 .1 -.7 .2Z" class="g3_7"/>
<path d="M652.8 309.3c1.2 -1 1.4 -1.4 1.7 -2c.9 -1.5 1.5 -1.2 2.7 -2.3c.6 -.6 .8 -1.1 .5 -.3c-.5 1.2 -1.2 1.2 -2 1.8c-.9 .7 -.9 1.4 -1.6 2.1c-.3 .3 -.6 .4 -1.3 .7Z" class="g3_7"/>
<path d="M633.2 328.8c.8 -1 1.3 -.9 1.9 -1.9c.7 -1.1 .7 -1.3 2 -2c1.1 -.7 1.2 -1.3 1.7 -2.1c.5 -.6 1.4 -1.1 1.4 -1.1c.3 0 .7 -.2 1 -.4c-.8 1 -1.4 .8 -2.1 1.8c-.5 .7 -.6 1.4 -1.8 2.1c-1.2 .7 -1.2 .8 -1.9 1.9c-.8 1.3 -1.6 1.3 -2.2 1.7Z" class="g3_7"/>
<path d="M652.3 308.7c1.8 -1.5 1.3 -1.7 2.3 -2.7c.9 -.9 1.2 -.5 2.7 -2.3c-.4 1.2 -.4 1.3 -1.8 2.1c-.5 .3 -.8 .6 -1.2 1.2c-.8 1.3 -.9 1.3 -2 1.7Z" class="g3_7"/>
<path d="M632.3 328.6c.6 -1.1 1.1 -.9 1.8 -1.7c.7 -.6 .7 -1.3 1.5 -2c.7 -.5 1.4 -.6 2 -1.4c.6 -.8 .5 -1.3 1.7 -1.8c-.6 .5 -.9 1.3 -1.4 2c-.7 .9 -1.4 1 -2 1.5c-.8 .7 -.8 1.3 -1.5 2c-.8 .9 -1.4 .8 -2.1 1.4Z" class="g3_7"/>
<path d="M651.8 308.2c1.5 -1.2 1.3 -1.6 1.9 -2.4c.8 -1 1.3 -.8 2.5 -1.9c.2 -.2 .4 -.4 .6 -.7c-.4 .9 -.5 1.1 -1.1 1.6c-.5 .3 -.9 .4 -1.4 1c-.6 .6 -.7 1.2 -1.3 1.8c-.3 .3 -.6 .4 -1.2 .6Z" class="g3_7"/>
<path d="M631.5 328.3c.8 -1.5 1.6 -1 2.5 -2.4c.4 -.5 .6 -1.2 1.5 -1.8c.6 -.4 1.2 -.6 1.7 -1.4c.1 -.1 .5 -.7 .8 -.9c-.2 .4 -.3 .9 -.4 1.1c-.6 .9 -1.3 1.2 -1.9 1.5c-.8 .6 -1 1.2 -1.4 1.7c-.8 1.3 -1.9 1.3 -2.8 2.2Z" class="g3_7"/>
<path d="M651.2 307.7c1.5 -1.2 1.4 -1.7 2 -2.4c.7 -1 1.3 -.9 2.4 -1.9c.6 -.6 .8 -1.1 .5 -.3c-.6 1.4 -1.5 1.3 -2.3 2.1c-.7 .7 -.7 1.3 -1.5 2c-.2 .2 -1 .4 -1.1 .5Z" class="g3_7"/>
<path d="M630.8 328.1c.7 -1.7 1.5 -1.2 2.4 -2.4c.5 -.5 .6 -1.2 1.3 -1.8c.9 -.7 1.2 -.4 2.6 -2.1c-.5 1.3 -.5 1.2 -1.9 2.1c-.8 .5 -1 1 -1.4 1.6c-.5 1 -1.1 1.2 -1.7 1.5c-.4 .3 -.4 .4 -.6 .4c-.2 .2 -.4 .3 -.7 .7Z" class="g3_7"/>
<path d="M650.7 307.2c1.2 -1.1 1.3 -1.4 1.7 -2c.8 -1.5 1.5 -1.2 2.7 -2.3c.5 -.5 .8 -1.1 .4 -.3c-.6 1.5 -1.6 1.2 -2.6 2.4c-.3 .5 -.5 1.1 -1.2 1.7c-.1 .1 -.9 .4 -1 .5Z" class="g3_7"/>
<path d="M630.1 327.8c.1 -.2 .3 -.8 .5 -1c.7 -.7 1.2 -.8 1.8 -1.3c.6 -.6 .8 -1.2 1.3 -1.8c.7 -.9 1.8 -1.1 2.6 -2c-.7 1.9 -1.6 .8 -2.9 3.2c-1 1.6 -1.9 1.2 -3.3 2.9Z" class="g3_7"/>
<path d="M650.1 306.6c1.7 -1.3 1.4 -1.5 2 -2.3c.8 -1.2 1.5 -.7 3.1 -2.7c-.2 .3 -.2 .6 -.4 .9c-.6 1 -1.8 .9 -2.6 2.4c-.8 1.4 -1 1.3 -2.1 1.7Z" class="g3_7"/>
<path d="M629.4 327.5c.4 -.9 .3 -1 .8 -1.4c.7 -.6 1.2 -.7 1.8 -1.3c.9 -.9 .5 -1.7 2.8 -2.8c.6 -.2 .9 -.7 .6 -.2c-.9 1.2 -1.4 .8 -2.2 1.9c-.3 .6 -.6 1.2 -1.4 1.8c-1.1 .8 -.7 .1 -2.4 2Z" class="g3_7"/>
<path d="M649.6 306.1c1.6 -1.4 1.3 -1.5 1.9 -2.3c.8 -1.2 1.7 -.9 3.1 -2.6c-.1 .3 -.2 .5 -.4 .8c-.5 .9 -1.6 1 -2.3 2c-.3 .4 -.8 1.5 -1.5 1.8c-.3 .1 -.1 0 -.8 .3Z" class="g3_7"/>
<path d="M628.8 327.2c.3 -.7 .2 -.9 .7 -1.4c.6 -.7 1.2 -.8 1.7 -1.3c1.1 -.8 .9 -1.9 2.5 -2.7c.1 0 .5 -.1 .9 -.4c-.8 1 -1.4 .8 -2.1 2.2c-1.1 1.9 -2 1.5 -2.8 2.5c0 0 -.5 .7 -.9 1.1Z" class="g3_7"/>
<path d="M649 305.6c.4 -.3 1 -.9 1.3 -1.2c.6 -.8 .5 -1.4 2.1 -2.3c.7 -.4 1.1 -.8 1.6 -1.4c-.4 1.2 -.6 1.2 -1.8 1.9c-1.4 .9 -1.2 2.2 -2.5 2.8c-.3 .1 -.4 .1 -.7 .2Z" class="g3_7"/>
<path d="M628.1 326.8c.4 -.7 .2 -.7 .7 -1.4c.5 -.7 1.2 -.9 1.7 -1.2c1.4 -1 .9 -2.2 2.8 -2.9c.5 -.2 .7 -.3 .1 .2c-.1 .1 -.3 .2 -.4 .3c-.1 .1 -.4 .2 -.7 .7c-.4 .5 -.6 1.1 -1.2 1.7c-.8 .7 -1.5 .7 -2.2 1.8c0 0 -.5 .6 -.8 .8Z" class="g3_7"/>
<path d="M648.5 305.1c0 0 .9 -.8 1.2 -1.2c.5 -.6 .6 -1.2 1.4 -1.8c.7 -.6 1.4 -.7 2.4 -1.9c-.6 1.7 -1.1 1.3 -2.2 2.2c-.7 .6 -.8 1.1 -1.3 1.7c-.5 .7 -.7 .7 -1.5 1Z" class="g3_7"/>
<path d="M627.5 326.5c.4 -.7 .2 -.8 .6 -1.4c.7 -1 1.4 -1.1 2 -1.6c1.1 -.8 .9 -1.9 2.4 -2.5c.9 -.4 .3 -.2 -.6 .7c-.5 .7 -.6 1.1 -1.2 1.8c-.4 .4 -.8 .6 -1.2 .9c-1.3 .7 -1 1.2 -2 2.1Z" class="g3_7"/>
<path d="M647.9 304.6c.1 -.2 .3 -.3 .5 -.4c1.3 -1.2 1 -1.5 1.8 -2.3c.8 -.9 1.6 -.8 2.8 -2.2c-.5 1.3 -.8 1.2 -1.9 1.9c-.8 .5 -1 1.2 -1.4 1.7c-.6 1 -1.1 1 -1.8 1.3Z" class="g3_7"/>
<path d="M626.8 326c.5 -.7 .3 -.9 1 -1.7c.7 -.9 1.6 -.9 2.3 -1.8c.8 -1 .5 -1.5 2.1 -2.1c-.8 .7 -1.3 1.5 -1.5 1.9c-.8 1.3 -1.5 1.3 -2.3 1.9c-.7 .7 -.6 1.1 -1.6 1.8Z" class="g3_7"/>
<path d="M647.2 304.1c.1 0 1.1 -.9 1.2 -1c.7 -.6 .7 -1.5 1.9 -2.3c.4 -.3 1.3 -.7 2.1 -1.6c-.7 1.8 -1.6 1.4 -2.5 2.5c-.5 .6 -.5 1 -1.1 1.6c-.6 .6 -.7 .5 -1.6 .8Z" class="g3_7"/>
<path d="M626.2 325.6c.4 -.6 .4 -.7 .7 -1.3c.8 -1.4 1.6 -1.3 2.4 -2.1c.9 -.9 .6 -1.6 2.2 -2.2c-.5 .4 -.7 .7 -.7 .8c-.1 .1 -.2 .2 -.5 .6c-.8 1.5 -1.3 1.5 -2.1 2.1c-1 .6 -.9 1.3 -2 2.1Z" class="g3_7"/>
<path d="M646.6 303.6c.6 -.4 1.3 -.9 1.7 -1.5c.3 -.5 .5 -1.1 1.1 -1.6c.7 -.5 1.6 -.8 2.4 -1.8c-.6 1.6 -1.1 1.3 -2.1 2.1c-.7 .6 -.8 1.3 -1.4 1.9c-.6 .7 -.9 .6 -1.7 .9Z" class="g3_7"/>
<path d="M625.6 325.1c.4 -.5 .4 -.7 .7 -1.3c1.1 -1.8 2 -1.1 3.1 -3c.4 -.6 .6 -1 1.5 -1.3c-.8 .7 -1.1 1.7 -1.7 2.3c-.7 .8 -1.3 .8 -2 1.5c-.7 .7 -.5 1.1 -1.6 1.8Z" class="g3_7"/>
<path d="M647.1 302.3c.7 -.5 .8 -1.2 1.3 -1.8c.4 -.6 .9 -.8 1.5 -1.1c.4 -.3 .5 -.4 .6 -.5c.3 -.1 .5 -.4 .7 -.6c-.6 1.5 -1.3 1.2 -2.2 2.2c-.9 .8 -.7 1.8 -2.6 2.5c-.4 .1 -.9 .5 .7 -.7Z" class="g3_7"/>
<path d="M625.1 324.6c.5 -.7 .4 -1 1.1 -1.9c.5 -.6 .8 -.7 1.4 -1.1c1.6 -.9 1 -1.9 2.7 -2.6c-.4 .3 -.5 .5 -.9 1.1c-.7 1.1 -.5 1.2 -2 2.1c-1.5 .9 -.9 1.4 -2.3 2.4Z" class="g3_7"/>
<path d="M645.4 302.7c.5 -.6 1 -.8 1.4 -1.1c.6 -.6 .7 -1.2 1.3 -1.9c.7 -.8 1.7 -.9 2.6 -1.9c-.6 1.3 -1.2 1.2 -2 1.9c-.6 .5 -.7 .9 -1.1 1.4c-.8 1.3 -1.6 1.3 -2.2 1.6Z" class="g3_7"/>
<path d="M624.5 324.1c.1 -.1 .4 -.5 .5 -.9c0 -.1 .4 -.8 .8 -1.2c.7 -.7 1.4 -.8 2 -1.5c.8 -.8 .6 -1.5 2 -2.1c-.4 .4 -.8 1.1 -1.1 1.6c-1.1 2 -2.1 1.2 -3.1 3c-.2 .3 -.4 .6 -1.1 1.1Z" class="g3_7"/>
<path d="M644.7 302.3c.6 -.7 1 -.8 1.4 -1.1c.7 -.6 .8 -1.2 1.3 -1.9c.8 -.9 1.9 -1 2.7 -1.9c-.7 1.6 -1.7 1.1 -2.6 2.5c-.4 .6 -.6 1.2 -1.6 1.8c-.5 .4 -.6 .3 -1.2 .6Z" class="g3_7"/>
<path d="M624 323.5c.3 -.4 .4 -.5 .5 -.8c0 -.1 .5 -1.1 1.2 -1.6c.6 -.4 1.1 -.6 1.6 -1.1c.8 -.9 .6 -1.6 2 -2.1c-.4 .4 -.9 1 -1.1 1.5c-1.2 2.1 -2.1 1.2 -3.2 3.1c-.1 .2 -.2 .5 -1 1Z" class="g3_7"/>
<path d="M644 302c.7 -1.1 1.3 -.9 2 -1.9c.4 -.5 .6 -1 1.1 -1.5c.7 -.7 1.7 -1 2.4 -1.6c-.6 1.1 -1.1 1.1 -1.8 1.6c-.6 .4 -.7 .8 -1.1 1.4c-.8 1.4 -1.8 1.4 -2.6 2Z" class="g3_7"/>
<path d="M623.5 323c.5 -.7 .4 -1 1 -1.8c.9 -1.1 1.8 -.9 2.6 -2.2c.6 -.9 .6 -1.3 1.8 -1.8c-.8 .7 -1.3 1.8 -1.4 2c-.7 1.1 -1.5 1.2 -2.1 1.7c-1 .7 -.8 1.4 -1.9 2.1Z" class="g3_7"/>
<path d="M643.3 301.6c.5 -.9 .9 -.9 1.4 -1.3c1.1 -.6 1.1 -1.4 1.8 -2.1c.8 -.9 1.7 -1 2.3 -1.6c-.5 1 -1 .9 -1.7 1.5c-.8 .6 -.8 1.3 -1.4 1.9c-.7 .8 -1.8 1.1 -2.4 1.6Z" class="g3_7"/>
<path d="M623.1 322.4c.5 -.8 .3 -1 1 -1.8c.6 -.9 1.3 -.9 2 -1.5c.9 -.9 .8 -1.7 2 -2.3c.9 -.4 .3 -.2 -.5 .8c-.4 .5 -.5 .8 -.9 1.3c-.9 1.3 -1.7 .9 -2.7 2.5c-.3 .4 -.6 .7 -.9 1Z" class="g3_7"/>
<path d="M642.6 301.3c.4 -.9 .8 -1 1.4 -1.4c1.3 -.8 1.1 -1.4 2.1 -2.4c.8 -.8 1.4 -.8 2.1 -1.4c-.7 1.2 -1 .9 -1.8 1.6c-.8 .8 -.7 1.5 -1.8 2.3c-.5 .4 -1.5 .8 -2 1.3Z" class="g3_7"/>
<path d="M622.6 321.7c.4 -.6 .3 -.7 .6 -1.2c1 -1.6 2 -1.1 3.1 -2.9c.7 -1.3 1.1 -1.3 1.9 -1.6c-1.1 .9 -1.2 1.1 -1.6 1.8c-.7 1.1 -1 1.3 -1.9 1.8c-1.3 .7 -1 1.3 -2.1 2.1Z" class="g3_7"/>
<path d="M641.9 301c.4 -.8 .6 -1.1 1.3 -1.5c2.1 -1.2 1.3 -2 3 -3.1c.6 -.3 .8 -.2 1.3 -.6c-.5 .7 -1 .9 -1.1 1c-1.6 .9 -.8 1.8 -3 3.1c-.4 .2 -.5 .3 -.7 .4c-.2 .2 -.3 .2 -.8 .7Z" class="g3_7"/>
<path d="M622.2 321.1c.4 -.7 .3 -1.2 1.1 -1.9c.6 -.5 1.1 -.7 1.7 -1.2c.9 -.7 .9 -2 2.2 -2.4c1 -.4 1 -.5 .2 .2c-.6 .4 -.8 .6 -1.2 1.2c-.3 .6 -.6 1.2 -1.4 1.7c-.6 .4 -1.2 .5 -1.7 1.4c-.3 .4 -.7 .8 -.9 1Z" class="g3_7"/>
<path d="M641.2 300.8c.2 -.6 .3 -.9 .7 -1.2c.5 -.5 .9 -.7 1.4 -1c1 -.7 .9 -1.5 1.8 -2.3c.6 -.5 1 -.6 1.3 -.7c.5 -.2 .6 -.3 .4 -.1c-.2 .2 -.7 .6 -.8 .6c-1.3 .9 -1.1 1.2 -1.8 2.1c-.8 1.2 -1.4 .7 -3 2.6Z" class="g3_7"/>
<path d="M621.8 320.4c.4 -.7 .3 -1 .9 -1.7c1 -.9 1.6 -.6 2.5 -2.2c.9 -1.6 1.7 -1.5 2.5 -2c-.5 .6 -1 .9 -1.2 1c-.9 .7 -.9 1.4 -1.6 2.1c-.6 .6 -1.2 .8 -1.7 1.2c-.5 .5 -.9 1.1 -1.4 1.6Z" class="g3_7"/>
<path d="M640.5 300.6c.4 -.8 .2 -.9 .7 -1.4c.7 -.8 1.4 -.8 2 -1.5c.5 -.5 .6 -1.1 1.1 -1.7c.8 -.7 1.1 -.6 1.8 -1c-.4 .5 -1.1 .9 -1.5 1.3c-.5 .5 -.6 1.1 -1.1 1.7c-.7 .7 -1.5 .8 -2.1 1.6c0 0 -.7 .8 -.9 1Z" class="g3_7"/>
<path d="M621.4 319.6c.1 -.2 .4 -.9 .4 -1c.6 -.8 1.3 -1 1.8 -1.4c.9 -.6 1 -1.3 1.6 -2c.5 -.6 1.3 -1 1.4 -1c.3 -.1 .6 -.3 .9 -.5c-.8 1.2 -1.2 .8 -2 1.7c-.6 .7 -.7 1.5 -1.7 2.2c-.3 .2 -.6 .3 -.9 .5c-.6 .4 -1.2 1.2 -1.5 1.5Z" class="g3_7"/>
<path d="M639.6 300.5c.5 -.8 .3 -1.2 1.3 -2.1c1 -.8 1.4 -.5 2.4 -2.1c.8 -1.4 1.3 -1.3 2.1 -1.7c-.2 .2 -.5 .4 -.6 .6c-1.5 1.3 -1.1 1.7 -2.2 2.5c-.7 .6 -1.3 .7 -1.9 1.6c-.1 .1 -.5 .7 -1.1 1.2Z" class="g3_7"/>
<path d="M621.1 318.8c0 -.2 .3 -.8 .4 -1c.7 -.7 1.3 -.8 1.9 -1.3c.6 -.6 .7 -1.2 1.3 -1.8c.7 -.9 1.7 -1 2.6 -2.1c-.7 1.8 -1.7 1.2 -2.7 2.8c-.3 .5 -.5 1.1 -1.4 1.7c-.4 .2 -.7 .4 -1 .6c-.3 .2 -.3 .3 -.5 .4c-.2 .2 -.5 .6 -.6 .7Z" class="g3_7"/>
<path d="M638.6 300.4c.4 -.4 .4 -.5 .9 -1.4c.7 -1.2 1 -1.2 2 -1.8c1.2 -.8 1.2 -1.8 2 -2.4c.2 -.2 .9 -.5 1 -.5c-1.4 1.1 -1.3 1.7 -1.9 2.5c-.7 .8 -1.5 .9 -2.2 1.6c-.7 .8 -.5 1.4 -1.8 2Z" class="g3_7"/>
<path d="M620.7 318c.6 -1.5 1.2 -1.3 2.1 -2.1c.7 -.6 .8 -1.2 1.4 -1.8c.7 -.8 1.3 -.8 1.9 -1.4c.2 -.2 .7 -.8 1.1 -1.3c-.4 .9 -.2 1.3 -1.8 2.3c-.9 .5 -1.1 .7 -1.5 1.6c-1 1.6 -2.2 1.5 -3.2 2.7Z" class="g3_7"/>
<path d="M637.2 300.4c.2 -.2 .5 -.4 .7 -.6c1.5 -1.3 1.1 -1.9 2.4 -2.8c.6 -.4 1.2 -.5 1.7 -1.4c.4 -.7 .5 -1.2 1.6 -1.6c-.6 .5 -1.1 1.5 -1.3 1.8c-.6 .9 -1.2 1.2 -1.8 1.5c-.8 .6 -1 1.1 -1.4 1.7c-.6 1.1 -1.1 1.1 -1.9 1.4Z" class="g3_7"/>
<path d="M620.4 317.1c.5 -.9 1 -1.1 1.4 -1.3c.9 -.6 1.1 -1.2 1.5 -1.8c.6 -1 1.3 -1.1 1.9 -1.6c1.2 -.8 .7 -1.3 2.1 -2.2c-.7 .8 -.7 1.8 -1.8 2.5c-.7 .5 -1.3 .6 -1.9 1.5c-.4 .6 -.6 1.3 -1.6 1.9c-.9 .6 -1.1 .5 -1.6 1Z" class="g3_7"/>
<path d="M635.9 300.5c.8 -1.4 1.5 -.8 2.5 -2.5c.6 -1 .9 -1.2 1.8 -1.8c1.7 -.9 1.1 -1.7 2.5 -2.5c-.7 .9 -.6 1.9 -2.3 2.9c-.9 .5 -1.1 .7 -1.6 1.6c-1 1.7 -2.1 1.6 -2.9 2.3Z" class="g3_7"/>
<path d="M620.2 316.2c.7 -.9 1.2 -.9 1.9 -1.6c.5 -.7 .6 -1.4 1.6 -2c.6 -.5 1.3 -.6 1.8 -1.6c.6 -1 .6 -1.3 1.9 -1.7c-1.2 .9 -1.3 1.8 -1.9 2.4c-.7 .8 -1.4 .9 -2.1 1.6c-.6 .6 -.7 1.3 -1.5 2c-.8 .6 -1 .4 -1.7 .9Z" class="g3_7"/>
<path d="M634.9 300.8c.4 -1.1 .4 -1.2 1.7 -2c1 -.6 1.1 -1.1 1.6 -1.8c.6 -1 1.4 -1.2 2 -1.6c.8 -.7 .7 -1.2 1.7 -1.9c-.5 .7 -.4 1.6 -2 2.5c-1 .6 -1.2 .8 -1.7 1.8c-1 1.7 -1.7 1 -3.3 3Z" class="g3_7"/>
<path d="M620 315.4c.8 -.8 1.3 -.9 1.8 -1.8c.6 -.9 .7 -1.2 1.9 -1.9c1.1 -.7 1.2 -1.1 1.7 -1.9c.3 -.5 .8 -1 1.4 -1.2c.9 -.3 1.1 -.6 .1 .2c-.4 .4 -.8 .5 -1.2 1.2c-.5 .8 -.6 1.3 -1.8 2c-1.1 .6 -1.2 1 -1.7 1.8c-.8 1.3 -1.5 1.2 -2.2 1.6Z" class="g3_7"/>
<path d="M633.5 301.3c.4 -.5 .5 -.8 .7 -1.2c.8 -1.4 1.3 -1.4 2.1 -1.9c1 -.7 1 -1.4 1.7 -2.1c.5 -.7 1.2 -.9 1.7 -1.3c.6 -.5 .5 -.6 1.3 -1.5c-.3 .8 -.2 1.1 -1.1 1.8c-.7 .6 -1.4 .6 -2 1.8c-.7 1.1 -.8 1.2 -2 2c-1.5 .8 -1 1.6 -2.4 2.4Z" class="g3_7"/>
<path d="M619.9 314.6c1.6 -1.3 1.3 -1.5 2 -2.4c1 -1.3 1.7 -.7 2.8 -2.7c.6 -.9 .9 -1.1 1.8 -1.6c1.4 -.9 1 -1.4 2.2 -2.3c-.4 .5 -.4 .9 -.5 .9c-.7 1.7 -2 1.7 -2.7 2.6c-.5 .6 -.7 1.3 -1.5 1.9c-.4 .4 -.9 .6 -1.3 .9c-.9 .7 -1.1 1.9 -1.9 2.3c-.4 .2 -.5 .3 -.9 .4Z" class="g3_7"/>
<path d="M619.7 313.8c.6 -.5 1 -1.1 1.4 -1.7c.7 -1.2 1.4 -1.3 2.1 -1.9c.7 -.5 .9 -1.2 1.4 -1.8c.6 -.8 1.3 -.9 1.8 -1.4c.7 -.5 .9 -1.2 1.4 -1.8c.6 -.8 1.2 -.9 1.9 -1.4c.5 -.5 .7 -.9 1 -1.4c.7 -1.1 1.5 -1.3 2.2 -1.8c.7 -.6 .8 -1.4 1.4 -1.9c.5 -.6 1 -.7 1.4 -1.1c.9 -.5 1.1 -1.1 1.4 -1.7c.6 -.9 1.3 -1.1 1.9 -1.5c1.1 -.8 1.5 -1.8 1.1 -.8c-.6 1.4 -1.5 1.2 -2.4 2.2c-.4 .5 -.6 1 -1 1.5c-.7 .8 -1.3 .8 -2 1.5c-.6 .7 -.7 1.2 -1.2 1.7c-.7 .8 -1.3 .8 -2 1.5c-.7 .7 -.7 1.4 -1.6 2.1c-.7 .5 -1.2 .6 -1.8 1.3c-.4 .5 -.6 1 -1.1 1.6c-.6 .6 -1.1 .8 -1.6 1.1c-1 .8 -.9 1.7 -2 2.4c-.7 .6 -1.3 .6 -2 1.7c-.5 .9 -.6 1.2 -1.7 1.6Z" class="g3_7"/>
<path d="M619.6 313c.7 -.7 .8 -1.7 1.9 -2.5c.9 -.7 1.3 -.5 2.2 -2.1c.5 -.8 .9 -1.1 1.6 -1.5c1.5 -.9 1.3 -1.6 2.2 -2.5c.7 -.7 1.3 -.7 1.9 -1.4c.4 -.4 .5 -.7 .8 -1.1c.5 -.9 1.1 -1.1 1.7 -1.5c1.2 -.7 1.1 -1.5 2 -2.4c.8 -.8 1.6 -.7 2.3 -1.9c.4 -.6 .6 -1.2 1.5 -1.7c.3 -.2 1.3 -.7 1.8 -1.3c-.6 1.3 -1.2 1.2 -2 1.8c-.7 .6 -.8 1.2 -1.3 1.8c-.7 1 -1.6 .9 -2.4 1.9c-.6 .9 -.5 1.4 -2.1 2.3c-1.4 .8 -1.2 1.5 -2.1 2.4c-.6 .7 -1.1 .7 -1.8 1.4c-.8 .7 -.8 1.5 -1.9 2.2c-.5 .4 -1 .5 -1.4 1c-.4 .5 -.6 1 -1 1.5c-.7 .9 -1.4 1 -2.1 1.6c-.8 .9 -.6 1.4 -1.8 2Z" class="g3_7"/>
<path d="M619.6 312c.6 -1 .1 -1.3 2.2 -2.6c1.6 -.9 1 -1.9 2.9 -3c1.9 -1.1 1.3 -2 2.9 -3c.5 -.3 .7 -.4 1.2 -.9c.6 -.6 .6 -1 1.1 -1.5c.7 -1 1.6 -1 2.3 -1.9c.5 -.6 .6 -1.3 1.6 -2c.6 -.4 1.1 -.6 1.6 -1.2c.5 -.6 .7 -1.4 1.7 -2c.7 -.5 .9 -.4 1.3 -.7q.2 -.2 .1 0c-.7 1 -1.4 .8 -2.1 1.8c-.3 .5 -.4 .9 -.9 1.4c-.7 .7 -1.2 .7 -1.8 1.3c-.8 .7 -.7 1.3 -1.7 2.2c-.6 .5 -.9 .5 -1.5 1c-.8 .7 -.7 1.1 -1.4 1.9c-.7 .7 -1.3 .8 -1.9 1.4c-.6 .6 -.7 1.2 -1.2 1.7c-.7 .8 -1.4 .8 -2.1 1.6c-.5 .5 -.6 1.1 -1.2 1.7c-.6 .6 -1.1 .7 -1.8 1.2c-.5 .5 -.6 1 -1.3 1.6Z" class="g3_7"/>
<path d="M619.6 310.7c.6 -1.7 1.2 -1.3 2.2 -2.2c1 -.9 .6 -1.7 2.4 -2.7c1.7 -.9 1.3 -1.6 2.3 -2.6c.7 -.6 1.3 -.6 2 -1.4c.4 -.5 .4 -.8 .8 -1.3c.6 -.8 1.3 -.9 1.9 -1.5c.7 -.5 .8 -1 1.2 -1.5c.7 -1.1 1.4 -1.1 2.2 -1.8c.5 -.5 .6 -.8 .9 -1.2c.7 -1.2 1.3 -1.2 1.9 -1.5c-.9 .9 -1.2 .9 -1.6 1.6c-.3 .5 -.4 .8 -.9 1.3c-1 .9 -1.6 .7 -2.4 2.1c-1.4 2.4 -2 1.2 -3.3 3.4c-1.1 1.8 -2 1.3 -2.9 2.7c-.3 .4 -.4 .8 -.8 1.3c-.6 .5 -.9 .6 -1.4 1c-1.5 .9 -1 1.9 -2.7 2.9c-.7 .4 -1.3 .7 -1.8 1.4Z" class="g3_7"/>
<path d="M619.6 309.3c.7 -.9 1.1 -.8 1.7 -1.4c1 -.9 .5 -1.5 2.4 -2.6c1.3 -.8 1.3 -1.4 1.9 -2.1c.9 -1.3 1.8 -1 2.7 -2.4c.3 -.6 .6 -1.2 1.5 -1.7c1.2 -.8 1.1 -.7 1.9 -2c.8 -1.3 1.6 -1.1 2.5 -2.1c.7 -.8 .6 -1.3 1.7 -1.9c-.6 .6 -.9 1.8 -1.7 2.4c-.7 .6 -1.2 .6 -1.9 1.4c-.4 .5 -.5 1.1 -1.1 1.7c-.6 .6 -1.2 .7 -1.8 1.2c-1 1 -.5 1.6 -2.4 2.7c-1.3 .7 -1.3 1.4 -1.9 2.1c-.9 1.2 -1.8 .9 -2.7 2.4c-1.2 2 -1.8 1.7 -2.8 2.3Z" class="g3_7"/>
<path d="M619.8 308.3c.3 -.3 1.1 -1 1.4 -1.4c.4 -.6 .6 -1.3 1.8 -2c1 -.7 1.1 -.7 1.8 -1.8c.9 -1.7 2 -1.3 2.9 -2.7c.5 -.9 .6 -1.3 1.9 -2c1.7 -1 1.2 -1.9 2.7 -2.9c.6 -.4 1 -.5 1.6 -1.2c.1 -.3 .6 -.8 .8 -1c-.3 .7 -.2 .8 -.6 1.2c-.7 1 -1.4 1 -2.1 1.7c-.5 .5 -.7 1.1 -1.1 1.6c-.6 .7 -1.2 .9 -1.7 1.2c-.9 .7 -1 1.4 -1.6 2.1c-.6 .7 -1.2 .8 -1.7 1.2c-.6 .5 -.8 1 -1.1 1.6c-.7 1 -1.5 1.1 -2.2 1.7c-.8 .6 -.8 1.3 -1.6 2.1c-.3 .3 -.3 .2 -1.2 .6Z" class="g3_7"/>
<path d="M619.9 307.3c.8 -.6 1.1 -1.8 1.9 -2.5c.6 -.6 1.3 -.7 1.9 -1.4c.5 -.7 .6 -1.4 1.6 -2c.6 -.5 1.2 -.6 1.8 -1.5c.4 -.7 .6 -1.3 1.7 -1.9c.9 -.5 1.1 -.7 1.7 -1.6c1.1 -2 2 -1.4 3.2 -2.9c-.6 1.5 -1.3 1.2 -2.2 2.1c-.7 .6 -.7 1.3 -1.5 2c-.6 .6 -1.3 .7 -1.9 1.5c-.5 .6 -.6 1.3 -1.6 1.9c-.6 .5 -1.2 .6 -1.8 1.5c-.4 .6 -.6 1.3 -1.7 1.9c-.8 .5 -1.1 .7 -1.7 1.6c-.3 .5 -.5 .9 -1.4 1.3Z" class="g3_7"/>
<path d="M620.3 305.9c.4 -.9 .2 -.9 .8 -1.5c.6 -.6 1.2 -.7 1.8 -1.2c.6 -.6 .7 -1.2 1.2 -1.8c.6 -.7 1.2 -.8 1.8 -1.3c.7 -.5 .8 -1.1 1.3 -1.7c.5 -.8 1.2 -1 1.7 -1.4c.8 -.5 1 -1 1.3 -1.6c.8 -1.2 1.6 -1.2 2.3 -1.6c-.3 .3 -.8 .7 -.9 .8c-1.2 .7 -1.2 1.6 -2 2.4c-.6 .6 -1.2 .7 -1.8 1.2c-.6 .6 -.7 1.2 -1.2 1.8c-.7 .7 -1.3 .8 -1.8 1.3c-.7 .5 -.8 1.1 -1.3 1.7c-.6 .8 -1.2 1 -1.8 1.4c-.5 .3 -1 1.1 -1.4 1.5Z" class="g3_7"/>
<path d="M621.2 303.6c.1 -.1 1.2 -1 1.3 -1.1c.5 -.5 .6 -1.2 1.2 -1.8c.7 -.7 1.4 -.8 2 -1.4c.6 -.7 .6 -1.4 1.7 -2.2c.5 -.3 .8 -.4 1.3 -.8c.4 -.4 .7 -1 1.3 -1.5c-.4 .6 -.3 1.1 -1.1 1.8c-.5 .4 -.8 .5 -1.3 .8c-1.1 .9 -.9 1.9 -2.3 2.7c-.4 .3 -.9 .5 -1.3 .9c-.6 .6 -1 1.9 -2 2.3c-.4 .2 -.6 .2 -.8 .3Z" class="g3_7"/>
<path d="M621.8 302.4c.5 -.6 .7 -1.4 1.4 -2.2c.6 -.7 1.3 -.8 1.9 -1.4c.6 -.7 .7 -1.3 1.5 -2c.7 -.6 1.5 -.8 2.1 -1.4c-.4 .9 -.9 1.1 -1.3 1.3c-1 .6 -1.2 1.2 -1.6 1.8c-.6 1 -1.3 1.2 -1.9 1.6c-1.1 .8 -.9 1.5 -2.1 2.3Z" class="g3_7"/>
</svg>