<?xml version="1.0" encoding="UTF-8" standalone="no"?>
<!DOCTYPE svg PUBLIC "-//W3C//DTD SVG 1.1//EN"
"http://www.w3.org/Graphics/SVG/1.1/DTD/svg11.dtd">
<svg viewBox="0 0 1371 5000" version="1.1" xmlns="http://www.w3.org/2000/svg" xmlns:xlink="http://www.w3.org/1999/xlink">
<defs>
<clipPath id="c0_3"><path d="M263.4 2035.1V1311.2H746.5v723.9Z"/></clipPath>
<clipPath id="c1_3"><path d="M626.3 4068.2V3344.3h483.1v723.9Z"/></clipPath>
<clipPath id="c2_3"><path d="M628.8 2610V2155.3h477.8V2610Z"/></clipPath>
<clipPath id="c3_3"><path d="M260.4 3223.9V2769.2H738.2v454.7Z"/></clipPath>
<clipPath id="c4_3"><path d="M-.1 5001.2V-.1h1372V5001.2Z"/></clipPath>
<clipPath id="c5_3"><path d="M.3 719V596.4H1371.9V719Z"/></clipPath>
<clipPath id="c6_3"><path d="M626.3 4067.7V3344.3h483.3v723.4Z"/></clipPath>
<clipPath id="c7_3"><path d="M263.4 2035.3V1311.2H746.7v724.1Z"/></clipPath>
<clipPath id="c8_3"><path d="M263.2 2035.8V1311.1H746.6v724.7Z"/></clipPath>
<clipPath id="c9_3"><path d="M626.2 4068.9V3344.2h483.3v724.7Z"/></clipPath>
<clipPath id="ca_3"><path d="M628.8 2610.1V2155.3h478.3v454.8Z"/></clipPath>
<clipPath id="cb_3"><path d="M262.9 3224V2769.2H738.4V3224Z"/></clipPath>
<clipPath id="cc_3"><path d="M628.7 2610.1V2155.2h479.8v454.9Z"/></clipPath>
<clipPath id="cd_3"><path d="M260.2 3223.9V2769H740v454.9Z"/></clipPath>
<clipPath id="ce_3"><path d="M-.1 596.5V-.1h1372V596.5Z"/></clipPath>
<clipPath id="cf_3"><path d="M138.4 596.2V3.5H1200.5V596.2Z"/></clipPath>
<clipPath id="cg_3"><path d="M618.6 329.2V292.4H699v36.8Z"/></clipPath>
<style type="text/css"><![CDATA[
.g0_3{
fill: #FFF;
}
.g1_3{
fill: #FF914D;
}
.g2_3{
fill: #000;
}
.g3_3{
fill: none;
stroke: #FF914D;
stroke-width: 3.572;
stroke-miterlimit: 10;
}
.g4_3{
fill: #303B3E;
}
]]></style>
</defs>
<g clip-path="url(#c4_3)">
<path d="M0 0H1371.7V5001H0V0Z" class="g0_3"/>
<path d="M0 0H1371.7V5001H0V0Z" class="g0_3"/>
</g>
<path clip-path="url(#c5_3)" d="M.5 596.6H1372.1V718.8H.5V596.6Z" class="g1_3"/>
<path d="M697 887.8c1.6 -.7 3.4 -1 5.2 -1c7.7 0 13.9 5.9 13.9 13.1c0 7.2 -6.2 13.2 -13.9 13.2c-7.6 0 -13.8 -5.9 -13.8 -13.2c-2 -19.3 20.7 -33 20.7 -33l1.8 2.2c0 0 -15 11.7 -13.9 18.7Z" class="g2_3"/>
<path d="M667.3 887.8c1.7 -.7 3.4 -1 5.3 -1c7.7 0 13.9 5.8 13.9 13.1c0 7.3 -6.2 13.2 -13.9 13.2c-7.7 0 -13.8 -5.9 -13.8 -13.2c-2 -19.3 20.7 -33 20.7 -33l1.8 2.2c0 0 -15 11.7 -14 18.7Z" class="g2_3"/>
<path d="M582 787.1h48.2" class="g3_3"/>
<path d="M675.8 1049.8c-1.6 .7 -3.4 1.1 -5.3 1.1c-7.7 -.1 -13.8 -6 -13.8 -13.2c0 -7.2 6.1 -13.2 13.8 -13.2c7.7 0 13.9 5.9 13.9 13.2c1.9 19.3 -20.7 33 -20.7 33l-1.8 -2.2c0 0 15 -11.7 13.9 -18.7Z" class="g2_3"/>
<path d="M705.4 1049.8c-1.6 .7 -3.4 1.1 -5.3 1.1c-7.6 0 -13.8 -5.9 -13.8 -13.2c0 -7.3 6.2 -13.2 13.8 -13.2c7.7 0 13.9 5.9 13.9 13.2c2 19.3 -20.7 33 -20.7 33l-1.8 -2.2c0 0 15 -11.7 13.9 -18.7Z" class="g2_3"/>
<path d="M657.8 1231.7H706" class="g3_3"/>
<image clip-path="url(#c6_3)" preserveAspectRatio="none" x="626" y="3344" width="483" height="723" xlink:href="img/1.jpg"/>
<image clip-path="url(#c7_3)" preserveAspectRatio="none" x="264" y="1311" width="483" height="724" xlink:href="img/2.jpg"/>
<g clip-path="url(#c8_3)" opacity="0.48">
<image clip-path="url(#c0_3)" x="263" y="1311" width="484" height="724" xlink:href="shade/1.png"/>
</g>
<g clip-path="url(#c9_3)" opacity="0.48">
<image clip-path="url(#c1_3)" x="626" y="3344" width="484" height="724" xlink:href="shade/2.png"/>
</g>
<image clip-path="url(#ca_3)" preserveAspectRatio="none" x="601" y="2046" width="505" height="674" xlink:href="img/3.jpg"/>
<image clip-path="url(#cb_3)" preserveAspectRatio="none" x="142" y="2769" width="683" height="455" xlink:href="img/4.jpg"/>
<g clip-path="url(#cc_3)" opacity="0.48">
<image clip-path="url(#c2_3)" x="628" y="2155" width="479" height="455" xlink:href="shade/3.png"/>
</g>
<g clip-path="url(#cd_3)" opacity="0.48">
<image clip-path="url(#c3_3)" x="260" y="2769" width="479" height="455" xlink:href="shade/4.png"/>
</g>
<path d="M883.3 1710.9h48.2m-531 695h48.2m447.2 607.6H944m-545.5 716h48.1" class="g3_3"/>
<path clip-path="url(#ce_3)" d="M-41.6 0h1416V596.3H-41.6V0Z" class="g2_3"/>
<image clip-path="url(#cf_3)" preserveAspectRatio="none" x="139" y="-111" width="1061" height="849" xlink:href="img/5.jpg"/>
<path d="M690.7 326.1c.4 -.7 .3 -1.3 1.5 -2c.6 -.4 1.1 -.6 1.7 -1.5c.7 -1.1 .8 -1.4 1.8 -1.7c.8 -.4 .3 -.2 -.3 .4c-.4 .4 -.3 .1 -1.2 1.5c-.9 1.5 -1.9 1.3 -2.7 2.4c0 0 -.7 .8 -.8 .9Z" class="g4_3"/>
<path d="M687.7 327.7c.5 -1 1 -1 1.6 -1.5c.9 -.6 1 -1.4 1.6 -2.1c.7 -.7 1.5 -.8 2.1 -1.5c.5 -.7 .6 -1.2 1.3 -1.9c.8 -.7 1.3 -.6 2 -1.5c.4 -.5 .5 -1 1.4 -1.5c-.8 1 -.7 1.9 -2.3 2.8c-2 1.2 -1.2 2 -3.1 3.1c-1.9 1.1 -1.3 1.7 -2.6 2.8c-.5 .4 -1.5 .9 -2 1.3Z" class="g4_3"/>
<path d="M686.5 328.2c.4 -1 .3 -.9 .7 -1.4c.4 -.5 1 -.7 1.4 -1c.7 -.4 .9 -.8 1.3 -1.5c1 -1.7 2 -1.2 2.9 -2.8c.4 -.5 .6 -1.1 1.4 -1.6c.6 -.4 1.1 -.5 1.6 -1.2c.6 -.8 .7 -1.5 1.8 -2c.7 -.3 .5 -.2 .1 .2c-.8 .7 -1.1 1.2 -1.3 1.5c-.8 1.5 -1.6 1.4 -2.3 2.1c-.7 .6 -.8 1.1 -1.2 1.7c-.6 .7 -1.2 .9 -1.7 1.3c-.7 .4 -.9 1 -1.3 1.5c-.8 1.4 -1.7 1.2 -2.5 2.2c-1.3 1.5 -.6 .7 -.9 1Z" class="g4_3"/>
<path d="M685.1 328.6c.7 -.7 1 -1.7 1.7 -2.5c.7 -.6 1.3 -.7 1.9 -1.4c.6 -.6 .7 -1.2 1.4 -1.9c.7 -.5 1.3 -.6 1.9 -1.4c.5 -.6 .6 -1.3 1.5 -1.9c.6 -.5 1.2 -.6 1.8 -1.4c.4 -.6 .6 -1.3 1.5 -1.9c.9 -.6 1 -.4 1.6 -.9c-.2 .4 -.6 .8 -.8 .9c-2.3 1.3 -1 1.9 -3.4 3.3c-.9 .5 -1.1 .9 -1.5 1.7c-.6 1 -1.1 1.2 -1.8 1.6c-.9 .5 -1.1 1.1 -1.5 1.7c-.6 1 -1.3 1.2 -1.9 1.6c-1.4 .9 -.8 1.8 -2.4 2.5Z" class="g4_3"/>
<path d="M683.2 328.9c1 -1.3 1.3 -.5 2.4 -2.4c.6 -1 1 -1.2 1.8 -1.7c1 -.6 1.1 -1.1 1.5 -1.7c.8 -1.2 1.5 -1.2 2.2 -1.8c.8 -.7 .8 -1.5 1.7 -2.2c.7 -.6 1.5 -.7 2.1 -1.7c.3 -.5 .6 -1.2 1.4 -1.7c.6 -.4 1.1 -.5 1.6 -1.3c.2 -.2 .8 -.8 .9 -1c-.4 .8 -.3 1.4 -1.7 2.3c-2.3 1.3 -1 1.9 -3.5 3.3c-1.1 .7 -1.2 1.3 -1.7 2c-.7 1 -1.5 1.1 -2.2 1.8c-.7 .7 -.7 1.4 -1.8 2.2c-.5 .3 -1.1 .5 -1.6 1.2c-.6 .8 -.7 1.7 -2.5 2.4c-.2 .1 -.4 .2 -.6 .3Z" class="g4_3"/>
<g clip-path="url(#cg_3)">
<path d="M682.2 329c.6 -1.4 1.3 -1.1 2.2 -2c.6 -.7 .6 -1.3 1.6 -2.1c.5 -.5 1 -.6 1.5 -1.1c.8 -.7 .8 -1.5 1.9 -2.3c.6 -.4 1.2 -.6 1.7 -1.3c.6 -.9 .5 -1.3 2.1 -2.2c1.5 -.9 1.2 -1.9 2.5 -2.8c.6 -.4 1.1 -.5 1.7 -1.3c.5 -.6 .5 -1.1 1.5 -1.7c-.4 .4 -.4 .6 -.8 1.3c-1.1 1.9 -1.8 1.4 -2.7 2.5c-.4 .5 -.6 1 -1.1 1.6c-.6 .6 -1 .7 -1.5 1.1c-1.1 .7 -1 1.5 -1.9 2.3c-.6 .6 -1.2 .7 -1.8 1.3c-.6 .6 -.7 1.4 -1.6 2.1c-.6 .4 -1.1 .5 -1.6 1c-.7 .8 -.7 1.6 -1.9 2.4c-.3 .1 -1.3 .7 -1.8 1.2Z" class="g4_3"/>
<path d="M681.3 329.1c.3 -.8 .4 -1.3 1.5 -1.9c.6 -.4 .9 -.5 1.3 -1.1c.5 -.6 .7 -1.2 1.4 -1.8c.6 -.5 1.2 -.6 1.8 -1.4c.4 -.5 .5 -.9 1.1 -1.5c.7 -.7 1.1 -.7 1.7 -1.2c.9 -.8 .8 -1.7 2 -2.5c.5 -.2 .9 -.4 1.3 -.8c.4 -.5 .6 -.9 .9 -1.3c.8 -1.2 1.6 -1.1 2.5 -2.1c.9 -1.1 .5 -1.6 2.1 -2.2c-1.1 1 -1.3 1.7 -1.8 2.4c-.9 1.1 -1.8 .9 -2.5 2.1c-.3 .4 -.4 .9 -.9 1.3c-.4 .5 -.9 .7 -1.3 1c-1.2 .7 -1.1 1.5 -2 2.4c-.7 .5 -1.1 .6 -1.8 1.2c-.5 .5 -.6 .9 -1 1.5c-.6 .8 -1.3 .9 -1.9 1.4c-.6 .5 -.8 1.1 -1.3 1.7c-.4 .7 -.9 .9 -1.4 1.2c-.6 .4 -1 .8 -1.7 1.6Z" class="g4_3"/>
<path d="M680.4 329.1c.4 -.7 .4 -1.3 1.3 -2.1c.8 -.6 1.4 -.6 2 -1.6c.3 -.4 .5 -1.1 1.2 -1.6c.5 -.4 .7 -.4 1.2 -.7c1.1 -.8 1 -1.7 2 -2.5c.6 -.5 1.2 -.6 1.7 -1.2c.5 -.6 .7 -1.3 1.4 -1.9c.4 -.3 .8 -.5 1.2 -.8c.9 -.6 1 -1.2 1.5 -1.9c.8 -1.1 1.7 -.9 2.5 -2c.4 -.6 .5 -1.2 1.4 -1.9c.2 -.1 .8 -.2 1.1 -.4c0 0 -.8 .7 -.8 .7c-.9 .6 -1 1.2 -1.4 1.8c-.9 1.2 -1.7 1.1 -2.5 2c-.4 .6 -.5 1.1 -1.2 1.8c-.5 .4 -.9 .5 -1.4 .9c-.7 .5 -.8 1 -1.2 1.6c-1 1.5 -1.8 .8 -3 2.8c-.6 1.1 -1.1 1.3 -1.8 1.7c-1 .6 -1.2 1.3 -1.6 1.9c-.7 1 -1.3 1 -2 1.6c-.7 .5 -.8 1.1 -1.6 1.8Z" class="g4_3"/>
<path d="M679.3 329c.7 -.7 .9 -1.6 1.8 -2.4c.4 -.4 .7 -.5 1.2 -.8c.9 -.6 1 -1.3 1.6 -2c.6 -.9 1.4 -.9 2 -1.6c.8 -.7 .8 -1.6 2 -2.4c.6 -.3 .9 -.4 1.4 -.9c.5 -.6 .5 -.9 .9 -1.5c.8 -.9 1.4 -.9 2.1 -1.6c.8 -.8 .8 -1.6 2 -2.3c.9 -.6 1.2 -.6 1.9 -1.7c1 -1.8 1.7 -1.5 2.7 -2.3c-.9 1.4 -1.4 .7 -2.4 2.5c-.6 1.1 -1 1.2 -2 1.8c-1.1 .7 -1.1 1.5 -1.9 2.3c-.8 .9 -1.6 .7 -2.3 1.9c-.3 .5 -.4 .8 -.9 1.3c-.7 .6 -1 .7 -1.6 1.1c-1 .9 -.8 1.6 -1.9 2.4c-.9 .6 -1.4 .5 -2.2 2c-.9 1.5 -1.6 1.3 -2.5 2.2c-.8 .8 -.7 1.4 -1.9 2Z" class="g4_3"/>
</g>
<path d="M678.2 328.9q.5 -.4 .7 -.7c.1 -.1 .3 -.3 .5 -.6c.4 -.5 .5 -.9 1.1 -1.5c.5 -.5 1 -.6 1.5 -1c.8 -.7 .8 -1.2 1.4 -1.9c.5 -.6 1 -.8 1.5 -1.1c.8 -.5 1 -1.1 1.4 -1.7c.7 -1.1 1.5 -1.2 2.1 -1.8c.8 -.6 .8 -1.2 1.5 -2c.7 -.7 1.5 -.8 2.1 -1.5c.6 -.7 .5 -1.4 2.1 -2.4c1.6 -.9 1.2 -1.5 2.4 -2.6c.7 -.6 1.6 -.9 2.3 -1.6c-.5 1.1 -1 1.1 -1.7 1.6c-1.2 .7 -1 1.6 -2 2.4c-.7 .7 -1.4 .7 -2.1 1.7c-.2 .3 -.4 .8 -.7 1.2c-.7 .8 -1.4 .9 -2.1 1.5c-.7 .8 -.7 1.4 -1.5 2c-.6 .6 -1.3 .7 -1.8 1.4c-.5 .6 -.7 1.2 -1.4 1.8c-.6 .5 -1 .6 -1.5 1.1c-.7 .6 -.8 1.1 -1.4 1.8c-.5 .6 -1 .8 -1.5 1.1c-.8 .5 -1 1.2 -1.4 1.7c-.4 .7 -.7 .8 -1.5 1.1Z" class="g4_3"/>
<path d="M690.2 315.7c.2 -.2 .6 -.4 .7 -.6c0 0 .1 -.1 .1 -.1c.9 -.7 .9 -1.4 1.6 -2.1c.8 -.8 1.6 -.7 2.3 -1.9c.3 -.4 .3 -.7 .8 -1.2c1 -1 1.1 -.3 2.9 -2.4c-.4 .9 -.4 1 -.7 1.3c-.7 .7 -1.4 .7 -2.1 1.6c-.5 .7 -.7 1.4 -1.7 2.1c-.4 .2 -.8 .4 -1.2 .8c-.7 .7 -1 1.9 -1.9 2.2c-.4 .2 -.5 .2 -.8 .3Z" class="g4_3"/>
<path d="M677.1 328.7c.9 -.9 1.2 -.8 1.9 -1.7c.4 -.7 .6 -1.3 1.8 -2c1 -.6 1.1 -.8 1.7 -1.8c1 -1.6 2 -1.3 3.1 -2.7c-.8 2 -1.7 1 -3 3.2c-.8 1.4 -1.5 1.4 -2.2 2c-.7 .6 -.9 1.1 -1.2 1.6c-.4 .6 -.9 1 -1.1 1c-.1 .1 -.6 .2 -1 .4Z" class="g4_3"/>
<path d="M690.7 314.6c.5 -.7 .5 -1.1 1.1 -1.9c.7 -1 1.5 -1 2.2 -1.8c.6 -.6 .7 -1.4 1.8 -2.2c.6 -.3 1.2 -.5 1.7 -1.4c.2 -.3 .6 -.7 .9 -.9c-.1 .1 -.2 .3 -.3 .6c-.5 1.3 -1.4 1.6 -2 2.1c-1.1 .6 -1.1 1.4 -1.8 2.1c-.8 .9 -1.5 .8 -2.2 1.7c-.4 .6 -.5 1.1 -1.4 1.7Z" class="g4_3"/>
<path d="M676.2 328.5c.7 -1.1 1.3 -.9 2 -1.7c.5 -.6 .6 -1.4 1.7 -2.1c.7 -.5 1.2 -.6 1.9 -1.7c.7 -1.3 .9 -1.3 2 -1.7c-2.3 2 -1.4 2.3 -3.2 3.4c-2.1 1.3 -1.2 2.1 -3.2 3.2c-.5 .3 -.7 .2 -1.2 .6Z" class="g4_3"/>
<path d="M691.1 312.7c.4 -.9 .6 -1.1 1.3 -1.5c1.6 -.9 1.3 -1.3 2.1 -2.2c.7 -.9 1.4 -1 2 -1.6c.8 -.7 .6 -1.2 1.7 -1.9c-.4 .5 -.4 .8 -.6 1.1c-.6 1.1 -1 1.2 -1.9 1.8c-1 .6 -1.2 1.2 -1.6 1.9c-.8 1.2 -2 1.2 -3 2.4Z" class="g4_3"/>
<path d="M675.4 328.3c.7 -1.5 1.6 -1 2.5 -2.4c.4 -.6 .6 -1.2 1.6 -1.8c.6 -.4 1.1 -.6 1.7 -1.5c0 -.1 .5 -.6 .8 -.9c-.5 .7 -.3 .9 -.9 1.6c-.6 .8 -1.3 .9 -1.9 1.4c-1 .9 -.7 1.7 -2.3 2.7c-1.1 .6 -1.2 .6 -1.5 .9Z" class="g4_3"/>
<path d="M691.3 311.4c.2 -.4 .7 -.8 .9 -.9c.8 -.5 1 -.9 1.5 -1.7c.6 -1 1.2 -1.2 1.8 -1.6c1.4 -.9 .9 -1.8 2.4 -2.5c-.3 .3 -.4 .5 -.9 1.5c-.6 1 -1 1.2 -1.8 1.7c-1 .5 -1.1 1 -1.5 1.7c-.4 .6 -1.1 1.1 -1.5 1.3c0 0 -.5 .2 -.9 .5Z" class="g4_3"/>
<path d="M674.7 328.1c.6 -1.7 1.4 -1.2 2.4 -2.4c.5 -.5 .6 -1.2 1.3 -1.8c.9 -.7 1.2 -.4 2.6 -2.1c-.5 1.4 -.5 1.2 -1.9 2.1c-.8 .5 -1 1 -1.4 1.6c-.5 1 -1.1 1.2 -1.7 1.5c-.4 .3 -.5 .4 -.6 .4c-.2 .2 -.4 .3 -.7 .7Z" class="g4_3"/>
<path d="M691.2 310.4c.2 -.1 .5 -.4 .7 -.5q.1 -.1 .2 -.2c.7 -.6 .8 -1.2 1.3 -1.8c.7 -.8 1.3 -1 1.9 -1.4c1.2 -1 .7 -1.8 2.4 -2.5c-.9 .7 -1.2 1.7 -1.7 2.3c-.6 .8 -1.3 .9 -1.9 1.4c-.7 .6 -.8 1.2 -1.3 1.8c-.6 .7 -.7 .6 -1.6 .9Z" class="g4_3"/>
<path d="M674 327.8c.3 -.8 .4 -1 .9 -1.4c.6 -.4 1.2 -.6 1.7 -1.2c.5 -.6 .6 -1.2 1.3 -1.8c.7 -.6 1.6 -.9 2.3 -1.6c-.6 1.3 -1.2 1.2 -2 1.8c-.7 .6 -.8 1.2 -1.3 1.8c-.9 1.1 -1.5 .7 -2.9 2.4Z" class="g4_3"/>
<path d="M691.2 309.6c1.4 -1.1 1.1 -2.1 2.5 -3c.6 -.4 1.1 -.5 1.7 -1.3c.8 -1.2 .6 -1.4 2 -2c-.2 .2 -.6 .5 -.7 .7c-.1 .2 -.2 .2 -.4 .5c-.2 .3 -.4 .7 -.6 1c-.6 .9 -1.3 1.1 -1.8 1.4c-1.5 1 -.9 2 -2.7 2.7Z" class="g4_3"/>
<path d="M673.3 327.6c.3 -.8 .3 -1.2 1.2 -1.8c.7 -.5 1.3 -.6 1.9 -1.7c1.2 -2 1.8 -1.6 2.9 -2.4c-.7 1.1 -1.2 .9 -1.9 1.7c-.5 .5 -.6 1.1 -1.3 1.8c-.8 .7 -1.4 .7 -2.1 1.6c-.8 .9 -.1 .1 -.7 .8Z" class="g4_3"/>
<path d="M691.1 308.8c.5 -.5 .6 -1.1 1.1 -1.8c.6 -.8 1.2 -1.1 1.8 -1.4c1.2 -.8 1 -1.7 2.1 -2.5c.1 -.1 1 -.4 1 -.4c0 0 -.9 .7 -1.2 1c-.5 .7 -.6 1.5 -1.7 2.2c-.5 .4 -1.1 .6 -1.7 1.3c-.4 .6 -.5 1.1 -1.4 1.6Z" class="g4_3"/>
<path d="M672.6 327.3c.4 -.7 .3 -1.4 1.5 -2.1c.5 -.4 1.1 -.6 1.5 -1.2c.4 -.5 .6 -1.2 1.3 -1.7c.6 -.5 .6 -.3 1.4 -.7c-.3 .3 -1.2 1 -1.2 1c-.6 .5 -.7 1 -1.1 1.6c-.6 .7 -1.1 1 -1.7 1.3c-.8 .5 -.8 .9 -1.7 1.8Z" class="g4_3"/>
<path d="M690.9 308c.5 -.7 .3 -1 1.1 -1.9c.6 -.7 1.2 -.8 1.7 -1.2c1 -.8 1 -2.1 2.3 -2.6c1.1 -.4 1 -.5 .2 .2c-.5 .5 -.8 .6 -1.2 1.3c-1.3 2.3 -2.1 1.5 -3.1 3c-.1 .2 -.4 .7 -1 1.2Z" class="g4_3"/>
<path d="M671.9 326.9c.4 -.7 .2 -.7 .7 -1.3c.7 -1.1 1.5 -1.1 2.3 -1.9c.4 -.5 1 -1.7 1.5 -2c.3 -.1 .2 -.1 .9 -.4c-1.8 1.5 -1.3 2 -2.4 2.9c-.7 .7 -1.4 .7 -2.1 1.8c-.1 .1 -.5 .6 -.9 .9Z" class="g4_3"/>
<path d="M690.6 307.1c.4 -.7 .3 -1.1 1.1 -1.8c.6 -.5 1.1 -.6 1.7 -1.2c.5 -.5 .7 -1.1 1.2 -1.7c.8 -.8 1.1 -.7 1.8 -1.1c-.4 .5 -1.1 1 -1.2 1c-.6 .6 -.8 1.1 -1.1 1.7c-.9 1.2 -1.9 1.1 -2.6 2.1c-.2 .3 -.6 .8 -.9 1Z" class="g4_3"/>
<path d="M671.2 326.6c.4 -.6 .4 -.8 .7 -1.3c.7 -1.2 1.5 -1.3 2.2 -1.9c1.1 -.8 .7 -1.7 2.3 -2.4c-.9 .8 -1.2 2 -2 2.7c-.8 .7 -1.5 .7 -2.2 1.8c-.3 .5 -.6 .8 -1 1.1Z" class="g4_3"/>
<path d="M690.3 306.3c.3 -.8 .3 -1 .9 -1.5c1 -.9 1.3 -.4 2.4 -2.3c.9 -1.4 1.8 -1.4 2.5 -1.8c-.9 1 -1.4 .8 -2.2 2c-1.3 2.3 -1.5 1.3 -3.1 3c-.1 .2 -.3 .4 -.5 .6Z" class="g4_3"/>
<path d="M670.6 326.2c.5 -.7 .3 -.8 .9 -1.7c.7 -1 1.5 -1.1 2.2 -1.7c.8 -.8 .6 -1.4 1.8 -2.1c-.3 .4 -.4 .6 -.7 1.2c-1.1 1.9 -1.5 1.4 -2.5 2.3c-.9 .9 -.6 1.2 -1.7 2Z" class="g4_3"/>
<path d="M689.9 305.5c.4 -1.1 .5 -1.2 1.7 -1.9c1.5 -.9 1.2 -1.7 2.3 -2.6c.8 -.6 1.1 -.5 1.8 -1c-.4 .6 -.9 .8 -1.2 1c-.9 .6 -1.1 1.3 -1.5 1.9c-.9 1.3 -1.6 .9 -3.1 2.6Z" class="g4_3"/>
<path d="M669.9 325.8c.4 -.5 .4 -.6 .9 -1.6c1 -1.5 1.9 -1.2 2.8 -2.4c.2 -.4 .4 -.9 1.2 -1.4c-.5 .6 -.3 .7 -.9 1.6c-.7 1.1 -1.6 1.1 -2.3 1.9c-.7 .6 -.6 1.3 -1.7 1.9Z" class="g4_3"/>
<path d="M689.5 304.8c.5 -1.2 .8 -1.2 1.7 -1.8c1.2 -.7 1.1 -1.4 1.9 -2.3c.8 -.8 1.4 -.8 2.1 -1.3c-.5 .8 -1.1 1 -1.5 1.3c-1 .8 -.9 1.8 -2.3 2.6c-.3 .2 -1.2 .7 -1.9 1.5Z" class="g4_3"/>
<path d="M669.3 325.3c.3 -.3 .3 -.4 .9 -1.5c.9 -1.6 1.8 -1.3 2.7 -2.3c.3 -.4 .4 -.9 1.2 -1.5c-.5 .7 -.3 1 -.9 1.7c-.7 .8 -1.3 .8 -2 1.5c-.9 .8 -.6 1.5 -1.9 2.1Z" class="g4_3"/>
<path d="M689 304.2c.4 -1 .7 -1.2 1.4 -1.5c1.9 -1.2 1.1 -2.1 3.1 -3.2c.6 -.3 .6 -.2 1.1 -.6c.1 -.1 .4 -.3 -.1 .3c-.5 .6 -.8 .6 -1.2 .9c-.9 .6 -1 1.3 -1.5 1.9c-.6 .7 -1.1 .9 -1.6 1.2c-.2 .1 -.3 .3 -.4 .3c-.3 .2 -.6 .4 -.8 .7Z" class="g4_3"/>
<path d="M668.6 324.9c.7 -.7 1 -1.7 1.5 -2.3c.6 -.7 1.4 -.8 1.9 -1.3c.5 -.4 .8 -1.1 1.5 -1.7c-.4 .6 -.4 1.3 -1.2 2c-.6 .5 -1.4 .7 -1.9 1.3c-.6 .7 -.6 1.4 -1.8 2Z" class="g4_3"/>
<path d="M688.6 303.6c.7 -1.8 1.7 -1.1 2.7 -2.8c.1 -.3 .4 -.8 .8 -1.2c.8 -.8 1.5 -.8 2.2 -1.4c-.7 1.1 -1.2 1 -1.9 1.6c-.4 .4 -.6 .9 -.8 1.2c-.9 1.6 -2 1.4 -3 2.6Z" class="g4_3"/>
<path d="M667.9 324.4c.4 -.3 .6 -.5 .7 -.7c0 0 .2 -.3 .4 -.7c1.3 -2.2 2 -1.4 3 -2.9c.1 -.1 .6 -.7 .8 -.9c-.2 .4 -.3 .9 -.4 1.1c-.7 1 -1.3 1.1 -2 1.6c-1.2 .8 -.8 1.8 -2.5 2.5Z" class="g4_3"/>
<path d="M688 303c.4 -.9 .7 -1.1 1.4 -1.5c1.3 -.7 1.2 -1.3 1.9 -2.1c.7 -1 1.8 -1.2 2.4 -1.7c-.4 .8 -.9 1 -1 1.1c-1.9 1.1 -1.1 2 -3.1 3.1c-.4 .2 -1.2 .6 -1.6 1.1Z" class="g4_3"/>
<path d="M667.3 323.9c1.1 -.9 1.2 -2 2.3 -2.8c.6 -.5 1.2 -.6 1.7 -1.3c.2 -.2 .7 -.9 .9 -1c-.2 .5 -.3 .9 -.6 1.2c-.6 .8 -1.2 1 -1.8 1.4c-1.2 .9 -.8 1.9 -2.5 2.5Z" class="g4_3"/>
<path d="M687.5 302.6c.3 -1 .6 -1.2 1.3 -1.5c2 -1.2 1.1 -2 3.1 -3.2c.7 -.4 .7 -.2 1.3 -.7c-.9 1.3 -1.4 .9 -2.2 2c-.4 .5 -.5 1 -1.1 1.6c-.7 .6 -1.7 .9 -2.4 1.8Z" class="g4_3"/>
<path d="M666.7 323.5c.6 -.5 1 -1 1.4 -1.8c.7 -1.2 1.3 -1.3 2 -1.8c.6 -.4 1.1 -1.1 1.5 -1.6c-.3 .7 -.2 .9 -.5 1.3c-.7 .7 -1.3 .9 -1.9 1.3c-1.2 1 -.7 1.9 -2.5 2.6Z" class="g4_3"/>
<path d="M686.9 302.1c.4 -1.2 .9 -1.2 1.7 -1.8c1.4 -.9 1 -1.9 2.7 -2.9c.6 -.3 .7 -.2 1.3 -.7c-.3 .5 -.6 .8 -1.1 1.1c-1 .6 -1.1 1 -1.6 1.7c-.9 1.5 -1.9 1.3 -3 2.6Z" class="g4_3"/>
<path d="M666.1 323c1 -.8 1.4 -1.8 1.6 -2.1c.9 -1.3 1.5 -.9 2.8 -2.3c.6 -.7 .8 -1.3 .2 .2c-.1 .2 -.4 .5 -.6 .7c-.6 .5 -1.1 .5 -1.7 1.2c-.9 .9 -.6 1.6 -2.3 2.3Z" class="g4_3"/>
<path d="M686.2 301.7c.4 -.8 .5 -1 .9 -1.3c.6 -.5 1.3 -.6 1.9 -1.5c.4 -.6 .7 -1.6 2.2 -2.2c.4 -.1 .6 -.3 .8 -.4c-.8 1 -1.2 .8 -1.9 1.6c-.6 .7 -.7 1.6 -1.9 2.3c-.5 .3 -.7 .4 -1.2 .8c-.1 .1 -.2 0 -.8 .7Z" class="g4_3"/>
<path d="M665.6 322.5c1.2 -1.1 1.2 -1.8 1.9 -2.6c.9 -.9 1.3 -.6 2.4 -1.8c.2 -.2 .4 -.5 .6 -.7c-.4 1 -.3 .9 -.7 1.3c-.6 .7 -1.2 .7 -1.8 1.3c-.6 .6 -.7 1.2 -1.4 1.9c-.2 .2 -.8 .5 -1 .6Z" class="g4_3"/>
<path d="M685.6 301.4c.4 -.9 .4 -1 .7 -1.3c.8 -.7 1.4 -.7 2.1 -1.6c.4 -.5 .5 -1.1 1.2 -1.7c.8 -.7 1.1 -.5 1.8 -1c-.6 .9 -1.1 .9 -1.6 1.3c-.6 .6 -.7 1.1 -1.1 1.6c-.9 1.3 -1.4 .7 -3.1 2.7Z" class="g4_3"/>
<path d="M665 322c1.8 -1.5 1.2 -2.3 3 -3.4c.6 -.3 .8 -.4 1.9 -1.7c-.4 1.1 -.4 1 -.8 1.4c-.8 .8 -1.5 .8 -2.2 1.8c-.7 1.3 -.7 1.4 -1.9 1.9Z" class="g4_3"/>
<path d="M684.9 301.1c.4 -.8 .3 -1 1 -1.7c.5 -.4 1 -.5 1.4 -.9c1.1 -.9 1 -2.1 2.7 -2.7c.2 -.1 .4 -.2 .7 -.4c-.3 .3 -.8 .8 -.9 .8c-1.3 .8 -1.1 1.7 -2.2 2.6c-.7 .5 -1.4 .7 -1.9 1.4c0 0 -.8 .9 -.8 .9Z" class="g4_3"/>
<path d="M664.4 321.5c1.2 -1 1.3 -1.5 1.6 -2.1c.8 -1.3 1.6 -1.2 2.5 -2c.4 -.4 .3 -.3 .9 -1q-.4 1 -.7 1.3c-.8 .8 -1.6 .7 -2.3 2c-.7 1.1 -.8 1.3 -2 1.8Z" class="g4_3"/>
<path d="M684.2 300.8c.2 -.4 .4 -.9 .4 -1c.7 -1.2 1.7 -1.3 2.4 -2c.8 -.8 .9 -1.9 2.3 -2.5c.9 -.3 .9 -.5 0 .3c-.7 .6 -.8 .5 -1.4 1.6c-1 1.7 -1.9 1.3 -2.8 2.6c-.2 .3 -.6 .8 -.9 1Z" class="g4_3"/>
<path d="M663.8 320.9c1.9 -1.5 1.5 -2.2 2.7 -3c.7 -.6 1 -.4 2.3 -2c-.2 .5 -.3 .9 -.6 1.3c-.7 .6 -1.3 .7 -1.8 1.3c-.5 .4 -.7 1 -1.2 1.7c-.4 .4 -.7 .5 -1.4 .7Z" class="g4_3"/>
<path d="M683.4 300.6c.5 -.7 .6 -1.8 1.9 -2.6c.4 -.2 .7 -.3 1.1 -.7c1 -.9 .8 -1.9 2.3 -2.4c.9 -.4 .4 -.3 -.2 .4c-.2 .2 -.5 .4 -.8 .8c-.2 .3 -.3 .6 -.5 .9c-.7 1 -1.4 1.1 -2.1 1.7c-.9 .8 -.6 1.2 -1.7 1.9Z" class="g4_3"/>
<path d="M663.3 320.4c1.9 -1.6 1.3 -2.1 2.6 -3c.8 -.6 1.1 -.5 2.4 -2c0 0 -.3 .9 -.5 1.1c-.6 .6 -1.1 .8 -1.7 1.2c-.9 .7 -1.1 1.9 -1.9 2.3c-.3 .2 -.7 .3 -.9 .4Z" class="g4_3"/>
<path d="M682.4 300.4c.8 -.7 1 -1.8 2 -2.6c.6 -.5 1.1 -.6 1.7 -1.2c.5 -.6 .6 -1.2 1.3 -1.8c.3 -.2 .5 -.3 1 -.5c-1.6 1.3 -1.3 2.1 -2.4 2.9c-.6 .5 -1.2 .6 -1.8 1.3c-.7 .8 -.5 1.4 -1.8 1.9Z" class="g4_3"/>
<path d="M662.7 319.9c1.6 -1.3 1.4 -1.6 2 -2.4c.7 -1 1.3 -.8 2.4 -1.9c.6 -.5 .8 -1.1 .4 -.2c-.5 1.3 -1.5 1.2 -2.2 2.1c-.9 .8 -.8 1.7 -2.2 2.2c-.1 .1 -.2 .1 -.4 .2Z" class="g4_3"/>
<path d="M681.1 300.4c1.4 -1.2 1.2 -1 1.9 -2.1c.5 -.9 .9 -1.1 1.7 -1.6c1.7 -1 1 -2 2.8 -2.7c-1.1 1 -1 2.1 -2.6 3.1c-.7 .4 -1.1 .6 -1.6 1.4c-.9 1.6 -1.1 1.4 -2.2 1.9Z" class="g4_3"/>
<path d="M662.2 319.4c2 -1.7 1.4 -2.2 2.6 -3.1c.7 -.5 1.2 -.5 2.4 -1.9c-.2 .4 -.3 .9 -.7 1.2c-.6 .6 -1.1 .7 -1.8 1.3c-1 1 -.5 1.7 -2.5 2.5Z" class="g4_3"/>
<path d="M679.9 300.4c.8 -1.2 1.4 -.9 2.2 -2c.4 -.6 .6 -1.3 1.5 -1.9c.6 -.4 1.2 -.5 1.8 -1.4c.2 -.3 .4 -.9 1.2 -1.4c-.5 .6 -.6 1.4 -1.3 2.1c-.7 .7 -1.3 .8 -1.9 1.4c-.7 .6 -.7 1.3 -1.4 1.9c-.8 .8 -1.4 .8 -2.1 1.3Z" class="g4_3"/>
<path d="M661.7 318.8c1.5 -1.2 1.3 -1.6 1.9 -2.3c.8 -1.2 1.6 -.9 2.8 -2.3c.3 -.4 .3 -.5 .1 .1c-.7 1.6 -1.8 1.1 -2.8 2.8c-.8 1.3 -.9 1.3 -2 1.7Z" class="g4_3"/>
<path d="M678.9 300.5c.6 -1.6 1.3 -1.3 2.2 -2.1c.7 -.7 .7 -1.3 1.5 -2c.6 -.7 1.3 -.7 1.9 -1.5c.3 -.2 .6 -.9 1.2 -1.4c-.4 .7 -.3 1.4 -1.3 2.1c-.7 .6 -1.4 .7 -1.9 1.5c-.5 .6 -.6 1.3 -1.7 2c-.3 .2 -1.2 .6 -1.9 1.4Z" class="g4_3"/>
<path d="M661.1 318.3c1.6 -1.3 1.4 -1.6 2 -2.3c.6 -1 1.3 -.9 2.4 -2c.6 -.5 .8 -1.1 .4 -.2c-.6 1.6 -1.8 1.1 -2.8 2.8c-.8 1.3 -.9 1.3 -2 1.7Z" class="g4_3"/>
<path d="M677.9 300.7c.3 -.5 .3 -.9 .6 -1.2c.7 -.9 1.4 -1 2 -1.6c.8 -.7 .8 -1.3 1.6 -2.1c.7 -.6 1.4 -.7 2 -1.5c.2 -.2 0 -.1 .2 -.2c.7 -.7 .8 -1.4 .3 .2c-.1 .2 -.5 .6 -.7 .7c-.7 .6 -1.4 .7 -2 1.6c-.4 .6 -.6 1.3 -1.7 2c-.3 .2 -.7 .4 -1 .7c-.3 .2 -.8 1 -1.3 1.4Z" class="g4_3"/>
<path d="M660.6 317.8c1.2 -1.1 1.3 -1.4 1.7 -2c.8 -1.4 1.5 -1.2 2.7 -2.3c.5 -.5 .8 -1.1 .4 -.3c-.6 1.5 -1.6 1.2 -2.5 2.4c-.8 1.1 -.5 1.5 -2.3 2.2Z" class="g4_3"/>
<path d="M675.9 301.4c.1 -.2 .6 -.5 1.1 -1c.5 -.6 .6 -1.1 1.3 -1.8c.8 -.8 1.5 -.8 2.2 -1.8c.6 -.9 .5 -1.3 2 -2.2c.6 -.3 1.1 -.7 1.6 -1.4c-.3 .9 -.4 1.2 -1.4 1.7c-1.4 .9 -1.3 1.2 -1.9 2.1c-.9 1.3 -1.9 1.1 -2.7 2.4c-1.1 1.7 -1 1.5 -2.2 2Z" class="g4_3"/>
<path d="M660.1 317.2c1.5 -1.2 1.3 -1.6 1.9 -2.3c.7 -1.1 1.6 -1 2.8 -2.2c.3 -.4 .3 -.6 .1 0c-.6 1.5 -1.7 1.3 -2.5 2.3c-.5 .6 -.6 1.1 -1.1 1.6c-.3 .3 -.7 .4 -1.2 .6Z" class="g4_3"/>
<path d="M674 302.3c.5 -1.2 .6 -1.2 1.7 -1.9c1.3 -.8 1.2 -1.6 2 -2.4c.7 -.6 1.3 -.7 1.8 -1.2c.5 -.4 .7 -.9 1 -1.4c.8 -1.3 1.9 -1.3 2.9 -2.3c-.8 1.8 -1.7 .9 -2.8 2.9c-1 1.7 -1.7 1.4 -2.6 2.4c-.5 .4 -.7 1 -1.1 1.5c-.9 1.1 -1.6 .9 -2.9 2.4Z" class="g4_3"/>
<path d="M659.5 316.7c1.9 -1.6 1.4 -1.8 2.3 -2.7c.8 -.8 1.4 -.6 2.7 -2.2c-.1 .3 -.3 .8 -.6 1.1c-.7 .7 -1.3 .8 -1.9 1.4c-.7 .8 -.7 1.7 -2.1 2.3c-.1 0 -.3 .1 -.4 .1Z" class="g4_3"/>
<path d="M670.4 304.7c.7 -1.6 1.4 -1.2 2.3 -2.2c.5 -.5 .7 -1.1 1.2 -1.7c.6 -.7 1.2 -.8 1.8 -1.3c1 -.8 .8 -1.6 2 -2.4c.8 -.5 1.3 -.6 1.9 -1.7c1.1 -1.8 1.8 -1.7 2.8 -2.3q.2 -.2 0 .1c-.8 1 -1.1 .7 -1.9 1.5c-.5 .7 -.6 1.5 -1.6 2.1c-.6 .4 -1.2 .6 -1.7 1.3c-.5 .6 -.6 1.4 -1.7 2.1c-.9 .5 -1.2 .6 -1.9 1.7c-1 1.8 -2 1.4 -3.2 2.8Z" class="g4_3"/>
<path d="M659 316.2c1.8 -1.5 1.4 -1.9 2.2 -2.7c.7 -.8 1.5 -.7 2.8 -2.2c-.2 .4 -.4 .9 -.7 1.2c-.8 .7 -1.5 .7 -2.3 1.9c-.8 1.4 -.9 1.4 -2 1.8Z" class="g4_3"/>
<path d="M650.5 323.8c.4 -1 .3 -1.2 1.8 -2.1c.9 -.5 1 -.9 1.5 -1.7c.6 -1 1.2 -1.2 1.9 -1.6c.9 -.6 1 -1.2 1.5 -1.8c.6 -1 1.3 -1.1 1.9 -1.6c.8 -.5 .9 -1.1 1.4 -1.8c.5 -.6 .9 -.8 1.4 -1.1c1 -.6 1.1 -1.1 1.5 -1.8c.7 -1 1.3 -1.1 2 -1.6c.8 -.5 .9 -1.1 1.4 -1.8c.7 -.9 1.3 -1 2 -1.5c1 -.8 .8 -1.7 2.2 -2.6c.6 -.4 .9 -.5 1.4 -1c.5 -.7 .6 -1.3 1.5 -2c.6 -.4 1.2 -.5 1.8 -1.4c.4 -.6 .6 -1.3 1.6 -1.9c.7 -.4 1.2 -.6 1.7 -1.5c1.1 -1.9 1.4 -1.6 2.4 -2c-.1 0 -.9 .8 -.9 .8c-.7 .5 -1 1.2 -1.3 1.7c-.7 1 -1.5 1 -2.2 1.7c-.6 .6 -.7 1.2 -1.2 1.7c-.7 .9 -1.5 .9 -2.2 1.7c-.4 .5 -.6 1 -1.1 1.6c-.7 .8 -1.2 .8 -1.8 1.3c-.6 .5 -.8 1.1 -1.1 1.5c-.9 1.3 -1.8 1.1 -2.7 2.4c-.2 .4 -.4 .8 -.8 1.2c-.7 .8 -1.5 .8 -2.1 1.7c-.4 .5 -.6 1.1 -1.3 1.7c-.6 .6 -1.1 .6 -1.8 1.3c-.4 .5 -.6 1 -1 1.6c-.8 .8 -1.5 .8 -2.2 1.6c-.5 .6 -.6 1.2 -1.2 1.8c-.8 .7 -1.5 .7 -2.2 1.6c-.5 .7 -.6 1.4 -1.8 2.1c-.7 .4 -.9 .5 -1.6 1.3c-.1 .2 -.3 .4 -.4 .5Z" class="g4_3"/>
<path d="M646.9 326.2c.6 -1.4 .7 -1.2 1.9 -2c1.4 -.9 1 -1.9 2.6 -2.8c1.5 -.9 1.4 -1.1 2 -2.1c.5 -.9 1.3 -1.1 1.8 -1.5c1.1 -.7 1 -1.4 1.8 -2.2c.4 -.4 1 -.7 1.2 -.9c.9 -.5 1.1 -1 1.4 -1.6c.7 -1.1 1.3 -1.2 2 -1.7c1.2 -.8 1 -1.7 2.2 -2.5c.8 -.6 1.3 -.6 2.1 -1.9c.8 -1.5 1.4 -1.5 2.2 -2c1.1 -.9 .8 -1.6 2.2 -2.6c.7 -.5 1.3 -.6 1.8 -1.6c.4 -.6 .6 -1.2 1.6 -1.7c.3 -.2 .8 -.5 1.2 -.8c.7 -.8 .7 -1.6 1.9 -2.3c.5 -.4 1.1 -.6 1.6 -1.4c.4 -.6 .5 -1.1 1.5 -1.6c-.9 .9 -.9 2.1 -2.3 2.9c-1.4 .9 -1.2 .7 -2 2c-.9 1.6 -2 1.1 -2.9 2.8c-1.1 1.7 -1.6 1.5 -2.5 2.2c-.8 .8 -.8 1.6 -1.9 2.4c-.8 .6 -1.3 .5 -2.1 1.9c-.8 1.4 -1.4 1.4 -2.2 2c-.7 .5 -.9 1.1 -1.3 1.7c-.9 1.3 -1.9 1 -2.7 2.4c-.4 .6 -.6 1.2 -1.6 1.8c-.2 .1 -.8 .4 -1.1 .8c-.7 .7 -.7 1.5 -1.9 2.3c-.6 .3 -1.2 .5 -1.7 1.3c-.6 1 -.5 1.2 -2.1 2.2c-1 .6 -1.1 1.2 -1.6 1.9c-.9 1.3 -1.7 .9 -3.1 2.6Z" class="g4_3"/>
<path d="M644.5 327.4c.3 -.2 .6 -.4 .7 -.6q.1 -.1 .2 -.1c.8 -.7 .8 -1.4 1.7 -2.2c.6 -.6 1.2 -.7 1.9 -1.5c.5 -.7 .6 -1.3 1.5 -1.9c.7 -.6 1.3 -.6 2 -1.7c.6 -1 .7 -1.3 1.9 -1.9c1.1 -.7 1.2 -1.2 1.7 -2c.8 -1.1 1.6 -1.1 2.4 -1.9c.5 -.7 .7 -1.4 1.5 -2c.7 -.6 1.4 -.6 2.1 -1.8c1.4 -2.4 2.1 -1.4 3.2 -3.3c1.3 -2.2 2.1 -1.3 3.2 -3.2c.4 -.7 .7 -1.1 1.6 -1.7c1.5 -.8 1.4 -1.3 2 -2.2c.9 -1.1 1.7 -.8 2.6 -2.2c.4 -.6 .6 -1.2 1.5 -1.8c1.9 -1.1 1.1 -.7 2.2 -2c.4 -.5 .3 -.3 .1 .1c-.1 .3 -.2 .6 -.3 .7c-.8 1.4 -1.8 1.2 -2.6 2.3c-.2 .3 -.4 .8 -.7 1.2c-.6 .7 -1.1 .9 -1.7 1.2c-1 .7 -1 1.4 -1.6 2.1c-.8 1 -1.6 .9 -2.4 1.9c-.5 .7 -.6 1.4 -1.7 2.1c-.7 .4 -1.1 .5 -1.7 1.4c-.6 1.1 -.7 1.3 -1.9 2c-1.5 .9 -1.1 1.6 -2.3 2.6c-1.1 .8 -1.4 .5 -2.4 2.2c-.8 1.3 -1.6 1.3 -2.3 2c-.9 .8 -.8 1.6 -2 2.4c-.5 .4 -1.2 .6 -1.7 1.4c-.3 .4 -.5 .8 -.9 1.3c-.7 .7 -1.3 .7 -2 1.4c-.5 .6 -.6 1.3 -1.5 2.1c-.7 .5 -1.1 .5 -1.7 1.2c-.5 .6 -.6 1.1 -1.2 1.7c-.4 .4 -.5 .4 -1.4 .7Z" class="g4_3"/>
<path d="M642.8 328.1c.8 -2 1.7 -1 2.9 -3.1c1 -1.7 1.7 -1.4 2.6 -2.3c.6 -.6 .7 -1.3 1.4 -1.9c.7 -.7 1.3 -.7 1.9 -1.5c.3 -.3 .5 -.8 .8 -1.2c.6 -.8 1.3 -1 1.9 -1.5c1 -.7 .9 -1.6 2 -2.4c.3 -.3 .8 -.5 1.1 -.7c1.4 -1 .7 -1.8 2.8 -2.9c1.3 -.8 1.2 -1.4 2 -2.3c.6 -.7 1.1 -.8 1.8 -1.3c.5 -.4 .7 -.9 1 -1.3c.8 -1.4 1.6 -1.3 2.4 -2.1c.6 -.6 .6 -1.2 1.4 -1.9c.4 -.4 .9 -.6 1.3 -.9c1.1 -.7 1 -1.5 1.9 -2.3c.7 -.7 1.3 -.7 2 -1.5c.3 -.5 .4 -.8 .7 -1.2c.9 -1.2 1.8 -1 3 -2.5c-.1 .4 -.3 .9 -.6 1.1c-.8 .7 -1.5 .8 -2.1 1.6c-.3 .5 -.6 1.3 -1.3 1.8c-.5 .4 -.9 .5 -1.4 .9c-.7 .7 -.8 1.3 -1.4 1.9c-.7 .7 -1.3 .8 -1.8 1.3c-.8 .7 -.8 1.3 -1.5 2c-.6 .7 -1.3 .7 -1.8 1.4c-.7 .6 -.7 1.2 -1.4 1.9c-.8 .6 -1.4 .6 -2.1 1.6c-.4 .5 -.6 1.1 -1.2 1.6c-.6 .6 -1.2 .7 -1.9 1.4c-.5 .6 -.5 1.3 -1.5 2c-.3 .2 -.6 .3 -.9 .5c-1.3 .9 -1 1.8 -2.3 2.7c-.6 .4 -1.2 .6 -1.8 1.3c-.2 .4 -.5 .9 -.8 1.3c-.7 .8 -1.3 .9 -1.9 1.5c-.7 .6 -.8 1.2 -1.4 1.8c-1 1 -1.6 .7 -2.6 2.3c-.7 1.3 -1.2 1.4 -2 1.9c-.2 .2 -.3 .2 -.4 .3c-.3 .2 -.6 .4 -.8 .7Z" class="g4_3"/>
<path d="M641.8 328.4c.4 -.8 .2 -.9 .7 -1.5c.7 -.8 1.3 -.9 1.9 -1.4c.7 -.5 .8 -1.2 1.4 -1.8c.6 -.8 1.3 -.9 1.9 -1.4c.6 -.6 .7 -1.2 1.2 -1.8c.5 -.6 .9 -.7 1.4 -1c1.1 -.7 1.1 -1.3 1.7 -2.1c.8 -1 1.5 -.9 2.2 -1.7c.7 -.8 .7 -1.6 2 -2.3c1.6 -1 1.4 -1.2 2.1 -2.2c.8 -1.1 1.7 -1.1 2.4 -2c.2 -.3 .4 -.7 .7 -1.1c.8 -1.3 1.9 -1 2.8 -2.5c.2 -.5 .5 -1.1 1.2 -1.6c.7 -.5 1.3 -.5 2 -1.7c1.1 -1.8 1.7 -1.5 2.6 -2.4c.6 -.5 .7 -1.2 1.4 -1.9c.6 -.6 1.3 -.8 1.9 -1.3c.8 -.9 .5 -1.5 2.4 -2.6c.1 -.1 .5 -.2 1 -.6c-.3 .4 -.7 .8 -.9 .9c-1.1 .7 -1.1 .8 -1.8 1.9c-.7 1.3 -1.6 1.2 -2.4 2c-.7 .8 -.7 1.6 -2 2.4c-1.1 .7 -1.2 .6 -1.9 1.8c-.8 1.4 -1.5 1.4 -2.3 2.1c-.6 .6 -.7 1 -1.1 1.6c-.8 1.1 -1.7 1 -2.4 1.9c-.5 .7 -.7 1.3 -1.5 1.9c-.7 .6 -1.3 .6 -2 1.7c-.3 .5 -.4 .8 -.8 1.2c-1.1 1.1 -1.5 .5 -2.6 2.4c-.9 1.5 -1.8 1.3 -2.7 2.4c-.5 .7 -.6 1.4 -1.7 2.1c-.6 .3 -1 .4 -1.4 1c-.5 .5 -.6 1.1 -1.3 1.8c-.6 .6 -1.2 .6 -1.9 1.3c-.5 .6 -.6 1.3 -1.4 1.9c-.4 .4 -.9 .6 -1.3 .9c-.6 .4 -.8 1 -1.5 1.7Z" class="g4_3"/>
<path d="M640.2 328.7c1.2 -1 1.3 -2.1 2.5 -2.9c.6 -.4 1.2 -.6 1.7 -1.4c.3 -.4 .5 -.9 .9 -1.3c.7 -.8 1.3 -.8 2 -1.5c.6 -.8 .6 -1.2 1.3 -1.9c.3 -.3 .9 -.6 1.2 -.8c1.2 -.7 1.1 -1.5 1.9 -2.3c.7 -.6 1.3 -.7 1.9 -1.3c.7 -.8 .7 -1.6 2 -2.4c.5 -.3 .8 -.4 1.3 -.9c.4 -.5 .4 -.8 .7 -1.2c.8 -1.2 1.7 -1.1 2.4 -2c.6 -.5 .7 -1.2 1.4 -1.8c.8 -.8 1.5 -.7 2.3 -2c.3 -.6 .5 -1 1.2 -1.5c.5 -.4 1 -.5 1.4 -1c.6 -.6 .6 -1 1.2 -1.6c.8 -1 1.5 -.8 2.3 -1.9c.3 -.5 .4 -.7 .7 -1.1c.8 -1.1 1.6 -1 2.4 -1.9c.5 -.7 .5 -1.2 1.5 -1.8c-.4 .5 -.4 .7 -.8 1.3c-.8 1.5 -1.5 1.5 -2.3 2.1c-.7 .6 -.8 1.2 -1.3 1.8c-.7 .8 -1.3 .9 -1.9 1.4c-.7 .6 -.8 1.2 -1.2 1.7c-.7 .8 -1.4 1 -1.9 1.4c-.7 .6 -.9 1.3 -1.5 2c-.8 .9 -1.6 .8 -2.3 1.9c-.4 .5 -.6 1.3 -1.5 1.8c-.5 .4 -.8 .4 -1.3 .9c-.7 .7 -.7 1.2 -1.3 1.8c-.6 .7 -1.3 .8 -1.9 1.4c-.8 .7 -.7 1.6 -2 2.4c-.6 .3 -1.1 .5 -1.7 1.4c-.2 .4 -.4 .9 -.9 1.3c-.6 .6 -1.3 .8 -1.8 1.3c-.6 .6 -.6 1.1 -1.3 1.8c-.5 .5 -1 .7 -1.4 1c-1.1 .7 -1 1.5 -1.9 2.3c-.6 .6 -1.3 .7 -1.9 1.4c-.8 .9 -.5 1.6 -2.1 2.1Z" class="g4_3"/>
<path d="M638.6 329c.8 -1.2 1.4 -.8 2.1 -2c.3 -.5 .5 -.9 .9 -1.3c.5 -.5 .9 -.7 1.3 -.9c1.2 -.8 1.1 -1.6 1.9 -2.4c.7 -.6 1.3 -.7 1.9 -1.3c.7 -.7 .7 -1.4 1.7 -2.1c.7 -.6 1.3 -.7 2 -1.7c.6 -1 .7 -1.3 1.9 -2c1.1 -.6 1.2 -1.1 1.7 -1.9c.8 -1.2 1.6 -1.1 2.3 -2c.6 -.6 .6 -1.2 1.5 -1.9c.7 -.6 1.4 -.6 2.2 -1.9c.7 -1.2 .9 -1.3 1.9 -1.9c.9 -.5 1.1 -.9 1.5 -1.6c.5 -.9 .9 -1.1 1.8 -1.6c1 -.6 1.1 -1.3 1.6 -2c.8 -1.1 1.7 -1 2.4 -1.9c.6 -.7 .6 -1.4 1.7 -2.1c.4 -.2 .7 -.4 1 -.6c.2 -.1 .3 -.3 .3 -.3c.1 -.1 .3 -.1 .8 -.8c-.1 .3 -.4 .9 -.6 1.1c-.8 .8 -1.4 .8 -2.1 1.6c-.4 .6 -.6 1.3 -1.4 1.9c-.8 .6 -1.3 .5 -2.2 2c-1.1 2 -2 1.1 -3.2 3.2c-.5 .9 -.9 1.2 -1.7 1.6c-1.8 1.1 -.9 1.9 -3.2 3.3c-1.6 .8 -1.2 1.8 -2.6 2.8c-1 .6 -1.2 .4 -2.1 2c-.6 .9 -1.1 1.2 -1.8 1.6c-1.2 .7 -1.1 1.5 -1.9 2.2c-.6 .7 -1.3 .9 -1.9 1.4c-.7 .6 -.7 1.4 -1.6 2.1c-.8 .6 -1.4 .7 -2 1.7c-.3 .4 -.5 .8 -.9 1.3c-.5 .4 -.9 .6 -1.3 .9c-1.6 .9 -.8 1.8 -2.9 3c-.2 .1 -.6 .1 -1 .5Z" class="g4_3"/>
<g clip-path="url(#cg_3)">
<path d="M637.5 329.1c.7 -1.7 1.7 -1.2 2.6 -2.5c.6 -.8 .5 -1.4 2 -2.2c1.3 -.7 1.3 -1.4 1.9 -2.1c.6 -.8 1.2 -1 1.8 -1.4c.7 -.5 .9 -1.1 1.3 -1.7c.9 -1.3 1.9 -1 2.7 -2.4c.2 -.4 .4 -.8 .9 -1.2c.4 -.5 .8 -.7 1.2 -.9c1.4 -.8 1.1 -1.8 2.4 -2.7c.6 -.5 1.2 -.6 1.8 -1.5c.3 -.4 .5 -1 1.3 -1.6c.5 -.5 1.2 -.6 1.7 -1.3c.6 -.7 .6 -1.4 2 -2.2c1.4 -.8 1.3 -1.2 1.9 -2.1c.7 -1.1 1.6 -1.1 2.3 -1.8c.7 -.8 .7 -1.6 1.9 -2.3c.9 -.7 1.1 -.5 2 -2c.3 -.4 .7 -.7 1.1 -1c-.7 .7 -.9 1.7 -1.7 2.5c-.7 .7 -1.5 .7 -2.2 1.8c-.3 .5 -.6 1.1 -1.4 1.7c-1 .6 -1.2 .5 -2.1 2c-.7 1.3 -1.5 1.3 -2.2 1.9c-1.1 .9 -.7 1.7 -2.5 2.7c-2 1.1 -1.2 2.1 -3 3.1c-1.5 .9 -1.3 1.1 -2 2.1c-.8 1.3 -1.9 1.1 -2.7 2.4c-.3 .4 -.4 .7 -.8 1.2c-.6 .7 -1.3 .8 -1.8 1.3c-.7 .6 -.8 1.2 -1.3 1.8c-.6 .7 -1.2 .8 -1.8 1.3c-.9 .7 -.9 1.6 -1.8 2.3c-.8 .6 -1.5 .6 -2.2 1.9c-.9 1.5 -1.3 1.4 -2.2 2c-.7 .5 -.8 .7 -1.1 .9Z" class="g4_3"/>
<path d="M636.7 329.1c.3 -.8 .4 -1.2 1.2 -1.8c.6 -.4 1.2 -.5 1.7 -1.4c.3 -.4 .6 -1 1.3 -1.6c.7 -.5 1.4 -.6 2 -1.7c1.6 -2.6 2 -1.2 3.4 -3.6c.8 -1.3 1.5 -1.3 2.2 -1.9c.9 -.6 .9 -1.4 1.7 -2.2c.8 -.7 1.5 -.7 2.2 -1.7c.4 -.6 .6 -1.3 1.6 -1.9c.7 -.4 1 -.5 1.4 -1.1c.4 -.5 .5 -.8 .8 -1.1c.7 -1.1 1.5 -1.1 2.2 -1.8c.5 -.6 .7 -1.2 1.2 -1.8c.6 -.6 1.2 -.7 1.8 -1.2c.8 -.7 .8 -1.5 1.7 -2.2c.8 -.6 1.4 -.7 2.1 -1.8c.8 -1.2 .7 -1.2 2.1 -2c.5 -.3 .7 -.4 1.1 -.8c-.5 1 -1 1.1 -1.6 1.5c-1 .6 -1 1.4 -1.7 2.1c-.8 .9 -1.5 .8 -2.2 1.7c-.5 .7 -.6 1.3 -1.6 2c-.6 .4 -1.1 .6 -1.6 1.3c-.5 .6 -.7 1.3 -1.6 1.9c-.8 .6 -1.2 .6 -2 1.9c-.9 1.7 -1.8 1.4 -2.6 2.3c-.6 .7 -.7 1.5 -1.9 2.3c-1 .6 -1.1 .5 -1.9 1.8c-.8 1.3 -1.5 1.4 -2.2 1.9c-.9 .7 -.9 1.5 -1.7 2.2c-.3 .4 -.9 .7 -1.2 .8c-1.3 .8 -1.1 1.8 -2.3 2.7c-.8 .5 -1.4 .5 -2.1 1.8c-1 1.7 -1.6 1.5 -2.5 2.3c-.5 .4 0 0 -.3 .3q-.1 .1 -.2 .3c-.2 .1 -.4 .3 -.5 .5Z" class="g4_3"/>
</g>
<path d="M653.7 310.8c1.9 -1.5 1.4 -2.1 2.6 -3c.8 -.6 1.2 -.5 2.4 -1.9c-.2 .4 -.3 .9 -.7 1.2c-.5 .6 -1.1 .7 -1.8 1.3c-.5 .5 -.6 .9 -.9 1.4c-.5 .6 -.7 .7 -1.6 1Z" class="g4_3"/>
<path clip-path="url(#cg_3)" d="M635.8 329.1c.4 -.7 .2 -.9 .9 -1.7c.8 -.9 1.5 -.8 2.2 -1.7c.6 -.7 .6 -1.5 1.9 -2.2c1.2 -.7 1.1 -.7 1.9 -1.9c.4 -.7 .8 -1 1.4 -1.4c1.2 -.7 1 -.8 2 -1.9c-.4 .9 -.2 1.3 -1.8 2.2c-1.8 1.1 -1.1 2 -2.9 3.1c-.7 .4 -1.1 .6 -1.6 1.5c-1.4 2.3 -2.1 1.4 -3.2 3c-.2 .4 -.5 .8 -.8 1Z" class="g4_3"/>
<path d="M653.2 310.3c1.7 -1.3 1.3 -1.8 2.2 -2.7c.9 -.9 1.4 -.6 2.8 -2.2c-.4 .9 -.5 1 -.8 1.3c-.4 .3 -1 .6 -1.4 .9c-.5 .4 -.7 .7 -1 1.3c-.6 1 -.9 1.1 -1.8 1.4Z" class="g4_3"/>
<path clip-path="url(#cg_3)" d="M634.7 329.1c.3 -.4 .4 -.6 .9 -1.3c.9 -1.7 1.5 -1.6 2.3 -2.2c.7 -.5 .8 -1.2 1.4 -1.8c.5 -.7 1.1 -.9 1.7 -1.3c1.3 -1 .8 -1.7 2.3 -2.4c-1 .9 -.9 2 -2.5 3c-.9 .5 -1.1 .7 -1.6 1.6c-.9 1.5 -1.6 1.4 -2.4 2.1c-1 .9 -.7 1.6 -2.1 2.3Z" class="g4_3"/>
<path d="M652.7 309.8c.2 -.2 .4 -.4 .6 -.6q.1 -.1 .2 -.2c.6 -.5 .6 -1 1.1 -1.6c.9 -1.2 1.4 -.6 3 -2.6c-.2 .7 -.3 1.1 -1 1.5c-.5 .5 -1.2 .6 -1.7 1.4c-.4 .5 -.5 1 -1 1.4c-.3 .4 -.7 .5 -1.2 .7Z" class="g4_3"/>
<path d="M633.5 328.9c1.4 -1.1 1.4 -1.5 1.8 -2.1c.8 -1.2 1.6 -1.2 2.3 -1.9c.8 -.7 .7 -1.5 1.8 -2.3c.6 -.4 1.3 -.6 2.3 -1.8c-.2 .3 -.4 .9 -.6 1.1c-.6 .6 -1 .7 -1.5 1c-.9 .7 -.9 1.5 -1.7 2.3c-.5 .4 -.9 .6 -1.3 .8c-1.3 .9 -1.1 2.1 -2.4 2.7c-.2 .1 -.5 .1 -.7 .2Z" class="g4_3"/>
<path d="M652.1 309.3c1.2 -1 1.4 -1.4 1.7 -2c.9 -1.5 1.5 -1.2 2.7 -2.3c.6 -.6 .8 -1.1 .4 -.3c-.4 1.2 -1.1 1.2 -1.9 1.8c-.9 .7 -.9 1.4 -1.7 2.1c-.2 .3 -.5 .4 -1.2 .7Z" class="g4_3"/>
<path d="M632.4 328.8c.9 -1 1.4 -.9 2 -1.9c.7 -1.1 .7 -1.3 2 -2c1.1 -.7 1.2 -1.3 1.7 -2.1c.5 -.6 1.4 -1.1 1.4 -1.1c.2 0 .6 -.2 1 -.4c-.8 1 -1.4 .8 -2.1 1.8c-.5 .7 -.6 1.4 -1.8 2.1c-1.2 .7 -1.2 .8 -1.9 1.9c-.8 1.3 -1.6 1.3 -2.3 1.7Z" class="g4_3"/>
<path d="M651.6 308.7c1.8 -1.5 1.3 -1.7 2.2 -2.7c1 -.9 1.3 -.5 2.8 -2.3c-.4 1.2 -.5 1.3 -1.8 2.1c-.5 .3 -.9 .6 -1.2 1.2c-.8 1.3 -.9 1.3 -2 1.7Z" class="g4_3"/>
<path d="M631.6 328.6c.6 -1.1 1.1 -.9 1.8 -1.7c.6 -.6 .7 -1.3 1.5 -2c.7 -.5 1.4 -.6 2 -1.4c.5 -.8 .5 -1.3 1.7 -1.8c-.6 .5 -.9 1.3 -1.4 2c-.7 .9 -1.4 1 -2 1.5c-.8 .7 -.8 1.3 -1.5 2c-.8 .9 -1.5 .8 -2.1 1.4Z" class="g4_3"/>
<path d="M651 308.2c1.6 -1.2 1.4 -1.6 2 -2.4c.8 -1 1.3 -.8 2.4 -1.9c.3 -.2 .4 -.4 .6 -.7c-.3 .9 -.4 1.1 -1 1.6c-.5 .3 -.9 .4 -1.4 1c-.6 .6 -.7 1.2 -1.3 1.8c-.3 .3 -.6 .4 -1.3 .6Z" class="g4_3"/>
<path d="M630.8 328.3c.7 -1.5 1.6 -1 2.5 -2.4c.3 -.5 .6 -1.2 1.5 -1.8c.6 -.4 1.2 -.6 1.7 -1.4c0 -.1 .5 -.7 .8 -.9c-.2 .4 -.4 .9 -.5 1.1c-.5 .9 -1.2 1.2 -1.8 1.5c-.8 .6 -1 1.2 -1.4 1.7c-.8 1.3 -1.9 1.3 -2.8 2.2Z" class="g4_3"/>
<path d="M650.5 307.7c1.5 -1.2 1.4 -1.7 2 -2.4c.7 -1 1.3 -.9 2.4 -1.9c.6 -.6 .8 -1.1 .5 -.3c-.6 1.4 -1.5 1.3 -2.3 2.1c-.7 .7 -.7 1.3 -1.5 2c-.2 .2 -1 .4 -1.1 .5Z" class="g4_3"/>
<path d="M630.1 328.1c.6 -1.7 1.4 -1.2 2.4 -2.4c.5 -.5 .6 -1.2 1.3 -1.8c.8 -.7 1.2 -.4 2.6 -2.1c-.5 1.3 -.5 1.2 -1.9 2.1c-.8 .5 -1 1 -1.4 1.6c-.5 1 -1.1 1.2 -1.7 1.5c-.4 .3 -.5 .4 -.6 .4c-.2 .2 -.4 .3 -.7 .7Z" class="g4_3"/>
<path d="M650 307.2c1.2 -1.1 1.3 -1.4 1.7 -2c.8 -1.5 1.4 -1.2 2.7 -2.3c.5 -.5 .7 -1.1 .4 -.3c-.6 1.5 -1.6 1.2 -2.6 2.4c-.3 .5 -.5 1.1 -1.2 1.7c-.1 .1 -.9 .4 -1 .5Z" class="g4_3"/>
<path d="M629.4 327.8c.1 -.2 .3 -.8 .5 -1c.6 -.7 1.2 -.8 1.8 -1.3c.6 -.6 .7 -1.2 1.3 -1.8c.7 -.9 1.8 -1.1 2.6 -2c-.7 1.9 -1.6 .8 -2.9 3.2c-1 1.6 -1.9 1.2 -3.3 2.9Z" class="g4_3"/>
<path d="M649.4 306.6c1.6 -1.3 1.4 -1.5 2 -2.3c.8 -1.2 1.5 -.7 3 -2.7c-.1 .3 -.2 .6 -.3 .9c-.6 1 -1.8 .9 -2.6 2.4c-.9 1.4 -1 1.3 -2.1 1.7Z" class="g4_3"/>
<path d="M628.7 327.5c.4 -.9 .3 -1 .8 -1.4c.6 -.6 1.2 -.7 1.8 -1.3c.9 -.9 .5 -1.7 2.8 -2.8c.6 -.2 .9 -.7 .5 -.2c-.8 1.2 -1.3 .8 -2.1 1.9c-.4 .6 -.6 1.2 -1.4 1.8c-1.1 .8 -.7 .1 -2.4 2Z" class="g4_3"/>
<path d="M648.9 306.1c1.6 -1.4 1.3 -1.5 1.9 -2.3c.8 -1.2 1.7 -.9 3.1 -2.6c-.1 .3 -.2 .5 -.4 .8c-.6 .9 -1.7 1 -2.4 2c-.2 .4 -.7 1.5 -1.4 1.8c-.3 .1 -.1 0 -.8 .3Z" class="g4_3"/>
<path d="M628 327.2c.4 -.7 .3 -.9 .8 -1.4c.6 -.7 1.2 -.8 1.7 -1.3c1.1 -.8 .9 -1.9 2.5 -2.7c.1 0 .5 -.1 .9 -.4c-.8 1 -1.4 .8 -2.1 2.2c-1.2 1.9 -2 1.5 -2.8 2.5c0 0 -.6 .7 -1 1.1Z" class="g4_3"/>
<path d="M648.3 305.6c.3 -.3 1 -.9 1.3 -1.2c.6 -.8 .5 -1.4 2.1 -2.3c.7 -.4 1.1 -.8 1.6 -1.4c-.4 1.2 -.6 1.2 -1.8 1.9c-1.4 .9 -1.2 2.2 -2.5 2.8c-.3 .1 -.5 .1 -.7 .2Z" class="g4_3"/>
<path d="M627.4 326.8c.4 -.7 .2 -.7 .7 -1.4c.5 -.7 1.1 -.9 1.6 -1.2c1.4 -1 1 -2.2 2.9 -2.9c.5 -.2 .7 -.3 .1 .2c-.1 .1 -.4 .2 -.4 .3c-.1 .1 -.4 .2 -.7 .7c-.4 .5 -.6 1.1 -1.2 1.7c-.8 .7 -1.5 .7 -2.2 1.8c0 0 -.5 .6 -.8 .8Z" class="g4_3"/>
<path d="M647.7 305.1c.1 0 1 -.8 1.3 -1.2c.5 -.6 .6 -1.2 1.4 -1.8c.6 -.6 1.4 -.7 2.4 -1.9c-.6 1.7 -1.1 1.3 -2.2 2.2c-.7 .6 -.8 1.1 -1.3 1.7c-.5 .7 -.7 .7 -1.6 1Z" class="g4_3"/>
<path d="M626.7 326.5c.5 -.7 .3 -.8 .7 -1.4c.7 -1 1.4 -1.1 2 -1.6c1.1 -.8 .9 -1.9 2.3 -2.5c.9 -.4 .4 -.2 -.5 .7c-.5 .7 -.6 1.1 -1.2 1.8c-.4 .4 -.8 .6 -1.2 .9c-1.3 .7 -1 1.2 -2.1 2.1Z" class="g4_3"/>
<path d="M647.1 304.6c.2 -.2 .4 -.3 .6 -.4c1.3 -1.2 1 -1.5 1.7 -2.3c.9 -.9 1.7 -.8 2.8 -2.2c-.4 1.3 -.7 1.2 -1.8 1.9c-.8 .5 -1 1.2 -1.4 1.7c-.6 1 -1.1 1 -1.9 1.3Z" class="g4_3"/>
<path d="M626.1 326c.5 -.7 .3 -.9 1 -1.7c.7 -.9 1.6 -.9 2.3 -1.8c.8 -1 .5 -1.5 2.1 -2.1c-.9 .7 -1.3 1.5 -1.5 1.9c-.8 1.3 -1.6 1.3 -2.3 1.9c-.7 .7 -.6 1.1 -1.6 1.8Z" class="g4_3"/>
<path d="M646.5 304.1c.1 0 1.1 -.9 1.2 -1c.7 -.6 .7 -1.5 1.9 -2.3c.4 -.3 1.3 -.7 2.1 -1.6c-.7 1.8 -1.6 1.4 -2.5 2.5c-.5 .6 -.6 1 -1.1 1.6c-.6 .6 -.8 .5 -1.6 .8Z" class="g4_3"/>
<path d="M625.5 325.6c.4 -.6 .4 -.7 .7 -1.3c.8 -1.4 1.6 -1.3 2.4 -2.1c.9 -.9 .6 -1.6 2.2 -2.2c-.6 .4 -.7 .7 -.7 .8c-.1 .1 -.2 .2 -.5 .6c-.8 1.5 -1.3 1.5 -2.2 2.1c-1 .6 -.8 1.3 -1.9 2.1Z" class="g4_3"/>
<path d="M645.9 303.6c.5 -.4 1.3 -.9 1.6 -1.5c.4 -.5 .6 -1.1 1.2 -1.6c.7 -.5 1.6 -.8 2.4 -1.8c-.6 1.6 -1.2 1.3 -2.1 2.1c-.7 .6 -.8 1.3 -1.4 1.9c-.6 .7 -.9 .6 -1.7 .9Z" class="g4_3"/>
<path d="M624.9 325.1c.4 -.5 .4 -.7 .7 -1.3c1.1 -1.8 2 -1.1 3.1 -3c.4 -.6 .5 -1 1.5 -1.3c-.8 .7 -1.1 1.7 -1.7 2.3c-.7 .8 -1.3 .8 -2 1.5c-.7 .7 -.5 1.1 -1.6 1.8Z" class="g4_3"/>
<path d="M646.3 302.3c.8 -.5 .9 -1.2 1.4 -1.8c.4 -.6 .8 -.8 1.4 -1.1c.5 -.3 .5 -.4 .7 -.5c.3 -.1 .5 -.4 .7 -.6c-.6 1.5 -1.3 1.2 -2.2 2.2c-.9 .8 -.7 1.8 -2.6 2.5c-.4 .1 -.9 .5 .6 -.7Z" class="g4_3"/>
<path d="M624.4 324.6c.5 -.7 .4 -1 1.1 -1.9c.5 -.6 .8 -.7 1.4 -1.1c1.6 -.9 1 -1.9 2.7 -2.6c-.4 .3 -.5 .5 -.9 1.1c-.7 1.1 -.5 1.2 -2 2.1c-1.5 .9 -.9 1.4 -2.3 2.4Z" class="g4_3"/>
<path d="M644.7 302.7c.5 -.6 1 -.8 1.3 -1.1c.7 -.6 .8 -1.2 1.4 -1.9c.7 -.8 1.7 -.9 2.5 -1.9c-.5 1.3 -1.1 1.2 -1.9 1.9c-.6 .5 -.7 .9 -1.1 1.4c-.8 1.3 -1.6 1.3 -2.2 1.6Z" class="g4_3"/>
<path d="M623.8 324.1c.1 -.1 .4 -.5 .5 -.9c0 -.1 .4 -.8 .8 -1.2c.7 -.7 1.4 -.8 2 -1.5c.8 -.8 .6 -1.5 2 -2.1c-.5 .4 -.9 1.1 -1.1 1.6c-1.2 2 -2.1 1.2 -3.1 3c-.2 .3 -.4 .6 -1.1 1.1Z" class="g4_3"/>
<path d="M644 302.3c.5 -.7 1 -.8 1.4 -1.1c.7 -.6 .8 -1.2 1.3 -1.9c.8 -.9 1.9 -1 2.6 -1.9c-.7 1.6 -1.6 1.1 -2.5 2.5c-.4 .6 -.6 1.2 -1.6 1.8c-.5 .4 -.6 .3 -1.2 .6Z" class="g4_3"/>
<path d="M623.3 323.5c.3 -.4 .4 -.5 .5 -.8c0 -.1 .5 -1.1 1.2 -1.6c.6 -.4 1.1 -.6 1.6 -1.1c.8 -.9 .6 -1.6 2 -2.1c-.5 .4 -.9 1 -1.1 1.5c-1.2 2.1 -2.1 1.2 -3.2 3.1c-.1 .2 -.2 .5 -1 1Z" class="g4_3"/>
<path d="M643.3 302c.7 -1.1 1.3 -.9 2 -1.9c.4 -.5 .5 -1 1.1 -1.5c.7 -.7 1.7 -1 2.3 -1.6c-.5 1.1 -1 1.1 -1.7 1.6c-.6 .4 -.7 .8 -1.1 1.4c-.8 1.4 -1.8 1.4 -2.6 2Z" class="g4_3"/>
<path d="M622.8 323c.5 -.7 .4 -1 1 -1.8c.8 -1.1 1.8 -.9 2.6 -2.2c.6 -.9 .6 -1.3 1.8 -1.8c-.8 .7 -1.3 1.8 -1.5 2c-.6 1.1 -1.4 1.2 -2 1.7c-1 .7 -.8 1.4 -1.9 2.1Z" class="g4_3"/>
<path d="M642.6 301.6c.5 -.9 .9 -.9 1.4 -1.3c1 -.6 1.1 -1.4 1.8 -2.1c.7 -.9 1.7 -1 2.3 -1.6c-.6 1 -1 .9 -1.7 1.5c-.8 .6 -.9 1.3 -1.4 1.9c-.7 .8 -1.8 1.1 -2.4 1.6Z" class="g4_3"/>
<path d="M622.4 322.4c.5 -.8 .3 -1 1 -1.8c.6 -.9 1.3 -.9 2 -1.5c.8 -.9 .7 -1.7 2 -2.3c.9 -.4 .3 -.2 -.5 .8c-.4 .5 -.5 .8 -.9 1.3c-.9 1.3 -1.8 .9 -2.7 2.5c-.3 .4 -.6 .7 -.9 1Z" class="g4_3"/>
<path d="M641.9 301.3c.4 -.9 .8 -1 1.4 -1.4c1.3 -.8 1.1 -1.4 2 -2.4c.9 -.8 1.4 -.8 2.2 -1.4c-.7 1.2 -1.1 .9 -1.8 1.6c-.8 .8 -.8 1.5 -1.8 2.3c-.6 .4 -1.5 .8 -2 1.3Z" class="g4_3"/>
<path d="M621.9 321.7c.4 -.6 .3 -.7 .6 -1.2c1 -1.6 2 -1.1 3 -2.9c.8 -1.3 1.2 -1.3 2 -1.6c-1.1 .9 -1.3 1.1 -1.6 1.8c-.7 1.1 -1 1.3 -1.9 1.8c-1.3 .7 -1 1.3 -2.1 2.1Z" class="g4_3"/>
<path d="M641.2 301c.3 -.8 .6 -1.1 1.3 -1.5c2.1 -1.2 1.3 -2 3 -3.1c.6 -.3 .8 -.2 1.3 -.6c-.5 .7 -1 .9 -1.1 1c-1.6 .9 -.8 1.8 -3 3.1c-.4 .2 -.5 .3 -.7 .4c-.2 .2 -.3 .2 -.8 .7Z" class="g4_3"/>
<path d="M621.5 321.1c.4 -.7 .3 -1.2 1.1 -1.9c.5 -.5 1.1 -.7 1.7 -1.2c.8 -.7 .9 -2 2.2 -2.4c1 -.4 1 -.5 .2 .2c-.6 .4 -.8 .6 -1.2 1.2c-.4 .6 -.6 1.2 -1.4 1.7c-.6 .4 -1.2 .5 -1.7 1.4c-.3 .4 -.7 .8 -.9 1Z" class="g4_3"/>
<path d="M640.5 300.8c.2 -.6 .3 -.9 .7 -1.2c.4 -.5 .9 -.7 1.3 -1c1.1 -.7 1 -1.5 1.9 -2.3c.6 -.5 1 -.6 1.3 -.7c.5 -.2 .5 -.3 .4 -.1c-.2 .2 -.7 .6 -.8 .6c-1.3 .9 -1.1 1.2 -1.8 2.1c-.8 1.2 -1.4 .7 -3 2.6Z" class="g4_3"/>
<path d="M621.1 320.4c.4 -.7 .2 -1 .9 -1.7c1 -.9 1.6 -.6 2.5 -2.2c.9 -1.6 1.7 -1.5 2.5 -2c-.5 .6 -1 .9 -1.2 1c-.9 .7 -.9 1.4 -1.6 2.1c-.6 .6 -1.2 .8 -1.7 1.2c-.5 .5 -.9 1.1 -1.4 1.6Z" class="g4_3"/>
<path d="M639.8 300.6c.3 -.8 .2 -.9 .6 -1.4c.7 -.8 1.5 -.8 2.1 -1.5c.5 -.5 .6 -1.1 1.1 -1.7c.8 -.7 1.1 -.6 1.8 -1c-.5 .5 -1.1 .9 -1.5 1.3c-.5 .5 -.6 1.1 -1.1 1.7c-.7 .7 -1.5 .8 -2.1 1.6c-.1 0 -.7 .8 -.9 1Z" class="g4_3"/>
<path d="M620.7 319.6c.1 -.2 .3 -.9 .4 -1c.6 -.8 1.3 -1 1.8 -1.4c.9 -.6 1 -1.3 1.6 -2c.5 -.6 1.3 -1 1.4 -1c.3 -.1 .6 -.3 .9 -.5c-.8 1.2 -1.2 .8 -2 1.7c-.6 .7 -.7 1.5 -1.7 2.2c-.3 .2 -.6 .3 -.9 .5c-.6 .4 -1.2 1.2 -1.5 1.5Z" class="g4_3"/>
<path d="M638.9 300.5c.5 -.8 .3 -1.2 1.3 -2.1c1 -.8 1.4 -.5 2.4 -2.1c.7 -1.4 1.3 -1.3 2 -1.7c-.2 .2 -.4 .4 -.6 .6c-1.5 1.3 -1 1.7 -2.1 2.5c-.7 .6 -1.3 .7 -2 1.6c0 .1 -.4 .7 -1 1.2Z" class="g4_3"/>
<path d="M620.3 318.8c.1 -.2 .4 -.8 .5 -1c.7 -.7 1.3 -.8 1.9 -1.3c.6 -.6 .7 -1.2 1.2 -1.8c.8 -.9 1.8 -1 2.7 -2.1c-.7 1.8 -1.7 1.2 -2.7 2.8c-.3 .5 -.5 1.1 -1.5 1.7c-.3 .2 -.6 .4 -.9 .6c-.3 .2 -.4 .3 -.5 .4c-.2 .2 -.5 .6 -.7 .7Z" class="g4_3"/>
<path d="M637.9 300.4c.4 -.4 .4 -.5 .9 -1.4c.7 -1.2 1 -1.2 2 -1.8c1.2 -.8 1.2 -1.8 2 -2.4c.2 -.2 .9 -.5 1 -.5c-1.4 1.1 -1.3 1.7 -2 2.5c-.7 .8 -1.4 .9 -2.1 1.6c-.7 .8 -.6 1.4 -1.8 2Z" class="g4_3"/>
<path d="M620 318c.6 -1.5 1.2 -1.3 2.1 -2.1c.7 -.6 .8 -1.2 1.4 -1.8c.6 -.8 1.3 -.8 1.9 -1.4c.2 -.2 .7 -.8 1.1 -1.3c-.4 .9 -.2 1.3 -1.8 2.3c-.9 .5 -1.1 .7 -1.6 1.6c-.9 1.6 -2.1 1.5 -3.1 2.7Z" class="g4_3"/>
<path d="M636.5 300.4c.2 -.2 .5 -.4 .7 -.6c1.5 -1.3 1 -1.9 2.4 -2.8c.6 -.4 1.1 -.5 1.7 -1.4c.4 -.7 .5 -1.2 1.6 -1.6c-.6 .5 -1.1 1.5 -1.3 1.8c-.6 .9 -1.2 1.2 -1.8 1.5c-.8 .6 -1 1.1 -1.4 1.7c-.6 1.1 -1.1 1.1 -1.9 1.4Z" class="g4_3"/>
<path d="M619.7 317.1c.5 -.9 1 -1.1 1.4 -1.3c.9 -.6 1.1 -1.2 1.5 -1.8c.6 -1 1.3 -1.1 1.9 -1.6c1.1 -.8 .7 -1.3 2 -2.2c-.6 .8 -.7 1.8 -1.8 2.5c-.6 .5 -1.2 .6 -1.8 1.5c-.4 .6 -.6 1.3 -1.6 1.9c-1 .6 -1.1 .5 -1.6 1Z" class="g4_3"/>
<path d="M635.2 300.5c.8 -1.4 1.5 -.8 2.5 -2.5c.6 -1 .8 -1.2 1.8 -1.8c1.7 -.9 1.1 -1.7 2.5 -2.5c-.7 .9 -.6 1.9 -2.3 2.9c-.9 .5 -1.1 .7 -1.7 1.6c-.9 1.7 -2 1.6 -2.8 2.3Z" class="g4_3"/>
<path d="M619.5 316.2c.7 -.9 1.2 -.9 1.9 -1.6c.5 -.7 .6 -1.4 1.5 -2c.7 -.5 1.3 -.6 1.9 -1.6c.6 -1 .6 -1.3 1.8 -1.7c-1.1 .9 -1.2 1.8 -1.9 2.4c-.7 .8 -1.3 .9 -2 1.6c-.6 .6 -.7 1.3 -1.5 2c-.8 .6 -1 .4 -1.7 .9Z" class="g4_3"/>
<path d="M634.1 300.8c.5 -1.1 .5 -1.2 1.7 -2c1.1 -.6 1.2 -1.1 1.7 -1.8c.6 -1 1.4 -1.2 2 -1.6c.8 -.7 .7 -1.2 1.7 -1.9c-.5 .7 -.4 1.6 -2 2.5c-1.1 .6 -1.2 .8 -1.7 1.8c-1 1.7 -1.8 1 -3.4 3Z" class="g4_3"/>
<path d="M619.3 315.4c.8 -.8 1.3 -.9 1.8 -1.8c.6 -.9 .7 -1.2 1.9 -1.9c1.1 -.7 1.2 -1.1 1.7 -1.9c.3 -.5 .8 -1 1.4 -1.2c.9 -.3 1.1 -.6 .1 .2c-.4 .4 -.8 .5 -1.2 1.2c-.5 .8 -.6 1.3 -1.8 2c-1.2 .6 -1.2 1 -1.7 1.8c-.8 1.3 -1.5 1.2 -2.2 1.6Z" class="g4_3"/>
<path d="M632.8 301.3c.4 -.5 .4 -.8 .7 -1.2c.8 -1.4 1.3 -1.4 2.1 -1.9c1 -.7 1 -1.4 1.6 -2.1c.6 -.7 1.3 -.9 1.8 -1.3c.6 -.5 .5 -.6 1.3 -1.5c-.3 .8 -.2 1.1 -1.1 1.8c-.7 .6 -1.4 .6 -2.1 1.8c-.7 1.1 -.7 1.2 -1.9 2c-1.5 .8 -1 1.6 -2.4 2.4Z" class="g4_3"/>
<path d="M619.1 314.6c1.7 -1.3 1.4 -1.5 2 -2.4c1.1 -1.3 1.8 -.7 2.9 -2.7c.5 -.9 .9 -1.1 1.8 -1.6c1.4 -.9 1 -1.4 2.1 -2.3c-.3 .5 -.4 .9 -.4 .9c-.7 1.7 -2 1.7 -2.7 2.6c-.6 .6 -.7 1.3 -1.5 1.9c-.4 .4 -.9 .6 -1.3 .9c-.9 .7 -1.2 1.9 -1.9 2.3c-.4 .2 -.5 .3 -1 .4Z" class="g4_3"/>
<path d="M619 313.8c.6 -.5 1 -1.1 1.4 -1.7c.7 -1.2 1.4 -1.3 2.1 -1.9c.7 -.5 .9 -1.2 1.3 -1.8c.7 -.8 1.4 -.9 1.9 -1.4c.7 -.5 .9 -1.2 1.4 -1.8c.6 -.8 1.2 -.9 1.8 -1.4c.6 -.5 .8 -.9 1.1 -1.4c.7 -1.1 1.5 -1.3 2.2 -1.8c.7 -.6 .8 -1.4 1.4 -1.9c.5 -.6 1 -.7 1.4 -1.1c.9 -.5 1 -1.1 1.4 -1.7c.6 -.9 1.3 -1.1 1.9 -1.5c1.1 -.8 1.5 -1.8 1.1 -.8c-.6 1.4 -1.5 1.2 -2.4 2.2c-.4 .5 -.6 1 -1 1.5c-.7 .8 -1.3 .8 -2.1 1.5c-.6 .7 -.6 1.2 -1.1 1.7c-.7 .8 -1.3 .8 -2 1.5c-.7 .7 -.7 1.4 -1.6 2.1c-.7 .5 -1.2 .6 -1.8 1.3c-.4 .5 -.6 1 -1.1 1.6c-.6 .6 -1.1 .8 -1.6 1.1c-1 .8 -.9 1.7 -2 2.4c-.7 .6 -1.4 .6 -2 1.7c-.5 .9 -.6 1.2 -1.7 1.6Z" class="g4_3"/>
<path d="M618.9 313c.7 -.7 .8 -1.7 1.9 -2.5c.9 -.7 1.3 -.5 2.2 -2.1c.5 -.8 .9 -1.1 1.6 -1.5c1.5 -.9 1.3 -1.6 2.2 -2.5c.7 -.7 1.3 -.7 1.9 -1.4c.4 -.4 .5 -.7 .7 -1.1c.6 -.9 1.2 -1.1 1.8 -1.5c1.2 -.7 1.1 -1.5 1.9 -2.4c.9 -.8 1.6 -.7 2.4 -1.9c.3 -.6 .6 -1.2 1.5 -1.7c.3 -.2 1.3 -.7 1.8 -1.3c-.6 1.3 -1.2 1.2 -2 1.8c-.7 .6 -.8 1.2 -1.3 1.8c-.7 1 -1.6 .9 -2.4 1.9c-.6 .9 -.5 1.4 -2.1 2.3c-1.4 .8 -1.2 1.5 -2.1 2.4c-.6 .7 -1.2 .7 -1.9 1.4c-.7 .7 -.7 1.5 -1.8 2.2c-.5 .4 -1 .5 -1.4 1c-.5 .5 -.6 1 -1 1.5c-.7 .9 -1.4 1 -2.1 1.6c-.8 .9 -.6 1.4 -1.8 2Z" class="g4_3"/>
<path d="M618.9 312c.5 -1 .1 -1.3 2.2 -2.6c1.6 -.9 .9 -1.9 2.9 -3c1.9 -1.1 1.3 -2 2.9 -3c.5 -.3 .7 -.4 1.2 -.9c.6 -.6 .6 -1 1.1 -1.5c.7 -1 1.6 -1 2.3 -1.9c.5 -.6 .6 -1.3 1.6 -2c.6 -.4 1.1 -.6 1.6 -1.2c.5 -.6 .7 -1.4 1.7 -2c.7 -.5 .9 -.4 1.3 -.7q.2 -.2 0 0c-.6 1 -1.3 .8 -2 1.8c-.3 .5 -.5 .9 -1 1.4c-.6 .7 -1.1 .7 -1.7 1.3c-.8 .7 -.7 1.3 -1.7 2.2c-.6 .5 -.9 .5 -1.5 1c-.8 .7 -.7 1.1 -1.4 1.9c-.8 .7 -1.3 .8 -1.9 1.4c-.6 .6 -.7 1.2 -1.3 1.7c-.6 .8 -1.3 .8 -2 1.6c-.5 .5 -.6 1.1 -1.2 1.7c-.7 .6 -1.2 .7 -1.8 1.2c-.5 .5 -.6 1 -1.3 1.6Z" class="g4_3"/>
<path d="M618.8 310.7c.7 -1.7 1.3 -1.3 2.3 -2.2c1 -.9 .6 -1.7 2.4 -2.7c1.7 -.9 1.2 -1.6 2.3 -2.6c.7 -.6 1.3 -.6 2 -1.4c.4 -.5 .4 -.8 .8 -1.3c.6 -.8 1.3 -.9 1.9 -1.5c.6 -.5 .8 -1 1.2 -1.5c.7 -1.1 1.4 -1.1 2.2 -1.8c.5 -.5 .6 -.8 .9 -1.2c.6 -1.2 1.3 -1.2 1.9 -1.5c-.9 .9 -1.2 .9 -1.6 1.6c-.3 .5 -.4 .8 -.9 1.3c-1 .9 -1.6 .7 -2.4 2.1c-1.4 2.4 -2.1 1.2 -3.3 3.4c-1.1 1.8 -2 1.3 -2.9 2.7c-.3 .4 -.4 .8 -.8 1.3c-.6 .5 -.9 .6 -1.5 1c-1.4 .9 -1 1.9 -2.7 2.9c-.7 .4 -1.2 .7 -1.8 1.4Z" class="g4_3"/>
<path d="M618.9 309.3c.7 -.9 1.1 -.8 1.7 -1.4c1 -.9 .5 -1.5 2.4 -2.6c1.3 -.8 1.3 -1.4 1.9 -2.1c.9 -1.3 1.8 -1 2.6 -2.4c.4 -.6 .7 -1.2 1.5 -1.7c1.3 -.8 1.2 -.7 2 -2c.8 -1.3 1.6 -1.1 2.5 -2.1c.7 -.8 .6 -1.3 1.7 -1.9c-.6 .6 -.9 1.8 -1.7 2.4c-.7 .6 -1.2 .6 -1.9 1.4c-.4 .5 -.5 1.1 -1.1 1.7c-.6 .6 -1.3 .7 -1.8 1.2c-1 1 -.5 1.6 -2.5 2.7c-1.2 .7 -1.2 1.4 -1.8 2.1c-.9 1.2 -1.8 .9 -2.7 2.4c-1.2 2 -1.8 1.7 -2.8 2.3Z" class="g4_3"/>
<path d="M619.1 308.3c.2 -.3 1.1 -1 1.4 -1.4c.4 -.6 .5 -1.3 1.8 -2c1 -.7 1.1 -.7 1.7 -1.8c1 -1.7 2 -1.3 3 -2.7c.5 -.9 .6 -1.3 1.9 -2c1.7 -1 1.2 -1.9 2.7 -2.9c.5 -.4 1 -.5 1.6 -1.2c.1 -.3 .6 -.8 .8 -1c-.3 .7 -.2 .8 -.6 1.2c-.7 1 -1.5 1 -2.1 1.7c-.6 .5 -.7 1.1 -1.2 1.6c-.5 .7 -1.1 .9 -1.6 1.2c-.9 .7 -1 1.4 -1.6 2.1c-.6 .7 -1.2 .8 -1.7 1.2c-.6 .5 -.8 1 -1.2 1.6c-.7 1 -1.4 1.1 -2.1 1.7c-.8 .6 -.8 1.3 -1.6 2.1c-.4 .3 -.3 .2 -1.2 .6Z" class="g4_3"/>
<path d="M619.2 307.3c.8 -.6 1 -1.8 1.8 -2.5c.7 -.6 1.4 -.7 2 -1.4c.5 -.7 .6 -1.4 1.6 -2c.6 -.5 1.2 -.6 1.8 -1.5c.4 -.7 .6 -1.3 1.7 -1.9c.9 -.5 1.1 -.7 1.7 -1.6c1.1 -2 2 -1.4 3.2 -2.9c-.6 1.5 -1.3 1.2 -2.2 2.1c-.7 .6 -.7 1.3 -1.5 2c-.6 .6 -1.3 .7 -1.9 1.5c-.5 .6 -.7 1.3 -1.6 1.9c-.6 .5 -1.2 .6 -1.8 1.5c-.4 .6 -.6 1.3 -1.7 1.9c-.8 .5 -1.2 .7 -1.7 1.6c-.3 .5 -.5 .9 -1.4 1.3Z" class="g4_3"/>
<path d="M619.6 305.9c.4 -.9 .2 -.9 .8 -1.5c.6 -.6 1.2 -.7 1.8 -1.2c.6 -.6 .7 -1.2 1.2 -1.8c.6 -.7 1.2 -.8 1.8 -1.3c.7 -.5 .8 -1.1 1.2 -1.7c.6 -.8 1.3 -1 1.8 -1.4c.8 -.5 .9 -1 1.3 -1.6c.8 -1.2 1.6 -1.2 2.3 -1.6c-.3 .3 -.8 .7 -1 .8c-1.1 .7 -1.1 1.6 -1.9 2.4c-.6 .6 -1.2 .7 -1.8 1.2c-.6 .6 -.7 1.2 -1.2 1.8c-.7 .7 -1.3 .8 -1.8 1.3c-.7 .5 -.8 1.1 -1.3 1.7c-.6 .8 -1.2 1 -1.8 1.4c-.5 .3 -1 1.1 -1.4 1.5Z" class="g4_3"/>
<path d="M620.4 303.6c.2 -.1 1.3 -1 1.4 -1.1c.5 -.5 .6 -1.2 1.2 -1.8c.7 -.7 1.4 -.8 1.9 -1.4c.7 -.7 .7 -1.4 1.8 -2.2c.5 -.3 .8 -.4 1.2 -.8c.5 -.4 .8 -1 1.4 -1.5c-.4 .6 -.3 1.1 -1.1 1.8c-.5 .4 -.8 .5 -1.3 .8c-1.2 .9 -.9 1.9 -2.3 2.7c-.5 .3 -.9 .5 -1.3 .9c-.6 .6 -1 1.9 -2 2.3c-.4 .2 -.6 .2 -.9 .3Z" class="g4_3"/>
<path d="M621.1 302.4c.5 -.6 .7 -1.4 1.3 -2.2c.7 -.7 1.4 -.8 2 -1.4c.6 -.7 .7 -1.3 1.5 -2c.7 -.6 1.5 -.8 2.1 -1.4c-.4 .9 -.9 1.1 -1.4 1.3c-.9 .6 -1.1 1.2 -1.5 1.8c-.6 1 -1.3 1.2 -1.9 1.6c-1.1 .8 -.9 1.5 -2.1 2.3Z" class="g4_3"/>
</svg>