<?xml version="1.0" encoding="UTF-8" standalone="no"?>
<!DOCTYPE svg PUBLIC "-//W3C//DTD SVG 1.1//EN"
"http://www.w3.org/Graphics/SVG/1.1/DTD/svg11.dtd">
<svg viewBox="0 0 1371 5000" version="1.1" xmlns="http://www.w3.org/2000/svg" xmlns:xlink="http://www.w3.org/1999/xlink">
<defs>
<clipPath id="c0_1"><path d="M-.1 5001.2V-.1h1372V5001.2Z"/></clipPath>
<clipPath id="c1_1"><path d="M282.4 3157.6V2793.3H794.3v364.3Z"/></clipPath>
<clipPath id="c2_1"><path d="M-.1 3052.9V2893.6h1372v159.3Z"/></clipPath>
<clipPath id="c3_1"><path d="M230.3 1280.1v-246H444.5v246Z"/></clipPath>
<clipPath id="c4_1"><path d="M450.1 1280.1v-246H664.2v246Z"/></clipPath>
<clipPath id="c5_1"><path d="M669.9 1280.1v-246H884v246Z"/></clipPath>
<clipPath id="c6_1"><path d="M889.6 1280.1v-246h214.2v246Z"/></clipPath>
<clipPath id="c7_1"><path d="M291.7 1734.3v-75.4h94.7v75.4Z"/></clipPath>
<clipPath id="c8_1"><path d="M511.1 1732.8v-72.6h96.2v72.6Z"/></clipPath>
<clipPath id="c9_1"><path d="M732.4 1730.4v-67.6h95.4v67.6Z"/></clipPath>
<clipPath id="ca_1"><path d="M968.5 1737.5v-81.8h60.4v81.8Z"/></clipPath>
<clipPath id="cb_1"><path d="M294.8 1893.7v-81.1h89v81.1Z"/></clipPath>
<clipPath id="cc_1"><path d="M520.2 1893.7v-80.4H597v80.4Z"/></clipPath>
<clipPath id="cd_1"><path d="M739.6 1894.2v-81.9h81.8v81.9Z"/></clipPath>
<clipPath id="ce_1"><path d="M737.4 2051.4v-81.1h84v81.1Z"/></clipPath>
<clipPath id="cf_1"><path d="M302.6 2052.9v-77.6h77.5v77.6Z"/></clipPath>
<clipPath id="cg_1"><path d="M957.6 2050.1v-79h78.3v79Z"/></clipPath>
<clipPath id="ch_1"><path d="M304.3 2210.4V2130H379v80.4Z"/></clipPath>
<clipPath id="ci_1"><path d="M523.9 2210.7V2131h73.9v79.7Z"/></clipPath>
<clipPath id="cj_1"><path d="M737.4 2211.1v-80.4h89v80.4Z"/></clipPath>
<clipPath id="ck_1"><path d="M525.3 2050.7v-80.4h70.5v80.4Z"/></clipPath>
<clipPath id="cl_1"><path d="M291.1 2372.6v-82h96.2v82Z"/></clipPath>
<clipPath id="cm_1"><path d="M231.8 3131.1V2822.8h547v308.3Z"/></clipPath>
<clipPath id="cn_1"><path d="M230.3 3579.1V3270.8H778v308.3Z"/></clipPath>
<clipPath id="co_1"><path d="M-.1 722.6V596.1h1372V722.6Z"/></clipPath>
<clipPath id="cp_1"><path d="M-.1 596.5V-.1h1372V596.5Z"/></clipPath>
<clipPath id="cq_1"><path d="M139.1 596.2V3.5H1201.2V596.2Z"/></clipPath>
<clipPath id="cr_1"><path d="M619.3 329.2V292.4h80.5v36.8Z"/></clipPath>
<style type="text/css"><![CDATA[
.g0_1{
fill: #FFF;
}
.g1_1{
fill: #FF914D;
}
.g2_1{
fill: none;
stroke: #FF914D;
stroke-width: 3.572;
stroke-miterlimit: 10;
}
.g3_1{
fill: #303B3E;
}
.g4_1{
fill: none;
stroke: #000;
stroke-width: 2.857;
stroke-miterlimit: 10;
}
.g5_1{
fill: none;
stroke: #000;
stroke-width: 0.095;
stroke-miterlimit: 10;
}
.g6_1{
fill: #000;
}
]]></style>
</defs>
<g clip-path="url(#c0_1)">
<path d="M0 0H1371.7V5001H0V0Z" class="g0_1"/>
<path d="M0 0H1371.7V5001H0V0Z" class="g0_1"/>
</g>
<path clip-path="url(#c1_1)" d="M282.6 2793.5H794.4v363.9H282.6V2793.5Z" class="g1_1"/>
<path clip-path="url(#c2_1)" d="M-76.1 2893.8H1448.2v158.9H-76.1V2893.8Z" class="g1_1"/>
<path d="M642.2 885.4h49.7" class="g2_1"/>
<path clip-path="url(#c3_1)" d="M230.5 1034.3H444.3v245.4H230.5V1034.3Z" class="g1_1"/>
<path clip-path="url(#c4_1)" d="M450.3 1034.3H664v245.4H450.3V1034.3Z" class="g3_1"/>
<path clip-path="url(#c5_1)" d="M670.1 1034.3H883.8v245.4H670.1V1034.3Z" class="g3_1"/>
<path clip-path="url(#c6_1)" d="M889.8 1034.3h213.8v245.4H889.8V1034.3Z" class="g3_1"/>
<path d="M233.6 1790.6h870M230.5 2104.9h873.1M451.8 2423.8V1628.3m218.3 640.3V1628.3" class="g4_1"/>
<path d="M888.4 2268.6V1628.3m213.7 640.3V1628.3" class="g5_1"/>
<path d="M232 2422.4V1628.3m0 638.8h871.6M232 1628.3h871.6M232 1948.5l868.5 -.3" class="g4_1"/>
<path clip-path="url(#c7_1)" d="M383.7 1682.7c-1.9 -1.8 -5.8 -2.9 -8.5 -2.9h-1.9c.7 -.4 1.3 -.9 1.8 -1.4l.1 -.1c.5 -.5 1 -1.2 1.5 -1.8c1.1 -1.8 1.7 -3.8 1.7 -5.9c0 -1.3 -.3 -2.6 -.7 -3.8c-.5 -1.2 -1.1 -2.3 -1.9 -3.3c-.2 -.2 -.4 -.4 -.5 -.6h-.1c-.3 -.4 -.7 -.7 -1.1 -1c-.3 -.2 -.7 -.5 -1.1 -.7c-2 -1.1 -4 -1.6 -6.2 -1.5c-.9 0 -1.9 .2 -2.8 .5c-.9 .3 -1.7 .7 -2.5 1.2c-.8 .5 -1.5 1.1 -2.1 1.8c-.6 .7 -1.2 1.5 -1.6 2.3c-.5 .8 -.8 1.7 -1 2.6c-.2 .8 -.3 1.7 -.3 2.5c0 1.4 .3 2.8 .8 4.2c.6 1.3 1.4 2.5 2.4 3.5l.1 .1c.5 .5 1.1 1 1.8 1.4h-1.9c-1 0 -1.9 .2 -2.9 .4c-.4 .2 -.8 .4 -1.3 .6l-.1 -.2c0 0 -.1 -.1 -.2 -.2l-.1 -.1c-.5 -.5 -1 -1 -1.6 -1.3c-.6 -.4 -1.2 -.8 -1.9 -1.1c-.7 -.2 -1.3 -.4 -2 -.6c-.7 -.1 -1.4 -.2 -2.2 -.2c-.7 0 -1.4 .1 -2.1 .2c-.7 .1 -1.4 .3 -2 .6c-.7 .3 -1.3 .6 -1.9 1c-.6 .4 -1.2 .8 -1.7 1.3l-.1 .1c-.2 .3 -.5 .6 -.8 .9c-.2 .3 -.5 .7 -.7 1c-.2 .4 -.4 .7 -.6 1.1c-.2 .3 -.3 .7 -.4 1.1c-.2 .4 -.3 .8 -.4 1.2c-.1 .4 -.1 .8 -.2 1.2c0 .4 -.1 .8 -.1 1.2c0 .4 .1 .8 .1 1.2c0 .4 .1 .8 .2 1.2c.1 .4 .2 .8 .3 1.2c.2 .4 .3 .8 .5 1.1c.2 .4 .4 .8 .6 1.1c.2 .4 .4 .7 .7 1c.2 .3 .5 .6 .8 .9c.3 .3 .6 .6 .9 .8c.3 .3 .7 .5 1 .8h-1c-2 -.1 -3.8 .5 -5.4 1.8c-1.1 .8 -2 1.8 -2.7 3.1c-.5 -.2 -1 -.2 -1.6 -.2c.3 -.3 .6 -.5 .9 -.8c.4 -.4 .8 -.9 1.1 -1.4c.3 -.5 .6 -1 .9 -1.5c.2 -.6 .4 -1.2 .5 -1.8c.1 -.6 .2 -1.2 .2 -1.8c0 -.6 -.1 -1.2 -.2 -1.8c-.1 -.6 -.3 -1.1 -.5 -1.7c-.2 -.6 -.5 -1.1 -.8 -1.6c-.4 -.5 -.7 -1 -1.2 -1.4v-.1c-.8 -.7 -1.6 -1.3 -2.6 -1.8c-.9 -.4 -1.9 -.7 -2.9 -.8c-.2 -.5 -.5 -1 -.8 -1.5c-.4 -.5 -.8 -.9 -1.2 -1.3c-.9 -.9 -1.9 -1.6 -3 -2.1c-1.3 -.5 -2.6 -.8 -3.9 -.8h-1.8c.6 -.4 1.2 -.9 1.7 -1.4l.1 -.1c1.1 -1.1 2 -2.5 2.5 -4c.2 -1 .5 -1.9 .7 -2.9v-.1c0 -.3 0 -.5 0 -.7c0 -.4 0 -.8 0 -1.1c-.1 -.1 -.1 -.2 -.1 -.3l-.1 -.8c0 -.1 0 -.2 -.1 -.2c0 -.1 0 -.2 0 -.2c-.1 -.2 -.1 -.4 -.2 -.6c0 -.2 -.1 -.3 -.1 -.5l-.1 -.1c0 -.1 -.1 -.3 -.1 -.4c-.1 -.2 -.2 -.4 -.3 -.5l-.2 -.5c0 -.1 -.1 -.2 -.2 -.3c0 -.1 -.1 -.1 -.1 -.2c-.1 -.1 -.2 -.2 -.2 -.4c-.2 -.2 -.3 -.4 -.5 -.6l-.1 -.1c0 0 0 -.1 0 -.1c-.2 -.3 -.4 -.5 -.6 -.7h-.1v-.1h-.1c-.4 -.5 -.9 -.9 -1.4 -1.2c0 -.1 -.1 -.1 -.1 -.1c-.5 -.3 -1 -.6 -1.5 -.9c-.1 0 -.2 -.1 -.3 -.1c-.5 -.2 -1.1 -.4 -1.6 -.6l-.3 -.1c-.3 0 -.5 0 -.7 -.1c-.3 0 -.6 0 -1 -.1q-.1 0 -.2 0c-2.2 -.1 -4.2 .3 -6.1 1.4c-.4 .3 -.8 .5 -1.2 .8c-.4 .3 -.7 .6 -1.1 1c-.4 .4 -.7 .8 -1 1.2c-.8 .9 -1.4 2 -1.8 3.2c-.3 1.2 -.5 2.4 -.4 3.7c0 1.3 .3 2.5 .7 3.7c.2 .6 .5 1.2 .9 1.7c.1 .2 .2 .2 .7 .8l.1 .1c.3 .4 .6 .8 .8 1l.1 .1c.6 .5 1.2 1 1.8 1.4h-1.9c-.2 0 -.5 0 -.7 0c-.3 .1 -.5 .1 -.8 .1c-2.1 .4 -3.9 1.4 -5.4 2.8c-1.4 1.3 -2.2 2.9 -2.7 4.7c-.2 .8 -.3 1.5 -.3 2.3v23.8c0 .2 .1 .5 .2 .7c.1 .2 .2 .3 .3 .5c.2 .1 .4 .3 .6 .4c.2 0 .4 .1 .6 .1h54c.1 .3 .1 .5 .2 .8c.1 .2 .1 .4 .2 .6l.1 .2c.5 1.3 1.3 2.5 2.3 3.6c.4 .5 .9 .9 1.4 1.4c.8 .8 1.6 1.6 2.4 2.4l.3 .3c2.1 2.2 4.3 4.3 6.3 6.4l1.2 1.1c.6 .7 1.4 1.2 2.3 1.5h1.2c.9 -.3 1.7 -.8 2.3 -1.5l1.1 -1l4.1 -4.2l3.4 -3.3c.6 -.6 1.2 -1.3 1.8 -1.9c.4 -.4 .9 -.8 1.2 -1.2c1.1 -1.1 1.9 -2.3 2.4 -3.8c.1 -.3 .2 -.7 .3 -1c.1 -.1 .1 -.2 .1 -.3h2.5c.3 -.1 .5 -.1 .7 -.2c.2 -.1 .4 -.2 .6 -.4c.1 -.1 .3 -.3 .4 -.5c.1 -.2 .1 -.4 .2 -.7v-23.8c0 -1.3 -.3 -2.6 -.8 -3.8c-.5 -1.2 -1.2 -2.3 -2.1 -3.2ZM362 1665.2h.1c.3 -.4 .7 -.7 1.1 -1c.4 -.2 .9 -.5 1.3 -.7c.5 -.1 1 -.3 1.5 -.4c.5 -.1 1 -.1 1.5 -.1c.5 0 .9 0 1.4 .1c.5 .1 1 .2 1.5 .4c.4 .2 .9 .5 1.3 .7c.4 .3 .8 .6 1.1 1l.1 .1c.4 .3 .7 .7 .9 1.1c.3 .4 .5 .9 .7 1.3c.2 .5 .3 1 .4 1.5c.1 .4 .2 .9 .2 1.4c0 .5 -.1 1 -.2 1.5c-.1 .5 -.2 1 -.4 1.4c-.2 .5 -.4 .9 -.7 1.3c-.3 .4 -.6 .8 -.9 1.2h-.1c-.4 .4 -.8 .7 -1.2 1c-.4 .2 -.8 .5 -1.3 .6c-.5 .2 -.9 .4 -1.4 .5c-.5 .1 -1 .1 -1.5 .1c-.5 0 -1 -.1 -1.5 -.2c-.5 -.1 -.9 -.2 -1.4 -.4c-.4 -.2 -.9 -.4 -1.3 -.7c-.4 -.3 -.8 -.6 -1.1 -1c-.4 -.3 -.7 -.7 -1 -1.1c-.3 -.4 -.5 -.8 -.7 -1.3c-.2 -.5 -.3 -.9 -.4 -1.4c-.1 -.5 -.2 -1 -.2 -1.5c0 -.5 .1 -1 .2 -1.5c.1 -.5 .2 -.9 .4 -1.4c.2 -.5 .4 -.9 .7 -1.3c.3 -.4 .6 -.8 .9 -1.2ZM339.8 1688c-.1 -1 .1 -1.9 .5 -2.9c.4 -.9 1 -1.7 1.7 -2.5v-.1c.4 -.3 .8 -.6 1.2 -.9c.4 -.2 .9 -.5 1.3 -.7c.5 -.1 1 -.3 1.4 -.4c.5 -.1 1 -.1 1.5 -.1c.5 0 1 .1 1.5 .2c.5 0 1 .2 1.4 .4c.5 .2 .9 .4 1.3 .7c.4 .3 .8 .6 1.2 .9v.1c.4 .3 .7 .7 .9 1.1c0 0 .1 .1 .1 .1c.2 .3 .4 .7 .5 1.1c.1 0 .1 .1 .1 .2l.1 .1c.1 .3 .2 .6 .3 1c0 .1 0 .2 0 .3l.1 .1c0 .4 .1 .9 .1 1.3c0 .5 -.1 .9 -.1 1.4l-.1 .3c-.1 .4 -.2 .8 -.4 1.1q0 .1 0 .2c-.2 .4 -.4 .8 -.7 1.2q0 .1 -.1 .1v.1c-.2 .3 -.5 .6 -.7 .9c-.1 0 -.1 .1 -.2 .1q0 .1 -.1 .1c-.3 .3 -.6 .6 -.9 .8q-.1 .1 -.2 .1c0 0 -.1 0 -.1 .1c-.6 .3 -1.2 .6 -1.8 .8c-.7 .2 -1.4 .3 -2 .3c-.7 0 -1.4 0 -2 -.2c-.7 -.2 -1.3 -.4 -1.9 -.7c-.6 -.4 -1.1 -.8 -1.6 -1.2c-.5 -.5 -.9 -1 -1.3 -1.6c-.3 -.6 -.6 -1.2 -.8 -1.9c-.2 -.6 -.2 -1.3 -.2 -2Zm-15.8 .8c1 -.2 1.9 -.2 2.9 .1c.9 .3 1.7 .8 2.4 1.5l.1 .1c.4 .4 .7 .9 1 1.4c.3 .5 .5 1.1 .6 1.7c.1 .5 .1 1.1 0 1.7c0 .6 -.2 1.2 -.4 1.7c-.2 .5 -.5 1 -.9 1.5c-.4 .4 -.8 .8 -1.3 1.1c-.5 .4 -1 .6 -1.6 .8c-.6 .2 -1.1 .2 -1.7 .2H325c-.8 0 -1.6 -.1 -2.3 -.5c-.7 -.3 -1.4 -.7 -1.9 -1.3c-.3 -.3 -.5 -.6 -.7 -.9c-.2 -.3 -.4 -.7 -.6 -1c-.1 -.4 -.2 -.8 -.3 -1.1c0 -.4 -.1 -.8 -.1 -1.2c0 -.4 .1 -.8 .1 -1.1c.1 -.4 .2 -.8 .4 -1.2c.1 -.3 .3 -.7 .5 -1c.2 -.3 .5 -.6 .8 -.9c0 0 .1 -.1 .2 -.2l.2 -.1c.7 -.6 1.4 -1 2.3 -1.2c.1 -.1 .3 -.1 .4 -.1Zm-21.9 -16.6v-.1c-.1 -.5 -.2 -1 -.2 -1.5c0 -.5 .1 -.9 .2 -1.4l.1 -.4c.1 -.3 .1 -.6 .3 -.9c0 -.1 .1 -.3 .1 -.4c.2 -.3 .3 -.6 .4 -.8c.1 -.1 .1 -.2 .2 -.3c0 0 0 -.1 .1 -.1c.2 -.4 .5 -.7 .8 -1l.1 -.1c.7 -.7 1.5 -1.2 2.4 -1.6c.4 -.2 .9 -.4 1.3 -.5q.1 0 .1 0q.1 0 .1 0c.5 -.1 1 -.1 1.5 -.2c1 .1 2 .2 2.9 .6c.9 .4 1.8 1 2.5 1.7c.1 .1 .2 .3 .3 .4c.1 .1 .2 .2 .2 .3c.1 0 .1 .1 .2 .2c.1 .1 .2 .2 .2 .2c.1 .2 .2 .4 .3 .6c0 .1 .1 .1 .1 .2l.2 .2c0 .1 .1 .2 .1 .3c.1 .3 .2 .6 .3 .9c0 .1 0 .2 .1 .3c0 .1 0 .2 0 .3c.1 .4 .2 .9 .2 1.4q0 .1 0 .1c0 .5 -.1 .9 -.1 1.4c-.1 0 -.1 .1 -.1 .1c0 0 0 .1 0 .1c-.1 .5 -.2 .9 -.4 1.4c-.2 .5 -.5 .9 -.8 1.3c-.2 .4 -.6 .8 -.9 1.2c-.4 .3 -.8 .6 -1.2 .9c-.4 .3 -.9 .5 -1.3 .7c-.5 .2 -1 .3 -1.5 .4c-.4 .1 -.9 .1 -1.4 .1c-.5 0 -1 0 -1.5 -.1c-1.5 -.4 -2.7 -1 -3.8 -2v-.1c-1.1 -1.1 -1.8 -2.4 -2.1 -3.8Zm10.9 33.2c-.6 .8 -.9 1.7 -1.2 2.7c-.1 .5 -.1 1 -.1 1.6v2.2H295.2v-22.2c0 -.9 .2 -1.7 .6 -2.5c.3 -.8 .8 -1.5 1.4 -2.2c.5 -.5 1.1 -.9 1.7 -1.2c.9 -.4 1.9 -.7 2.9 -.7h15.5c1.4 0 2.7 .4 3.8 1.2c.6 .4 1 .9 1.4 1.4c-.3 .1 -.6 .2 -1 .4h-.1c0 0 0 .1 -.1 .1c-.4 .2 -.8 .4 -1.2 .7l-.3 .2c-.5 .3 -.9 .6 -1.2 .9l-.1 .1c-.4 .4 -.8 .9 -1.1 1.4c-.4 .5 -.7 1 -.9 1.6c-.2 .6 -.4 1.1 -.5 1.7c-.1 .6 -.2 1.2 -.2 1.9c0 .6 .1 1.2 .2 1.8c.1 .6 .3 1.2 .5 1.7c.2 .6 .5 1.1 .9 1.6c.3 .5 .7 1 1.1 1.4c.3 .3 .5 .5 .8 .8c-.5 0 -.9 0 -1.4 .1c-1 .2 -1.9 .6 -2.8 1.2c-.8 .5 -1.5 1.2 -2.1 2.1Zm22.2 6.5H315v-2.2c0 -.3 0 -.6 .1 -.9c.2 -.9 .6 -1.6 1.2 -2.2v-.1c.2 -.2 .5 -.4 .7 -.5c.7 -.5 1.5 -.7 2.4 -.7h11.4c.7 0 1.4 .2 2.1 .5c.2 .1 .4 .3 .6 .5q.1 0 .1 .1q.1 0 .2 .1c.3 .2 .5 .5 .7 .8l.1 .1c.1 .3 .2 .6 .4 .9c0 .1 0 .2 0 .3c.1 .3 .2 .7 .2 1.1v2.2Zm12.3 -.7l-.1 .7h-8.9v-2.2c0 -.5 0 -.9 -.1 -1.4c0 0 -.1 -.1 -.1 -.2c0 0 0 -.1 0 -.1c-.1 -.4 -.2 -.7 -.3 -1l-.1 -.3c-.2 -.4 -.4 -.8 -.6 -1.1v-.1c-.1 -.1 -.2 -.2 -.3 -.4c-.1 0 -.1 -.1 -.2 -.2c0 -.1 -.1 -.1 -.1 -.2c-.1 -.1 -.2 -.2 -.3 -.3l-.1 -.1l-.1 -.1c-.1 -.1 -.3 -.3 -.5 -.4q-.1 -.1 -.1 -.2q-.1 0 -.2 -.1c.4 -.7 1 -1.3 1.7 -1.8c1 -.8 2.1 -1.2 3.4 -1.2h13.8c.7 0 1.3 .2 2 .4c.6 .2 1.1 .6 1.5 1c-1.5 .1 -3 .4 -4.4 1.1c0 0 0 .1 -.1 .1c-.8 .4 -1.5 .9 -2.1 1.4c-.7 .6 -1.3 1.2 -1.8 1.9c-.5 .7 -.9 1.5 -1.2 2.3c-.4 .8 -.6 1.6 -.7 2.5Zm31.2 4.5c-.4 .9 -.9 1.7 -1.6 2.4H377c-2.7 2.9 -5.5 5.7 -8.3 8.4c-1.2 1.2 -2.4 2.4 -3.6 3.6q-.2 .2 -.4 0l-3.5 -3.5c-2.8 -2.8 -5.6 -5.6 -8.4 -8.5c-.7 -.6 -1.2 -1.3 -1.5 -2.1c-.7 -1.6 -.9 -3.2 -.5 -4.9l.1 -.2v-.2q.1 -.1 .1 -.1c.1 -.3 .2 -.5 .3 -.8c0 -.2 .1 -.4 .2 -.5l.1 -.2c.7 -1.4 1.7 -2.4 3 -3c.1 -.1 .2 -.1 .3 -.2h.2c.1 -.1 .3 -.2 .5 -.3c.4 -.1 .8 -.2 1.3 -.3c.3 -.1 .7 -.1 1 -.2c.2 0 .3 0 .4 0c.2 0 .5 .1 .7 .1c1.1 .1 2 .4 3 .9c.6 .3 1.1 .7 1.6 1.1l.1 .1c.1 .2 .3 .2 .4 .3l.1 .1c0 0 .1 0 .1 0l.4 .2l.8 -.1l.2 -.2c.2 -.1 .3 -.2 .4 -.3l.1 -.1c.5 -.4 1 -.8 1.5 -1.1h.2c.9 -.6 1.9 -.9 3 -.9c.3 -.1 .7 -.1 1 -.1c.4 .1 .7 .1 1.1 .2c.4 .1 .9 .2 1.3 .4c.1 0 .3 .1 .5 .1l.1 .1c.1 .1 .2 .1 .3 .2c1.4 .6 2.4 1.7 3.1 3.1l.2 .5c.1 .2 .2 .4 .3 .6v.3l.2 .3c.4 1.6 .3 3.2 -.3 4.8Zm3.6 -4.5c-.1 -.6 -.2 -1.2 -.4 -1.7c-.4 -1.4 -1.1 -2.6 -2 -3.7c-1 -1.2 -2.1 -2 -3.4 -2.7l-.1 -.1c-1.4 -.7 -2.9 -1 -4.4 -1.1c-.2 0 -.4 0 -.5 0c-.6 0 -1.1 0 -1.6 .1c-1.7 .2 -3.2 .9 -4.6 1.8c-.1 .1 -.2 .1 -.2 .2c-.1 0 -.1 .1 -.2 .1h-.1c-.1 -.1 -.2 -.2 -.3 -.3c-.8 -.5 -1.6 -1 -2.6 -1.3v-.1c-.1 -.8 -.4 -1.5 -.9 -2.1c0 0 -.1 -.2 -.3 -.4c-.9 -.9 -1.9 -1.5 -3 -2c-1.1 -.4 -2.2 -.7 -3.4 -.7h-1c.2 -.1 .4 -.3 .6 -.4l.3 -.2c.3 -.3 .6 -.6 .8 -.8h.1c.3 -.3 .5 -.6 .8 -.9c0 -.1 .1 -.1 .1 -.2c.2 -.3 .4 -.5 .6 -.8v-.1c.1 0 .1 -.1 .1 -.1v-.1c.2 -.2 .3 -.4 .4 -.6c.1 -.1 .1 -.3 .2 -.4q0 -.1 0 -.1c.1 0 .1 -.1 .1 -.1c.2 -.4 .3 -.8 .5 -1.3c0 0 0 -.1 0 -.2c.1 -.4 .2 -.7 .2 -1.1q.1 -.1 .1 -.2q0 -.1 0 -.2c.1 -.4 .1 -.9 .1 -1.4c0 -.5 0 -1 -.1 -1.4q0 -.1 0 -.2c0 0 0 -.1 -.1 -.2c0 -.4 -.1 -.8 -.2 -1.2q0 -.1 0 -.1l-.1 -.1v-.1c-.1 -.4 -.3 -.8 -.4 -1.1c.1 -.1 .2 -.2 .4 -.2c.6 -.2 1.3 -.3 1.9 -.3h15.5c3.6 0 8.1 3 8.1 6.6V1712h-.8l-.2 -.8Z" class="g3_1"/>
<path clip-path="url(#c8_1)" d="M525.1 1660.6c-.8 0 -1.5 .7 -1.5 1.5v10.3h-3.1v-10.3c0 -.8 -.7 -1.5 -1.5 -1.5c-.9 0 -1.5 .7 -1.5 1.5v10.3h-3.2v-10.3c0 -.8 -.6 -1.5 -1.5 -1.5c-.8 0 -1.5 .7 -1.5 1.5v11.8c0 .9 .7 1.5 1.5 1.5h4.7v22.8c-.8 .2 -1.4 .6 -2 1.1l-.1 .1c-.9 .9 -1.5 2.2 -1.5 3.5v24.8c0 1.3 .6 2.6 1.5 3.5c.9 .9 2.2 1.5 3.6 1.5c1.3 0 2.6 -.6 3.5 -1.5c.9 -.9 1.5 -2.2 1.5 -3.5v-24.8c0 -1.3 -.6 -2.6 -1.5 -3.5c-.6 -.6 -1.3 -1 -2 -1.2v-22.8h4.6c.8 0 1.5 -.6 1.5 -1.5v-11.8c0 -.8 -.7 -1.5 -1.5 -1.5Zm-4.1 67c0 .6 -.2 1.1 -.6 1.5c-.4 .3 -.9 .6 -1.4 .6c-.6 0 -1.1 -.3 -1.5 -.6c-.3 -.4 -.6 -.9 -.6 -1.5v-24.7c0 -.5 .3 -1 .6 -1.4l.1 -.1c.4 -.3 .8 -.5 1.4 -.5c.5 0 1 .2 1.4 .6c.4 .4 .6 .9 .6 1.4v24.7Z" class="g3_1"/>
<path d="M560.5 1665c-9 0 -17.3 3.7 -23.2 9.7c-6 5.9 -9.7 14.2 -9.7 23.2c0 9.1 3.7 17.3 9.7 23.3c5.9 6 14.2 9.7 23.2 9.7c9.1 0 17.3 -3.7 23.3 -9.7c6 -6 9.7 -14.2 9.7 -23.3c0 -9 -3.7 -17.3 -9.7 -23.2c-6 -6 -14.2 -9.7 -23.3 -9.7Zm21.2 54.1c-5.5 5.4 -12.9 8.8 -21.2 8.8c-8.2 0 -15.7 -3.4 -21.1 -8.8c-5.4 -5.5 -8.8 -13 -8.8 -21.2c0 -8.2 3.4 -15.7 8.8 -21.1c5.4 -5.4 12.9 -8.8 21.1 -8.8c8.3 0 15.7 3.4 21.2 8.8c5.4 5.4 8.8 12.9 8.8 21.1c0 8.3 -3.4 15.7 -8.8 21.2Z" class="g3_1"/>
<path d="M555.8 1687c.6 1.2 .7 2.6 .7 3.9c.1 2.4 .1 4.6 2.7 6.5h.1c.8 .6 1.7 .9 2.5 1.1c1 .1 2 .1 3 -.1c1.3 -.3 2.5 -.9 3.6 -1.5c.6 -.4 1.2 -.8 1.7 -1.2c0 .1 -.1 .1 -.2 .2c-.9 .9 -1.4 2.1 -1.4 3.5c0 1.4 .5 2.6 1.4 3.5c.9 .9 2.2 1.4 3.5 1.4c1.4 0 2.6 -.5 3.4 -1.3l.1 -.1c.9 -.9 1.5 -2.2 1.5 -3.5c0 -1.4 -.6 -2.6 -1.5 -3.5c-.9 -.9 -2.1 -1.5 -3.5 -1.5c-.9 0 -1.9 .3 -2.6 .8c.4 -.3 .8 -.7 1.1 -1c.9 -.9 2.1 -1.5 3.2 -2c2.5 -1.2 4.8 -2.3 5.2 -5.8c.4 -4.3 -1.6 -5.6 -3.6 -7c-.7 -.5 -1.5 -1 -1.9 -1.8c-.2 -.2 -.4 -.7 -.6 -1.1c-.5 -1.2 -1 -2.5 -2.7 -3.5c-2.6 -1.4 -4.6 -.4 -6.4 .6c-.8 .3 -1.5 .7 -1.9 .7c-.3 0 -.7 -.1 -1.1 -.2c-2.7 -.3 -6.7 -.8 -8.4 3.7c-1.2 3.2 .4 6.1 1.7 8.5l.4 .7Zm16.3 11c.3 -.3 .8 -.6 1.4 -.6c.5 0 1 .3 1.4 .6c.3 .4 .5 .9 .5 1.4c0 .5 -.2 1 -.6 1.4v.1c-.3 .3 -.8 .5 -1.3 .5c-.6 0 -1.1 -.3 -1.4 -.6c-.4 -.4 -.6 -.9 -.6 -1.4c0 -.5 .2 -1 .6 -1.4Zm-15.6 -19.1c.9 -2.3 3.5 -2 5.2 -1.8c.6 .1 1.1 .1 1.5 .1c1.1 0 2.1 -.4 3.2 -1c1.1 -.5 2.5 -1.2 3.6 -.5c.8 .4 1.1 1.2 1.4 2c.2 .5 .5 1 .8 1.5c.8 1.3 1.8 2 2.8 2.7c1.3 .8 2.5 1.7 2.3 4.2c-.2 1.8 -1.8 2.6 -3.5 3.4c-1.4 .7 -2.8 1.4 -4 2.6c-.8 .8 -1.8 1.6 -2.9 2.2c-.9 .5 -1.8 .9 -2.8 1.2c-.6 .1 -1.2 .1 -1.8 0c-.4 0 -.9 -.2 -1.3 -.5h-.1c-1.3 -1.1 -1.4 -2.5 -1.4 -4.1c-.1 -1.7 -.1 -3.5 -1.1 -5.3l-.4 -.7c-1 -1.9 -2.2 -4.1 -1.5 -6Z" class="g3_1"/>
<path d="M567.1 1689.9c1.6 0 3 -.7 4 -1.7c1.1 -1 1.7 -2.4 1.7 -4c0 -1.5 -.6 -2.9 -1.7 -4c-1 -1 -2.4 -1.6 -4 -1.6c-1.5 0 -2.9 .6 -4 1.6c-1 1.1 -1.6 2.5 -1.6 4c0 1.6 .6 3 1.6 4c1.1 1.1 2.5 1.7 4 1.7Zm-1.8 -7.5c.5 -.5 1.1 -.8 1.8 -.8c.8 0 1.5 .3 1.9 .8c.5 .4 .8 1.1 .8 1.8c0 .8 -.3 1.4 -.8 1.9c-.5 .5 -1.1 .8 -1.9 .8c-.7 0 -1.4 -.3 -1.8 -.8c-.5 -.5 -.8 -1.1 -.8 -1.9c0 -.7 .3 -1.4 .8 -1.8Z" class="g3_1"/>
<path d="M574.1 1705.1c-1 1.1 -1.7 2.4 -1.7 4c0 1.5 .7 2.9 1.7 3.9c1 1 2.4 1.6 3.9 1.6c1.5 0 2.8 -.5 3.8 -1.5l.1 -.1c1 -1 1.7 -2.4 1.7 -3.9c0 -1.6 -.7 -3 -1.7 -4c-1 -1 -2.4 -1.6 -3.9 -1.6c-1.5 0 -2.9 .6 -3.9 1.6Zm6.5 4c0 .7 -.3 1.3 -.8 1.8v.1c-.5 .4 -1.1 .6 -1.8 .6c-.7 0 -1.3 -.2 -1.8 -.7c-.5 -.5 -.7 -1.1 -.7 -1.8c0 -.7 .2 -1.4 .7 -1.8c.5 -.5 1.1 -.8 1.8 -.8c.7 0 1.4 .3 1.8 .8c.5 .4 .8 1.1 .8 1.8Z" class="g3_1"/>
<path d="M546.3 1701.5c-.3 -1.8 -.3 -3.5 0 -5c.3 -1.5 .9 -2.9 1.8 -4.3c1 -1.4 2.2 -2.7 3.7 -4c1.1 -.9 1.8 -2.2 1.9 -3.6c.1 -1.4 -.3 -2.7 -1.3 -3.9c-.9 -1.1 -2.2 -1.7 -3.6 -1.8c-1.3 -.2 -2.7 .2 -3.8 1.2c-2.5 2 -4.4 4.2 -5.9 6.6c-1.5 2.4 -2.5 5 -3.1 7.7c-.6 2.6 -.6 5.4 -.3 8.3c.4 2.8 1.3 5.8 2.6 8.8c.6 1.3 1.6 2.3 2.9 2.8c1.3 .5 2.7 .5 4.1 0c1.3 -.6 2.3 -1.7 2.8 -2.9c.5 -1.3 .5 -2.8 -.1 -4.1c-.9 -2.1 -1.4 -4 -1.7 -5.8Zm-3 .4c.3 2.1 1 4.3 2 6.6c.2 .5 .2 1.2 0 1.7c-.2 .6 -.6 1.1 -1.2 1.3c-.6 .3 -1.3 .2 -1.8 0c-.5 -.2 -1 -.6 -1.3 -1.2c-1.2 -2.8 -2 -5.5 -2.3 -8c-.3 -2.6 -.3 -5 .2 -7.3c.5 -2.4 1.4 -4.6 2.7 -6.7c1.3 -2.1 3.1 -4.1 5.3 -5.9c.5 -.4 1.1 -.6 1.7 -.6c.6 .1 1.1 .3 1.6 .8c.4 .5 .5 1.1 .5 1.7c-.1 .6 -.3 1.2 -.8 1.6c-1.8 1.4 -3.2 3 -4.3 4.7c-1 1.7 -1.8 3.4 -2.2 5.3c-.4 1.9 -.4 3.9 -.1 6Z" class="g3_1"/>
<path d="M560 1699.8h-.5c-.8 .1 -1.5 .8 -1.5 1.6c.1 .6 .1 1.2 .1 1.7c.1 .6 .2 1.2 .2 1.8c.1 .7 0 1.3 -.4 1.7c-.4 .5 -.9 .8 -1.5 .9c-.7 .1 -1.3 -.1 -1.7 -.4c-.5 -.4 -.8 -.9 -.9 -1.5l-.1 -.6c-.1 -.4 -.3 -.8 -.6 -1.1c-.6 -.5 -1.6 -.4 -2.1 .3c-.8 .9 -1.4 2.1 -1.8 3.3c-.4 1.2 -.7 2.5 -.7 3.8c0 3.1 1.3 6 3.4 8c2.1 2.1 4.9 3.4 8.1 3.4c3.1 0 6 -1.3 8.1 -3.4c2.1 -2 3.4 -4.9 3.4 -8c0 -3.2 -1.3 -6 -3.4 -8.1c-2.1 -2.1 -4.9 -3.4 -8.1 -3.4Zm6 17.4c-1.6 1.6 -3.7 2.5 -6 2.5c-2.3 0 -4.5 -.9 -6 -2.5c-1.5 -1.5 -2.5 -3.6 -2.5 -5.9c0 -1 .2 -1.9 .5 -2.7c.2 .3 .5 .6 .9 .9c1.1 .8 2.5 1.2 3.9 1c1.5 -.2 2.7 -1 3.5 -2.1c.8 -1.1 1.2 -2.5 1 -3.9c-.1 -.6 -.1 -1.1 -.2 -1.6c1.9 .2 3.6 1.1 4.9 2.4c1.5 1.5 2.4 3.6 2.4 6c0 2.3 -.9 4.4 -2.4 5.9Z" class="g3_1"/>
<path d="M555.4 1712.5c-.8 0 -1.5 .6 -1.5 1.5v.1c0 .8 .7 1.4 1.5 1.4c.8 0 1.5 -.6 1.5 -1.4v-.1c0 -.9 -.7 -1.5 -1.5 -1.5Z" class="g3_1"/>
<path d="M558.6 1715.1c-.8 0 -1.5 .7 -1.5 1.5v.1c0 .9 .7 1.5 1.5 1.5c.8 0 1.5 -.6 1.5 -1.5v-.1c0 -.8 -.7 -1.5 -1.5 -1.5Z" class="g3_1"/>
<path d="M559.4 1711.1c-.9 0 -1.5 .7 -1.5 1.5v.1c0 .8 .6 1.5 1.5 1.5c.8 0 1.5 -.7 1.5 -1.5v-.1c0 -.8 -.7 -1.5 -1.5 -1.5Z" class="g3_1"/>
<path clip-path="url(#c8_1)" d="M605.6 1699.4c-.6 -.6 -1.3 -1 -2.2 -1.3c.9 -1.2 1.5 -2.8 1.9 -4.6c.5 -2.3 .8 -5 .8 -7.9c0 -9.4 -2.7 -20.7 -6.5 -24.6c-.4 -.4 -1.1 -.5 -1.6 -.3c-.1 .1 -.3 .2 -.4 .3h-.1c-.3 .3 -.4 .7 -.4 1.1v65.6c0 1.3 .5 2.6 1.4 3.5c1 .9 2.2 1.5 3.6 1.5c1.3 0 2.6 -.6 3.5 -1.5c.9 -.9 1.5 -2.2 1.5 -3.5v-24.8c0 -1.3 -.6 -2.6 -1.5 -3.5Zm-3.2 -6.5c-.5 1.9 -1.1 3.4 -2 4.3c-.1 .1 -.2 .2 -.3 .3v-29.9c1.8 4.7 3 11.8 3 18c0 2.7 -.2 5.2 -.7 7.3Zm1.7 34.7c0 .6 -.2 1.1 -.6 1.5c-.4 .3 -.9 .6 -1.4 .6c-.6 0 -1.1 -.3 -1.4 -.6c-.4 -.4 -.6 -.9 -.6 -1.5v-24.7c0 -.5 .2 -1 .6 -1.4v-.1c.4 -.3 .9 -.5 1.4 -.5c.5 0 1 .2 1.4 .6c.4 .4 .6 .9 .6 1.4v24.7Z" class="g3_1"/>
<path clip-path="url(#c9_1)" d="M827.8 1698.6c0 -4 -2.6 -7.3 -6.5 -7.3c-1.9 0 -4.3 2.2 -5.5 3.5c-1.2 -1.3 -3.5 -3.5 -5.4 -3.5c-3.9 0 -6.6 3.3 -6.6 7.3c0 2 .8 3.8 2 5.1l10 10l10 -10c1.2 -1.3 2 -3.1 2 -5.1Z" class="g3_1"/>
<path d="M785.4 1729.9c-.9 -.1 -1.5 -.6 -1.6 -1.3l-5 -29.5l-7.7 14.2c-.3 .6 -1 1 -1.7 .8c-.7 -.1 -1.3 -.7 -1.4 -1.4l-3.2 -22.8l-5.9 13.3c-.3 .7 -.9 1 -1.5 1H734.2c-.8 0 -1.6 -.7 -1.6 -1.7c0 -.8 .7 -1.6 1.6 -1.6h22.1l7.9 -17.6c.2 -.7 .9 -1.1 1.6 -1c.7 .1 1.4 .7 1.5 1.4l3.3 23.5l7.6 -14c.3 -.6 1 -1 1.7 -.8c.7 .1 1.2 .6 1.3 1.3l4.7 27.3l17 -56.7c.2 -.6 .8 -1.1 1.4 -1.1c.7 -.1 1.3 .3 1.6 .9l9 18.6c.4 .8 .1 1.7 -.8 2.2c-.8 .3 -1.8 .1 -2.2 -.8l-7.1 -14.8l-17.9 59.3c-.1 .9 -.8 1.3 -1.5 1.3Z" class="g3_1"/>
<path clip-path="url(#ca_1)" d="M1027.3 1655.9H977.6c-.6 0 -1.2 0 -1.7 .2c-.6 .1 -1.1 .2 -1.7 .5c-.5 .2 -1 .4 -1.4 .8c-.5 .3 -1 .6 -1.4 1c-.4 .4 -.7 .9 -1 1.3c-.3 .5 -.6 1 -.8 1.5c-.3 .6 -.4 1.1 -.5 1.7c-.1 .5 -.2 1.1 -.2 1.6v61.8c0 .4 0 .9 .1 1.4c.1 .4 .3 .9 .4 1.3c.2 .5 .4 .9 .7 1.3c.3 .4 .6 .7 .9 1c.3 .4 .7 .7 1.1 .9c.4 .3 .8 .5 1.2 .7c.5 .2 .9 .3 1.4 .4c.4 .1 .9 .2 1.4 .2h4.6v2.4c0 .1 0 .2 0 .3c.1 .1 .1 .2 .2 .3c0 .1 .1 .2 .2 .3c.1 .1 .2 .1 .3 .2c.1 0 .2 .1 .3 .1c.1 .1 .2 .1 .3 .1c.1 0 .2 0 .3 0c.2 -.1 .3 -.1 .4 -.2l2.8 -1.5l2.8 1.5c.2 .2 .4 .3 .7 .3c.2 0 .3 -.1 .5 -.1c.2 -.1 .3 -.2 .5 -.4c.1 -.1 .2 -.2 .3 -.4c0 -.2 .1 -.4 .1 -.5v-2.5h36.9c.2 0 .4 0 .6 -.1c.1 0 .3 -.1 .4 -.3c.2 -.1 .3 -.3 .3 -.4c.1 -.2 .1 -.4 .1 -.6v-74.7c0 -.2 0 -.4 -.1 -.5c0 -.2 -.1 -.4 -.3 -.5c-.1 -.1 -.3 -.2 -.4 -.3c-.2 -.1 -.4 -.1 -.6 -.1Zm-55.7 8.6c0 -.6 .1 -1.3 .3 -1.9c.3 -.6 .6 -1.2 1 -1.7c.4 -.6 .9 -1 1.5 -1.4c.5 -.3 1.2 -.6 1.8 -.7v60.3h-.1c-1.7 0 -3.2 .5 -4.5 1.6v-56.2Zm16.1 69.1l-1.5 -.8c-.5 -.2 -.9 -.2 -1.3 0l-1.5 .8v-6h4.3v6Zm38.3 -2.8H990.4v-4.5c0 -.2 -.1 -.4 -.1 -.6c-.1 -.1 -.2 -.3 -.3 -.4c-.2 -.2 -.3 -.3 -.5 -.3c-.2 -.1 -.3 -.1 -.5 -.1h-7c-.2 0 -.4 0 -.6 .1c-.1 0 -.3 .1 -.4 .3c-.2 .1 -.3 .3 -.3 .4c-.1 .2 -.1 .4 -.1 .6v4.4h-4.5c-.3 .1 -.6 0 -.9 0c-.3 -.1 -.6 -.1 -.9 -.2c-.3 -.1 -.6 -.3 -.8 -.4c-.3 -.2 -.5 -.4 -.8 -.6c-.2 -.2 -.4 -.4 -.5 -.7c-.2 -.2 -.4 -.5 -.5 -.8c-.1 -.2 -.2 -.5 -.3 -.8c0 -.3 -.1 -.6 -.1 -.9c0 -.3 .1 -.6 .1 -.9c.1 -.3 .2 -.6 .3 -.9c.1 -.3 .3 -.5 .5 -.8c.1 -.2 .3 -.5 .5 -.7c.3 -.2 .5 -.4 .8 -.5c.2 -.2 .5 -.3 .8 -.4c.3 -.1 .6 -.2 .9 -.3c.3 0 .6 0 .9 0H1026v9Zm0 -11.6H978.9v-60.6H1026v60.6Z" class="g3_1"/>
<path d="M985.1 1685.8h31.4c.1 0 .3 -.1 .5 -.1c.2 -.1 .3 -.2 .5 -.3c.1 -.2 .2 -.3 .3 -.5c0 -.2 .1 -.3 .1 -.5v-12.2c0 -.2 -.1 -.4 -.1 -.6c-.1 -.1 -.2 -.3 -.3 -.4c-.2 -.2 -.3 -.3 -.5 -.3c-.2 -.1 -.4 -.1 -.5 -.1H985.1c-.2 0 -.4 0 -.5 .1c-.2 0 -.4 .1 -.5 .3c-.1 .1 -.2 .3 -.3 .4c-.1 .2 -.1 .4 -.1 .6v12.2c0 .2 0 .4 .1 .5c.1 .2 .2 .3 .3 .5c.2 .1 .3 .2 .5 .3c.1 0 .3 .1 .5 .1Zm1.4 -12.3h28.6v9.6H986.5v-9.6Z" class="g3_1"/>
<path clip-path="url(#cb_1)" d="M349.7 1847c0 -15.1 -12.3 -27.4 -27.4 -27.4c-15.1 0 -27.3 12.3 -27.3 27.4c0 14.5 11.4 26.5 25.8 27.3v8.8h-7.7v3h7.7v7.7h3v-7.7h7.8v-3h-7.8v-8.8c14.4 -.8 25.9 -12.8 25.9 -27.3Zm-51.7 0c0 -13.5 10.9 -24.4 24.3 -24.4c13.5 0 24.4 10.9 24.4 24.4c0 13.4 -10.9 24.3 -24.4 24.3c-13.4 0 -24.3 -10.9 -24.3 -24.3Z" class="g3_1"/>
<path d="M349.7 1874.3c-7.3 0 -14.2 -2.8 -19.4 -8c-5.1 -5.2 -8 -12 -8 -19.3c0 -7.3 2.9 -14.2 8 -19.4c5.2 -5.1 12.1 -8 19.4 -8c7.3 0 14.1 2.9 19.3 8c10.6 10.7 10.6 28 0 38.7c-5.2 5.2 -12 8 -19.3 8Zm0 -51.7c-6.6 0 -12.7 2.5 -17.3 7.1c-4.6 4.6 -7.1 10.8 -7.1 17.3c0 6.5 2.5 12.6 7.1 17.2c4.6 4.6 10.7 7.1 17.3 7.1c6.5 0 12.6 -2.5 17.2 -7.1c9.5 -9.5 9.5 -25 0 -34.5c-4.6 -4.6 -10.7 -7.1 -17.2 -7.1Z" class="g3_1"/>
<path d="M378.5 1816l2.1 2.1L369 1829.7l-2.1 -2.1L378.5 1816Z" class="g3_1"/>
<path d="M380.4 1826.2l-.7 -9.3l-9.7 -1.1l.3 -3l12.1 1.4l1 11.8l-3 .2Z" class="g3_1"/>
<path clip-path="url(#cc_1)" d="M571.7 1842.7c0 -7.5 -11.7 -27.5 -12.2 -28.4c-.5 -.8 -1.8 -.8 -2.3 0c-.5 .9 -12.2 20.9 -12.2 28.4c0 8 6 14.4 13.4 14.4c7.3 0 13.3 -6.4 13.3 -14.4Zm-13.3 11.7c-5.9 0 -10.7 -5.2 -10.7 -11.7c0 -5.1 6.9 -18.3 10.7 -25c3.7 6.7 10.6 19.9 10.6 25c0 6.5 -4.8 11.7 -10.6 11.7Z" class="g3_1"/>
<path d="M557.6 1849.5c-2.8 0 -5.1 -2.7 -5.1 -5.9c0 -.8 -.6 -1.4 -1.3 -1.4c-.8 0 -1.4 .6 -1.4 1.4c0 4.7 3.5 8.6 7.8 8.6c.7 0 1.3 -.6 1.3 -1.4c0 -.7 -.6 -1.3 -1.3 -1.3Z" class="g3_1"/>
<g clip-path="url(#cc_1)">
<path d="M543.8 1859.3c-.7 -.6 -1.4 -1.2 -1.9 -1.7c-.8 -.7 -1.8 -.9 -2.8 -.5c-.9 .4 -1.6 1.2 -1.7 2.2c-.1 1.7 .1 3.4 .6 5.1c.7 1.9 1.9 3.9 3 5.4c-1 -.4 -2.3 -.9 -3.8 -1.6c-1.2 -.6 -2 -1.4 -3 -3c.2 -1.9 1 -9.7 1 -12.1c0 -2.4 -1.1 -3.5 -2.2 -3.7c-1.2 -.3 -2.4 .4 -3 1.7c-.5 .9 -.9 2 -1.3 2.9c-.6 -1.4 -1 -2.3 -1.5 -2.8c-1.2 -1.3 -3 -1.6 -4.5 -.9c-1.4 .7 -2.2 2.1 -2 3.7c.8 7.2 5.2 19.2 12.5 23.4c8.6 4.9 7.7 14.5 7.7 14.9c0 .4 .1 .8 .3 1.1c.3 .3 .7 .4 1 .4h13.4c.8 0 1.4 -.5 1.4 -1.3c0 -.5 .4 -12.6 -1.4 -18.1c-2.4 -7.1 -8 -11.9 -11.8 -15.1Zm-11.4 -7v-.1c.1 .2 .1 .5 .1 .9c0 1.4 -.3 5 -.6 7.9c-.3 -.5 -.6 -1.1 -.9 -1.7c-.2 -.5 -.4 -.9 -.6 -1.4c.3 -1 1 -3.6 2 -5.6Zm21.9 38.8H543.7c-.1 -3.3 -1 -11.5 -9.1 -16.1c-6.4 -3.7 -10.5 -14.9 -11.2 -21.3c-.1 -.6 .2 -.8 .4 -.9c.4 -.2 .9 -.2 1.4 .3c.4 .4 1.2 2.3 1.8 3.7c.5 1.3 1 2.6 1.6 3.7c3.2 6.4 4.3 8.5 7.4 10.1c5.4 2.7 8.6 2.8 8.7 2.9c.6 0 1.1 -.3 1.3 -.9c.2 -.5 .1 -1.1 -.3 -1.5c0 0 -3.8 -3.9 -5.1 -7.6c-.4 -1.3 -.6 -2.7 -.6 -3.9c.6 .5 1.3 1.1 2.1 1.8c3.5 3 8.8 7.5 10.9 13.8c1.3 4.1 1.4 12.6 1.3 15.9Z" class="g3_1"/>
<path d="M594.4 1850.3c-1.5 -.7 -3.3 -.4 -4.5 .9c-.4 .5 -.9 1.3 -1.4 2.5c-.4 -.8 -.8 -1.7 -1.2 -2.6c-.7 -1.3 -1.9 -2 -3.1 -1.7c-1.1 .2 -2.2 1.3 -2.2 3.7c0 2.6 .7 11.4 .8 12.2c-.9 1.5 -1.7 2.3 -2.9 2.9c-1.5 .7 -2.8 1.2 -3.9 1.6c1.2 -1.5 2.4 -3.5 3 -5.4c.6 -1.7 .8 -3.4 .7 -5.1c-.1 -1 -.8 -1.8 -1.7 -2.2c-1 -.4 -2.1 -.2 -2.8 .5c-.5 .5 -1.2 1.1 -2 1.7c-3.7 3.2 -9.3 8 -11.7 15.1c-1.8 5.5 -1.4 17.6 -1.4 18.1c0 .8 .6 1.3 1.3 1.3h13.4c.4 0 .8 -.1 1 -.4c.3 -.3 .4 -.7 .4 -1.1c-.1 -.4 -.9 -10 7.7 -14.9c7.3 -4.2 11.7 -16.2 12.5 -23.4c.2 -1.6 -.6 -3 -2 -3.7Zm-9.7 2.8c0 -.4 .1 -.7 .1 -.9q0 .1 .1 .1c1.1 2.2 1.8 4.5 2 5.1c-.3 .7 -.6 1.3 -.8 1.9c-.4 .6 -.6 1.1 -.9 1.7c-.2 -2.9 -.5 -6.5 -.5 -7.9Zm-2.2 21.9c-8.1 4.6 -9 12.8 -9.1 16.1H562.8c-.1 -3.3 -.1 -11.8 1.3 -15.9c2.1 -6.3 7.4 -10.8 10.9 -13.8c.8 -.7 1.5 -1.2 2 -1.8c.1 1.2 -.1 2.6 -.5 3.9c-1.3 3.7 -5.1 7.6 -5.1 7.6c-.4 .4 -.6 1 -.3 1.5c.2 .6 .7 .9 1.3 .9c.1 0 3.3 -.2 8.7 -2.9c3.1 -1.6 4.2 -3.7 7.4 -10.1c.5 -1.1 1.1 -2.4 1.6 -3.7c.6 -1.4 1.4 -3.3 1.8 -3.7c.4 -.5 1 -.5 1.3 -.3c.3 .1 .6 .4 .5 .9c-.7 6.4 -4.8 17.6 -11.2 21.3Z" class="g3_1"/>
</g>
<path clip-path="url(#cd_1)" d="M780.4 1874.5c-11.7 0 -21.3 -9.6 -21.3 -21.3c0 -11.8 9.6 -21.3 21.3 -21.3c11.8 0 21.4 9.5 21.4 21.3c0 11.8 -9.6 21.3 -21.4 21.3Zm0 -39.4c-9.9 0 -18 8.1 -18 18.1c0 10 8.1 18.1 18 18.1c10 0 18.1 -8.1 18.1 -18.1c0 -10 -8.1 -18.1 -18.1 -18.1Zm1.7 -8v-12.9c0 -.9 -.8 -1.7 -1.7 -1.7c-.8 0 -1.6 .8 -1.6 1.7v12.9c0 .9 .8 1.6 1.6 1.6c.9 0 1.7 -.7 1.7 -1.6Zm0 65.1v-12.9c0 -.9 -.8 -1.7 -1.7 -1.7c-.8 0 -1.6 .8 -1.6 1.7v12.9c0 .9 .8 1.6 1.6 1.6c.9 0 1.7 -.7 1.7 -1.6Zm-26.1 -39c0 -.9 -.7 -1.6 -1.6 -1.6h-13c-.9 0 -1.6 .7 -1.6 1.6c0 .9 .7 1.6 1.6 1.6h13c.9 0 1.6 -.7 1.6 -1.6Zm65.1 0c0 -.9 -.7 -1.6 -1.6 -1.6h-13c-.9 0 -1.6 .7 -1.6 1.6c0 .9 .7 1.6 1.6 1.6h13c.9 0 1.6 -.7 1.6 -1.6ZM800 1835.9l9.2 -9.1c.6 -.7 .6 -1.7 0 -2.3c-.6 -.7 -1.7 -.7 -2.3 0l-9.2 9.1c-.6 .7 -.6 1.7 0 2.3c.4 .3 .8 .5 1.2 .5c.4 0 .8 -.2 1.1 -.5Zm-46 46l9.2 -9.1c.6 -.7 .6 -1.7 0 -2.3c-.7 -.6 -1.7 -.6 -2.3 0l-9.2 9.1c-.6 .7 -.6 1.7 0 2.3c.3 .4 .8 .5 1.2 .5c.4 0 .8 -.2 1.1 -.5Zm9.2 -46c.6 -.6 .6 -1.6 0 -2.3l-9.2 -9.2c-.6 -.6 -1.6 -.6 -2.3 0c-.6 .7 -.6 1.7 0 2.3l9.2 9.2c.3 .3 .7 .5 1.1 .5c.4 0 .8 -.2 1.2 -.5Zm46 46c.6 -.6 .6 -1.6 0 -2.3l-9.2 -9.1c-.6 -.6 -1.6 -.6 -2.3 0c-.6 .6 -.6 1.6 0 2.3l9.2 9.1c.3 .4 .7 .5 1.2 .5c.4 0 .8 -.2 1.1 -.5Z" class="g3_1"/>
<path d="M1037 1831.5l-37.6 -16.9c-.4 -.1 -.7 -.1 -1.1 0l-37.6 16.9c-.2 .1 -.4 .3 -.5 .5c-.2 .2 -.2 .4 -.2 .7v44.1c0 .2 0 .5 .2 .7c.1 .2 .3 .4 .5 .5l37.6 16.8c.4 .2 .7 .2 1.1 0L1037 1878c.2 -.1 .4 -.3 .6 -.5c.1 -.2 .2 -.5 .2 -.7v-44.1c0 -.3 -.1 -.5 -.2 -.7c-.2 -.2 -.4 -.4 -.6 -.5Zm-39.4 60.1l-35 -15.7v-41.1l35 15.7v41.1Zm1.3 -43.4l-34.6 -15.5l34.6 -15.5l34.5 15.5l-34.5 15.5Zm36.3 27.7l-35 15.7v-41.1l35 -15.7v41.1Z" class="g3_1"/>
<path clip-path="url(#ce_1)" d="M820.1 2048.7h-3.8v-52.9c0 -.8 -.6 -1.4 -1.3 -1.4H780.9v-22.6c0 -.7 -.6 -1.3 -1.4 -1.3H744.1c-.7 0 -1.3 .6 -1.3 1.3v76.9H739c-.7 0 -1.3 .6 -1.3 1.3c0 .8 .6 1.4 1.3 1.4h81.1c.7 0 1.3 -.6 1.3 -1.4c0 -.7 -.6 -1.3 -1.3 -1.3Zm-74.6 -75.5h32.7v75.5H745.5v-75.5Zm35.4 75.5v-51.6h32.7v51.6H780.9Zm-22.4 -14.9h-6.4c-.7 0 -1.4 .6 -1.4 1.4v6.9c0 .7 .7 1.3 1.4 1.3h6.4c.8 0 1.4 -.6 1.4 -1.3v-6.9c0 -.8 -.6 -1.4 -1.4 -1.4Zm-1.3 7h-3.8v-4.3h3.8v4.3Zm1.3 -62.4h-6.4c-.7 0 -1.4 .6 -1.4 1.3v7c0 .7 .7 1.3 1.4 1.3h6.4c.8 0 1.4 -.6 1.4 -1.3v-7c0 -.7 -.6 -1.3 -1.4 -1.3Zm-1.3 6.9h-3.8v-4.2h3.8v4.2Zm14.4 20.8h-6.5c-.7 0 -1.3 .6 -1.3 1.4v6.9c0 .7 .6 1.3 1.3 1.3h6.5c.7 0 1.3 -.6 1.3 -1.3v-6.9c0 -.8 -.6 -1.4 -1.3 -1.4Zm-1.4 6.9h-3.7v-4.2h3.7v4.2Zm-11.7 -20.7h-6.4c-.7 0 -1.4 .6 -1.4 1.3v6.9c0 .8 .7 1.4 1.4 1.4h6.4c.8 0 1.4 -.6 1.4 -1.4v-6.9c0 -.7 -.6 -1.3 -1.4 -1.3Zm-1.3 6.9h-3.8v-4.3h3.8v4.3Zm1.3 20.8h-6.4c-.7 0 -1.4 .6 -1.4 1.3v6.9c0 .8 .7 1.4 1.4 1.4h6.4c.8 0 1.4 -.6 1.4 -1.4v-6.9c0 -.7 -.6 -1.3 -1.4 -1.3Zm-1.3 6.9h-3.8v-4.2h3.8v4.2Zm1.3 -20.8h-6.4c-.7 0 -1.4 .6 -1.4 1.4v6.9c0 .7 .7 1.3 1.4 1.3h6.4c.8 0 1.4 -.6 1.4 -1.3v-6.9c0 -.8 -.6 -1.4 -1.4 -1.4Zm-1.3 6.9h-3.8v-4.2h3.8v4.2Zm14.4 7h-6.5c-.7 0 -1.3 .6 -1.3 1.3v6.9c0 .8 .6 1.4 1.3 1.4h6.5c.7 0 1.3 -.6 1.3 -1.4v-6.9c0 -.7 -.6 -1.3 -1.3 -1.3Zm-1.4 6.9h-3.7v-4.2h3.7v4.2Zm1.4 -34.6h-6.5c-.7 0 -1.3 .6 -1.3 1.3v6.9c0 .8 .6 1.4 1.3 1.4h6.5c.7 0 1.3 -.6 1.3 -1.4v-6.9c0 -.7 -.6 -1.3 -1.3 -1.3Zm-1.4 6.9h-3.7v-4.3h3.7v4.3Zm1.4 -20.8h-6.5c-.7 0 -1.3 .6 -1.3 1.3v7c0 .7 .6 1.3 1.3 1.3h6.5c.7 0 1.3 -.6 1.3 -1.3v-7c0 -.7 -.6 -1.3 -1.3 -1.3Zm-1.4 6.9h-3.7v-4.2h3.7v4.2Zm1.4 48.5h-6.5c-.7 0 -1.3 .6 -1.3 1.4v6.9c0 .7 .6 1.3 1.3 1.3h6.5c.7 0 1.3 -.6 1.3 -1.3v-6.9c0 -.8 -.6 -1.4 -1.3 -1.4Zm-1.4 7h-3.7v-4.3h3.7v4.3ZM807 2018.1h-6.4c-.8 0 -1.4 .6 -1.4 1.3v7c0 .7 .6 1.3 1.4 1.3H807c.7 0 1.3 -.6 1.3 -1.3v-7c0 -.7 -.6 -1.3 -1.3 -1.3Zm-1.4 6.9h-3.7v-4.2h3.7v4.2Zm1.4 -20.8h-6.4c-.8 0 -1.4 .6 -1.4 1.4v6.9c0 .8 .6 1.4 1.4 1.4H807c.7 0 1.3 -.6 1.3 -1.4v-6.9c0 -.8 -.6 -1.4 -1.3 -1.4Zm-1.4 7h-3.7v-4.3h3.7v4.3Zm1.4 20.7h-6.4c-.8 0 -1.4 .6 -1.4 1.4v6.9c0 .8 .6 1.4 1.4 1.4H807c.7 0 1.3 -.6 1.3 -1.4v-6.9c0 -.8 -.6 -1.4 -1.3 -1.4Zm-1.4 7h-3.7v-4.3h3.7v4.3Zm-11.6 -7h-6.5c-.7 0 -1.3 .6 -1.3 1.4v6.9c0 .8 .6 1.4 1.3 1.4H794c.7 0 1.3 -.6 1.3 -1.4v-6.9c0 -.8 -.6 -1.4 -1.3 -1.4Zm-1.4 7h-3.7v-4.3h3.7v4.3Zm1.4 -20.8h-6.5c-.7 0 -1.3 .6 -1.3 1.3v7c0 .7 .6 1.3 1.3 1.3H794c.7 0 1.3 -.6 1.3 -1.3v-7c0 -.7 -.6 -1.3 -1.3 -1.3Zm-1.4 6.9h-3.7v-4.2h3.7v4.2Zm1.4 -20.8h-6.5c-.7 0 -1.3 .6 -1.3 1.4v6.9c0 .8 .6 1.4 1.3 1.4H794c.7 0 1.3 -.6 1.3 -1.4v-6.9c0 -.8 -.6 -1.4 -1.3 -1.4Zm-1.4 7h-3.7v-4.3h3.7v4.3Z" class="g3_1"/>
<path clip-path="url(#cf_1)" fill-rule="evenodd" d="M341.5 1982.5c-17.5 0 -31.7 14.2 -31.7 31.7c0 17.5 14.2 31.7 31.7 31.7c17.5 0 31.7 -14.2 31.7 -31.7c0 -17.5 -14.2 -31.7 -31.7 -31.7Zm-38.7 31.7c0 -21.4 17.3 -38.7 38.7 -38.7c21.4 0 38.7 17.3 38.7 38.7c0 21.4 -17.3 38.8 -38.7 38.8c-21.4 0 -38.7 -17.4 -38.7 -38.8Z" class="g3_1"/>
<path fill-rule="evenodd" d="M329.2 2004.6h24.6v7H329.2v-7Z" class="g3_1"/>
<path fill-rule="evenodd" d="M329.2 2016.9h24.6v7H329.2v-7Z" class="g3_1"/>
<path clip-path="url(#cg_1)" d="M1032.6 2034v-55.8c0 -3.3 -2.8 -6.1 -6.1 -6.1c-3.4 0 -6.2 2.8 -6.2 6.1v2c-7.6 -5.9 -17.4 -8.9 -27.5 -7.9q-.1 0 -.1 0c-19.6 2.1 -34.9 18.6 -34.9 38.7c0 21.5 17.4 39 38.9 39c7.6 0 14.8 -2.2 21.1 -6.3c1.2 3.5 4.4 6.1 8.3 6.2c5.2 .3 9.5 -3.9 9.5 -9.1c0 -2.6 -1.1 -5.1 -3 -6.8Zm-70.8 -14.6h26.9c3.2 0 5.7 -2.5 5.7 -5.7c0 -3.2 -2.5 -5.7 -5.7 -5.7h-.8c-1.4 0 -2.6 -1.2 -2.6 -2.7c0 -1.4 1.2 -2.6 2.6 -2.6h13c3.2 0 5.7 -2.6 5.7 -5.8c0 -3.1 -2.6 -5.7 -5.7 -5.7c-3.6 0 -6.5 -2.9 -6.5 -6.4v-9.5c9.7 -.6 19 2.7 25.9 8.8v25.4h-14c-3.2 0 -5.8 2.6 -5.8 5.7c0 3.2 2.6 5.8 5.8 5.8h.7c1.5 0 2.7 1.2 2.7 2.6c0 1.5 -1.2 2.7 -2.7 2.7H994.1c-3.2 0 -5.8 2.6 -5.8 5.7c0 3.2 2.6 5.7 5.8 5.7c3.5 0 6.4 2.9 6.4 6.5v2.5c-18.4 1.9 -34.6 -10.3 -38.7 -27.3Zm64.4 27.5c-3.2 -.1 -5.7 -2.7 -5.8 -5.9c-.1 -2 .8 -3.9 2.4 -5.1c.4 -.3 .6 -.7 .6 -1.2v-56.5c0 -1.6 1.4 -3 3.1 -3c1.6 0 3 1.4 3 3v7.7H1028c-.9 0 -1.5 .7 -1.5 1.5c0 .8 .6 1.5 1.5 1.5h1.5v3.1H1028c-.9 0 -1.5 .7 -1.5 1.5c0 .8 .6 1.5 1.5 1.5h1.5v3.1H1028c-.9 0 -1.5 .7 -1.5 1.5c0 .8 .6 1.5 1.5 1.5h1.5v3.1H1028c-.9 0 -1.5 .7 -1.5 1.5c0 .8 .6 1.5 1.5 1.5h1.5v3.1H1028c-.9 0 -1.5 .7 -1.5 1.5c0 .9 .6 1.5 1.5 1.5h1.5v3.1H1028c-.9 0 -1.5 .7 -1.5 1.5c0 .9 .6 1.5 1.5 1.5h1.5v3.1H1028c-.9 0 -1.5 .7 -1.5 1.5c0 .9 .6 1.5 1.5 1.5h1.5v9.2c0 .5 .2 .9 .6 1.2c1.6 1.2 2.5 3 2.5 4.9c0 3.5 -2.9 6.2 -6.4 6.1Z" class="g3_1"/>
<path d="M1028 2040.8c0 .2 -.1 .4 -.1 .6c-.1 .2 -.2 .3 -.4 .5c-.1 .1 -.3 .2 -.5 .3c-.2 .1 -.3 .1 -.5 .1c-.3 0 -.4 0 -.6 -.1c-.2 -.1 -.4 -.2 -.5 -.3c-.2 -.2 -.3 -.3 -.4 -.5c0 -.2 -.1 -.4 -.1 -.6c0 -.2 .1 -.4 .1 -.6c.1 -.2 .2 -.3 .4 -.5c.1 -.1 .3 -.2 .5 -.3c.2 -.1 .3 -.1 .6 -.1c.2 0 .3 0 .5 .1c.2 .1 .4 .2 .5 .3c.2 .2 .3 .3 .4 .5c0 .2 .1 .4 .1 .6Z" class="g3_1"/>
<path clip-path="url(#ch_1)" d="M368.1 2189.4c.1 .1 .2 .3 .2 .5c0 .2 0 .4 -.2 .5c-2.4 1.8 -7.1 4.9 -12.2 4.9c-7.1 0 -10 -6.1 -10.3 -6.8c0 -.1 0 -.2 0 -.3v-31.7c0 -.4 .3 -.7 .6 -.7h7.5c.3 0 .5 .2 .6 .4c.5 1.1 1.5 1.8 2.7 1.8c1.6 0 2.9 -1.3 2.9 -2.9c0 -1.6 -1.3 -2.9 -2.9 -2.9c-1.2 0 -2.2 .6 -2.7 1.7c-.1 .2 -.3 .4 -.6 .4h-7.5c-.3 0 -.6 -.3 -.6 -.7v-7.2c0 -.2 .1 -.5 .3 -.6c2.5 -1.5 4.1 -4.2 4.1 -7.2c0 -4.6 -3.7 -8.4 -8.4 -8.4c-4.6 0 -8.3 3.8 -8.3 8.4c0 3 1.5 5.7 4.1 7.2c.2 .1 .3 .4 .3 .6v7.2c0 .4 -.3 .7 -.7 .7h-7.4c-.3 0 -.5 -.2 -.6 -.4c-.5 -1.1 -1.5 -1.7 -2.7 -1.7c-1.6 0 -2.9 1.3 -2.9 2.9c0 1.6 1.3 2.9 2.9 2.9c1.2 0 2.2 -.7 2.7 -1.8c.1 -.2 .3 -.4 .6 -.4H337c.4 0 .7 .3 .7 .7v31.7c0 .1 0 .2 0 .3c-.4 .7 -3.3 6.8 -10.3 6.8c-5.1 0 -9.8 -3.1 -12.2 -4.9c-.2 -.1 -.3 -.3 -.3 -.5c0 -.2 .1 -.4 .3 -.5l2.1 -1.5l-11.1 -4.6l.9 12l1.7 -1.3c.2 -.1 .3 -.1 .4 -.1q.1 0 .2 0c.1 0 .3 .2 .4 .3c1.4 2.4 4.4 6.6 8.2 8.2c2 .9 5.1 1.6 8.4 2.3c5.8 1.3 12.3 2.8 15.2 5.8c3 -3 9.5 -4.5 15.3 -5.8c3.3 -.7 6.4 -1.4 8.4 -2.3c3.8 -1.6 6.8 -5.8 8.2 -8.2c.1 -.1 .2 -.3 .4 -.3c.2 0 .4 0 .5 .1l1.7 1.3l1 -12l-11.1 4.6l2.1 1.5Zm-26.5 -47c-2 0 -3.7 -1.7 -3.7 -3.8c0 -2.1 1.7 -3.7 3.7 -3.7c2.1 0 3.8 1.6 3.8 3.7c0 2.1 -1.7 3.8 -3.8 3.8Z" class="g3_1"/>
<path d="M318.5 2171h15.1v4.8H318.5V2171Z" class="g3_1"/>
<path d="M313 2167.3c.9 .5 1.8 1 2.5 1.6c.1 0 .3 .1 .4 .1c.2 0 .4 -.1 .5 -.3c.2 -.3 .2 -.7 -.1 -.9c-.8 -.6 -1.7 -1.1 -2.7 -1.7c-3.7 -2.2 -7.7 -4.5 -6.6 -10.8c1.5 -9.6 22.9 -12.3 23.2 -12.4c.3 0 .6 -.3 .5 -.7c0 -.4 -.3 -.6 -.7 -.6c-.9 .2 -22.7 2.9 -24.4 13.5c-1.1 7.2 3.6 10 7.4 12.2Z" class="g3_1"/>
<path d="M349.7 2171h15.1v4.8H349.7V2171Z" class="g3_1"/>
<path clip-path="url(#ch_1)" d="M353.1 2142.9c.2 .1 21.7 2.8 23.2 12.4c1 6.3 -2.9 8.6 -6.7 10.8c-.9 .6 -1.8 1.1 -2.6 1.7c-.3 .2 -.3 .6 -.1 .9c.1 .2 .3 .3 .5 .3c.2 0 .3 -.1 .4 -.2c.7 -.5 1.6 -1 2.5 -1.5c3.8 -2.2 8.5 -5 7.3 -12.2c-1.7 -10.6 -23.4 -13.3 -24.3 -13.5c-.4 0 -.7 .3 -.8 .6c0 .4 .3 .7 .6 .7Z" class="g3_1"/>
<path d="M568.7 2203.5l-4.9 2.7c-1.8 1 -4.1 1 -6 0l-26.9 -14.8c-2.3 -1.3 -3.7 -3.7 -3.7 -6.4v-28.2c0 -2.6 1.4 -5.1 3.7 -6.3l11.6 -6.4l-1.7 5.5c-.2 .9 .2 1.8 1 2c.2 .1 .4 .1 .5 .1c.7 0 1.3 -.5 1.5 -1.1l2.9 -9.3c.2 -.5 0 -1.1 -.3 -1.5c-.3 -.3 -.6 -.5 -1 -.5l-8.8 -2.8c-.8 -.3 -1.7 .1 -2 1c-.2 .8 .2 1.7 1.1 1.9l5.5 1.9l-11.8 6.5c-3.3 1.8 -5.3 5.2 -5.3 9V2185c0 3.9 2 7.3 5.3 9.1l26.9 14.8c1.4 .8 3 1.2 4.6 1.2c1.5 0 3.1 -.4 4.4 -1.2l4.9 -2.6c.8 -.4 1 -1.4 .6 -2.2c-.4 -.7 -1.3 -1 -2.1 -.6Z" class="g3_1"/>
<path clip-path="url(#ci_1)" d="M592.4 2147.8l-27 -14.9c-2.9 -1.5 -6.3 -1.5 -9.1 0l-4.8 2.7c-.8 .4 -1 1.3 -.7 2.1c.4 .8 1.4 1 2.2 .7l4.8 -2.7c1.9 -1 4.2 -1 6 0l26.9 14.8c2.3 1.2 3.7 3.7 3.7 6.3v28.3c0 2.7 -1.4 5.1 -3.7 6.4l-11.6 6.4l1.7 -5.6c.3 -.8 -.1 -1.7 -1 -1.9c-.8 -.3 -1.7 .1 -1.9 1l-2.9 9c-.2 .5 -.2 1 0 1.5c.2 .2 .4 .4 .7 .5q.1 .1 .3 .2h.1l9 2.9c.1 0 .3 0 .4 0c.7 0 1.4 -.4 1.5 -1c.3 -.8 -.1 -1.8 -1 -2l-5.6 -1.8l12 -6.6c3.2 -1.8 5.3 -5.2 5.3 -9.1v-28.2c0 -3.8 -2.1 -7.2 -5.3 -9Z" class="g3_1"/>
<path d="M547.9 2158.2l-.7 .8c-2.3 2.3 -2.5 5.1 -.6 7.1q.1 .1 .2 .1q.1 .1 .1 .2c.9 .9 2 1.3 3.1 1.3c1.3 0 2.7 -.6 3.9 -2.1l.7 -.7c1.2 1.6 3.1 2.7 5 2.7c.3 0 .5 0 .7 0c1.5 -.3 2.8 -1 3.7 -2.2c.9 -1.4 1.3 -3 .9 -4.6c-.2 -1.3 -1.1 -2.6 -2.2 -3.8l.5 -.6c.6 -.6 1 -1.3 1.3 -2h4.8c.8 0 1.5 -.7 1.5 -1.6c0 -.8 -.7 -1.5 -1.5 -1.5h-5.1c-.2 -.5 -.5 -1 -1 -1.4l-.2 -.2c-.3 -.3 -.6 -.5 -1 -.8v-4.8c0 -.8 -.7 -1.5 -1.5 -1.5c-.9 0 -1.6 .7 -1.6 1.5v4.2c-.9 .2 -1.7 .7 -2.4 1.4l-.6 .6c-1.2 -1 -2.5 -1.9 -3.6 -2.2c-1.7 -.3 -3.4 0 -4.7 1c-1.2 .8 -2 2.2 -2.2 3.7c-.2 2 .8 4.1 2.5 5.4Zm5.9 1.5l-.4 -.5c.2 -.1 .3 -.2 .6 -.2c-.1 .2 -.1 .4 -.2 .7Zm-4.7 4.5c-.1 -.1 -.1 -.2 -.1 -.2c0 0 -.1 0 -.2 0c-.4 -.4 -.5 -.8 -.3 -1.3l1.8 1.8c-.4 .2 -.8 0 -1.2 -.3Zm12.4 -.7c-.3 .4 -.8 .9 -1.6 .9c-1.5 .2 -2.9 -1 -3.3 -2.6c-.1 -.9 .7 -2.8 1.8 -4.5c1.7 1.4 3.3 3.1 3.5 4c.1 .8 .1 1.6 -.4 2.2ZM558.8 2152c.3 -.3 .7 -.6 1.1 -.6c.3 0 .7 .3 1 .6l.2 .2c.7 .7 .7 1.3 0 2.1l-.3 .3l-2.3 -2.4l.3 -.2Zm-9.3 -.4c.5 -.3 1 -.5 1.6 -.5c.1 0 .4 0 .5 .1c1 .2 2.7 1.8 4.1 3.5c-1.6 1 -3.6 1.9 -4.5 1.7c-1.6 -.3 -2.8 -1.8 -2.6 -3.2c.1 -.9 .5 -1.4 .9 -1.6Z" class="g3_1"/>
<path d="M547.8 2195.1c.9 0 1.6 -.7 1.6 -1.7v-4.8c.1 0 .4 0 .5 0c.3 0 .6 0 .9 -.1c2.1 -.7 3.6 -1.7 4.9 -3.1c3.1 -3.4 3.1 -8.9 3.1 -9.1c0 -.9 -.7 -1.6 -1.6 -1.6c-.2 0 -5.1 0 -8.2 3.5c-.7 -2.4 -1.9 -4.4 -3.5 -5.9c-4.2 -4.3 -10.9 -4.3 -11.3 -4.3c-.8 0 -1.5 .7 -1.5 1.5c0 .3 0 7 4.3 11.3c1.6 1.6 3.8 2.9 6.6 3.6c.4 .1 .8 .2 1.2 .2c.5 0 1 -.1 1.4 -.3c0 .3 0 .4 0 .7v8.5c0 .9 .7 1.6 1.6 1.6Zm3.4 -14.8c1.3 -1.4 3 -2 4.3 -2.2c-.2 1.5 -.7 3.7 -2.2 5.2c-.8 .9 -2 1.7 -3.4 2.1c0 .1 -.1 .1 -.3 -.1c-.1 -.1 -.2 -.3 -.2 -.6v-.4c.4 -1.6 1 -3 1.8 -4Zm-6.8 1c-2.2 -.5 -3.9 -1.4 -5.1 -2.8c-2.2 -2.2 -3 -5.4 -3.3 -7.3c2 .2 5.2 1 7.4 3.2c1.3 1.2 2.3 3 2.8 5.1c.2 .8 -.2 1.3 -.4 1.5c-.1 .2 -.7 .6 -1.4 .3Z" class="g3_1"/>
<path d="M588.5 2164.7c.3 0 .4 0 .6 0l1.7 .2v-1.8c-.1 -3.8 -2.9 -7 -6.6 -7.6q-.1 0 -.2 0c-.1 0 -.2 0 -.3 0c-.3 0 -.5 0 -.8 0c-.3 0 -.7 .1 -1.1 .1c-.2 0 -.3 0 -.4 0c-.4 .1 -.7 .1 -1 .1c-.3 0 -.4 .1 -.6 .1c-.2 0 -.4 .1 -.7 .2c-.2 0 -.4 .1 -.6 .1q-.2 .1 -.4 .2c-.5 .1 -.9 .3 -1.3 .5l-.2 .1c-2.5 1.3 -4.4 3.1 -5.7 5.4c-.2 .2 -.3 .3 -.4 .5c-1.3 2.8 -3.1 4.6 -6.9 6.7l-2.3 1.4l2.3 1.3c.8 .5 1.7 .8 2.4 1.2c-.7 .4 -1.4 .9 -2.4 1.4l-2.3 1.4l2.3 1.3c2.1 1.3 4.5 1.9 6.9 1.9c2 0 4 -.4 5.9 -1.2l.4 1.3c.1 .7 .8 1.1 1.5 1.1c.1 0 .3 0 .4 0c.9 -.2 1.4 -1.1 1.1 -1.9l-.6 -2c.1 0 .1 -.1 .2 -.1l.7 2.9c.2 .7 .8 1.1 1.5 1.1c.2 0 .3 0 .5 0c.9 -.3 1.3 -1.1 1.1 -2l-1.2 -4.4c1.1 -1.4 1.8 -3 1.9 -4.8c.1 -2.6 2.1 -4.7 4.6 -4.7ZM578 2159.5c.4 -.2 .8 -.3 1.2 -.5h.2c.2 -.1 .3 -.1 .5 -.2c.2 -.1 .4 -.1 .6 -.2c.1 0 .2 0 .3 0c.4 0 .6 -.1 .8 -.1h.3c.5 0 1 0 1.4 0c1.8 .1 3.3 1.3 3.9 3c-3.1 .4 -5.5 2.6 -6.4 5.7c-1.8 2 -6 3.5 -9.3 3.8c.3 -.8 .4 -1.7 .6 -2.7c.1 -1.3 .4 -2.4 .9 -3.4c.1 -.2 .2 -.4 .3 -.6c0 -.1 .1 -.1 .1 -.2c1.3 -2.5 3.3 -3.9 4.6 -4.6Zm-9.3 10.4c-.1 .3 -.2 .6 -.3 .9c-.2 -.1 -.4 -.1 -.6 -.2c.3 -.2 .6 -.5 .9 -.7Zm1.7 6.3c-.8 0 -1.8 -.1 -2.6 -.3c.7 -.6 1.5 -1.2 2.1 -1.8c.2 0 .4 0 .6 0c2.7 0 6.3 -.9 9.2 -2.4c-1.8 2.7 -5.7 4.5 -9.3 4.5Z" class="g3_1"/>
<path d="M583 2162c.7 0 1.3 -.6 1.3 -1.3c0 -.7 -.6 -1.4 -1.3 -1.4c-.7 0 -1.4 .7 -1.4 1.4c0 .7 .7 1.3 1.4 1.3Z" class="g3_1"/>
<path d="M575.9 2187.3c.2 .2 .3 .5 .6 .9c.7 .6 1.6 .6 2.2 0c.6 -.6 .6 -1.6 0 -2.2c-.1 -.1 -.1 -.3 -.2 -.3c-.5 -.8 -1.4 -2.3 -4.3 -2.5c-.3 0 -.6 0 -.9 .1c-.2 -.4 -.7 -.6 -1.2 -.6c-1.4 -.1 -2.6 .5 -3.6 1.5c-1.4 1.6 -2.1 4.2 -1.8 6.7c.1 .6 .5 1 1.1 1.3c-.6 0 -1.3 -.2 -1.5 -.8c-.7 -1.9 -2.4 -3.1 -4.3 -2.9c-2.1 .1 -3.9 1.9 -4.3 4.4c-.2 .8 .4 1.6 1.2 1.8c.9 .1 1.7 -.4 1.8 -1.3c.2 -1.2 1 -1.7 1.5 -1.8c.6 -.1 .9 .2 1.1 .8c.6 2 2.5 2.9 4.3 2.9c.4 0 .8 0 1.3 -.2c2.2 -.4 3.3 -2.1 3.1 -4.1c-.2 -1.6 .2 -3.2 1 -4.1c.4 -.5 .9 -.5 1.1 -.5c1.3 0 1.4 .3 1.8 .9Z" class="g3_1"/>
<path clip-path="url(#cj_1)" d="M821.8 2164c-2.3 -.4 -5.5 -1.7 -5.5 -3c0 -2.8 -4.4 -7.1 -10.5 -7.1c-6.8 0 -10.9 3.9 -13.3 7.8c-.6 -4.5 -2.4 -6.8 -4.2 -9c-2.7 -3.4 -5.3 -6.7 -3.6 -19.7l.3 -2.1l-1.8 1c-5.4 2.9 -12 12.6 -11.8 22.4c-.4 -.2 -.8 -.4 -1.2 -.6c-8 -3.9 -15.6 -7.7 -21.3 -17.8l-1.7 -2.8l-.3 3.2c-1.1 9.2 -.2 19 2.2 26.9c2.6 8.4 7 14.6 12.8 18.2c-6.2 .7 -15.9 3.6 -22.6 9.7l-.3 .2l-.1 .4c-.8 4.7 3.3 16.6 8.1 18.6l.7 .2l.5 -.5c2.4 -2.4 9.3 -8.8 13.1 -9.4c6.7 2.1 12.7 3.2 17.9 3.2c17.5 0 22.4 -12.1 23.8 -19.4c2.4 -12.6 18.8 -18.3 19 -18.3l3.8 -1.3l-4 -.8Zm-48.2 -8.6c-.7 -8.1 4.2 -16.5 8.7 -20.3c-1.2 12 1.6 15.5 4.3 18.9c2.1 2.6 4 5 4 11.4c-.2 .7 -.4 1.4 -.6 1.9c0 0 -.1 0 -.1 0c-.3 -.4 -.6 -.8 -1 -1.1c-.2 -.2 -.4 -.4 -.6 -.7c-.2 -.1 -.3 -.2 -.4 -.4c-.3 -.2 -.5 -.5 -.8 -.7c-.1 -.1 -.2 -.2 -.3 -.3c-.3 -.2 -.5 -.5 -.8 -.7c-.1 -.1 -.2 -.1 -.2 -.2c-.3 -.3 -.6 -.5 -.9 -.8c0 0 -.1 0 -.1 0c-1 -.8 -2 -1.5 -3 -2.2q0 -.1 -.1 -.1c-.2 -.2 -.5 -.4 -.7 -.5c-.2 -.1 -.3 -.2 -.5 -.3c-.2 -.1 -.4 -.3 -.6 -.4c-.2 -.1 -.4 -.3 -.6 -.4c-.2 -.1 -.3 -.2 -.5 -.3c-.3 -.2 -.6 -.3 -.9 -.5q-.1 -.1 -.2 -.1c-.4 -.3 -.8 -.5 -1.2 -.7c-.4 -.2 -.8 -.4 -1.2 -.6c-.1 -.1 -.2 -.1 -.3 -.2c-.3 -.1 -.5 -.3 -.8 -.4c-.1 -.1 -.3 -.2 -.4 -.2q-.1 -.1 -.2 -.1Zm27.3 28.6c-1.6 8.1 -6.6 17.7 -21.7 17.7c-5 0 -10.9 -1.1 -17.5 -3.2l-.2 -.1h-.2c-4.7 .5 -11.9 7.3 -14.1 9.5c-3.2 -2.2 -6.7 -11.4 -6.2 -15.5c7.7 -6.8 19.2 -9 23.6 -9c.5 0 1 .1 1.4 .1l9.7 1.6l-9.1 -3.6c-14 -5.7 -19 -24.9 -17.9 -41.7c5.8 8.6 13 12.1 20.6 15.8c.8 .4 1.6 .8 2.4 1.2l.4 .2c.5 .3 .9 .5 1.4 .7c.3 .2 .6 .3 .9 .5c.1 .1 .2 .1 .2 .1c.4 .2 .8 .4 1.1 .6c.1 0 .1 .1 .2 .1c.4 .2 .7 .4 1.1 .7q.1 0 .2 0c.3 .3 .7 .5 1.1 .7q.1 .1 .1 .1c.5 .3 .9 .5 1.3 .8c.4 .3 .8 .6 1.2 .8c.2 .2 .4 .3 .5 .4c.3 .2 .5 .3 .7 .5c.2 .2 .4 .3 .7 .5c.1 .1 .3 .3 .4 .4c.3 .2 .5 .4 .8 .6c.1 .1 .3 .2 .4 .4c.3 .2 .5 .4 .7 .6c.2 .1 .3 .3 .5 .4c.2 .2 .5 .5 .7 .7c.2 .2 .3 .3 .5 .5c.2 .2 .4 .4 .6 .6c.2 .3 .5 .5 .7 .7c.1 .2 .3 .4 .4 .6c.4 .4 .8 .8 1.2 1.3l1.4 1.8h.1l.3 -2.1l.1 -.2c0 0 .3 -1.6 1.1 -3.7l.1 -.2v-.1c1.7 -4.1 5.3 -9.7 13 -9.7c5 0 8.3 3.5 8.3 4.9c0 2.1 2.2 3.5 4.3 4.2c-5.2 2.4 -15.5 8.3 -17.5 18.8Z" class="g3_1"/>
<path d="M1044 2156.9l-17.6 -19.6c-.1 -.2 -.2 -.3 -.4 -.4c-.1 -.1 -.3 -.2 -.5 -.2c-.2 0 -.4 0 -.5 .1c-.2 0 -.4 .1 -.5 .2c-.4 .1 -.7 .3 -.9 .5c-.4 .5 -.8 .9 -1.3 1.2c-.5 .4 -.9 .6 -1.5 .7c-.7 .2 -1.5 .3 -2.3 .4c-.9 0 -1.8 0 -2.7 0c-1.4 -.1 -3 -.2 -4.5 -.4c-3.7 -.5 -7.4 -.6 -11.1 -.2l-2.6 .2c-2.2 .1 -4.5 .3 -6.2 .4c-1 0 -1.8 0 -2.4 0c-.6 0 -1.2 0 -1.7 -.1c-.9 0 -1.6 -.3 -2.3 -.9c-.9 -.9 -1.8 -2 -2.5 -3.1l-3.2 -4.7c-.2 -.2 -.3 -.4 -.5 -.5c-.4 -.2 -.8 -.2 -1.1 -.2c-.4 .1 -.8 .2 -1.1 .5l-22.4 15.6c-.1 .1 -.3 .3 -.4 .4c-.2 .2 -.3 .5 -.4 .7c-.1 .5 -.1 .9 .2 1.3c2.7 4.7 5.7 9.8 8.8 15.1c2.7 4.5 5.6 9.4 9.1 15.2c-.4 .5 -.6 1 -.8 1.5c-.2 .6 -.3 1.2 -.3 1.8c0 .5 0 1.1 .2 1.7c.1 .6 .3 1.1 .6 1.6c.3 .5 .6 1 1 1.4c.4 .4 .9 .8 1.4 1.1c.5 .3 1 .5 1.6 .7c.6 .1 1.1 .2 1.7 .2c.1 0 .2 0 .3 0c0 .1 0 .2 0 .3c0 .9 .2 1.7 .5 2.5c.3 .8 .8 1.5 1.4 2.1c.6 .6 1.3 1.1 2.1 1.4c.7 .3 1.5 .5 2.4 .5h.1c.1 0 .2 0 .3 0c0 .1 0 .2 0 .3c0 .9 .2 1.7 .5 2.5c.3 .8 .8 1.5 1.4 2.1l.1 .1c.6 .6 1.3 1 2 1.3c.8 .4 1.7 .5 2.5 .5c.1 0 .2 0 .3 0c0 .1 0 .2 0 .3c0 .9 .2 1.7 .5 2.4c.3 .8 .7 1.5 1.3 2.1l.1 .1c.3 .3 .6 .6 1 .8c.3 .2 .7 .4 1.1 .6c.3 .2 .7 .3 1.1 .4c.4 .1 .8 .1 1.3 .1c.4 0 .8 0 1.2 -.1c.4 0 .8 -.1 1.2 -.3c.4 -.1 .8 -.3 1.1 -.5c.4 -.2 .7 -.5 1 -.8c0 .1 .1 .1 .1 .2c.3 .3 .6 .5 1 .8c.3 .2 .7 .4 1.1 .6c.4 .1 .8 .2 1.2 .3c.4 .1 .8 .2 1.2 .2c.4 0 .9 -.1 1.3 -.1c.4 -.1 .8 -.2 1.2 -.4c.4 -.1 .8 -.3 1.1 -.6c.4 -.2 .7 -.4 1 -.7l.1 -.2c.6 -.6 1.1 -1.3 1.4 -2.1c.3 -.8 .5 -1.6 .5 -2.4v-.2c0 0 0 -.1 0 -.1v-.1c.1 .1 .2 .1 .3 .1c.4 0 .8 -.1 1.3 -.2c.4 0 .8 -.2 1.2 -.3c.4 -.2 .8 -.4 1.1 -.6c.4 -.3 .7 -.5 1 -.8c.3 -.3 .6 -.7 .8 -1c.2 -.4 .4 -.8 .6 -1.1c.2 -.4 .3 -.9 .4 -1.3c.1 -.4 .1 -.8 .1 -1.2c0 -.1 0 -.2 0 -.4c.1 .1 .2 .1 .3 .1c.4 0 .8 -.1 1.3 -.2c.4 0 .8 -.2 1.2 -.3c.4 -.2 .8 -.4 1.1 -.6c.4 -.3 .7 -.5 1 -.8c.3 -.3 .6 -.7 .8 -1c.2 -.4 .4 -.8 .6 -1.2c.2 -.3 .3 -.8 .4 -1.2c.1 -.4 .1 -.8 .1 -1.2c0 -.1 0 -.3 0 -.4c.1 0 .2 .1 .3 .1h.1c.3 -.1 .6 -.1 .9 -.1c.3 -.1 .5 -.1 .8 -.2c.3 -.1 .5 -.2 .8 -.3c.3 -.1 .5 -.2 .8 -.4c.2 -.1 .4 -.3 .6 -.4c.3 -.2 .5 -.4 .7 -.6c.2 -.2 .4 -.4 .5 -.6c.2 -.3 .3 -.5 .5 -.8c.1 -.2 .2 -.5 .3 -.7c.1 -.3 .2 -.5 .3 -.8c.1 -.3 .1 -.6 .2 -.8c0 -.3 0 -.6 0 -.9c0 -.3 0 -.5 -.1 -.8c0 -.3 -.1 -.6 -.1 -.9c-.1 -.2 -.2 -.5 -.3 -.7c-.1 -.3 -.2 -.6 -.4 -.8c2.2 -3.6 4.1 -6.9 5.8 -9.7c1.8 -3 3.8 -6.4 5.9 -10c.1 -.2 .2 -.3 .2 -.5c.3 -.9 .1 -1.7 -.3 -2.6Zm-64.9 27.9v0c-.3 .3 -.7 .5 -1 .7c-.4 .1 -.8 .2 -1.2 .2c-.4 0 -.8 -.1 -1.2 -.2c-.4 -.2 -.7 -.4 -1 -.7c-.3 -.3 -.5 -.6 -.7 -1c-.1 -.4 -.2 -.8 -.2 -1.2c0 -.4 .1 -.8 .2 -1.2c.2 -.4 .4 -.7 .7 -1l7.4 -7.4c.3 -.3 .7 -.5 1 -.7c.4 -.1 .8 -.2 1.2 -.2c.4 0 .8 .1 1.2 .3c.4 .1 .7 .3 1 .6c.3 .3 .5 .6 .7 1c.1 .4 .2 .8 .2 1.2c0 .4 -.1 .8 -.2 1.2c-.2 .4 -.4 .7 -.7 1l-7.4 7.4Zm6.8 6.8c-.6 .6 -1.3 .9 -2.2 .9h-.1c-.8 0 -1.5 -.3 -2.1 -.9c-.3 -.3 -.5 -.6 -.7 -1c-.1 -.4 -.2 -.8 -.2 -1.2c0 -.4 .1 -.8 .2 -1.2c.2 -.4 .4 -.7 .7 -1l7.4 -7.4l.1 -.1c.6 -.5 1.3 -.8 2.1 -.8h.1c.8 0 1.5 .3 2.1 .9l.1 .1c.5 .6 .8 1.3 .8 2.1v.1c0 .8 -.3 1.5 -.9 2.1l-7.4 7.4Zm6.8 6.8c-.3 .3 -.6 .5 -1 .7c-.4 .1 -.8 .2 -1.2 .2c-.4 0 -.8 -.1 -1.2 -.2c-.4 -.2 -.7 -.4 -1 -.7l-.1 .1l.1 -.1c-.3 -.3 -.5 -.6 -.7 -1c-.1 -.4 -.2 -.8 -.2 -1.2c0 -.4 .1 -.8 .2 -1.2c.2 -.4 .4 -.7 .7 -1l7.3 -7.2c.2 -.3 .6 -.5 1 -.7c.3 -.1 .7 -.2 1.1 -.2c.4 0 .8 0 1.2 .2c.4 .2 .7 .4 1 .7h.1c.2 .3 .5 .6 .6 1c.2 .4 .3 .8 .3 1.2c0 .4 -.1 .8 -.3 1.2c-.1 .4 -.4 .7 -.7 1l-7.2 7.2Zm6.8 6.8c-.3 .3 -.6 .5 -1 .7c-.4 .1 -.8 .2 -1.2 .2c-.4 0 -.8 -.1 -1.2 -.2c-.4 -.2 -.7 -.4 -1 -.7v-.1c-.3 -.2 -.5 -.6 -.7 -1c-.1 -.3 -.2 -.7 -.2 -1.1c0 -.4 .1 -.8 .3 -1.2c.1 -.4 .3 -.7 .6 -1l7.3 -7.2c.2 -.3 .6 -.5 1 -.7c.3 -.1 .7 -.2 1.2 -.2c.4 0 .8 .1 1.1 .2c.4 .2 .8 .4 1 .7c.3 .3 .6 .6 .7 1c.2 .4 .3 .8 .3 1.2c0 .4 -.1 .8 -.3 1.2c-.1 .4 -.4 .7 -.7 1l-7.2 7.2Zm10 -1.8c0 .8 -.3 1.5 -.9 2.2h-.1c-.3 .3 -.6 .5 -1 .6c-.4 .2 -.7 .3 -1.2 .3c-.4 -.1 -.7 -.1 -1.1 -.3c-.4 -.1 -.7 -.4 -1 -.6c0 -.1 -.1 -.1 -.1 -.1l4.4 -4.5c0 .1 .1 .1 .1 .2h.1c.5 .6 .8 1.2 .8 2v.2Zm19.5 -18.3c-.6 .6 -1.2 .9 -2 1h-.2c-.8 0 -1.6 -.3 -2.2 -.9l-12.8 -12.9c-.2 -.2 -.4 -.3 -.6 -.4c-.2 -.1 -.4 -.1 -.6 -.1c-.3 0 -.5 .1 -.7 .1c-.2 .1 -.4 .3 -.5 .4c-.2 .2 -.3 .3 -.4 .6c-.1 .2 -.1 .4 -.1 .6c0 .2 0 .4 .1 .6c.1 .2 .2 .4 .3 .6l12.9 12.8c.3 .3 .5 .7 .7 1c.1 .4 .2 .8 .2 1.2c0 .4 -.1 .8 -.2 1.2c-.2 .4 -.4 .7 -.6 1h-.1c-.3 .3 -.6 .6 -1 .7c-.4 .2 -.8 .2 -1.2 .2c-.4 0 -.8 0 -1.2 -.2c-.4 -.1 -.7 -.4 -1 -.7L1005 2179.1c-.2 -.2 -.4 -.3 -.6 -.4c-.2 -.1 -.4 -.1 -.7 -.1c-.2 0 -.4 0 -.6 .1c-.2 .1 -.4 .2 -.6 .4c-.1 .1 -.2 .3 -.3 .5c-.1 .2 -.2 .5 -.2 .7c0 .2 .1 .4 .2 .6c.1 .2 .2 .4 .3 .6l12.9 12.9c.3 .2 .5 .6 .7 1c.1 .3 .2 .7 .2 1.1c0 .4 -.1 .8 -.3 1.2c-.1 .4 -.3 .7 -.6 1c-.3 .3 -.6 .5 -1 .7c-.4 .1 -.8 .2 -1.2 .2c-.4 0 -.8 0 -1.2 -.2c-.4 -.1 -.7 -.4 -1 -.7c-.1 -.1 -.3 -.2 -.5 -.3c.3 -.6 .4 -1.2 .5 -1.9c.1 -.6 .1 -1.2 0 -1.9c-.2 -.6 -.4 -1.2 -.7 -1.8c-.3 -.6 -.6 -1.1 -1.1 -1.6c-.6 -.6 -1.3 -1.1 -2.1 -1.4c-.8 -.4 -1.7 -.5 -2.5 -.5c-.1 0 -.2 0 -.4 0c.1 -.1 .1 -.2 .1 -.3c-.1 -1 -.3 -1.9 -.6 -2.8c-.4 -.7 -.8 -1.4 -1.3 -2c-1.3 -1.3 -2.8 -2.1 -4.5 -2.4c0 -.9 -.2 -1.7 -.5 -2.5c-.3 -.7 -.8 -1.4 -1.3 -2c-.7 -.7 -1.5 -1.3 -2.4 -1.7c-.9 -.3 -1.8 -.5 -2.8 -.5c0 -1.1 -.3 -2 -.8 -3c-.3 -.5 -.7 -1.1 -1.2 -1.5c-.3 -.3 -.6 -.6 -.9 -.8c-.4 -.3 -.8 -.5 -1.2 -.6c-.4 -.2 -.8 -.3 -1.2 -.4c-.4 -.1 -.8 -.1 -1.3 -.1c-.4 0 -.8 0 -1.2 .1c-.4 .1 -.9 .2 -1.3 .4c-.3 .1 -.7 .3 -1.1 .6c-.3 .2 -.7 .5 -1 .8l-5.8 5.9c-3.2 -5.2 -5.9 -9.9 -8.5 -14.3c-2.8 -4.8 -5.6 -9.4 -8.1 -13.8l20.2 -14l.5 .8l1.7 2.4c.9 1.4 1.9 2.7 3.1 3.8c1.2 1 2.5 1.6 4 1.7c.7 .1 1.4 .1 2.2 .1c.6 0 1.4 0 2.5 0c.3 0 .5 -.1 .8 -.1l-6.7 6.7c-.3 .3 -.5 .6 -.8 1c-.2 .4 -.4 .7 -.6 1.1c-.1 .4 -.3 .8 -.3 1.2c-.1 .4 -.2 .9 -.2 1.3c0 .4 .1 .8 .2 1.3c0 .4 .2 .8 .3 1.2c.2 .4 .4 .7 .6 1.1c.2 .4 .5 .7 .8 1c.3 .3 .7 .6 1 .8c.4 .2 .7 .4 1.1 .6c.4 .2 .8 .3 1.2 .4c.4 .1 .8 .1 1.3 .1c.4 0 .8 0 1.2 -.1c.4 -.1 .8 -.2 1.2 -.3c.4 -.2 .8 -.4 1.1 -.6c.4 -.2 .7 -.5 1 -.8l6.4 -6.3l27.9 27.9c.3 .3 .5 .7 .7 1.1c.1 .3 .2 .7 .2 1.1c0 .5 -.1 .9 -.2 1.2c-.2 .4 -.4 .8 -.7 1Zm6.3 -16.9c-1.9 3.2 -3.6 6.1 -5.2 8.8l-27.8 -27.8c-.2 -.2 -.4 -.3 -.6 -.4c-.2 -.1 -.4 -.1 -.6 -.1c-.3 0 -.5 0 -.7 .1c-.2 .1 -.4 .2 -.6 .4l-7.4 7.5c-.3 .2 -.7 .5 -1 .6c-.4 .1 -.8 .2 -1.2 .2c-.4 0 -.8 -.1 -1.2 -.3c-.4 -.1 -.7 -.4 -1 -.7c-.2 -.3 -.5 -.6 -.6 -1c-.2 -.3 -.2 -.7 -.2 -1.1c0 -.4 0 -.8 .2 -1.2c.1 -.4 .4 -.7 .6 -1l7.4 -7.4c3.7 -3.2 10 -2.6 15.5 -2h.1c1.6 .1 3.2 .3 4.6 .4c1.1 0 2.1 0 3.1 0c1 -.1 2 -.2 2.9 -.5c1 -.2 1.8 -.6 2.6 -1.2c.3 -.2 .6 -.4 .9 -.7l15.9 17.9c-1.6 2.7 -3.5 5.9 -5.7 9.5Z" class="g3_1"/>
<path clip-path="url(#ck_1)" d="M552.9 1994.2c.8 0 1.5 -.1 2.2 -.2c.7 -.1 1.4 -.3 2.1 -.6c.7 -.3 1.3 -.6 2 -1c.6 -.4 1.1 -.9 1.7 -1.4c.5 -.5 1 -1 1.4 -1.6c.4 -.6 .8 -1.2 1.1 -1.9c.3 -.7 .5 -1.3 .7 -2.1c.2 -.7 .3 -1.4 .3 -2.1c.1 -.8 0 -1.5 -.1 -2.3c-.1 -.7 -.3 -1.4 -.6 -2.1c-.3 -.7 -.6 -1.4 -1 -2c-.4 -.7 -.8 -1.3 -1.4 -1.8c-.5 -.6 -1 -1 -1.7 -1.5c-.6 -.4 -1.2 -.8 -1.9 -1.1c-.7 -.3 -1.4 -.5 -2.1 -.7c-.8 -.1 -1.5 -.2 -2.3 -.2c-.7 -.1 -1.5 0 -2.2 .1c-.7 .2 -1.5 .4 -2.2 .7c-.7 .2 -1.3 .6 -1.9 1c-.7 .4 -1.3 .9 -1.8 1.4c-.5 .5 -1 1.1 -1.4 1.7c-.5 .6 -.8 1.3 -1.1 2c-.3 .7 -.5 1.4 -.7 2.1c-.1 .8 -.2 1.5 -.2 2.3c0 .7 .1 1.4 .2 2.2c.2 .7 .4 1.4 .7 2.1c.2 .6 .6 1.3 1 1.9c.4 .6 .8 1.2 1.4 1.7c.5 .5 1 1 1.6 1.4c.7 .4 1.3 .8 2 1.1c.6 .2 1.3 .5 2.1 .6c.7 .2 1.4 .3 2.1 .3Zm.4 -18.8c.5 0 1 0 1.5 .1c.4 .1 .9 .3 1.4 .5c.4 .2 .8 .4 1.2 .7c.4 .3 .8 .6 1.2 1c.3 .3 .6 .7 .9 1.1c.2 .4 .5 .9 .6 1.3c.2 .5 .4 1 .4 1.4c.1 .5 .2 1 .2 1.5c0 .5 -.1 1 -.2 1.5c-.1 .4 -.3 .9 -.4 1.4c-.2 .4 -.5 .8 -.8 1.3c-.2 .4 -.5 .7 -.9 1.1c-.4 .3 -.7 .6 -1.1 .9c-.5 .3 -.9 .5 -1.3 .7c-.5 .2 -1 .3 -1.5 .4c-.4 .1 -.9 .1 -1.4 .1c-.5 0 -1 0 -1.5 -.1c-.5 -.1 -.9 -.3 -1.4 -.5c-.4 -.2 -.9 -.4 -1.3 -.7c-.4 -.2 -.8 -.6 -1.1 -.9c-.4 -.4 -.7 -.7 -.9 -1.1c-.3 -.4 -.5 -.9 -.7 -1.3c-.2 -.5 -.4 -1 -.5 -1.4c0 -.5 -.1 -1 -.1 -1.5c0 -.5 .1 -1 .2 -1.5c0 -.5 .2 -1 .4 -1.4c.2 -.5 .4 -.9 .7 -1.3c.3 -.5 .6 -.8 1 -1.2c.3 -.3 .7 -.7 1.1 -.9c.5 -.3 .9 -.5 1.4 -.7c.4 -.2 .9 -.3 1.4 -.4c.5 -.1 1 -.1 1.5 -.1Zm41.5 22c-.2 -.3 -.4 -.5 -.7 -.6c-.3 -.2 -.6 -.2 -.9 -.2H582.7c-.3 0 -.5 0 -.7 .1c-.3 .1 -.5 .2 -.6 .4c-.2 .2 -.3 .4 -.4 .6c-.1 .3 -.2 .5 -.2 .7c0 .3 .1 .5 .2 .8c.1 .2 .2 .4 .4 .6c.1 .1 .3 .3 .6 .4c.2 .1 .4 .1 .7 .1h7.1c-6 6 -11.9 11.9 -17.8 17.8v-8.9c-.1 -.7 -.1 -1.5 -.3 -2.2c-.1 -.7 -.3 -1.4 -.6 -2.1c-.3 -.7 -.7 -1.3 -1.1 -1.9c-.4 -.6 -.8 -1.2 -1.4 -1.7c-.5 -.5 -1 -1 -1.6 -1.4c-.7 -.4 -1.3 -.8 -2 -1c-.7 -.3 -1.4 -.5 -2.1 -.7c-.7 -.1 -1.4 -.2 -2.2 -.2c-5.1 0 -10.2 0 -15.3 0c-.6 0 -1.3 0 -1.9 .2c-.6 .1 -1.2 .2 -1.8 .5c-.6 .2 -1.2 .5 -1.8 .8c-.5 .3 -1 .7 -1.5 1.1c-.5 .4 -1 .8 -1.4 1.3c-.4 .5 -.8 1 -1.1 1.6c-.3 .5 -.6 1.1 -.8 1.7c-.3 .6 -.4 1.2 -.6 1.8c-.2 1.8 -.2 3.5 -.2 5.3c0 .2 0 .4 0 .6c0 0 -.1 0 -.1 0v6.5c0 .3 .1 .6 .1 .9c0 1.1 0 11 0 15h-.1v3.6l-8 8c-.2 .1 -.3 .3 -.4 .6c-.1 .2 -.1 .4 -.1 .7c0 .2 0 .5 .1 .7c.1 .2 .2 .4 .4 .6c.2 .2 .4 .3 .6 .4c.3 .1 .5 .2 .7 .2c.3 0 .5 -.1 .8 -.2c.2 -.1 .4 -.2 .6 -.4l10.4 -10.4l3.8 -3.8L553.4 2025l6.3 6.4c.2 .2 .4 .3 .6 .4c.1 .1 .1 .2 .2 .3c.1 .1 .2 .2 .3 .3c.2 .1 .3 .2 .4 .2c.1 .1 .3 .1 .4 .1c.2 0 .3 0 .5 0c.1 0 .2 0 .4 0c.1 -.1 .2 -.2 .4 -.2c.1 -.1 .2 -.2 .3 -.3l5 -5c1.2 -1.2 2.5 -2.5 3.8 -3.8c6.6 -6.6 13.3 -13.3 19.9 -19.9v7.1c0 .3 0 .5 .1 .7c.1 .3 .3 .5 .4 .6c.2 .2 .4 .3 .7 .4c.2 .1 .4 .2 .7 .2c.2 0 .5 -.1 .7 -.2c.2 -.1 .4 -.2 .6 -.4c.2 -.1 .3 -.3 .4 -.6c.1 -.2 .1 -.4 .1 -.7V1999c0 -.3 0 -.6 -.2 -.9c-.2 -.3 -.4 -.5 -.6 -.7Zm-32.9 30.8c-2.3 -2.2 -4.5 -4.4 -6.7 -6.6c-.1 -.2 -.1 -.3 -.2 -.4c-.1 -.2 -.2 -.3 -.3 -.4c-.2 -.1 -.3 -.2 -.4 -.2c-.2 -.1 -.3 -.2 -.5 -.2c-.1 0 -.3 0 -.4 0c-.2 0 -.3 0 -.5 .1c-.1 0 -.2 .1 -.4 .1c-.1 .1 -.2 .2 -.3 .3L538 2035c0 -6 0 -21.2 0 -25.7c0 -.5 .1 -1 .2 -1.5c.1 -.4 .2 -.9 .4 -1.4c.2 -.5 .4 -.9 .7 -1.3c.3 -.4 .6 -.8 1 -1.2c.3 -.3 .7 -.6 1.1 -.9c.4 -.3 .9 -.5 1.3 -.7c.5 -.2 1 -.3 1.5 -.4c.5 -.1 1 -.2 1.5 -.2c4.6 0 9.3 0 13.9 0c.9 0 1.8 .1 2.7 .2c.4 .1 .8 .2 1.2 .4c.4 .2 .8 .4 1.2 .6c.3 .2 .7 .5 1 .8c.3 .2 .6 .6 .9 .9c.2 .3 .5 .7 .7 1.1c.2 .3 .3 .7 .5 1.1c.1 .4 .2 .9 .3 1.3c0 .4 .1 .8 .1 1.3c0 2.2 0 7.3 0 12.5l-6.3 6.3Z" class="g3_1"/>
<path d="M636.1 1562.8h49.8" class="g2_1"/>
<path d="M230.5 2423.8l221.3 -1.4" class="g4_1"/>
<path clip-path="url(#cl_1)" d="M291.3 2290.8h95.9v81.6H291.3v-81.6Z" class="g1_1"/>
<path d="M365.8 2353.5c-5.6 0 -10.7 -2.1 -14.6 -6L338.9 2335l-12.4 12.5c-3.9 3.9 -9 6 -14.6 6c-5.5 0 -10.7 -2.1 -14.5 -6c-3.9 -3.9 -6.1 -9.1 -6.1 -14.7c0 -5.5 2.2 -10.7 6.1 -14.6c3.8 -3.9 9 -6 14.5 -6c5.6 0 10.7 2.1 14.6 6l12.4 12.4l12.3 -12.4c3.9 -3.9 9 -6 14.6 -6c5.5 0 10.7 2.1 14.6 6c3.8 3.9 6 9.1 6 14.6c0 5.6 -2.2 10.8 -6 14.7c-3.9 3.9 -9.1 6 -14.6 6ZM341 2332.8l12.4 12.5c3.3 3.3 7.7 5.1 12.4 5.1c4.7 0 9.1 -1.8 12.4 -5.1c3.3 -3.3 5.1 -7.7 5.1 -12.5c0 -4.7 -1.8 -9.1 -5.1 -12.4c-3.3 -3.3 -7.7 -5.1 -12.4 -5.1c-4.7 0 -9.1 1.8 -12.4 5.1L341 2332.8Zm-29.1 -17.5c-4.7 0 -9.1 1.8 -12.4 5.1c-3.2 3.3 -5.1 7.7 -5.1 12.4c0 4.8 1.9 9.2 5.1 12.5c3.3 3.3 7.7 5.1 12.4 5.1c4.7 0 9.1 -1.8 12.4 -5.1l12.4 -12.5l-12.4 -12.4c-3.3 -3.3 -7.7 -5.1 -12.4 -5.1Zm13.5 31.1v0Z" class="g6_1"/>
<path d="M778.3 1845.4H778c-.5 0 -.8 .3 -.8 .7v3h1.9v-3c0 -.4 -.3 -.7 -.8 -.7Z" class="g3_1"/>
<path d="M783.4 1845.4h-.3c-.4 0 -.8 .3 -.8 .7v3h1.9v-3c0 -.4 -.3 -.7 -.8 -.7Z" class="g3_1"/>
<path d="M780.7 1840.2c-7.4 0 -13.4 6 -13.4 13.4c0 3.6 1.4 7 3.9 9.5c1.5 1.5 3.3 2.6 5.3 3.3c.2 0 .3 .1 .4 .1c.6 0 1.1 -.4 1.3 -.9c.2 -.7 -.2 -1.4 -.9 -1.7c-1.6 -.5 -3.1 -1.4 -4.3 -2.6c-2 -2.1 -3.1 -4.8 -3.1 -7.7c0 -6 4.8 -10.8 10.8 -10.8c6 0 10.9 4.8 10.9 10.8c0 2.9 -1.2 5.6 -3.2 7.7c-.8 .7 -2.8 2.1 -3.9 2.1c-.6 0 -1.1 -.2 -1.4 -.6c-1 -1 -1.2 -3.1 -1.2 -4.6c2.3 -.1 4.1 -1.9 4.1 -4.2v-4H775.4v4c0 2.2 1.8 4.1 3.9 4.2c0 1.8 .3 4.6 1.8 6.3c.9 1 2 1.5 3.4 1.5c2.5 0 5.3 -2.5 5.6 -2.8h.1c2.5 -2.6 3.9 -6 3.9 -9.6c0 -7.4 -6 -13.4 -13.4 -13.4Z" class="g3_1"/>
<image clip-path="url(#cm_1)" preserveAspectRatio="none" x="232" y="2822" width="547" height="365" xlink:href="img/1.png"/>
<image clip-path="url(#cn_1)" preserveAspectRatio="none" x="231" y="3271" width="547" height="308" xlink:href="img/2.png"/>
<path d="M636.1 2635.8h49.8" class="g2_1"/>
<path clip-path="url(#co_1)" d="M-40.9 596.3H1374.9V722.4H-40.9V596.3Z" class="g1_1"/>
<path clip-path="url(#cp_1)" d="M-40.9 0h1416V596.3H-40.9V0Z" class="g6_1"/>
<image clip-path="url(#cq_1)" preserveAspectRatio="none" x="139" y="-111" width="1062" height="849" xlink:href="img/3.jpg"/>
<path d="M691.4 326.1c.4 -.7 .3 -1.3 1.5 -2c.6 -.4 1.1 -.6 1.7 -1.5c.7 -1.1 .9 -1.4 1.8 -1.7c.8 -.4 .3 -.2 -.3 .4c-.3 .4 -.3 .1 -1.1 1.5c-1 1.5 -1.9 1.3 -2.8 2.4c0 0 -.7 .8 -.8 .9Z" class="g3_1"/>
<path d="M688.4 327.7c.5 -1 1 -1 1.6 -1.5c.9 -.6 1 -1.4 1.7 -2.1c.6 -.7 1.4 -.8 2 -1.5c.6 -.7 .6 -1.2 1.3 -1.9c.9 -.7 1.4 -.6 2.1 -1.5c.3 -.5 .4 -1 1.3 -1.5c-.8 1 -.6 1.9 -2.3 2.8c-2 1.2 -1.2 2 -3.1 3.1c-1.9 1.1 -1.3 1.7 -2.5 2.8c-.5 .4 -1.6 .9 -2.1 1.3Z" class="g3_1"/>
<path d="M687.3 328.2c.4 -1 .2 -.9 .6 -1.4c.4 -.5 1 -.7 1.4 -1c.7 -.4 .9 -.8 1.3 -1.5c1 -1.7 2 -1.2 3 -2.8c.3 -.5 .5 -1.1 1.3 -1.6c.6 -.4 1.1 -.5 1.6 -1.2c.6 -.8 .7 -1.5 1.8 -2c.8 -.3 .5 -.2 .1 .2c-.8 .7 -1.1 1.2 -1.3 1.5c-.8 1.5 -1.6 1.4 -2.3 2.1c-.6 .6 -.7 1.1 -1.2 1.7c-.6 .7 -1.2 .9 -1.7 1.3c-.7 .4 -.9 1 -1.2 1.5c-.9 1.4 -1.8 1.2 -2.6 2.2c-1.3 1.5 -.6 .7 -.8 1Z" class="g3_1"/>
<path d="M685.8 328.6c.7 -.7 1 -1.7 1.7 -2.5c.7 -.6 1.3 -.7 1.9 -1.4c.6 -.6 .7 -1.2 1.5 -1.9c.6 -.5 1.2 -.6 1.8 -1.4c.5 -.6 .6 -1.3 1.5 -1.9c.6 -.5 1.3 -.6 1.8 -1.4c.4 -.6 .6 -1.3 1.6 -1.9c.8 -.6 .9 -.4 1.5 -.9c-.2 .4 -.6 .8 -.8 .9c-2.3 1.3 -1 1.9 -3.4 3.3c-.9 .5 -1.1 .9 -1.5 1.7c-.6 1 -1.1 1.2 -1.8 1.6c-.9 .5 -1.1 1.1 -1.5 1.7c-.6 1 -1.3 1.2 -1.9 1.6c-1.4 .9 -.8 1.8 -2.4 2.5Z" class="g3_1"/>
<path d="M683.9 328.9c1 -1.3 1.3 -.5 2.4 -2.4c.6 -1 1 -1.2 1.9 -1.7c.9 -.6 1 -1.1 1.5 -1.7c.7 -1.2 1.5 -1.2 2.1 -1.8c.8 -.7 .8 -1.5 1.7 -2.2c.7 -.6 1.5 -.7 2.1 -1.7c.3 -.5 .6 -1.2 1.4 -1.7c.6 -.4 1.1 -.5 1.7 -1.3c.2 -.2 .7 -.8 .8 -1c-.4 .8 -.3 1.4 -1.7 2.3c-2.3 1.3 -1 1.9 -3.5 3.3c-1.1 .7 -1.2 1.3 -1.7 2c-.7 1 -1.5 1.1 -2.2 1.8c-.7 .7 -.7 1.4 -1.7 2.2c-.6 .3 -1.2 .5 -1.7 1.2c-.6 .8 -.7 1.7 -2.4 2.4c-.3 .1 -.5 .2 -.7 .3Z" class="g3_1"/>
<g clip-path="url(#cr_1)">
<path d="M682.9 329c.6 -1.4 1.3 -1.1 2.2 -2c.7 -.7 .7 -1.3 1.6 -2.1c.5 -.5 1.1 -.6 1.5 -1.1c.8 -.7 .8 -1.5 1.9 -2.3c.6 -.4 1.2 -.6 1.7 -1.3c.6 -.9 .5 -1.3 2.1 -2.2c1.6 -.9 1.2 -1.9 2.5 -2.8c.6 -.4 1.2 -.5 1.7 -1.3c.5 -.6 .5 -1.1 1.5 -1.7c-.4 .4 -.4 .6 -.8 1.3c-1.1 1.9 -1.8 1.4 -2.7 2.5c-.4 .5 -.5 1 -1.1 1.6c-.5 .6 -1 .7 -1.5 1.1c-1.1 .7 -1 1.5 -1.9 2.3c-.6 .6 -1.2 .7 -1.8 1.3c-.6 .6 -.7 1.4 -1.6 2.1c-.6 .4 -1.1 .5 -1.5 1c-.8 .8 -.8 1.6 -2 2.4c-.3 .1 -1.3 .7 -1.8 1.2Z" class="g3_1"/>
<path d="M682 329.1c.4 -.8 .4 -1.3 1.5 -1.9c.6 -.4 .9 -.5 1.3 -1.1c.5 -.6 .7 -1.2 1.4 -1.8c.7 -.5 1.2 -.6 1.8 -1.4c.4 -.5 .5 -.9 1.1 -1.5c.7 -.7 1.1 -.7 1.7 -1.2c.9 -.8 .8 -1.7 2.1 -2.5c.4 -.2 .8 -.4 1.2 -.8c.5 -.5 .6 -.9 .9 -1.3c.8 -1.2 1.7 -1.1 2.5 -2.1c.9 -1.1 .6 -1.6 2.2 -2.2c-1.2 1 -1.4 1.7 -1.9 2.4c-.9 1.1 -1.7 .9 -2.5 2.1c-.2 .4 -.4 .9 -.9 1.3c-.4 .5 -.9 .7 -1.3 1c-1.2 .7 -1.1 1.5 -2 2.4c-.6 .5 -1.1 .6 -1.8 1.2c-.5 .5 -.6 .9 -1 1.5c-.6 .8 -1.2 .9 -1.9 1.4c-.6 .5 -.8 1.1 -1.2 1.7c-.5 .7 -.9 .9 -1.5 1.2c-.6 .4 -1 .8 -1.7 1.6Z" class="g3_1"/>
<path d="M681.1 329.1c.5 -.7 .4 -1.3 1.3 -2.1c.8 -.6 1.4 -.6 2 -1.6c.3 -.4 .6 -1.1 1.2 -1.6c.5 -.4 .7 -.4 1.2 -.7c1.1 -.8 1 -1.7 2 -2.5c.6 -.5 1.3 -.6 1.7 -1.2c.5 -.6 .7 -1.3 1.4 -1.9c.4 -.3 .8 -.5 1.3 -.8c.8 -.6 .9 -1.2 1.4 -1.9c.9 -1.1 1.7 -.9 2.5 -2c.4 -.6 .5 -1.2 1.5 -1.9c.1 -.1 .7 -.2 1 -.4c0 0 -.8 .7 -.8 .7c-.9 .6 -1 1.2 -1.4 1.8c-.8 1.2 -1.7 1.1 -2.5 2c-.4 .6 -.5 1.1 -1.2 1.8c-.5 .4 -.9 .5 -1.4 .9c-.7 .5 -.8 1 -1.2 1.6c-1 1.5 -1.8 .8 -3 2.8c-.6 1.1 -1.1 1.3 -1.8 1.7c-1 .6 -1.2 1.3 -1.6 1.9c-.7 1 -1.3 1 -2 1.6c-.7 .5 -.8 1.1 -1.6 1.8Z" class="g3_1"/>
<path d="M680.1 329c.7 -.7 .8 -1.6 1.7 -2.4c.5 -.4 .7 -.5 1.2 -.8c.9 -.6 1 -1.3 1.6 -2c.7 -.9 1.4 -.9 2.1 -1.6c.7 -.7 .7 -1.6 1.9 -2.4c.6 -.3 .9 -.4 1.4 -.9c.5 -.6 .5 -.9 1 -1.5c.7 -.9 1.3 -.9 2.1 -1.6c.7 -.8 .7 -1.6 1.9 -2.3c.9 -.6 1.2 -.6 1.9 -1.7c1 -1.8 1.7 -1.5 2.7 -2.3c-.9 1.4 -1.4 .7 -2.4 2.5c-.6 1.1 -.9 1.2 -2 1.8c-1.1 .7 -1.1 1.5 -1.9 2.3c-.8 .9 -1.5 .7 -2.3 1.9c-.3 .5 -.4 .8 -.9 1.3c-.6 .6 -1 .7 -1.6 1.1c-1 .9 -.8 1.6 -1.9 2.4c-.9 .6 -1.3 .5 -2.2 2c-.9 1.5 -1.6 1.3 -2.5 2.2c-.8 .8 -.6 1.4 -1.8 2Z" class="g3_1"/>
</g>
<path d="M678.9 328.9q.5 -.4 .7 -.7c.1 -.1 .3 -.3 .5 -.6c.4 -.5 .5 -.9 1.1 -1.5c.6 -.5 1 -.6 1.5 -1c.8 -.7 .8 -1.2 1.4 -1.9c.5 -.6 1 -.8 1.5 -1.1c.8 -.5 1 -1.1 1.4 -1.7c.7 -1.1 1.5 -1.2 2.2 -1.8c.7 -.6 .7 -1.2 1.5 -2c.7 -.7 1.4 -.8 2 -1.5c.7 -.7 .5 -1.4 2.1 -2.4c1.7 -.9 1.3 -1.5 2.4 -2.6c.7 -.6 1.6 -.9 2.3 -1.6c-.5 1.1 -.9 1.1 -1.6 1.6c-1.2 .7 -1.1 1.6 -2.1 2.4c-.7 .7 -1.4 .7 -2.1 1.7c-.2 .3 -.4 .8 -.7 1.2c-.7 .8 -1.4 .9 -2.1 1.5c-.7 .8 -.7 1.4 -1.5 2c-.6 .6 -1.3 .7 -1.8 1.4c-.5 .6 -.7 1.2 -1.4 1.8c-.5 .5 -1 .6 -1.5 1.1c-.7 .6 -.8 1.1 -1.4 1.8c-.5 .6 -1 .8 -1.5 1.1c-.8 .5 -1 1.2 -1.4 1.7c-.4 .7 -.7 .8 -1.5 1.1Z" class="g3_1"/>
<path d="M690.9 315.7c.2 -.2 .6 -.4 .7 -.6c.1 0 .1 -.1 .1 -.1c.9 -.7 .9 -1.4 1.6 -2.1c.8 -.8 1.6 -.7 2.3 -1.9c.3 -.4 .4 -.7 .8 -1.2c1 -1 1.1 -.3 2.9 -2.4c-.4 .9 -.3 1 -.7 1.3c-.7 .7 -1.4 .7 -2.1 1.6c-.5 .7 -.6 1.4 -1.7 2.1c-.4 .2 -.8 .4 -1.2 .8c-.7 .7 -1 1.9 -1.9 2.2c-.4 .2 -.5 .2 -.8 .3Z" class="g3_1"/>
<path d="M677.8 328.7c.9 -.9 1.2 -.8 1.9 -1.7c.4 -.7 .6 -1.3 1.8 -2c1 -.6 1.1 -.8 1.7 -1.8c1 -1.6 2 -1.3 3.1 -2.7c-.7 2 -1.7 1 -3 3.2c-.8 1.4 -1.5 1.4 -2.2 2c-.7 .6 -.8 1.1 -1.2 1.6c-.4 .6 -.9 1 -1.1 1c-.1 .1 -.6 .2 -1 .4Z" class="g3_1"/>
<path d="M691.4 314.6c.5 -.7 .5 -1.1 1.1 -1.9c.7 -1 1.5 -1 2.2 -1.8c.7 -.6 .7 -1.4 1.9 -2.2c.5 -.3 1.1 -.5 1.7 -1.4c.2 -.3 .5 -.7 .8 -.9c-.1 .1 -.2 .3 -.3 .6c-.5 1.3 -1.4 1.6 -2 2.1c-1.1 .6 -1.1 1.4 -1.8 2.1c-.7 .9 -1.5 .8 -2.2 1.7c-.4 .6 -.5 1.1 -1.4 1.7Z" class="g3_1"/>
<path d="M676.9 328.5c.7 -1.1 1.3 -.9 2 -1.7c.5 -.6 .6 -1.4 1.7 -2.1c.7 -.5 1.2 -.6 1.9 -1.7c.7 -1.3 1 -1.3 2 -1.7c-2.3 2 -1.4 2.3 -3.1 3.4c-2.2 1.3 -1.3 2.1 -3.3 3.2c-.5 .3 -.7 .2 -1.2 .6Z" class="g3_1"/>
<path d="M691.8 312.7c.4 -.9 .7 -1.1 1.3 -1.5c1.6 -.9 1.3 -1.3 2.1 -2.2c.7 -.9 1.4 -1 2 -1.6c.8 -.7 .6 -1.2 1.7 -1.9c-.4 .5 -.4 .8 -.6 1.1c-.6 1.1 -.9 1.2 -1.9 1.8c-1 .6 -1.2 1.2 -1.6 1.9c-.8 1.2 -2 1.2 -3 2.4Z" class="g3_1"/>
<path d="M676.1 328.3c.8 -1.5 1.6 -1 2.5 -2.4c.4 -.6 .6 -1.2 1.6 -1.8c.6 -.4 1.1 -.6 1.7 -1.5c0 -.1 .5 -.6 .8 -.9c-.4 .7 -.2 .9 -.8 1.6c-.7 .8 -1.4 .9 -2 1.4c-.9 .9 -.7 1.7 -2.3 2.7c-1.1 .6 -1.2 .6 -1.5 .9Z" class="g3_1"/>
<path d="M692 311.4c.2 -.4 .7 -.8 .9 -.9c.9 -.5 1 -.9 1.5 -1.7c.6 -1 1.2 -1.2 1.8 -1.6c1.4 -.9 .9 -1.8 2.5 -2.5c-.4 .3 -.5 .5 -1 1.5c-.6 1 -1 1.2 -1.8 1.7c-.9 .5 -1.1 1 -1.5 1.7c-.4 .6 -1.1 1.1 -1.5 1.3c0 0 -.5 .2 -.9 .5Z" class="g3_1"/>
<path d="M675.4 328.1c.7 -1.7 1.5 -1.2 2.4 -2.4c.5 -.5 .6 -1.2 1.3 -1.8c.9 -.7 1.2 -.4 2.6 -2.1c-.5 1.4 -.5 1.2 -1.9 2.1c-.8 .5 -1 1 -1.3 1.6c-.6 1 -1.2 1.2 -1.8 1.5c-.4 .3 -.4 .4 -.6 .4c-.2 .2 -.4 .3 -.7 .7Z" class="g3_1"/>
<path d="M691.9 310.4c.2 -.1 .6 -.4 .7 -.5q.1 -.1 .2 -.2c.7 -.6 .8 -1.2 1.3 -1.8c.7 -.8 1.3 -1 1.9 -1.4c1.2 -1 .7 -1.8 2.4 -2.5c-.9 .7 -1.2 1.7 -1.7 2.3c-.6 .8 -1.3 .9 -1.9 1.4c-.7 .6 -.8 1.2 -1.3 1.8c-.5 .7 -.7 .6 -1.6 .9Z" class="g3_1"/>
<path d="M674.7 327.8c.3 -.8 .4 -1 .9 -1.4c.6 -.4 1.2 -.6 1.7 -1.2c.5 -.6 .6 -1.2 1.3 -1.8c.7 -.6 1.6 -.9 2.3 -1.6c-.6 1.3 -1.2 1.2 -2 1.8c-.7 .6 -.8 1.2 -1.3 1.8c-.9 1.1 -1.5 .7 -2.9 2.4Z" class="g3_1"/>
<path d="M691.9 309.6c1.4 -1.1 1.2 -2.1 2.5 -3c.6 -.4 1.2 -.5 1.7 -1.3c.8 -1.2 .6 -1.4 2 -2c-.2 .2 -.5 .5 -.7 .7c-.1 .2 -.2 .2 -.4 .5c-.2 .3 -.4 .7 -.6 1c-.6 .9 -1.3 1.1 -1.8 1.4c-1.4 1 -.8 2 -2.7 2.7Z" class="g3_1"/>
<path d="M674 327.6c.3 -.8 .3 -1.2 1.2 -1.8c.8 -.5 1.3 -.6 1.9 -1.7c1.2 -2 1.8 -1.6 2.9 -2.4c-.7 1.1 -1.2 .9 -1.9 1.7c-.5 .5 -.6 1.1 -1.3 1.8c-.7 .7 -1.4 .7 -2.1 1.6c-.8 .9 -.1 .1 -.7 .8Z" class="g3_1"/>
<path d="M691.8 308.8c.5 -.5 .6 -1.1 1.1 -1.8c.6 -.8 1.3 -1.1 1.8 -1.4c1.2 -.8 1 -1.7 2.1 -2.5c.1 -.1 1 -.4 1 -.4c0 0 -.9 .7 -1.1 1c-.6 .7 -.7 1.5 -1.8 2.2c-.5 .4 -1.1 .6 -1.6 1.3c-.5 .6 -.5 1.1 -1.5 1.6Z" class="g3_1"/>
<path d="M673.3 327.3c.4 -.7 .3 -1.4 1.5 -2.1c.5 -.4 1.1 -.6 1.6 -1.2c.3 -.5 .5 -1.2 1.2 -1.7c.6 -.5 .6 -.3 1.4 -.7c-.3 .3 -1.2 1 -1.2 1c-.6 .5 -.7 1 -1.1 1.6c-.5 .7 -1.1 1 -1.7 1.3c-.8 .5 -.8 .9 -1.7 1.8Z" class="g3_1"/>
<path d="M691.6 308c.5 -.7 .3 -1 1.1 -1.9c.6 -.7 1.2 -.8 1.7 -1.2c1 -.8 1 -2.1 2.4 -2.6c1 -.4 .9 -.5 .1 .2c-.5 .5 -.8 .6 -1.2 1.3c-1.3 2.3 -2.1 1.5 -3 3c-.2 .2 -.5 .7 -1.1 1.2Z" class="g3_1"/>
<path d="M672.7 326.9c.4 -.7 .2 -.7 .6 -1.3c.8 -1.1 1.5 -1.1 2.3 -1.9c.5 -.5 1 -1.7 1.5 -2c.3 -.1 .2 -.1 1 -.4c-1.9 1.5 -1.4 2 -2.5 2.9c-.7 .7 -1.4 .7 -2.1 1.8c-.1 .1 -.5 .6 -.8 .9Z" class="g3_1"/>
<path d="M691.3 307.1c.4 -.7 .3 -1.1 1.1 -1.8c.6 -.5 1.2 -.6 1.7 -1.2c.6 -.5 .7 -1.1 1.2 -1.7c.8 -.8 1.1 -.7 1.9 -1.1c-.5 .5 -1.2 1 -1.2 1c-.7 .6 -.8 1.1 -1.2 1.7c-.9 1.2 -1.9 1.1 -2.6 2.1c-.2 .3 -.6 .8 -.9 1Z" class="g3_1"/>
<path d="M672 326.6c.4 -.6 .3 -.8 .6 -1.3c.7 -1.2 1.5 -1.3 2.2 -1.9c1.1 -.8 .7 -1.7 2.3 -2.4c-.9 .8 -1.2 2 -2 2.7c-.8 .7 -1.5 .7 -2.2 1.8c-.3 .5 -.6 .8 -.9 1.1Z" class="g3_1"/>
<path d="M691 306.3c.4 -.8 .3 -1 .9 -1.5c1 -.9 1.3 -.4 2.4 -2.3c.9 -1.4 1.8 -1.4 2.5 -1.8c-.8 1 -1.4 .8 -2.1 2c-1.4 2.3 -1.6 1.3 -3.2 3c-.1 .2 -.3 .4 -.5 .6Z" class="g3_1"/>
<path d="M671.3 326.2c.5 -.7 .3 -.8 .9 -1.7c.7 -1 1.6 -1.1 2.2 -1.7c.8 -.8 .6 -1.4 1.9 -2.1c-.4 .4 -.4 .6 -.8 1.2c-1.1 1.9 -1.5 1.4 -2.5 2.3c-.9 .9 -.6 1.2 -1.7 2Z" class="g3_1"/>
<path d="M690.6 305.5c.4 -1.1 .5 -1.2 1.7 -1.9c1.5 -.9 1.2 -1.7 2.3 -2.6c.8 -.6 1.1 -.5 1.8 -1c-.4 .6 -.9 .8 -1.2 1c-.9 .6 -1 1.3 -1.5 1.9c-.9 1.3 -1.6 .9 -3.1 2.6Z" class="g3_1"/>
<path d="M670.6 325.8c.5 -.5 .4 -.6 1 -1.6c.9 -1.5 1.8 -1.2 2.7 -2.4c.3 -.4 .4 -.9 1.2 -1.4c-.5 .6 -.3 .7 -.9 1.6c-.7 1.1 -1.5 1.1 -2.3 1.9c-.7 .6 -.6 1.3 -1.7 1.9Z" class="g3_1"/>
<path d="M690.2 304.8c.5 -1.2 .8 -1.2 1.7 -1.8c1.2 -.7 1.1 -1.4 1.9 -2.3c.8 -.8 1.4 -.8 2.1 -1.3c-.5 .8 -1 1 -1.5 1.3c-1 .8 -.8 1.8 -2.2 2.6c-.3 .2 -1.3 .7 -2 1.5Z" class="g3_1"/>
<path d="M670 325.3c.3 -.3 .3 -.4 .9 -1.5c.9 -1.6 1.8 -1.3 2.7 -2.3c.4 -.4 .4 -.9 1.2 -1.5c-.4 .7 -.3 1 -.9 1.7c-.7 .8 -1.2 .8 -2 1.5c-.9 .8 -.6 1.5 -1.9 2.1Z" class="g3_1"/>
<path d="M689.8 304.2c.3 -1 .6 -1.2 1.3 -1.5c2 -1.2 1.1 -2.1 3.1 -3.2c.6 -.3 .6 -.2 1.1 -.6c.1 -.1 .4 -.3 -.1 .3c-.5 .6 -.7 .6 -1.2 .9c-.9 .6 -1 1.3 -1.5 1.9c-.5 .7 -1.1 .9 -1.6 1.2c-.2 .1 -.3 .3 -.4 .3c-.3 .2 -.5 .4 -.7 .7Z" class="g3_1"/>
<path d="M669.3 324.9c.7 -.7 1 -1.7 1.5 -2.3c.6 -.7 1.4 -.8 1.9 -1.3c.5 -.4 .8 -1.1 1.5 -1.7c-.4 .6 -.4 1.3 -1.2 2c-.6 .5 -1.3 .7 -1.9 1.3c-.6 .7 -.5 1.4 -1.8 2Z" class="g3_1"/>
<path d="M689.3 303.6c.7 -1.8 1.7 -1.1 2.7 -2.8c.2 -.3 .4 -.8 .9 -1.2c.7 -.8 1.4 -.8 2.1 -1.4c-.7 1.1 -1.2 1 -1.9 1.6c-.4 .4 -.6 .9 -.8 1.2c-.9 1.6 -2 1.4 -3 2.6Z" class="g3_1"/>
<path d="M668.7 324.4c.3 -.3 .5 -.5 .6 -.7c0 0 .2 -.3 .4 -.7c1.3 -2.2 2 -1.4 3 -2.9c.1 -.1 .6 -.7 .8 -.9c-.2 .4 -.3 .9 -.4 1.1c-.7 1 -1.3 1.1 -2 1.6c-1.2 .8 -.8 1.8 -2.4 2.5Z" class="g3_1"/>
<path d="M688.7 303c.4 -.9 .8 -1.1 1.4 -1.5c1.3 -.7 1.3 -1.3 1.9 -2.1c.7 -1 1.9 -1.2 2.4 -1.7c-.4 .8 -.9 1 -1 1.1c-1.9 1.1 -1.1 2 -3.1 3.1c-.4 .2 -1.1 .6 -1.6 1.1Z" class="g3_1"/>
<path d="M668 323.9c1.2 -.9 1.3 -2 2.3 -2.8c.6 -.5 1.2 -.6 1.8 -1.3c.1 -.2 .7 -.9 .8 -1c-.2 .5 -.3 .9 -.5 1.2c-.7 .8 -1.3 1 -1.9 1.4c-1.1 .9 -.8 1.9 -2.5 2.5Z" class="g3_1"/>
<path d="M688.2 302.6c.3 -1 .7 -1.2 1.3 -1.5c2 -1.2 1.1 -2 3.1 -3.2c.7 -.4 .7 -.2 1.3 -.7c-.9 1.3 -1.4 .9 -2.2 2c-.4 .5 -.5 1 -1.1 1.6c-.7 .6 -1.7 .9 -2.4 1.8Z" class="g3_1"/>
<path d="M667.4 323.5c.6 -.5 1 -1 1.4 -1.8c.7 -1.2 1.3 -1.3 2 -1.8c.7 -.4 1.1 -1.1 1.5 -1.6c-.2 .7 -.2 .9 -.5 1.3c-.6 .7 -1.3 .9 -1.9 1.3c-1.1 1 -.7 1.9 -2.5 2.6Z" class="g3_1"/>
<path d="M687.6 302.1c.5 -1.2 .9 -1.2 1.7 -1.8c1.4 -.9 1 -1.9 2.7 -2.9c.6 -.3 .8 -.2 1.3 -.7c-.3 .5 -.6 .8 -1.1 1.1c-1 .6 -1.1 1 -1.6 1.7c-.8 1.5 -1.9 1.3 -3 2.6Z" class="g3_1"/>
<path d="M666.8 323c1 -.8 1.4 -1.8 1.6 -2.1c.9 -1.3 1.5 -.9 2.8 -2.3c.6 -.7 .8 -1.3 .2 .2c-.1 .2 -.4 .5 -.6 .7c-.6 .5 -1.1 .5 -1.7 1.2c-.9 .9 -.5 1.6 -2.3 2.3Z" class="g3_1"/>
<path d="M687 301.7c.3 -.8 .5 -1 .8 -1.3c.7 -.5 1.3 -.6 1.9 -1.5c.4 -.6 .7 -1.6 2.2 -2.2c.4 -.1 .6 -.3 .8 -.4c-.7 1 -1.1 .8 -1.9 1.6c-.6 .7 -.6 1.6 -1.9 2.3c-.5 .3 -.7 .4 -1.1 .8c-.2 .1 -.3 0 -.8 .7Z" class="g3_1"/>
<path d="M666.3 322.5c1.2 -1.1 1.2 -1.8 1.9 -2.6c.9 -.9 1.3 -.6 2.4 -1.8c.2 -.2 .4 -.5 .6 -.7c-.4 1 -.3 .9 -.7 1.3c-.6 .7 -1.2 .7 -1.8 1.3c-.6 .6 -.7 1.2 -1.4 1.9c-.2 .2 -.8 .5 -1 .6Z" class="g3_1"/>
<path d="M686.3 301.4c.4 -.9 .4 -1 .7 -1.3c.8 -.7 1.5 -.7 2.1 -1.6c.4 -.5 .5 -1.1 1.2 -1.7c.8 -.7 1.1 -.5 1.8 -1c-.6 .9 -1 .9 -1.6 1.3c-.6 .6 -.7 1.1 -1.1 1.6c-.9 1.3 -1.4 .7 -3.1 2.7Z" class="g3_1"/>
<path d="M665.7 322c1.8 -1.5 1.2 -2.3 3 -3.4c.6 -.3 .8 -.4 1.9 -1.7c-.4 1.1 -.3 1 -.8 1.4c-.8 .8 -1.5 .8 -2.1 1.8c-.8 1.3 -.8 1.4 -2 1.9Z" class="g3_1"/>
<path d="M685.6 301.1c.4 -.8 .3 -1 1.1 -1.7c.4 -.4 .9 -.5 1.3 -.9c1.1 -.9 1 -2.1 2.7 -2.7c.2 -.1 .5 -.2 .7 -.4c-.3 .3 -.8 .8 -.9 .8c-1.3 .8 -1.1 1.7 -2.2 2.6c-.6 .5 -1.3 .7 -1.9 1.4c0 0 -.8 .9 -.8 .9Z" class="g3_1"/>
<path d="M665.1 321.5c1.2 -1 1.3 -1.5 1.7 -2.1c.7 -1.3 1.6 -1.2 2.4 -2c.4 -.4 .3 -.3 .9 -1q-.4 1 -.7 1.3c-.8 .8 -1.6 .7 -2.3 2c-.7 1.1 -.7 1.3 -2 1.8Z" class="g3_1"/>
<path d="M684.9 300.8c.3 -.4 .4 -.9 .4 -1c.7 -1.2 1.7 -1.3 2.4 -2c.8 -.8 .9 -1.9 2.3 -2.5c.9 -.3 .9 -.5 0 .3c-.7 .6 -.7 .5 -1.4 1.6c-1 1.7 -1.9 1.3 -2.8 2.6c-.2 .3 -.6 .8 -.9 1Z" class="g3_1"/>
<path d="M664.6 320.9c1.8 -1.5 1.4 -2.2 2.6 -3c.7 -.6 1 -.4 2.3 -2c-.2 .5 -.3 .9 -.6 1.3c-.7 .6 -1.2 .7 -1.8 1.3c-.5 .4 -.7 1 -1.2 1.7c-.4 .4 -.7 .5 -1.3 .7Z" class="g3_1"/>
<path d="M684.1 300.6c.5 -.7 .6 -1.8 1.9 -2.6c.4 -.2 .7 -.3 1.1 -.7c1 -.9 .8 -1.9 2.3 -2.4c.9 -.4 .5 -.3 -.2 .4c-.2 .2 -.5 .4 -.7 .8c-.2 .3 -.4 .6 -.6 .9c-.7 1 -1.4 1.1 -2.1 1.7c-.9 .8 -.6 1.2 -1.7 1.9Z" class="g3_1"/>
<path d="M664 320.4c1.9 -1.6 1.3 -2.1 2.6 -3c.8 -.6 1.2 -.5 2.4 -2c0 0 -.3 .9 -.5 1.1c-.6 .6 -1.1 .8 -1.7 1.2c-.9 .7 -1.1 1.9 -1.8 2.3c-.4 .2 -.8 .3 -1 .4Z" class="g3_1"/>
<path d="M683.1 300.4c.8 -.7 1 -1.8 2 -2.6c.6 -.5 1.1 -.6 1.7 -1.2c.5 -.6 .6 -1.2 1.3 -1.8c.4 -.2 .6 -.3 1 -.5c-1.6 1.3 -1.3 2.1 -2.4 2.9c-.6 .5 -1.2 .6 -1.7 1.3c-.7 .8 -.6 1.4 -1.9 1.9Z" class="g3_1"/>
<path d="M663.4 319.9c1.6 -1.3 1.4 -1.6 2 -2.4c.7 -1 1.3 -.8 2.4 -1.9c.6 -.5 .8 -1.1 .5 -.2c-.6 1.3 -1.5 1.2 -2.3 2.1c-.8 .8 -.8 1.7 -2.1 2.2c-.2 .1 -.3 .1 -.5 .2Z" class="g3_1"/>
<path d="M681.8 300.4c1.4 -1.2 1.3 -1 1.9 -2.1c.5 -.9 1 -1.1 1.7 -1.6c1.7 -1 1.1 -2 2.8 -2.7c-1.1 1 -1 2.1 -2.6 3.1c-.7 .4 -1.1 .6 -1.6 1.4c-.9 1.6 -1.1 1.4 -2.2 1.9Z" class="g3_1"/>
<path d="M662.9 319.4c2 -1.7 1.4 -2.2 2.6 -3.1c.8 -.5 1.2 -.5 2.4 -1.9c-.2 .4 -.3 .9 -.6 1.2c-.6 .6 -1.2 .7 -1.9 1.3c-1 1 -.5 1.7 -2.5 2.5Z" class="g3_1"/>
<path d="M680.6 300.4c.8 -1.2 1.4 -.9 2.2 -2c.4 -.6 .6 -1.3 1.5 -1.9c.6 -.4 1.2 -.5 1.8 -1.4c.2 -.3 .4 -.9 1.2 -1.4c-.5 .6 -.6 1.4 -1.3 2.1c-.7 .7 -1.3 .8 -1.9 1.4c-.7 .6 -.7 1.3 -1.4 1.9c-.8 .8 -1.4 .8 -2.1 1.3Z" class="g3_1"/>
<path d="M662.4 318.8c1.5 -1.2 1.3 -1.6 1.9 -2.3c.9 -1.2 1.6 -.9 2.8 -2.3c.3 -.4 .4 -.5 .1 .1c-.7 1.6 -1.8 1.1 -2.8 2.8c-.8 1.3 -.9 1.3 -2 1.7Z" class="g3_1"/>
<path d="M679.6 300.5c.6 -1.6 1.3 -1.3 2.2 -2.1c.7 -.7 .8 -1.3 1.5 -2c.7 -.7 1.3 -.7 2 -1.5c.2 -.2 .5 -.9 1.1 -1.4c-.4 .7 -.3 1.4 -1.3 2.1c-.7 .6 -1.3 .7 -1.9 1.5c-.4 .6 -.6 1.3 -1.6 2c-.3 .2 -1.3 .6 -2 1.4Z" class="g3_1"/>
<path d="M661.8 318.3c1.6 -1.3 1.4 -1.6 2 -2.3c.6 -1 1.3 -.9 2.4 -2c.6 -.5 .8 -1.1 .5 -.2c-.7 1.6 -1.9 1.1 -2.8 2.8c-.8 1.3 -.9 1.3 -2.1 1.7Z" class="g3_1"/>
<path d="M678.7 300.7c.2 -.5 .2 -.9 .5 -1.2c.7 -.9 1.4 -1 2 -1.6c.8 -.7 .8 -1.3 1.6 -2.1c.7 -.6 1.4 -.7 2 -1.5c.2 -.2 .1 -.1 .2 -.2c.7 -.7 .9 -1.4 .3 .2c-.1 .2 -.5 .6 -.7 .7c-.7 .6 -1.3 .7 -2 1.6c-.4 .6 -.6 1.3 -1.7 2c-.3 .2 -.7 .4 -1 .7c-.3 .2 -.8 1 -1.2 1.4Z" class="g3_1"/>
<path d="M661.3 317.8c1.2 -1.1 1.3 -1.4 1.7 -2c.9 -1.4 1.5 -1.2 2.7 -2.3c.6 -.5 .8 -1.1 .4 -.3c-.6 1.5 -1.6 1.2 -2.5 2.4c-.8 1.1 -.5 1.5 -2.3 2.2Z" class="g3_1"/>
<path d="M676.6 301.4c.2 -.2 .6 -.5 1.1 -1c.6 -.6 .6 -1.1 1.3 -1.8c.8 -.8 1.5 -.8 2.2 -1.8c.6 -.9 .5 -1.3 2.1 -2.2c.5 -.3 1 -.7 1.6 -1.4c-.4 .9 -.5 1.2 -1.4 1.7c-1.5 .9 -1.4 1.2 -2 2.1c-.9 1.3 -1.9 1.1 -2.7 2.4c-1 1.7 -.9 1.5 -2.2 2Z" class="g3_1"/>
<path d="M660.8 317.2c1.5 -1.2 1.4 -1.6 1.9 -2.3c.7 -1.1 1.7 -1 2.8 -2.2c.3 -.4 .4 -.6 .1 0c-.6 1.5 -1.7 1.3 -2.5 2.3c-.4 .6 -.6 1.1 -1.1 1.6c-.3 .3 -.7 .4 -1.2 .6Z" class="g3_1"/>
<path d="M674.7 302.3c.5 -1.2 .7 -1.2 1.7 -1.9c1.3 -.8 1.2 -1.6 2.1 -2.4c.7 -.6 1.2 -.7 1.7 -1.2c.5 -.4 .7 -.9 1 -1.4c.8 -1.3 2 -1.3 2.9 -2.3c-.8 1.8 -1.7 .9 -2.8 2.9c-1 1.7 -1.7 1.4 -2.6 2.4c-.4 .4 -.6 1 -1.1 1.5c-.9 1.1 -1.6 .9 -2.9 2.4Z" class="g3_1"/>
<path d="M660.2 316.7c1.9 -1.6 1.4 -1.8 2.3 -2.7c.8 -.8 1.4 -.6 2.7 -2.2c-.1 .3 -.3 .8 -.5 1.1c-.8 .7 -1.4 .8 -1.9 1.4c-.8 .8 -.8 1.7 -2.2 2.3c-.1 0 -.2 .1 -.4 .1Z" class="g3_1"/>
<path d="M671.2 304.7c.6 -1.6 1.3 -1.2 2.2 -2.2c.6 -.5 .7 -1.1 1.2 -1.7c.6 -.7 1.2 -.8 1.8 -1.3c1 -.8 .8 -1.6 2.1 -2.4c.7 -.5 1.2 -.6 1.9 -1.7c1 -1.8 1.7 -1.7 2.7 -2.3q.2 -.2 0 .1c-.8 1 -1.1 .7 -1.8 1.5c-.6 .7 -.7 1.5 -1.7 2.1c-.6 .4 -1.1 .6 -1.7 1.3c-.5 .6 -.6 1.4 -1.7 2.1c-.9 .5 -1.2 .6 -1.8 1.7c-1.1 1.8 -2.1 1.4 -3.2 2.8Z" class="g3_1"/>
<path d="M659.7 316.2c1.8 -1.5 1.4 -1.9 2.2 -2.7c.8 -.8 1.5 -.7 2.8 -2.2c-.2 .4 -.3 .9 -.7 1.2c-.8 .7 -1.5 .7 -2.3 1.9c-.8 1.4 -.9 1.4 -2 1.8Z" class="g3_1"/>
<path d="M651.2 323.8c.4 -1 .3 -1.2 1.8 -2.1c.9 -.5 1.1 -.9 1.5 -1.7c.7 -1 1.2 -1.2 1.9 -1.6c.9 -.6 1 -1.2 1.5 -1.8c.6 -1 1.3 -1.1 1.9 -1.6c.8 -.5 .9 -1.1 1.4 -1.8c.5 -.6 .9 -.8 1.5 -1.1c.9 -.6 1 -1.1 1.5 -1.8c.6 -1 1.3 -1.1 1.9 -1.6c.8 -.5 .9 -1.1 1.4 -1.8c.7 -.9 1.3 -1 2 -1.5c1 -.8 .8 -1.7 2.2 -2.6c.6 -.4 .9 -.5 1.4 -1c.5 -.7 .6 -1.3 1.5 -2c.6 -.4 1.2 -.5 1.8 -1.4c.4 -.6 .6 -1.3 1.6 -1.9c.7 -.4 1.2 -.6 1.8 -1.5c1 -1.9 1.3 -1.6 2.3 -2c0 0 -.9 .8 -.9 .8c-.7 .5 -.9 1.2 -1.3 1.7c-.7 1 -1.5 1 -2.2 1.7c-.6 .6 -.7 1.2 -1.2 1.7c-.7 .9 -1.5 .9 -2.2 1.7c-.4 .5 -.5 1 -1 1.6c-.8 .8 -1.3 .8 -1.9 1.3c-.5 .5 -.7 1.1 -1.1 1.5c-.9 1.3 -1.8 1.1 -2.7 2.4c-.2 .4 -.4 .8 -.7 1.2c-.8 .8 -1.5 .8 -2.2 1.7c-.4 .5 -.6 1.1 -1.2 1.7c-.7 .6 -1.2 .6 -1.9 1.3c-.4 .5 -.6 1 -1 1.6c-.8 .8 -1.5 .8 -2.2 1.6c-.5 .6 -.6 1.2 -1.2 1.8c-.8 .7 -1.5 .7 -2.2 1.6c-.4 .7 -.6 1.4 -1.8 2.1c-.7 .4 -.8 .5 -1.6 1.3c-.1 .2 -.3 .4 -.4 .5Z" class="g3_1"/>
<path d="M647.6 326.2c.6 -1.4 .7 -1.2 1.9 -2c1.4 -.9 1 -1.9 2.6 -2.8c1.5 -.9 1.4 -1.1 2 -2.1c.6 -.9 1.3 -1.1 1.8 -1.5c1.1 -.7 1 -1.4 1.8 -2.2c.4 -.4 1 -.7 1.3 -.9c.8 -.5 1 -1 1.3 -1.6c.7 -1.1 1.4 -1.2 2 -1.7c1.2 -.8 1 -1.7 2.2 -2.5c.8 -.6 1.3 -.6 2.1 -1.9c.8 -1.5 1.4 -1.5 2.2 -2c1.1 -.9 .9 -1.6 2.2 -2.6c.7 -.5 1.3 -.6 1.9 -1.6c.3 -.6 .6 -1.2 1.5 -1.7c.3 -.2 .8 -.5 1.2 -.8c.7 -.8 .7 -1.6 1.9 -2.3c.5 -.4 1.1 -.6 1.6 -1.4c.4 -.6 .5 -1.1 1.6 -1.6c-1 .9 -1 2.1 -2.4 2.9c-1.4 .9 -1.2 .7 -2 2c-.9 1.6 -1.9 1.1 -2.9 2.8c-1 1.7 -1.6 1.5 -2.5 2.2c-.8 .8 -.8 1.6 -1.8 2.4c-.9 .6 -1.4 .5 -2.2 1.9c-.8 1.4 -1.4 1.4 -2.2 2c-.7 .5 -.9 1.1 -1.3 1.7c-.9 1.3 -1.9 1 -2.7 2.4c-.4 .6 -.6 1.2 -1.5 1.8c-.3 .1 -.9 .4 -1.2 .8c-.7 .7 -.7 1.5 -1.9 2.3c-.5 .3 -1.2 .5 -1.7 1.3c-.6 1 -.5 1.2 -2.1 2.2c-1 .6 -1.1 1.2 -1.6 1.9c-.9 1.3 -1.7 .9 -3.1 2.6Z" class="g3_1"/>
<path d="M645.2 327.4c.3 -.2 .6 -.4 .7 -.6q.1 -.1 .2 -.1c.8 -.7 .8 -1.4 1.7 -2.2c.6 -.6 1.2 -.7 1.9 -1.5c.6 -.7 .6 -1.3 1.5 -1.9c.8 -.6 1.4 -.6 2 -1.7c.6 -1 .7 -1.3 1.9 -1.9c1.1 -.7 1.2 -1.2 1.7 -2c.8 -1.1 1.6 -1.1 2.4 -1.9c.5 -.7 .7 -1.4 1.5 -2c.7 -.6 1.4 -.6 2.1 -1.8c1.4 -2.4 2.1 -1.4 3.2 -3.3c1.3 -2.2 2.1 -1.3 3.2 -3.2c.4 -.7 .7 -1.1 1.7 -1.7c1.4 -.8 1.3 -1.3 1.9 -2.2c.9 -1.1 1.7 -.8 2.6 -2.2c.4 -.6 .6 -1.2 1.6 -1.8c1.8 -1.1 1 -.7 2.1 -2c.5 -.5 .3 -.3 .1 .1c-.1 .3 -.2 .6 -.2 .7c-.9 1.4 -1.8 1.2 -2.6 2.3c-.3 .3 -.5 .8 -.8 1.2c-.6 .7 -1 .9 -1.7 1.2c-.9 .7 -1 1.4 -1.6 2.1c-.8 1 -1.6 .9 -2.4 1.9c-.5 .7 -.6 1.4 -1.7 2.1c-.7 .4 -1.1 .5 -1.7 1.4c-.6 1.1 -.7 1.3 -1.9 2c-1.5 .9 -1.1 1.6 -2.3 2.6c-1.1 .8 -1.4 .5 -2.4 2.2c-.7 1.3 -1.5 1.3 -2.3 2c-.8 .8 -.8 1.6 -2 2.4c-.5 .4 -1.2 .6 -1.7 1.4c-.3 .4 -.4 .8 -.9 1.3c-.7 .7 -1.3 .7 -2 1.4c-.5 .6 -.6 1.3 -1.5 2.1c-.7 .5 -1.1 .5 -1.7 1.2c-.5 .6 -.6 1.1 -1.2 1.7c-.4 .4 -.5 .4 -1.4 .7Z" class="g3_1"/>
<path d="M643.5 328.1c.8 -2 1.8 -1 2.9 -3.1c1 -1.7 1.7 -1.4 2.6 -2.3c.6 -.6 .7 -1.3 1.4 -1.9c.7 -.7 1.3 -.7 2 -1.5c.2 -.3 .5 -.8 .7 -1.2c.6 -.8 1.3 -1 1.9 -1.5c1 -.7 1 -1.6 2 -2.4c.4 -.3 .8 -.5 1.1 -.7c1.4 -1 .8 -1.8 2.8 -2.9c1.4 -.8 1.2 -1.4 2 -2.3c.6 -.7 1.1 -.8 1.8 -1.3c.5 -.4 .7 -.9 1 -1.3c.8 -1.4 1.6 -1.3 2.4 -2.1c.6 -.6 .6 -1.2 1.4 -1.9c.4 -.4 .9 -.6 1.3 -.9c1.1 -.7 1 -1.5 1.9 -2.3c.7 -.7 1.3 -.7 2 -1.5c.3 -.5 .4 -.8 .7 -1.2c.9 -1.2 1.8 -1 3 -2.5c-.1 .4 -.3 .9 -.6 1.1c-.8 .7 -1.4 .8 -2 1.6c-.4 .5 -.7 1.3 -1.4 1.8c-.5 .4 -.9 .5 -1.4 .9c-.7 .7 -.8 1.3 -1.4 1.9c-.6 .7 -1.3 .8 -1.8 1.3c-.7 .7 -.7 1.3 -1.4 2c-.7 .7 -1.4 .7 -1.9 1.4c-.6 .6 -.7 1.2 -1.4 1.9c-.7 .6 -1.4 .6 -2.1 1.6c-.4 .5 -.6 1.1 -1.2 1.6c-.6 .6 -1.2 .7 -1.8 1.4c-.6 .6 -.6 1.3 -1.5 2c-.4 .2 -.7 .3 -1 .5c-1.3 .9 -1 1.8 -2.3 2.7c-.6 .4 -1.2 .6 -1.7 1.3c-.3 .4 -.5 .9 -.8 1.3c-.8 .8 -1.4 .9 -2 1.5c-.7 .6 -.8 1.2 -1.4 1.8c-1 1 -1.6 .7 -2.5 2.3c-.8 1.3 -1.3 1.4 -2.1 1.9c-.2 .2 -.3 .2 -.4 .3c-.3 .2 -.5 .4 -.8 .7Z" class="g3_1"/>
<path d="M642.5 328.4c.4 -.8 .2 -.9 .7 -1.5c.7 -.8 1.3 -.9 1.9 -1.4c.7 -.5 .8 -1.2 1.4 -1.8c.6 -.8 1.3 -.9 1.9 -1.4c.6 -.6 .7 -1.2 1.2 -1.8c.5 -.6 1 -.7 1.5 -1c1 -.7 1 -1.3 1.6 -2.1c.8 -1 1.5 -.9 2.3 -1.7c.6 -.8 .6 -1.6 2 -2.3c1.6 -1 1.3 -1.2 2 -2.2c.8 -1.1 1.7 -1.1 2.4 -2c.3 -.3 .4 -.7 .7 -1.1c.8 -1.3 1.9 -1 2.8 -2.5c.3 -.5 .5 -1.1 1.2 -1.6c.8 -.5 1.4 -.5 2 -1.7c1.1 -1.8 1.7 -1.5 2.6 -2.4c.6 -.5 .7 -1.2 1.4 -1.9c.6 -.6 1.4 -.8 1.9 -1.3c.9 -.9 .5 -1.5 2.4 -2.6c.1 -.1 .5 -.2 1 -.6c-.3 .4 -.7 .8 -.8 .9c-1.2 .7 -1.2 .8 -1.9 1.9c-.7 1.3 -1.6 1.2 -2.3 2c-.8 .8 -.8 1.6 -2.1 2.4c-1 .7 -1.2 .6 -1.8 1.8c-.9 1.4 -1.6 1.4 -2.4 2.1c-.6 .6 -.7 1 -1.1 1.6c-.8 1.1 -1.7 1 -2.4 1.9c-.5 .7 -.6 1.3 -1.5 1.9c-.7 .6 -1.3 .6 -2 1.7c-.3 .5 -.4 .8 -.8 1.2c-1.1 1.1 -1.5 .5 -2.6 2.4c-.9 1.5 -1.8 1.3 -2.7 2.4c-.5 .7 -.6 1.4 -1.7 2.1c-.6 .3 -.9 .4 -1.4 1c-.4 .5 -.6 1.1 -1.3 1.8c-.6 .6 -1.2 .6 -1.8 1.3c-.6 .6 -.7 1.3 -1.4 1.9c-.5 .4 -1 .6 -1.4 .9c-.6 .4 -.7 1 -1.5 1.7Z" class="g3_1"/>
<path d="M640.9 328.7c1.2 -1 1.3 -2.1 2.5 -2.9c.6 -.4 1.2 -.6 1.7 -1.4c.3 -.4 .5 -.9 .9 -1.3c.7 -.8 1.3 -.8 2 -1.5c.6 -.8 .6 -1.2 1.3 -1.9c.4 -.3 .9 -.6 1.2 -.8c1.2 -.7 1.1 -1.5 1.9 -2.3c.7 -.6 1.3 -.7 1.9 -1.3c.7 -.8 .7 -1.6 2 -2.4c.5 -.3 .8 -.4 1.3 -.9c.4 -.5 .5 -.8 .7 -1.2c.8 -1.2 1.7 -1.1 2.4 -2c.6 -.5 .7 -1.2 1.4 -1.8c.8 -.8 1.5 -.7 2.3 -2c.4 -.6 .6 -1 1.2 -1.5c.6 -.4 1 -.5 1.4 -1c.7 -.6 .6 -1 1.2 -1.6c.8 -1 1.5 -.8 2.3 -1.9c.4 -.5 .4 -.7 .7 -1.1c.8 -1.1 1.6 -1 2.4 -1.9c.5 -.7 .5 -1.2 1.5 -1.8c-.4 .5 -.4 .7 -.8 1.3c-.8 1.5 -1.5 1.5 -2.3 2.1c-.7 .6 -.8 1.2 -1.3 1.8c-.7 .8 -1.3 .9 -1.9 1.4c-.6 .6 -.8 1.2 -1.2 1.7c-.7 .8 -1.3 1 -1.9 1.4c-.7 .6 -.8 1.3 -1.5 2c-.8 .9 -1.6 .8 -2.3 1.9c-.4 .5 -.6 1.3 -1.5 1.8c-.5 .4 -.8 .4 -1.3 .9c-.7 .7 -.7 1.2 -1.3 1.8c-.6 .7 -1.3 .8 -1.9 1.4c-.7 .7 -.7 1.6 -2 2.4c-.5 .3 -1.1 .5 -1.6 1.4c-.3 .4 -.5 .9 -.9 1.3c-.7 .6 -1.4 .8 -1.9 1.3c-.6 .6 -.6 1.1 -1.3 1.8c-.4 .5 -1 .7 -1.4 1c-1.1 .7 -1 1.5 -1.9 2.3c-.6 .6 -1.3 .7 -1.9 1.4c-.8 .9 -.5 1.6 -2.1 2.1Z" class="g3_1"/>
<path d="M639.3 329c.8 -1.2 1.4 -.8 2.2 -2c.2 -.5 .4 -.9 .8 -1.3c.5 -.5 .9 -.7 1.3 -.9c1.2 -.8 1.1 -1.6 2 -2.4c.6 -.6 1.3 -.7 1.8 -1.3c.7 -.7 .7 -1.4 1.7 -2.1c.7 -.6 1.3 -.7 2 -1.7c.6 -1 .7 -1.3 1.9 -2c1.1 -.6 1.2 -1.1 1.7 -1.9c.8 -1.2 1.6 -1.1 2.4 -2c.5 -.6 .6 -1.2 1.4 -1.9c.7 -.6 1.4 -.6 2.2 -1.9c.7 -1.2 .9 -1.3 1.9 -1.9c.9 -.5 1.1 -.9 1.5 -1.6c.5 -.9 .9 -1.1 1.8 -1.6c1 -.6 1.1 -1.3 1.6 -2c.8 -1.1 1.7 -1 2.4 -1.9c.6 -.7 .6 -1.4 1.7 -2.1c.4 -.2 .7 -.4 1 -.6c.2 -.1 .3 -.3 .3 -.3c.1 -.1 .3 -.1 .8 -.8c-.1 .3 -.3 .9 -.6 1.1c-.7 .8 -1.4 .8 -2.1 1.6c-.4 .6 -.5 1.3 -1.4 1.9c-.8 .6 -1.3 .5 -2.2 2c-1.1 2 -1.9 1.1 -3.2 3.2c-.5 .9 -.9 1.2 -1.7 1.6c-1.8 1.1 -.9 1.9 -3.2 3.3c-1.6 .8 -1.2 1.8 -2.6 2.8c-1 .6 -1.2 .4 -2.1 2c-.6 .9 -1.1 1.2 -1.8 1.6c-1.2 .7 -1.1 1.5 -1.9 2.2c-.6 .7 -1.3 .9 -1.9 1.4c-.7 .6 -.7 1.4 -1.6 2.1c-.7 .6 -1.4 .7 -2 1.7c-.3 .4 -.5 .8 -.9 1.3c-.4 .4 -.9 .6 -1.3 .9c-1.6 .9 -.8 1.8 -2.9 3c-.2 .1 -.5 .1 -1 .5Z" class="g3_1"/>
<g clip-path="url(#cr_1)">
<path d="M638.2 329.1c.7 -1.7 1.7 -1.2 2.6 -2.5c.6 -.8 .5 -1.4 2 -2.2c1.3 -.7 1.3 -1.4 1.9 -2.1c.6 -.8 1.3 -1 1.8 -1.4c.7 -.5 .9 -1.1 1.3 -1.7c.9 -1.3 1.9 -1 2.7 -2.4c.2 -.4 .4 -.8 .9 -1.2c.4 -.5 .8 -.7 1.2 -.9c1.4 -.8 1.1 -1.8 2.4 -2.7c.7 -.5 1.2 -.6 1.8 -1.5c.3 -.4 .5 -1 1.3 -1.6c.6 -.5 1.2 -.6 1.7 -1.3c.6 -.7 .6 -1.4 2 -2.2c1.4 -.8 1.3 -1.2 1.9 -2.1c.7 -1.1 1.6 -1.1 2.3 -1.8c.7 -.8 .7 -1.6 1.9 -2.3c.9 -.7 1.1 -.5 2 -2c.3 -.4 .7 -.7 1.1 -1c-.6 .7 -.9 1.7 -1.7 2.5c-.7 .7 -1.5 .7 -2.2 1.8c-.3 .5 -.5 1.1 -1.4 1.7c-1 .6 -1.2 .5 -2.1 2c-.7 1.3 -1.5 1.3 -2.2 1.9c-1.1 .9 -.7 1.7 -2.5 2.7c-1.9 1.1 -1.2 2.1 -3 3.1c-1.5 .9 -1.3 1.1 -2 2.1c-.8 1.3 -1.8 1.1 -2.7 2.4c-.2 .4 -.3 .7 -.8 1.2c-.6 .7 -1.2 .8 -1.8 1.3c-.7 .6 -.8 1.2 -1.3 1.8c-.6 .7 -1.2 .8 -1.8 1.3c-.9 .7 -.9 1.6 -1.8 2.3c-.8 .6 -1.4 .6 -2.2 1.9c-.9 1.5 -1.3 1.4 -2.1 2c-.8 .5 -.9 .7 -1.2 .9Z" class="g3_1"/>
<path d="M637.4 329.1c.3 -.8 .4 -1.2 1.3 -1.8c.5 -.4 1.1 -.5 1.7 -1.4c.2 -.4 .5 -1 1.2 -1.6c.7 -.5 1.4 -.6 2.1 -1.7c1.5 -2.6 2 -1.2 3.3 -3.6c.8 -1.3 1.5 -1.3 2.2 -1.9c.9 -.6 .9 -1.4 1.7 -2.2c.8 -.7 1.5 -.7 2.2 -1.7c.4 -.6 .6 -1.3 1.7 -1.9c.6 -.4 .9 -.5 1.4 -1.1c.3 -.5 .4 -.8 .7 -1.1c.7 -1.1 1.5 -1.1 2.2 -1.8c.6 -.6 .7 -1.2 1.2 -1.8c.6 -.6 1.3 -.7 1.8 -1.2c.8 -.7 .8 -1.5 1.7 -2.2c.8 -.6 1.4 -.7 2.1 -1.8q.8 -1.2 2.1 -2c.5 -.3 .7 -.4 1.1 -.8c-.5 1 -1 1.1 -1.5 1.5c-1.1 .6 -1.1 1.4 -1.8 2.1c-.7 .9 -1.5 .8 -2.2 1.7c-.5 .7 -.6 1.3 -1.6 2c-.6 .4 -1.1 .6 -1.6 1.3c-.5 .6 -.6 1.3 -1.6 1.9c-.8 .6 -1.2 .6 -2 1.9c-.9 1.7 -1.8 1.4 -2.6 2.3c-.6 .7 -.7 1.5 -1.8 2.3c-1 .6 -1.2 .5 -2 1.8c-.8 1.3 -1.4 1.4 -2.2 1.9c-.9 .7 -.9 1.5 -1.7 2.2c-.3 .4 -.9 .7 -1.2 .8c-1.3 .8 -1.1 1.8 -2.3 2.7c-.7 .5 -1.3 .5 -2 1.8c-1 1.7 -1.7 1.5 -2.5 2.3c-.5 .4 -.1 0 -.4 .3q-.1 .1 -.2 .3c-.2 .1 -.3 .3 -.5 .5Z" class="g3_1"/>
</g>
<path d="M654.5 310.8c1.8 -1.5 1.3 -2.1 2.5 -3c.8 -.6 1.2 -.5 2.4 -1.9c-.2 .4 -.3 .9 -.6 1.2c-.6 .6 -1.2 .7 -1.8 1.3c-.5 .5 -.6 .9 -1 1.4c-.5 .6 -.7 .7 -1.5 1Z" class="g3_1"/>
<path clip-path="url(#cr_1)" d="M636.5 329.1c.5 -.7 .2 -.9 .9 -1.7c.8 -.9 1.5 -.8 2.2 -1.7c.6 -.7 .6 -1.5 1.9 -2.2c1.2 -.7 1.1 -.7 1.9 -1.9c.4 -.7 .8 -1 1.5 -1.4c1.2 -.7 .9 -.8 2 -1.9c-.4 .9 -.3 1.3 -1.9 2.2c-1.8 1.1 -1.1 2 -2.9 3.1c-.7 .4 -1.1 .6 -1.6 1.5c-1.3 2.3 -2.1 1.4 -3.1 3c-.2 .4 -.6 .8 -.9 1Z" class="g3_1"/>
<path d="M653.9 310.3c1.7 -1.3 1.4 -1.8 2.3 -2.7c.8 -.9 1.3 -.6 2.7 -2.2c-.4 .9 -.5 1 -.8 1.3c-.4 .3 -.9 .6 -1.3 .9c-.6 .4 -.8 .7 -1.1 1.3c-.6 1 -.9 1.1 -1.8 1.4Z" class="g3_1"/>
<path clip-path="url(#cr_1)" d="M635.4 329.1c.3 -.4 .5 -.6 .9 -1.3c.9 -1.7 1.6 -1.6 2.3 -2.2c.8 -.5 .9 -1.2 1.4 -1.8c.5 -.7 1.1 -.9 1.8 -1.3c1.2 -1 .7 -1.7 2.2 -2.4c-1 .9 -.8 2 -2.5 3c-.8 .5 -1.1 .7 -1.6 1.6c-.9 1.5 -1.6 1.4 -2.4 2.1c-1 .9 -.7 1.6 -2.1 2.3Z" class="g3_1"/>
<path d="M653.4 309.8c.2 -.2 .5 -.4 .6 -.6q.1 -.1 .2 -.2c.6 -.5 .7 -1 1.1 -1.6c.9 -1.2 1.4 -.6 3.1 -2.6c-.3 .7 -.4 1.1 -1 1.5c-.6 .5 -1.2 .6 -1.8 1.4c-.3 .5 -.5 1 -1 1.4c-.3 .4 -.7 .5 -1.2 .7Z" class="g3_1"/>
<path d="M634.2 328.9c1.4 -1.1 1.4 -1.5 1.8 -2.1c.8 -1.2 1.6 -1.2 2.3 -1.9c.8 -.7 .8 -1.5 1.8 -2.3c.6 -.4 1.3 -.6 2.3 -1.8c-.1 .3 -.3 .9 -.6 1.1c-.6 .6 -1 .7 -1.4 1c-1 .7 -1 1.5 -1.8 2.3c-.4 .4 -.9 .6 -1.3 .8c-1.3 .9 -1.1 2.1 -2.4 2.7c-.2 .1 -.4 .1 -.7 .2Z" class="g3_1"/>
<path d="M652.8 309.3c1.2 -1 1.4 -1.4 1.7 -2c.9 -1.5 1.5 -1.2 2.7 -2.3c.6 -.6 .8 -1.1 .5 -.3c-.5 1.2 -1.2 1.2 -2 1.8c-.9 .7 -.9 1.4 -1.6 2.1c-.3 .3 -.6 .4 -1.3 .7Z" class="g3_1"/>
<path d="M633.2 328.8c.8 -1 1.3 -.9 1.9 -1.9c.7 -1.1 .7 -1.3 2 -2c1.1 -.7 1.2 -1.3 1.7 -2.1c.5 -.6 1.4 -1.1 1.4 -1.1c.3 0 .7 -.2 1 -.4c-.8 1 -1.4 .8 -2.1 1.8c-.5 .7 -.6 1.4 -1.8 2.1c-1.2 .7 -1.2 .8 -1.9 1.9c-.8 1.3 -1.6 1.3 -2.2 1.7Z" class="g3_1"/>
<path d="M652.3 308.7c1.8 -1.5 1.3 -1.7 2.3 -2.7c.9 -.9 1.2 -.5 2.7 -2.3c-.4 1.2 -.4 1.3 -1.8 2.1c-.5 .3 -.8 .6 -1.2 1.2c-.8 1.3 -.9 1.3 -2 1.7Z" class="g3_1"/>
<path d="M632.3 328.6c.6 -1.1 1.1 -.9 1.8 -1.7c.7 -.6 .7 -1.3 1.5 -2c.7 -.5 1.4 -.6 2 -1.4c.6 -.8 .5 -1.3 1.7 -1.8c-.6 .5 -.9 1.3 -1.4 2c-.7 .9 -1.4 1 -2 1.5c-.8 .7 -.8 1.3 -1.5 2c-.8 .9 -1.4 .8 -2.1 1.4Z" class="g3_1"/>
<path d="M651.8 308.2c1.5 -1.2 1.3 -1.6 1.9 -2.4c.8 -1 1.3 -.8 2.5 -1.9c.2 -.2 .4 -.4 .6 -.7c-.4 .9 -.5 1.1 -1.1 1.6c-.5 .3 -.9 .4 -1.4 1c-.6 .6 -.7 1.2 -1.3 1.8c-.3 .3 -.6 .4 -1.2 .6Z" class="g3_1"/>
<path d="M631.5 328.3c.8 -1.5 1.6 -1 2.5 -2.4c.4 -.5 .6 -1.2 1.5 -1.8c.6 -.4 1.2 -.6 1.7 -1.4c.1 -.1 .5 -.7 .8 -.9c-.2 .4 -.3 .9 -.4 1.1c-.6 .9 -1.3 1.2 -1.9 1.5c-.8 .6 -1 1.2 -1.4 1.7c-.8 1.3 -1.9 1.3 -2.8 2.2Z" class="g3_1"/>
<path d="M651.2 307.7c1.5 -1.2 1.4 -1.7 2 -2.4c.7 -1 1.3 -.9 2.4 -1.9c.6 -.6 .8 -1.1 .5 -.3c-.6 1.4 -1.5 1.3 -2.3 2.1c-.7 .7 -.7 1.3 -1.5 2c-.2 .2 -1 .4 -1.1 .5Z" class="g3_1"/>
<path d="M630.8 328.1c.7 -1.7 1.5 -1.2 2.4 -2.4c.5 -.5 .6 -1.2 1.3 -1.8c.9 -.7 1.2 -.4 2.6 -2.1c-.5 1.3 -.5 1.2 -1.9 2.1c-.8 .5 -1 1 -1.4 1.6c-.5 1 -1.1 1.2 -1.7 1.5c-.4 .3 -.4 .4 -.6 .4c-.2 .2 -.4 .3 -.7 .7Z" class="g3_1"/>
<path d="M650.7 307.2c1.2 -1.1 1.3 -1.4 1.7 -2c.8 -1.5 1.5 -1.2 2.7 -2.3c.5 -.5 .8 -1.1 .4 -.3c-.6 1.5 -1.6 1.2 -2.6 2.4c-.3 .5 -.5 1.1 -1.2 1.7c-.1 .1 -.9 .4 -1 .5Z" class="g3_1"/>
<path d="M630.1 327.8c.1 -.2 .3 -.8 .5 -1c.7 -.7 1.2 -.8 1.8 -1.3c.6 -.6 .8 -1.2 1.3 -1.8c.7 -.9 1.8 -1.1 2.6 -2c-.7 1.9 -1.6 .8 -2.9 3.2c-1 1.6 -1.9 1.2 -3.3 2.9Z" class="g3_1"/>
<path d="M650.1 306.6c1.7 -1.3 1.4 -1.5 2 -2.3c.8 -1.2 1.5 -.7 3.1 -2.7c-.2 .3 -.2 .6 -.4 .9c-.6 1 -1.8 .9 -2.6 2.4c-.8 1.4 -1 1.3 -2.1 1.7Z" class="g3_1"/>
<path d="M629.4 327.5c.4 -.9 .3 -1 .8 -1.4c.7 -.6 1.2 -.7 1.8 -1.3c.9 -.9 .5 -1.7 2.8 -2.8c.6 -.2 .9 -.7 .6 -.2c-.9 1.2 -1.4 .8 -2.2 1.9c-.3 .6 -.6 1.2 -1.4 1.8c-1.1 .8 -.7 .1 -2.4 2Z" class="g3_1"/>
<path d="M649.6 306.1c1.6 -1.4 1.3 -1.5 1.9 -2.3c.8 -1.2 1.7 -.9 3.1 -2.6c-.1 .3 -.2 .5 -.4 .8c-.5 .9 -1.6 1 -2.3 2c-.3 .4 -.8 1.5 -1.5 1.8c-.3 .1 -.1 0 -.8 .3Z" class="g3_1"/>
<path d="M628.8 327.2c.3 -.7 .2 -.9 .7 -1.4c.6 -.7 1.2 -.8 1.7 -1.3c1.1 -.8 .9 -1.9 2.5 -2.7c.1 0 .5 -.1 .9 -.4c-.8 1 -1.4 .8 -2.1 2.2c-1.1 1.9 -2 1.5 -2.8 2.5c0 0 -.5 .7 -.9 1.1Z" class="g3_1"/>
<path d="M649 305.6c.4 -.3 1 -.9 1.3 -1.2c.6 -.8 .5 -1.4 2.1 -2.3c.7 -.4 1.1 -.8 1.6 -1.4c-.4 1.2 -.6 1.2 -1.8 1.9c-1.4 .9 -1.2 2.2 -2.5 2.8c-.3 .1 -.4 .1 -.7 .2Z" class="g3_1"/>
<path d="M628.1 326.8c.4 -.7 .2 -.7 .7 -1.4c.5 -.7 1.2 -.9 1.7 -1.2c1.4 -1 .9 -2.2 2.8 -2.9c.5 -.2 .7 -.3 .1 .2c-.1 .1 -.3 .2 -.4 .3c-.1 .1 -.4 .2 -.7 .7c-.4 .5 -.6 1.1 -1.2 1.7c-.8 .7 -1.5 .7 -2.2 1.8c0 0 -.5 .6 -.8 .8Z" class="g3_1"/>
<path d="M648.5 305.1c0 0 .9 -.8 1.2 -1.2c.5 -.6 .6 -1.2 1.4 -1.8c.7 -.6 1.4 -.7 2.4 -1.9c-.6 1.7 -1.1 1.3 -2.2 2.2c-.7 .6 -.8 1.1 -1.3 1.7c-.5 .7 -.7 .7 -1.5 1Z" class="g3_1"/>
<path d="M627.5 326.5c.4 -.7 .2 -.8 .6 -1.4c.7 -1 1.4 -1.1 2 -1.6c1.1 -.8 .9 -1.9 2.4 -2.5c.9 -.4 .3 -.2 -.6 .7c-.5 .7 -.6 1.1 -1.2 1.8c-.4 .4 -.8 .6 -1.2 .9c-1.3 .7 -1 1.2 -2 2.1Z" class="g3_1"/>
<path d="M647.9 304.6c.1 -.2 .3 -.3 .5 -.4c1.3 -1.2 1 -1.5 1.8 -2.3c.8 -.9 1.6 -.8 2.8 -2.2c-.5 1.3 -.8 1.2 -1.9 1.9c-.8 .5 -1 1.2 -1.4 1.7c-.6 1 -1.1 1 -1.8 1.3Z" class="g3_1"/>
<path d="M626.8 326c.5 -.7 .3 -.9 1 -1.7c.7 -.9 1.6 -.9 2.3 -1.8c.8 -1 .5 -1.5 2.1 -2.1c-.8 .7 -1.3 1.5 -1.5 1.9c-.8 1.3 -1.5 1.3 -2.3 1.9c-.7 .7 -.6 1.1 -1.6 1.8Z" class="g3_1"/>
<path d="M647.2 304.1c.1 0 1.1 -.9 1.2 -1c.7 -.6 .7 -1.5 1.9 -2.3c.4 -.3 1.3 -.7 2.1 -1.6c-.7 1.8 -1.6 1.4 -2.5 2.5c-.5 .6 -.5 1 -1.1 1.6c-.6 .6 -.7 .5 -1.6 .8Z" class="g3_1"/>
<path d="M626.2 325.6c.4 -.6 .4 -.7 .7 -1.3c.8 -1.4 1.6 -1.3 2.4 -2.1c.9 -.9 .6 -1.6 2.2 -2.2c-.5 .4 -.7 .7 -.7 .8c-.1 .1 -.2 .2 -.5 .6c-.8 1.5 -1.3 1.5 -2.1 2.1c-1 .6 -.9 1.3 -2 2.1Z" class="g3_1"/>
<path d="M646.6 303.6c.6 -.4 1.3 -.9 1.7 -1.5c.3 -.5 .5 -1.1 1.1 -1.6c.7 -.5 1.6 -.8 2.4 -1.8c-.6 1.6 -1.1 1.3 -2.1 2.1c-.7 .6 -.8 1.3 -1.4 1.9c-.6 .7 -.9 .6 -1.7 .9Z" class="g3_1"/>
<path d="M625.6 325.1c.4 -.5 .4 -.7 .7 -1.3c1.1 -1.8 2 -1.1 3.1 -3c.4 -.6 .6 -1 1.5 -1.3c-.8 .7 -1.1 1.7 -1.7 2.3c-.7 .8 -1.3 .8 -2 1.5c-.7 .7 -.5 1.1 -1.6 1.8Z" class="g3_1"/>
<path d="M647.1 302.3c.7 -.5 .8 -1.2 1.3 -1.8c.4 -.6 .9 -.8 1.5 -1.1c.4 -.3 .5 -.4 .6 -.5c.3 -.1 .5 -.4 .7 -.6c-.6 1.5 -1.3 1.2 -2.2 2.2c-.9 .8 -.7 1.8 -2.6 2.5c-.4 .1 -.9 .5 .7 -.7Z" class="g3_1"/>
<path d="M625.1 324.6c.5 -.7 .4 -1 1.1 -1.9c.5 -.6 .8 -.7 1.4 -1.1c1.6 -.9 1 -1.9 2.7 -2.6c-.4 .3 -.5 .5 -.9 1.1c-.7 1.1 -.5 1.2 -2 2.1c-1.5 .9 -.9 1.4 -2.3 2.4Z" class="g3_1"/>
<path d="M645.4 302.7c.5 -.6 1 -.8 1.4 -1.1c.6 -.6 .7 -1.2 1.3 -1.9c.7 -.8 1.7 -.9 2.6 -1.9c-.6 1.3 -1.2 1.2 -2 1.9c-.6 .5 -.7 .9 -1.1 1.4c-.8 1.3 -1.6 1.3 -2.2 1.6Z" class="g3_1"/>
<path d="M624.5 324.1c.1 -.1 .4 -.5 .5 -.9c0 -.1 .4 -.8 .8 -1.2c.7 -.7 1.4 -.8 2 -1.5c.8 -.8 .6 -1.5 2 -2.1c-.4 .4 -.8 1.1 -1.1 1.6c-1.1 2 -2.1 1.2 -3.1 3c-.2 .3 -.4 .6 -1.1 1.1Z" class="g3_1"/>
<path d="M644.7 302.3c.6 -.7 1 -.8 1.4 -1.1c.7 -.6 .8 -1.2 1.3 -1.9c.8 -.9 1.9 -1 2.7 -1.9c-.7 1.6 -1.7 1.1 -2.6 2.5c-.4 .6 -.6 1.2 -1.6 1.8c-.5 .4 -.6 .3 -1.2 .6Z" class="g3_1"/>
<path d="M624 323.5c.3 -.4 .4 -.5 .5 -.8c0 -.1 .5 -1.1 1.2 -1.6c.6 -.4 1.1 -.6 1.6 -1.1c.8 -.9 .6 -1.6 2 -2.1c-.4 .4 -.9 1 -1.1 1.5c-1.2 2.1 -2.1 1.2 -3.2 3.1c-.1 .2 -.2 .5 -1 1Z" class="g3_1"/>
<path d="M644 302c.7 -1.1 1.3 -.9 2 -1.9c.4 -.5 .6 -1 1.1 -1.5c.7 -.7 1.7 -1 2.4 -1.6c-.6 1.1 -1.1 1.1 -1.8 1.6c-.6 .4 -.7 .8 -1.1 1.4c-.8 1.4 -1.8 1.4 -2.6 2Z" class="g3_1"/>
<path d="M623.5 323c.5 -.7 .4 -1 1 -1.8c.9 -1.1 1.8 -.9 2.6 -2.2c.6 -.9 .6 -1.3 1.8 -1.8c-.8 .7 -1.3 1.8 -1.4 2c-.7 1.1 -1.5 1.2 -2.1 1.7c-1 .7 -.8 1.4 -1.9 2.1Z" class="g3_1"/>
<path d="M643.3 301.6c.5 -.9 .9 -.9 1.4 -1.3c1.1 -.6 1.1 -1.4 1.8 -2.1c.8 -.9 1.7 -1 2.3 -1.6c-.5 1 -1 .9 -1.7 1.5c-.8 .6 -.8 1.3 -1.4 1.9c-.7 .8 -1.8 1.1 -2.4 1.6Z" class="g3_1"/>
<path d="M623.1 322.4c.5 -.8 .3 -1 1 -1.8c.6 -.9 1.3 -.9 2 -1.5c.9 -.9 .8 -1.7 2 -2.3c.9 -.4 .3 -.2 -.5 .8c-.4 .5 -.5 .8 -.9 1.3c-.9 1.3 -1.7 .9 -2.7 2.5c-.3 .4 -.6 .7 -.9 1Z" class="g3_1"/>
<path d="M642.6 301.3c.4 -.9 .8 -1 1.4 -1.4c1.3 -.8 1.1 -1.4 2.1 -2.4c.8 -.8 1.4 -.8 2.1 -1.4c-.7 1.2 -1 .9 -1.8 1.6c-.8 .8 -.7 1.5 -1.8 2.3c-.5 .4 -1.5 .8 -2 1.3Z" class="g3_1"/>
<path d="M622.6 321.7c.4 -.6 .3 -.7 .6 -1.2c1 -1.6 2 -1.1 3.1 -2.9c.7 -1.3 1.1 -1.3 1.9 -1.6c-1.1 .9 -1.2 1.1 -1.6 1.8c-.7 1.1 -1 1.3 -1.9 1.8c-1.3 .7 -1 1.3 -2.1 2.1Z" class="g3_1"/>
<path d="M641.9 301c.4 -.8 .6 -1.1 1.3 -1.5c2.1 -1.2 1.3 -2 3 -3.1c.6 -.3 .8 -.2 1.3 -.6c-.5 .7 -1 .9 -1.1 1c-1.6 .9 -.8 1.8 -3 3.1c-.4 .2 -.5 .3 -.7 .4c-.2 .2 -.3 .2 -.8 .7Z" class="g3_1"/>
<path d="M622.2 321.1c.4 -.7 .3 -1.2 1.1 -1.9c.6 -.5 1.1 -.7 1.7 -1.2c.9 -.7 .9 -2 2.2 -2.4c1 -.4 1 -.5 .2 .2c-.6 .4 -.8 .6 -1.2 1.2c-.3 .6 -.6 1.2 -1.4 1.7c-.6 .4 -1.2 .5 -1.7 1.4c-.3 .4 -.7 .8 -.9 1Z" class="g3_1"/>
<path d="M641.2 300.8c.2 -.6 .3 -.9 .7 -1.2c.5 -.5 .9 -.7 1.4 -1c1 -.7 .9 -1.5 1.8 -2.3c.6 -.5 1 -.6 1.3 -.7c.5 -.2 .6 -.3 .4 -.1c-.2 .2 -.7 .6 -.8 .6c-1.3 .9 -1.1 1.2 -1.8 2.1c-.8 1.2 -1.4 .7 -3 2.6Z" class="g3_1"/>
<path d="M621.8 320.4c.4 -.7 .3 -1 .9 -1.7c1 -.9 1.6 -.6 2.5 -2.2c.9 -1.6 1.7 -1.5 2.5 -2c-.5 .6 -1 .9 -1.2 1c-.9 .7 -.9 1.4 -1.6 2.1c-.6 .6 -1.2 .8 -1.7 1.2c-.5 .5 -.9 1.1 -1.4 1.6Z" class="g3_1"/>
<path d="M640.5 300.6c.4 -.8 .2 -.9 .7 -1.4c.7 -.8 1.4 -.8 2 -1.5c.5 -.5 .6 -1.1 1.1 -1.7c.8 -.7 1.1 -.6 1.8 -1c-.4 .5 -1.1 .9 -1.5 1.3c-.5 .5 -.6 1.1 -1.1 1.7c-.7 .7 -1.5 .8 -2.1 1.6c0 0 -.7 .8 -.9 1Z" class="g3_1"/>
<path d="M621.4 319.6c.1 -.2 .4 -.9 .4 -1c.6 -.8 1.3 -1 1.8 -1.4c.9 -.6 1 -1.3 1.6 -2c.5 -.6 1.3 -1 1.4 -1c.3 -.1 .6 -.3 .9 -.5c-.8 1.2 -1.2 .8 -2 1.7c-.6 .7 -.7 1.5 -1.7 2.2c-.3 .2 -.6 .3 -.9 .5c-.6 .4 -1.2 1.2 -1.5 1.5Z" class="g3_1"/>
<path d="M639.6 300.5c.5 -.8 .3 -1.2 1.3 -2.1c1 -.8 1.4 -.5 2.4 -2.1c.8 -1.4 1.3 -1.3 2.1 -1.7c-.2 .2 -.5 .4 -.6 .6c-1.5 1.3 -1.1 1.7 -2.2 2.5c-.7 .6 -1.3 .7 -1.9 1.6c-.1 .1 -.5 .7 -1.1 1.2Z" class="g3_1"/>
<path d="M621.1 318.8c0 -.2 .3 -.8 .4 -1c.7 -.7 1.3 -.8 1.9 -1.3c.6 -.6 .7 -1.2 1.3 -1.8c.7 -.9 1.7 -1 2.6 -2.1c-.7 1.8 -1.7 1.2 -2.7 2.8c-.3 .5 -.5 1.1 -1.4 1.7c-.4 .2 -.7 .4 -1 .6c-.3 .2 -.3 .3 -.5 .4c-.2 .2 -.5 .6 -.6 .7Z" class="g3_1"/>
<path d="M638.6 300.4c.4 -.4 .4 -.5 .9 -1.4c.7 -1.2 1 -1.2 2 -1.8c1.2 -.8 1.2 -1.8 2 -2.4c.2 -.2 .9 -.5 1 -.5c-1.4 1.1 -1.3 1.7 -1.9 2.5c-.7 .8 -1.5 .9 -2.2 1.6c-.7 .8 -.5 1.4 -1.8 2Z" class="g3_1"/>
<path d="M620.7 318c.6 -1.5 1.2 -1.3 2.1 -2.1c.7 -.6 .8 -1.2 1.4 -1.8c.7 -.8 1.3 -.8 1.9 -1.4c.2 -.2 .7 -.8 1.1 -1.3c-.4 .9 -.2 1.3 -1.8 2.3c-.9 .5 -1.1 .7 -1.5 1.6c-1 1.6 -2.2 1.5 -3.2 2.7Z" class="g3_1"/>
<path d="M637.2 300.4c.2 -.2 .5 -.4 .7 -.6c1.5 -1.3 1.1 -1.9 2.4 -2.8c.6 -.4 1.2 -.5 1.7 -1.4c.4 -.7 .5 -1.2 1.6 -1.6c-.6 .5 -1.1 1.5 -1.3 1.8c-.6 .9 -1.2 1.2 -1.8 1.5c-.8 .6 -1 1.1 -1.4 1.7c-.6 1.1 -1.1 1.1 -1.9 1.4Z" class="g3_1"/>
<path d="M620.4 317.1c.5 -.9 1 -1.1 1.4 -1.3c.9 -.6 1.1 -1.2 1.5 -1.8c.6 -1 1.3 -1.1 1.9 -1.6c1.2 -.8 .7 -1.3 2.1 -2.2c-.7 .8 -.7 1.8 -1.8 2.5c-.7 .5 -1.3 .6 -1.9 1.5c-.4 .6 -.6 1.3 -1.6 1.9c-.9 .6 -1.1 .5 -1.6 1Z" class="g3_1"/>
<path d="M635.9 300.5c.8 -1.4 1.5 -.8 2.5 -2.5c.6 -1 .9 -1.2 1.8 -1.8c1.7 -.9 1.1 -1.7 2.5 -2.5c-.7 .9 -.6 1.9 -2.3 2.9c-.9 .5 -1.1 .7 -1.6 1.6c-1 1.7 -2.1 1.6 -2.9 2.3Z" class="g3_1"/>
<path d="M620.2 316.2c.7 -.9 1.2 -.9 1.9 -1.6c.5 -.7 .6 -1.4 1.6 -2c.6 -.5 1.3 -.6 1.8 -1.6c.6 -1 .6 -1.3 1.9 -1.7c-1.2 .9 -1.3 1.8 -1.9 2.4c-.7 .8 -1.4 .9 -2.1 1.6c-.6 .6 -.7 1.3 -1.5 2c-.8 .6 -1 .4 -1.7 .9Z" class="g3_1"/>
<path d="M634.9 300.8c.4 -1.1 .4 -1.2 1.7 -2c1 -.6 1.1 -1.1 1.6 -1.8c.6 -1 1.4 -1.2 2 -1.6c.8 -.7 .7 -1.2 1.7 -1.9c-.5 .7 -.4 1.6 -2 2.5c-1 .6 -1.2 .8 -1.7 1.8c-1 1.7 -1.7 1 -3.3 3Z" class="g3_1"/>
<path d="M620 315.4c.8 -.8 1.3 -.9 1.8 -1.8c.6 -.9 .7 -1.2 1.9 -1.9c1.1 -.7 1.2 -1.1 1.7 -1.9c.3 -.5 .8 -1 1.4 -1.2c.9 -.3 1.1 -.6 .1 .2c-.4 .4 -.8 .5 -1.2 1.2c-.5 .8 -.6 1.3 -1.8 2c-1.1 .6 -1.2 1 -1.7 1.8c-.8 1.3 -1.5 1.2 -2.2 1.6Z" class="g3_1"/>
<path d="M633.5 301.3c.4 -.5 .5 -.8 .7 -1.2c.8 -1.4 1.3 -1.4 2.1 -1.9c1 -.7 1 -1.4 1.7 -2.1c.5 -.7 1.2 -.9 1.7 -1.3c.6 -.5 .5 -.6 1.3 -1.5c-.3 .8 -.2 1.1 -1.1 1.8c-.7 .6 -1.4 .6 -2 1.8c-.7 1.1 -.8 1.2 -2 2c-1.5 .8 -1 1.6 -2.4 2.4Z" class="g3_1"/>
<path d="M619.9 314.6c1.6 -1.3 1.3 -1.5 2 -2.4c1 -1.3 1.7 -.7 2.8 -2.7c.6 -.9 .9 -1.1 1.8 -1.6c1.4 -.9 1 -1.4 2.2 -2.3c-.4 .5 -.4 .9 -.5 .9c-.7 1.7 -2 1.7 -2.7 2.6c-.5 .6 -.7 1.3 -1.5 1.9c-.4 .4 -.9 .6 -1.3 .9c-.9 .7 -1.1 1.9 -1.9 2.3c-.4 .2 -.5 .3 -.9 .4Z" class="g3_1"/>
<path d="M619.7 313.8c.6 -.5 1 -1.1 1.4 -1.7c.7 -1.2 1.4 -1.3 2.1 -1.9c.7 -.5 .9 -1.2 1.4 -1.8c.6 -.8 1.3 -.9 1.8 -1.4c.7 -.5 .9 -1.2 1.4 -1.8c.6 -.8 1.2 -.9 1.9 -1.4c.5 -.5 .7 -.9 1 -1.4c.7 -1.1 1.5 -1.3 2.2 -1.8c.7 -.6 .8 -1.4 1.4 -1.9c.5 -.6 1 -.7 1.4 -1.1c.9 -.5 1.1 -1.1 1.4 -1.7c.6 -.9 1.3 -1.1 1.9 -1.5c1.1 -.8 1.5 -1.8 1.1 -.8c-.6 1.4 -1.5 1.2 -2.4 2.2c-.4 .5 -.6 1 -1 1.5c-.7 .8 -1.3 .8 -2 1.5c-.6 .7 -.7 1.2 -1.2 1.7c-.7 .8 -1.3 .8 -2 1.5c-.7 .7 -.7 1.4 -1.6 2.1c-.7 .5 -1.2 .6 -1.8 1.3c-.4 .5 -.6 1 -1.1 1.6c-.6 .6 -1.1 .8 -1.6 1.1c-1 .8 -.9 1.7 -2 2.4c-.7 .6 -1.3 .6 -2 1.7c-.5 .9 -.6 1.2 -1.7 1.6Z" class="g3_1"/>
<path d="M619.6 313c.7 -.7 .8 -1.7 1.9 -2.5c.9 -.7 1.3 -.5 2.2 -2.1c.5 -.8 .9 -1.1 1.6 -1.5c1.5 -.9 1.3 -1.6 2.2 -2.5c.7 -.7 1.3 -.7 1.9 -1.4c.4 -.4 .5 -.7 .8 -1.1c.5 -.9 1.1 -1.1 1.7 -1.5c1.2 -.7 1.1 -1.5 2 -2.4c.8 -.8 1.6 -.7 2.3 -1.9c.4 -.6 .6 -1.2 1.5 -1.7c.3 -.2 1.3 -.7 1.8 -1.3c-.6 1.3 -1.2 1.2 -2 1.8c-.7 .6 -.8 1.2 -1.3 1.8c-.7 1 -1.6 .9 -2.4 1.9c-.6 .9 -.5 1.4 -2.1 2.3c-1.4 .8 -1.2 1.5 -2.1 2.4c-.6 .7 -1.1 .7 -1.8 1.4c-.8 .7 -.8 1.5 -1.9 2.2c-.5 .4 -1 .5 -1.4 1c-.4 .5 -.6 1 -1 1.5c-.7 .9 -1.4 1 -2.1 1.6c-.8 .9 -.6 1.4 -1.8 2Z" class="g3_1"/>
<path d="M619.6 312c.6 -1 .1 -1.3 2.2 -2.6c1.6 -.9 1 -1.9 2.9 -3c1.9 -1.1 1.3 -2 2.9 -3c.5 -.3 .7 -.4 1.2 -.9c.6 -.6 .6 -1 1.1 -1.5c.7 -1 1.6 -1 2.3 -1.9c.5 -.6 .6 -1.3 1.6 -2c.6 -.4 1.1 -.6 1.6 -1.2c.5 -.6 .7 -1.4 1.7 -2c.7 -.5 .9 -.4 1.3 -.7q.2 -.2 .1 0c-.7 1 -1.4 .8 -2.1 1.8c-.3 .5 -.4 .9 -.9 1.4c-.7 .7 -1.2 .7 -1.8 1.3c-.8 .7 -.7 1.3 -1.7 2.2c-.6 .5 -.9 .5 -1.5 1c-.8 .7 -.7 1.1 -1.4 1.9c-.7 .7 -1.3 .8 -1.9 1.4c-.6 .6 -.7 1.2 -1.2 1.7c-.7 .8 -1.4 .8 -2.1 1.6c-.5 .5 -.6 1.1 -1.2 1.7c-.6 .6 -1.1 .7 -1.8 1.2c-.5 .5 -.6 1 -1.3 1.6Z" class="g3_1"/>
<path d="M619.6 310.7c.6 -1.7 1.2 -1.3 2.2 -2.2c1 -.9 .6 -1.7 2.4 -2.7c1.7 -.9 1.3 -1.6 2.3 -2.6c.7 -.6 1.3 -.6 2 -1.4c.4 -.5 .4 -.8 .8 -1.3c.6 -.8 1.3 -.9 1.9 -1.5c.7 -.5 .8 -1 1.2 -1.5c.7 -1.1 1.4 -1.1 2.2 -1.8c.5 -.5 .6 -.8 .9 -1.2c.7 -1.2 1.3 -1.2 1.9 -1.5c-.9 .9 -1.2 .9 -1.6 1.6c-.3 .5 -.4 .8 -.9 1.3c-1 .9 -1.6 .7 -2.4 2.1c-1.4 2.4 -2 1.2 -3.3 3.4c-1.1 1.8 -2 1.3 -2.9 2.7c-.3 .4 -.4 .8 -.8 1.3c-.6 .5 -.9 .6 -1.4 1c-1.5 .9 -1 1.9 -2.7 2.9c-.7 .4 -1.3 .7 -1.8 1.4Z" class="g3_1"/>
<path d="M619.6 309.3c.7 -.9 1.1 -.8 1.7 -1.4c1 -.9 .5 -1.5 2.4 -2.6c1.3 -.8 1.3 -1.4 1.9 -2.1c.9 -1.3 1.8 -1 2.7 -2.4c.3 -.6 .6 -1.2 1.5 -1.7c1.2 -.8 1.1 -.7 1.9 -2c.8 -1.3 1.6 -1.1 2.5 -2.1c.7 -.8 .6 -1.3 1.7 -1.9c-.6 .6 -.9 1.8 -1.7 2.4c-.7 .6 -1.2 .6 -1.9 1.4c-.4 .5 -.5 1.1 -1.1 1.7c-.6 .6 -1.2 .7 -1.8 1.2c-1 1 -.5 1.6 -2.4 2.7c-1.3 .7 -1.3 1.4 -1.9 2.1c-.9 1.2 -1.8 .9 -2.7 2.4c-1.2 2 -1.8 1.7 -2.8 2.3Z" class="g3_1"/>
<path d="M619.8 308.3c.3 -.3 1.1 -1 1.4 -1.4c.4 -.6 .6 -1.3 1.8 -2c1 -.7 1.1 -.7 1.8 -1.8c.9 -1.7 2 -1.3 2.9 -2.7c.5 -.9 .6 -1.3 1.9 -2c1.7 -1 1.2 -1.9 2.7 -2.9c.6 -.4 1 -.5 1.6 -1.2c.1 -.3 .6 -.8 .8 -1c-.3 .7 -.2 .8 -.6 1.2c-.7 1 -1.4 1 -2.1 1.7c-.5 .5 -.7 1.1 -1.1 1.6c-.6 .7 -1.2 .9 -1.7 1.2c-.9 .7 -1 1.4 -1.6 2.1c-.6 .7 -1.2 .8 -1.7 1.2c-.6 .5 -.8 1 -1.1 1.6c-.7 1 -1.5 1.1 -2.2 1.7c-.8 .6 -.8 1.3 -1.6 2.1c-.3 .3 -.3 .2 -1.2 .6Z" class="g3_1"/>
<path d="M619.9 307.3c.8 -.6 1.1 -1.8 1.9 -2.5c.6 -.6 1.3 -.7 1.9 -1.4c.5 -.7 .6 -1.4 1.6 -2c.6 -.5 1.2 -.6 1.8 -1.5c.4 -.7 .6 -1.3 1.7 -1.9c.9 -.5 1.1 -.7 1.7 -1.6c1.1 -2 2 -1.4 3.2 -2.9c-.6 1.5 -1.3 1.2 -2.2 2.1c-.7 .6 -.7 1.3 -1.5 2c-.6 .6 -1.3 .7 -1.9 1.5c-.5 .6 -.6 1.3 -1.6 1.9c-.6 .5 -1.2 .6 -1.8 1.5c-.4 .6 -.6 1.3 -1.7 1.9c-.8 .5 -1.1 .7 -1.7 1.6c-.3 .5 -.5 .9 -1.4 1.3Z" class="g3_1"/>
<path d="M620.3 305.9c.4 -.9 .2 -.9 .8 -1.5c.6 -.6 1.2 -.7 1.8 -1.2c.6 -.6 .7 -1.2 1.2 -1.8c.6 -.7 1.2 -.8 1.8 -1.3c.7 -.5 .8 -1.1 1.3 -1.7c.5 -.8 1.2 -1 1.7 -1.4c.8 -.5 1 -1 1.3 -1.6c.8 -1.2 1.6 -1.2 2.3 -1.6c-.3 .3 -.8 .7 -.9 .8c-1.2 .7 -1.2 1.6 -2 2.4c-.6 .6 -1.2 .7 -1.8 1.2c-.6 .6 -.7 1.2 -1.2 1.8c-.7 .7 -1.3 .8 -1.8 1.3c-.7 .5 -.8 1.1 -1.3 1.7c-.6 .8 -1.2 1 -1.8 1.4c-.5 .3 -1 1.1 -1.4 1.5Z" class="g3_1"/>
<path d="M621.2 303.6c.1 -.1 1.2 -1 1.3 -1.1c.5 -.5 .6 -1.2 1.2 -1.8c.7 -.7 1.4 -.8 2 -1.4c.6 -.7 .6 -1.4 1.7 -2.2c.5 -.3 .8 -.4 1.3 -.8c.4 -.4 .7 -1 1.3 -1.5c-.4 .6 -.3 1.1 -1.1 1.8c-.5 .4 -.8 .5 -1.3 .8c-1.1 .9 -.9 1.9 -2.3 2.7c-.4 .3 -.9 .5 -1.3 .9c-.6 .6 -1 1.9 -2 2.3c-.4 .2 -.6 .2 -.8 .3Z" class="g3_1"/>
<path d="M621.8 302.4c.5 -.6 .7 -1.4 1.4 -2.2c.6 -.7 1.3 -.8 1.9 -1.4c.6 -.7 .7 -1.3 1.5 -2c.7 -.6 1.5 -.8 2.1 -1.4c-.4 .9 -.9 1.1 -1.3 1.3c-1 .6 -1.2 1.2 -1.6 1.8c-.6 1 -1.3 1.2 -1.9 1.6c-1.1 .8 -.9 1.5 -2.1 2.3Z" class="g3_1"/>
</svg>